<?xml version="1.0" encoding="utf-8"?>
<!-- Generator: Adobe Illustrator 22.0.1, SVG Export Plug-In . SVG Version: 6.00 Build 0)  -->
<svg version="1.1" id="Layer_1" xmlns="http://www.w3.org/2000/svg" xmlns:xlink="http://www.w3.org/1999/xlink" x="0px" y="0px"
	 width="720px" height="720px" viewBox="0 0 720 720" style="enable-background:new 0 0 720 720;" xml:space="preserve">
<style type="text/css">
	.st0{fill:#FFFFFF;}
	.st1{fill:#97233F;}
	.st2{fill:#FFB612;}
</style>
<g>
	<path class="st0" d="M476.5190125,671.7123413c-1.2481079-1.2622681-110.3130188-110.6121216-210.6121826-126.2624512
		l-10.0983124-1.5756226l-1.0057068-10.1705322c-2.5890503-26.1792908-17.9208984-44.0847168-37.3310242-66.7530518
		c-24.2233124-28.2900085-54.2030182-63.3040161-63.0261536-125.5842896
		c-14.6504211-12.0226746-60.8406754-53.463562-87.0090103-117.3954926l-10.6121254-25.9259338l7.6601219,2.3808136
		c-11.3502884-15.2016296-22.5000839-32.9890747-30.9750862-50.9983063l-13.1296177-27.8992996l17.9885921,5.9961929
		c-11.301939-21.7374191-18.9691544-45.1619797-22.0713692-62.5819626L11.142251,36l25.0588341,15.372467
		c135.8134613,83.3162689,221.7342529,96.5954437,297.5405884,108.3119202
		c57.7565308,8.9269257,112.3108826,17.3587341,179.2044983,54.1005249
		c99.6190186,54.846405,123.5703125,128.3731689,132.3482666,187.4893188
		c14.210144,14.2152405,64.9364014,70.4290466,63.5348511,147.1553345l-0.2578735,14.1379395l-14.0876465-1.2249146
		c-7.1340332-0.6201782-14.244873-0.9348145-21.1339722-0.9348145c-74.8232422,0-134.045105,36.562561-176.0191345,108.6729736
		L488.6454773,684L476.5190125,671.7123413z"/>
	<path d="M632.8648071,407.631134c-7.140564-51.8632813-25.9315796-127.0274353-126.2757568-182.2730865
		c-152.583252-83.8080292-237.1429138-15.4086456-477.2924194-162.7304077
		c4.8856678,27.4349213,20.670145,65.7686386,40.9644623,89.4453506l-24.8041687-8.2680664
		c18.039402,38.333725,46.9776077,72.533432,62.010437,83.8080444l-27.8107376-8.6438751
		c29.6898422,72.533432,87.1904297,115.3769989,87.1904297,115.3769989
		c13.153717,110.867157,94.3309937,129.6582031,101.0957947,198.0575867
		c105.9814758,16.5360718,217.9760742,130.0339355,217.9760742,130.0339355
		c58.6280212-100.7199707,140.5569763-120.2626343,209.7079773-114.2495117
		C697.130188,465.8833618,632.8648071,407.631134,632.8648071,407.631134z"/>
	<path class="st1" d="M611.4430542,388.4642944c-7.5164185-35.327179-12.4020996-91.3244629-117.6319275-149.2008667
		c-110.4913025-60.5071411-245.410965-21.0459595-417.9127197-128.1549072
		c16.9119339,51.1116257,124.0208588,110.8671494,124.0208588,110.8671494l-94.3310165-30.8173218
		c24.0525284,41.7161102,122.5175705,93.9552002,122.5175705,93.9552002l-87.9420624-28.5623779
		c36.0787964,60.8829651,118.7593689,101.8474426,118.7593689,101.8474426l-50.7357941-3.7582092
		c6.7647705,57.1247559,85.3112946,105.9814453,89.4453583,149.9525146
		c35.7029724,13.5295105,81.5531006,37.2062683,117.256073,68.0235291
		c68.3993835-33.4480591,49.6083374-147.3217163-80.8014526-308.9246521
		C513.3538208,274.5905762,508.4681396,407.631134,611.4430542,388.4642944z"/>
	<path class="st0" d="M559.9556274,405.3762207c-22.9251099,37.2062683-62.010437,26.6832581-75.915802-19.5426636
		l28.186554,1.8790894c-24.8041687-14.6570129-46.9776001-36.4545898-64.2653503-57.8764038
		c-5.2614746,102.2232666,90.9486389,148.0733948,122.8934021,76.2915955
		C567.0961914,406.1278381,563.3380127,405.7520447,559.9556274,405.3762207z"/>
	<path class="st2" d="M682.848999,526.7663574c-25.1799927-25.1799927-77.7948608-50.7358093-142.0602417-58.2522278
		c27.059082-7.5164185,58.2521973-24.4283447,71.0300903-50.3599854
		C638.8779907,435.4418945,676.8358765,484.674408,682.848999,526.7663574z M536.6546631,492.9424744
		c0,0,19.1669312,32.6963806,8.6439209,68.775238c41.7161255-23.3009033,95.4584351-34.5755005,134.5438232-26.6832886
		c-23.3008423-20.2943115-79.2981567-44.3468628-132.6647339-42.8435669
		C543.7952881,492.1908264,540.0371094,492.5666504,536.6546631,492.9424744z"/>
</g>
</svg>
