<?xml version="1.0" encoding="utf-8"?>
<!-- Generator: Adobe Illustrator 22.0.1, SVG Export Plug-In . SVG Version: 6.00 Build 0)  -->
<svg version="1.1" id="Layer_1" xmlns="http://www.w3.org/2000/svg" xmlns:xlink="http://www.w3.org/1999/xlink" x="0px" y="0px"
	 width="720px" height="720px" viewBox="0 0 720 720" style="enable-background:new 0 0 720 720;" xml:space="preserve">
<style type="text/css">
	.st0{fill:#A5ACAF;}
	.st1{fill:#FFFFFF;}
	.st2{fill:#A71930;}
</style>
<g>
	<path class="st0" d="M643.7980347,184.3289642C556.555542,129.2423248,356.5040588,87.0707397,207.3220825,52.5427551
		L36,236.779892l147.3369904-3.1628723c-73.2731323,118.3440399-58.2494965,396.9401245,127.0419159,433.840271
		c-9.4886169-18.1865234-26.093689-51.9237671-4.7443237-93.5682373
		c15.2872009-29.5200806,100.421051-192.1442871,100.421051-192.1442871h20.2950745
		c27.6751099,0,36.6365662,10.2793274,24.5122375,25.0393982c73.5367126-1.0542908,118.6075745-28.7294006,138.9026794-58.513092
		c-15.2872314-28.20224-64.5752563-61.412384-84.3431702-74.8545532h102.7932434
		c29.5200806,0,36.109375,12.3878784,29.2565308,25.8301086
		C685.178894,289.7579346,709.6911011,225.9734039,643.7980347,184.3289642z"/>
	<path class="st1" d="M631.9372559,190.1275482L631.9372559,190.1275482
		C513.06604,123.1801682,218.6556854,78.8999939,218.6556854,78.8999939L92.6680679,213.8490753h130.7319336
		c-96.7310791,127.569046-75.1181488,385.0793457,66.6838379,438.8481445
		c-10.0157776-23.9851074-15.2872314-51.6602173,2.899292-86.9789429
		c20.5586548-39.7994385,52.9780579-107.0104065,99.8939514-196.3614502h38.2179871
		c31.6286926,0,41.6444702,13.4421997,37.4272766,23.7215271c26.0936584,0,73.5366821-2.6357117,108.0646973-44.5437317
		c-28.7293701-40.0630188-123.8790283-86.9789124-123.8790283-86.9789124H615.859314
		c23.9851074,0,35.8458862,8.4343262,32.6829834,22.9307861
		C690.1867676,263.9278259,679.3803101,216.4848022,631.9372559,190.1275482z"/>
	<path d="M627.1929321,198.8254547C527.0354004,144.0023804,210.4849396,97.6136398,210.4849396,97.6136398l0,0
		l11.5971832,14.4964828l-73.5366974,79.0717316l258.3009644,19.7679291
		c-0.5271301,1.0542908-1.0542603,1.8450012-1.3178406,2.899292H231.8343048l13.4421844,12.651474
		c-11.0700378,15.5507813-20.2950592,32.1558228-28.20224,49.5516052l144.9648438-29.5200958
		c-0.790741,1.0542908-1.5814514,2.3721466-2.3721619,3.4264526l-172.6399384,57.7223358l15.2872009,8.6979065
		c-7.1164551,23.7215271-11.8607483,48.2337646-13.9693298,72.7460022l146.8098297-89.0874939
		c-0.5271301,1.3178711-0.7907104,2.6357422-1.3178406,3.9535828L172.0033722,431.8234863l15.0236206,3.6900024
		c0.7907257,27.6750793,4.7443085,54.8230591,11.5971985,79.8624268l131.7862091-155.2441406
		c0.2635803,1.3178406,0.5271606,2.3721619,0.790741,3.6900024L200.7327881,555.4389038l12.3878937,0.7907715
		c15.0236206,34.0007935,36.6365662,61.9395142,64.048111,79.3352661
		c-10.5429077-23.4578857-7.1164551-51.6601563,5.0078735-76.699585
		c10.5429077-21.612915,148.918457-297.3096924,148.918457-297.3096924l-23.194397-12.3878784H622.975769
		c22.1400757,0,34.2644653,9.2250366,34.0008545,21.612915
		C670.1552734,258.9199524,673.0545654,224.1284027,627.1929321,198.8254547z M628.5108032,222.8105316h-17.6593628
		c-7.1164551-11.5971832-27.411499-28.20224-27.411499-28.20224
		C594.2463989,198.2983093,619.0222168,212.0040741,628.5108032,222.8105316z M657.5037842,255.4935303
		c-1.8450317-5.2714539-10.0158081-14.7600555-29.7836914-14.7600555H578.168457
		c0.5270996-1.0542908,1.0542603-1.8450012,1.3178711-2.899292c9.4885864-0.7907257,42.6987305-3.6900177,61.4123535-7.1164551
		l-2.6357422-12.1243286C657.767334,228.6091309,660.1394653,248.3770599,657.5037842,255.4935303z M564.4627075,348.2709961
		c-10.8065186,14.2329407-27.1480103,24.2486572-49.2880249,29.2565308
		c13.9692993-10.8064575,16.8685913-21.0857849,8.1707153-21.0857849h-31.101532
		c-5.2714539,5.2714539-8.1707764,14.7600708-1.0542908,24.2486572
		c-12.1243286-2.6357117-23.7214966-12.6514893-24.5122375-24.2486572h-65.8930969
		c8.6979065-17.6593323,34.2644043-68.0016785,41.3808594-81.9710083l-2.8993225-8.9614563l0,0
		C439.0022278,265.7728577,544.1676025,317.1694641,564.4627075,348.2709961z"/>
	<path class="st2" d="M560.2455444,204.6240387c-0.5270996,1.3178558-1.3178711,2.3721619-1.8449707,3.6900177
		l-342.644165-47.4430389l21.0858002-22.6672211C352.0233459,156.1267242,490.1352844,184.3289642,560.2455444,204.6240387z
		 M319.0767822,285.2771912l-101.7389374,36.6365662c-2.3721619,8.4343262-4.2171631,16.8686523-5.7985992,25.5665283
		l105.6925354-57.7223816C317.7589417,288.1765137,318.2860718,286.5950623,319.0767822,285.2771912z M305.1074524,353.0153198
		l-98.3125305,83.5524597c0.7907257,9.2250366,1.5814362,18.4500732,3.1628571,27.4115295l95.4132233-106.4832764
		C305.1074524,355.9146118,305.1074524,354.5967407,305.1074524,353.0153198z M236.5786133,548.5860596
		c4.4807281,8.4343262,9.4886017,16.6051025,14.7600555,23.7214966L324.3482361,422.86203
		c-0.7907104-1.3178711-1.3178711-2.3721313-2.1085815-3.6900024L236.5786133,548.5860596z M245.8036499,252.8578033
		l103.3203735-18.4500732c0.790741-1.3178558,1.8450012-2.3721619,2.6357422-3.4264526l-93.0410767,2.1085968
		C254.2379608,239.1520233,249.7572327,246.0049133,245.8036499,252.8578033z M424.242157,345.6352844h80.6531982
		c0.5271301-1.3178711,1.0542603-2.3721619,1.8450012-3.4264526l-74.8545532-11.0700378L424.242157,345.6352844z"/>
</g>
</svg>
