<?xml version="1.0" encoding="utf-8"?>
<!-- Generator: Adobe Illustrator 22.0.1, SVG Export Plug-In . SVG Version: 6.00 Build 0)  -->
<svg version="1.1" id="Layer_1" xmlns="http://www.w3.org/2000/svg" xmlns:xlink="http://www.w3.org/1999/xlink" x="0px" y="0px"
	 width="720px" height="720px" viewBox="0 0 720 720" style="enable-background:new 0 0 720 720;" xml:space="preserve">
<style type="text/css">
	.st0{fill:#FFFFFF;}
	.st1{fill:#9A7611;}
	.st2{fill:#C8102E;}
	.st3{fill:#24135F;}
</style>
<g>
	<path class="st0" d="M683.1000977,396.1980286c-2.7000122-15.9749451-13.0499878-39.375-48.375-60.5249329
		c-2.4750977-1.3500671-4.9500732-2.9251099-7.4249878-4.2750549c6.5249023-2.25,13.5-4.5,13.5-4.5l-39.1500244-15.2999573
		c-3.375061-1.3500977-6.750061-2.4750977-10.3499756-3.6000977c2.4749146-2.6998901,5.3999023-5.3999023,5.3999023-5.3999023
		l-29.9249268-4.2750549c-13.0499878-1.7999878-23.1749878-2.25-31.0499878-2.0249329
		c0-1.3500671-0.2250977-2.4750671-0.2250977-3.375l-4.9500122-37.5750275c0,0-11.6998901,15.7500153-12.8248901,17.3250275
		c-2.4750977-4.0501099-5.1751099-7.875-8.5501099-11.7000122l-32.3999329-36.6749878c0,0,1.3499451,10.7999725,2.25,19.3499451
		c-10.5750122-7.4249725-22.0499573-13.9500275-34.875-19.3499451c-51.9750977-22.2750549-117.9000549-27-180.6749573-12.8250275
		c-52.4251251,11.9249725-128.2500153,42.9749451-191.0250702,123.0750275L36,381.1231384l54.6749725-21.8250427
		c0.4500275-0.2250671,42.5250549-16.6500549,76.7250824-21.375c12.5999451-1.7999573,22.5-2.0250549,14.625,15.5249329
		c-6.3001099,13.7250671-20.25,33.75-20.4750824,33.9750671l-27.4500275,39.8250427l45.6751099-15.75
		c22.0499725-7.6500549,41.625-11.4750977,51.5249176-11.7000427c3.6000824,0,4.2750549,2.4749451,3.1500549,4.9500427
		c-0.2250824,0.8999023-0.4500275,1.3499451-2.9249725,5.1749573l-28.5750275,40.9500427l47.0249176-16.875
		c33.9750977-12.1500549,78.9750977-20.25,94.9500427-14.1751099c1.3500671,0.4500122,5.6249695,2.7000122,1.3500671,9
		l-18.4500122,29.25c0,0,27.2250671-4.0499878,31.0499573-4.7249451c2.25,26.7750549,15.5250549,41.4000549,17.3250427,42.9749451
		L396,516.572998l6.9750671-27.4498596c4.9500427-19.8001099,14.3999329-30.6000977,22.7249756-36.4500427l1.5750122,11.25
		l18.2250671-6.5250549c15.5249329-5.625,27.6749878-12.375,36.4499207-19.7999573
		c11.7000122-0.9000549,40.0500793-2.7000427,67.2750549,0c47.0249023,4.7249451,78.5250244-1.5750427,87.0750122-3.5999451
		c11.4749146-2.7000427,21.1499023,2.25,21.1499023,2.25l13.9500122,7.6499023l7.4249878-14.1749573
		C679.7250977,427.9230957,684,419.1480408,684,406.0980835C684,402.7230835,683.7750244,399.3480835,683.1000977,396.1980286z"/>
	<path class="st1" d="M676.5750122,398.8980408c-2.25-14.1749573-11.9249878-35.0999451-44.3250122-54.4500122
		c-8.7749023-5.1749878-18-9.6749878-27.6749878-13.2749329l11.4750977-3.8250122l-15.75-6.0750427
		c-7.875-3.1500549-15.9750977-5.625-24.5250244-7.6500549c1.5750122-1.5748901,3.374939-3.375,3.374939-3.375
		l-12.1499023-1.7999573c-18.6751099-2.7000427-31.5-2.25-39.1500244-1.5750427c0-1.5748901,0-3.375,0-5.1749573
		c0-2.4749451,0-4.7249451-0.2249756-6.75l-2.0250244-15.0750427c0,0-7.4249878,10.125-8.3250122,11.4750977
		c-2.4749756-6.75-6.5249634-15.0750427-13.7249756-23.4000549l-13.0499878-14.8499603l1.5748901,12.3750153
		c-11.6998901-10.7999878-28.125-22.5000153-50.3999023-31.9500427c-50.625-21.5999451-114.75-26.0999451-175.9500122-12.375
		c-51.3001251,11.4749451-125.3250427,41.8499451-186.9750977,120.375l-15.5250549,19.7999878L86.625,352.0980835
		c0.4500275-0.2249451,43.875-17.3250427,79.2000275-22.0499878c13.9500275-1.7999573,23.3999176-0.2250671,27,4.7249451
		c3.375,4.5,2.25,13.5-2.9249725,24.0750427c-6.9750824,13.9500122-21.1500549,34.6500549-21.1500549,34.875l-11.7000275,17.0999451
		l19.5750275-6.75c25.6500549-9,58.0499725-15.5249329,65.7000275-10.5748901
		c1.7999725,1.125,2.7000275,2.4749451,3.1499176,4.2749023c1.125,6.2999878-4.2749176,15.75-6.0748901,18.6749878
		L227.25,433.9981384l20.0250549-7.2000427c32.1749878-11.4749451,89.5499573-24.75,107.3250122-11.0250549
		c8.3248901,6.3001099,0.4499207,18.6751099,0.2249451,19.3500977l-7.8749695,12.5999451l14.625-2.25
		c0,0,3.6000671-0.6749878,7.2000122-1.125c0,1.125-0.2250671,2.25-0.2250671,3.375
		c0,28.3499451,14.4000549,43.4249573,15.0750122,44.1000671l8.5499573,8.5499878l2.9251099-11.7000427
		c8.3249207-33.0750122,28.125-44.5499573,38.9249878-48.375c0.2249451,2.25,1.7999573,12.8250427,1.7999573,12.8250427
		l7.875-2.9249878c19.125-6.9750671,29.9249878-14.625,36.0000305-20.25
		c8.7750244-0.6751099,41.1749573-3.1500549,72.4500427-0.2250671c45.8999023,4.5,76.2750244-1.5750427,84.5999146-3.375
		c15.2999878-3.5999451,27.4500122,2.9249573,27.6749878,2.9249573l6.0750122,3.375l3.1500854-6.0748901
		c0.2249146-0.4500122,4.0499268-8.1000671,4.0499268-19.5750122
		C677.25,404.5230408,677.0250244,401.8230286,676.5750122,398.8980408z"/>
	<path d="M628.2000122,351.1980286c-13.5-9.6749878-31.7249146-16.6499329-49.5-21.5999451
		c7.4249878-2.4749451,14.8500977-2.25,14.8500977-2.25c-11.4750977-4.2750549-23.1751099-6.9749451-34.2000122-8.7750549
		l4.0499268-3.5999451c-20.25-3.375-34.2000122-3.1500549-42.75-2.25c1.125-4.0499878,1.7999878-10.3499451,0.9000854-18.9000549
		c0,0-2.4750977,7.2000122-8.3250122,11.7000122c-0.9000854-9.4500122-3.8250427-23.1749573-13.9500427-32.3999023
		l1.7999573,16.6499023c-9-13.5-26.0999451-31.0499573-58.7249146-46.125
		c-88.2000427-41.1749725-243.6751251-25.4249725-329.1751099,84.8250427
		c0.9000549-0.4500427,33.9750824-16.6500549,79.2000275-17.5499878
		c24.0750275-0.6749573,29.9249725,12.8250427,21.1500549,35.5499878c-8.5501099,22.2750549-23.625,41.8499451-24.3001099,42.75
		c1.8001099-0.6749878,103.7250977-36.4500427,71.1000671,14.4000549c0,0,78.5250549-23.625,102.1500854,4.0499573
		c11.0249023,12.8250427-1.8001099,30.5999451-1.8001099,30.5999451l22.2750549-4.7249451
		c-7.2000427,28.3499451,5.3999023,46.3499451,5.3999023,46.3499451c9.2250977-37.125,41.1751099-46.7999573,52.6500549-48.8250122
		l2.4749451,10.125c19.125-6.9749451,27.9000549-14.1749878,33.0750122-20.25
		c40.2750549-6.2999878,67.7250671-0.8999329,98.7750549,0.6751099c45.2249756,2.4749451,68.625-5.4000549,76.0499878-5.4000549
		c5.3999023,0,11.9249878,4.7249451,11.9249878,4.7249451s3.1499023-5.3999329,3.1499023-14.1749878
		C666.6749878,394.1730957,660.1500244,373.9230957,628.2000122,351.1980286z"/>
	<path class="st2" d="M470.7000122,312.0480957c-2.0250549-5.1751099-7.2000122-8.3250122-13.0499573-8.5501099
		c-1.8001099,0-3.8250427,0.2250977-5.8500671,0.9000549c-7.6499329,2.4749451-11.4749451,9.9000549-8.5499878,16.4249878
		c2.7000427,6.75,11.25,10.125,18.8999023,7.6500549C469.7999573,325.9981384,473.625,318.5730286,470.7000122,312.0480957z
		 M447.5250549,320.1480408c-2.0250549-4.9500122,0.8999023-10.5750122,6.75-12.5999451
		c1.3499451-0.4500122,2.9249573-0.6749573,4.2749329-0.6749573c2.25,0,4.4999695,0.6749573,6.2999573,1.7999573
		c-2.25-0.4500122-4.5-0.4500122-6.75,0.4500427c-5.8499451,1.7999573-9,7.4249573-6.75,12.5999451
		c0.6751099,1.7999573,2.25,3.375,3.8250122,4.5C451.5750122,325.3230286,448.6500549,323.0730286,447.5250549,320.1480408z
		 M465.2999878,325.7730408c-4.2749329,1.5750427-8.7749329-0.4500122-10.3499451-4.5
		c-1.5750427-4.0499573,0.6749573-8.5499573,4.9500122-9.9000549c1.125-0.4498901,2.25-0.4498901,3.1499023-0.4498901
		c3.1500549,0,6.0750427,2.0249329,7.2000427,4.9498901C471.6000671,319.9230957,469.3500977,324.1980286,465.2999878,325.7730408z"
		/>
	<path class="st0" d="M447.5250549,320.1480408c-2.0250549-4.9500122,0.8999023-10.5750122,6.75-12.5999451
		c1.3499451-0.4500122,2.9249573-0.6751099,4.2749329-0.6751099c2.25,0,4.4999695,0.6751099,6.2999573,1.8001099
		c-2.25-0.4500122-4.5-0.4500122-6.75,0.4498901c-5.8499451,1.8001099-9,7.4251099-6.75,12.6000977
		c0.6751099,1.7999573,2.25,3.375,3.8250122,4.5C451.5750122,325.3230286,448.6500549,323.0730286,447.5250549,320.1480408z
		 M620.5499878,358.8480835c-36.2249756-24.0750427-91.5750732-28.125-91.5750732-28.125l13.9500732,11.25l-26.0999756-2.25
		l20.7000732,14.8499451c-13.1394043-4.3080139-39.4844971-12.9324341-68.9507751-16.6228638l-0.0293884-0.0184021
		c-1.4024048-0.2204285-2.9441833-0.4041748-4.5409241-0.5722656c0.1007996,0.0293884,0.2134094,0.0585022,0.3132629,0.0878906
		c-2.6998901-0.2249451-14.0921936-1.0993042-23.0923157-0.8743591c-11.9249573,0-23.8499451,1.125-35.3248901,4.0501099
		c1.3499451,0,54.6749878-0.4500427,78.9749451,14.1749573c-90-14.625-137.7000122,15.75-139.2749329,16.875
		c0.4499207-0.2250671,1.125-0.2250671,1.5749207-0.4500122c1.3500671-0.4500427,2.4750671-0.6749878,3.8250122-1.125
		c49.0499573-12.8250427,87.75-9,100.5750122-7.2000427c-21.6000671,5.1751099,3.8250427,20.9251099,19.3499451,29.25
		c0.1262207,0.0677185,0.2658691,0.6911926,0.3224487,0.8349609c0.1264954,0.3209534,0.2546082,0.6412048,0.3820801,0.961731
		c0.2868652,0.7210999,0.5711365,1.4431763,0.8409729,2.1708984c0.6177063,1.665802,1.1629333,3.3620911,1.5401611,5.0997009
		c0.7933655,3.6542053,0.8257751,7.5617676-0.9414063,10.9447327c-0.5727844,1.0967102-1.3256226,2.098114-2.1243286,3.0576172
		c2.5509033-2.4038086,3.7561035-4.4890137,4.2315063-5.173584l0.0027771-0.0145569
		c1.7006531-2.497345,4.2452393-6.7713013,6.3208313-12.2565002l12.5999451,10.125
		c37.8001404-4.7249451,65.7000427,3.375,96.9750671,3.1500549c22.5,0,39.375-2.0250549,52.6499023-5.1751099
		c-49.0499268-20.9249573-144.8999023-29.9249573-159.7499695-28.7999573c0,0-8.0999451,2.25,1.3500671,11.25
		c-13.0499573-4.9500427-26.1000671-14.8499451-27-19.7999878c-0.9000549-5.1749573,8.7749329-6.75,31.2749329-4.0499573
		c84.3749695,10.125,157.7250671,24.2999573,167.6250305,45
		C657.2249756,409.4730835,662.4000244,383.5980835,620.5499878,358.8480835z M371.0250549,335.2230835
		c0,0-10.2807312,1.3719177-26.0533752,7.6932983c-11.322937,4.3565063-25.0528259,10.9889526-38.5618896,20.6852112
		c-2.0865784,0.1796265-4.1731567,0.1965027-6.2597351,0.1965027l-20.25,1.125
		c-6.0750427,0.2249451-14.1751099,0.9449768-21.6000977,1.7549438C250.875,367.4430847,244.125,368.2980957,240.75,368.7479858
		h-0.4500275c-0.4008636,0.0802002-0.7200165,0.1253967-0.99646,0.1586304
		c-0.499054,0.0598755-0.8035126,0.0664673-0.8035126,0.0664673c15.75-55.125,29.9249878-74.4750977,39.375-83.4749451
		c2.9249878-3.5999451,6.75-6.2999878,11.0249329-8.7750549c0.9000549-0.6749878,2.0250549-1.3499451,3.1500549-1.7999878
		c2.2499695-0.8999023,4.5-1.7999573,6.5250549-2.7000122c0.8999023-0.4498901,2.0249023-0.6749878,2.9249573-1.125
		c-10.125,0.4500122-20.25,1.3500671-29.9249573,2.25c-4.7250977,0.4500122-9.4500427,0.9000549-14.1751404,1.5750122
		c-3.1499023,0.4500427-6.0748749,0.6749878-8.9999847,1.125c-2.9249725,0.4500427-5.8499451,0.6749878-8.5499725,1.125
		c-26.3159637,3.8236694-44.76091,7.6470337-44.773819,7.6497803l-0.0010986,0.0001526
		c0.6751099-0.4500427,1.3499451-1.1248779,2.0269775-1.576416c10.978363-8.2320557,23.4602051-14.3171082,36.2279663-19.2288208
		c13.2477264-5.096283,26.6205597-9.5358582,40.5319977-12.4891205c21.4950256-4.5631714,44.2459412-8.7886505,66.3945007-8.0954132
		c9.184021,0.2875671,18.2973022,0.6936493,27.2799988,2.8184052c7.568634,1.7902222,14.9809875,4.9474182,20.9437866,10.0233917
		c3.0375977,2.5857544,4.4436951,5.4196777,4.855835,9.4647217c0.425293,4.1748047-0.7989807,8.341217-2.5106506,12.1073303
		c-2.961792,6.5164185-10.5004578,11.3529968-16.4738464,14.7937927c-3.6653137,2.1112976-7.5047607,3.9238892-11.4479065,5.4526367
		c-1.9477234,0.755188-3.9230957,1.4404602-5.9221802,2.0473022c-1.5824585,0.4805298-4.3341064,1.7769165-5.9815063,1.557312
		c6.75,0.8999329,12.375,3.375,16.4249878,6.9749451c0.4500122,0.2249451,0.6749573,0.4500427,0.9000549,0.6749878
		c6.2999573,5.8500671,8.3250122,14.1749573,4.4999695,22.5C372.375,332.9730835,371.7000122,334.0980835,371.0250549,335.2230835z
		 M323.3250122,311.1480408h-13.5c-1.125,2.0250549-2.0250549,3.8250427-2.9249573,5.8499451
		c-3.7125549,7.9876099-6.75,15.5700989-8.8650208,21.1725769c-2.1149902,5.602478-3.2850342,9.2024231-3.2850342,9.2024231
		h11.7000427c0.0674133,0,0.1349792-0.0223694,0.1800232-0.0223694c1.8392639,0.0223694,3.6257629-0.1587524,5.3938599-0.4596558
		c4.4883423-0.7713623,8.9902649-2.3286743,12.7719116-4.9059448c3.7365723-2.5466309,6.6816101-6.0772095,8.6542053-10.1369324
		C340.2000122,317.2230835,334.125,311.1480408,323.3250122,311.1480408z M348.9749451,286.3980408
		c5.625-9.6749573,1.3500671-16.4249573-7.4249573-17.3250122h-9c0,0-0.4049988,0.3375549-1.147522,1.2150879
		c-0.7649536,0.855011-1.8899536,2.2723694-3.3525085,4.4099121c-2.4749451,3.8250122-5.8499451,9.4500122-9.8999023,18.4500122
		c-0.6751099,1.3499451-1.3500671,2.9249878-2.0250549,4.5l8.0999451-0.2249451h1.8675232
		c0.9449768,0,1.9125977-0.0675659,2.835022-0.1575012c0.0450439,0,0.1124878-0.022522,0.1800537-0.022522
		c1.2374878-0.1350098,2.4299011-0.3375549,3.4874573-0.585022c0.5400085-0.1124878,1.0574341-0.2249451,1.5299988-0.3599548
		c0.315033-0.0675659,0.6300659-0.1575012,0.9000549-0.2250671c0.1573792-0.0449219,0.292511-0.0899658,0.4498901-0.1124878
		c0.1126099-0.0450439,0.2250977-0.0674133,0.315033-0.0899353c0.292511-0.0900879,0.539978-0.1800537,0.7425537-0.2476196
		c0.1575012-0.0448914,0.2924805-0.0899353,0.3824463-0.1349792c0.0450439,0,0.0900879-0.0223999,0.1349792-0.0449219
		C342.585022,293.3955078,346.8824768,290.2005615,348.9749451,286.3980408z"/>
	<path class="st1" d="M386.1000977,276.2730408c-3.6000977,7.4249878-18.9000854,16.875-35.7750854,20.4750977l-11.25,2.4749451
		c9.9000854-4.0499878,13.2750549-7.875,15.9750977-11.4749451c5.1749573-6.75,4.5-12.1500549,1.7999878-16.6500549
		c-2.7000427-4.5-9.6749878-6.75-17.3250427-6.75c0,0-11.7000122-0.2249451-22.2749023,0
		c-25.2000427,0.9000549-65.0250702,4.0499573-98.7750702,12.1500549
		c38.4749603-18.9000549,83.9249725-23.4000702,93.1500397-24.7500153c8.7749329-1.125,16.875-1.5750275,23.6250305-1.5750275
		c11.2499695,0,18.4498596,0.8999176,18.4498596,0.8999176c18.4500427,0.9000549,28.8001099,5.1749725,33.0750427,11.9251251
		C388.7999573,266.5980835,388.5750122,270.8729858,386.1000977,276.2730408z M367.875,318.3480835
		c1.5750427,4.0499573,1.3500977,9.2249451-0.6749878,13.2750549c-0.8716125,1.7435303-1.9561157,3.4789429-3.0456543,5.0178528
		c-4.5513611,1.1243286-11.1486511,3.0554504-19.1826782,6.2753906
		c-9.2128906,3.5446167-20.0250854,8.6058655-31.0101624,15.5750427c-4.677002,0.5918884-9.3334351,0.8066711-13.5865173,0.8066711
		l-17.5499573,0.6749878c0,0-16.6500549,0.8999023-35.0999603,2.9249573
		c10.7999725-34.2000122,24.2999725-62.7749023,36.6749725-73.7999573
		C297.6749878,276.2730408,315,273.5730286,320.1749878,273.5730286c0.4500122,0,0.6749573,0,0.9000549,0
		c-4.2750549,6.9750671-8.5499878,15.2999573-14.4000854,29.25c0,0,24.9750977-1.7999878,42.0750427,2.25
		C361.7999878,308.2230835,365.8500671,312.2730408,367.875,318.3480835z M339.2999573,313.6229858
		c-2.0249023-3.1499023-6.2999573-7.1998901-15.9749451-7.1998901h-18.6749573c0,0-9.9000549,18.4498901-19.125,47.4749451
		l21.1499023-0.9000549c5.6250305,0,23.8500977-1.5748901,31.5-18.4498901
		C342.2250671,325.7730408,342.6749573,318.7980957,339.2999573,313.6229858z"/>
	<path class="st3" d="M501.0750122,332.7479858c0,0-7.875,0.4500427-17.3250122-16.875
		c-8.7749329-16.4249573-21.8250427-18.6749573-21.8250427-18.6749573s9.6751099-0.8999329,23.1751404,4.9500122
		c-0.6751404-0.9000549-19.8001099-28.3499451-73.125-26.3250122c0,0,27.2249146,3.375,38.9249573,18.6749573
		c0,0-36.9000549-5.8499451-69.9750671,11.25c0,0,29.4750671-4.9498901,52.2000122,10.3500977
		c0,0-33.9749451-2.4750977-52.6499329,16.875c16.6499329-3.1500549,34.6499329-4.0499878,53.3248901-1.7999878
		c12.3750305,1.7999878,22.8673706,4.024292,30.5173035,6.274292c-2.6998901-0.2249451-14.0921936-1.0993042-23.0923157-0.8743591
		c-11.9249573,0-23.8499451,1.125-35.3248901,4.0501099c1.3499451,0,54.6749878-0.4500427,78.9749451,14.1749573
		c-90-14.625-137.7000122,15.75-139.2749329,16.875c0.4499207-0.2250671,1.125-0.2250671,1.5749207-0.4500122
		c1.3500671-0.4500427,2.4750671-0.6749878,3.8250122-1.125c49.0499573-12.8250427,87.75-9,100.5750122-7.2000427
		c-21.6000671,5.1751099,3.8250427,20.9251099,19.3499451,29.25c0.1262207,0.0677185,0.2658691,0.6911926,0.3224487,0.8349609
		c0.1264954,0.3209534,0.2546082,0.6412048,0.3820801,0.961731c0.2868652,0.7210999,0.5711365,1.4431763,0.8409729,2.1708984
		c0.6177063,1.665802,1.1629333,3.3620911,1.5401611,5.0997009c0.7933655,3.6542053,0.8257751,7.5617676-0.9414063,10.9447327
		c-0.9049683,1.7325439-2.2436523,3.2413635-3.5360718,4.6922607c-1.2907715,1.4489441-2.6585693,2.8298035-4.1018982,4.1270142
		c-2.2870483,2.0558167-4.7650452,3.906189-7.4168396,5.4656982c-1.651825,0.9714661-3.3730774,1.8375854-5.1619568,2.5280762
		c-0.4958801,0.1913147-0.9986267,0.3569336-1.5025024,0.5250244c6.75-17.1000977-1.5748901-29.25-1.5748901-29.25
		s-5.8500671,17.5499573-30.6000977,28.125c-27.2249146,11.4749451-31.5,28.125-31.5,28.125s-0.8999023-15.3001099,13.5-31.2750549
		c4.7250977-5.1749878,8.1000977-9.4500427,10.1250305-13.2750549l-30.375,8.3250122
		C401.4000549,360.8731384,283.5,384.7230835,283.5,384.7230835c2.3965149-3.4056396,6.0340881-7.3143005,10.6763611-11.4325256
		c0.0291138-0.0306091,0.0366821-0.055481,0.0706177-0.0874634c0.0935059-0.0762329,0.1859436-0.1466675,0.2792969-0.2226257
		c0.7792358-0.6853943,1.5968933-1.3780823,2.4299011-2.0732422c0.0945129-0.0874939,0.1733093-0.1488647,0.2511902-0.214386
		c0.0862427-0.0716858,0.1749573-0.1434937,0.2619019-0.2151794c16.2280273-13.5953064,33.6652527-22.2374268,47.5024109-27.5612793
		c15.772644-6.3213806,26.0533752-7.6932983,26.0533752-7.6932983c0.6749573-1.125,1.3499451-2.25,1.7999573-3.375
		c3.8250427-8.3250427,1.7999878-16.6499329-4.4999695-22.5c-0.2250977-0.2249451-0.4500427-0.4500427-0.9000549-0.6749878
		C363.375,305.0731506,357.75,302.5980835,351,301.6981506c1.6473999,0.2196045,4.3990479-1.0767822,5.9815063-1.557312
		c1.9990845-0.606842,3.9744568-1.2921143,5.9221802-2.0473022c3.9431458-1.5287476,7.7825928-3.3413391,11.4479065-5.4526367
		c5.9733887-3.4407959,13.5120544-8.2773743,16.4738464-14.7937927c1.7116699-3.7661133,2.9359436-7.9325256,2.5106506-12.1073303
		c-0.4121399-4.0450439-1.8182373-6.8789673-4.855835-9.4647217c-5.9627991-5.0759735-13.3751526-8.2331696-20.9437866-10.0233917
		c-8.9826965-2.1247559-18.0959778-2.530838-27.2799988-2.8184052c-22.1485596-0.6932373-44.8994751,3.5322418-66.3945007,8.0954132
		c-13.911438,2.9532623-27.2842712,7.3928375-40.5319977,12.4891205
		c-12.7677612,4.9117126-25.2496033,10.9967651-36.2279663,19.2288208c-0.6770325,0.4515381-1.352005,1.1265259-2.0271149,1.5765381
		c0,0,18.4500275-3.8250122,44.7750549-7.6500549c2.7000275-0.4500122,5.625-0.6749573,8.5499725-1.125
		c2.9251099-0.4500122,5.8500824-0.6749573,8.9999847-1.125c4.7250977-0.6749573,9.4500427-1.125,14.1751404-1.5750122
		c9.6749573-0.8999329,19.7999573-1.7999878,29.9249573-2.25c-0.9000549,0.4500122-2.0250549,0.6751099-2.9249573,1.125
		c-2.0250549,0.9000549-4.2750854,1.8001099-6.5250549,2.7000122c-1.125,0.4500427-2.25,1.125-3.1500549,1.7999878
		c-4.2749329,2.4750671-8.0999451,5.1751099-11.0249329,8.7750549c-9.4500122,8.9998474-23.625,28.3499451-39.375,83.4749451
		c0,0,0.3050079-0.0064697,0.8058472-0.0667419L220.5,371.8980408c0,0,30.8250275-49.2750549,10.5750275-70.4249573
		c-17.5499725-18-75.8250275,0.2249451-75.8250275,0.2249451c57.8250275-55.3499603,162.4500427-84.3750153,262.5750427-54.4500427
		C515.9249878,276.4979858,501.0750122,332.7479858,501.0750122,332.7479858z M326.0924683,297.4230957
		c0.9449768,0,1.9125977-0.0675659,2.835022-0.1575012c0.0450439,0,0.1124878-0.022522,0.1800537-0.022522
		c1.2374878-0.1350098,2.4299011-0.3375549,3.4874573-0.585022c0.5400085-0.1124878,1.0574341-0.2249451,1.5299988-0.3599548
		c0.1829224-0.0392761,0.3485413-0.085144,0.5226746-0.1307373c0.5532837-0.8034973,2.0775146-3.0448608,2.6272278-4.1443176
		c5.567749-11.8037109,1.1149902-17.2058105-9.2315369-17.3147278c-1.7031555,2.6323242-3.8399963,6.1498718-6.3208313,10.9981384
		c-1.0773315,2.2053833-2.2472534,4.6517639-3.5680847,7.4321289c-0.0015259,0.0032959-0.0028687,0.0061646-0.0043945,0.0094604
		c-0.6751099,1.3499451-1.3500671,2.9249878-2.0250549,4.5l8.0999451-0.2249451H326.0924683z M306.9000549,316.9979858
		c-3.7125549,7.9876099-6.75,15.5700989-8.8650208,21.1725769c-2.1149902,5.602478-3.2850342,9.2024231-3.2850342,9.2024231
		h11.7000427c0.0674133,0,0.1349792-0.0223694,0.1800232-0.0223694c1.8392639,0.0223694,3.6257629-0.1587524,5.3938599-0.4596558
		c1.0957642-0.1882629,2.191925-0.4270935,3.2787476-0.7124634l0.0820007-0.076355l-0.0079651-0.0006714
		c2.423584-2.2221375,4.830658-4.8820496,6.373291-8.6283875c6.75-14.4000549,0.6749573-20.4749451-10.125-20.4749451
		L306.9000549,316.9979858z"/>
</g>
</svg>
