<?xml version="1.0" encoding="utf-8"?>
<!-- Generator: Adobe Illustrator 22.0.1, SVG Export Plug-In . SVG Version: 6.00 Build 0)  -->
<svg version="1.1" id="Layer_1" xmlns="http://www.w3.org/2000/svg" xmlns:xlink="http://www.w3.org/1999/xlink" x="0px" y="0px"
	 width="720px" height="720px" viewBox="0 0 720 720" style="enable-background:new 0 0 720 720;" xml:space="preserve">
<style type="text/css">
	.st0{fill:#FFFFFF;}
	.st1{fill:#C60C3D;}
	.st2{fill:#00338D;}
</style>
<g>
	<path class="st0" d="M659.7470093,213.1154633c-22.545105-10.930954-47.822876-9.2229919-47.822876-9.2229919
		c-25.6193848-39.6246643-60.461853-55.6794891-60.461853-55.6794891l-3.0742798,4.0991058
		c-15.0300293-6.8318481-40.9910583-8.5398102-40.9910583-8.5398102l-1.366333,4.7822876l-49.872467,4.4407043l2.3911438,8.5397949
		c-7.8566284,0.3415985-34.1592102,9.5645752-34.1592102,9.5645752
		c-38.9414978,12.9804993-73.4422607,33.1344299-73.4422607,33.1344299
		c-37.233551,21.5202942-44.0653687,33.4760132-44.0653687,33.4760132
		c-65.5856781,26.9857788-107.9430695,64.9024658-107.9430695,64.9024658l-108.9678421,8.5398254L36,407.4812927
		l127.4138031-18.1044006c0,0-14.0052643,32.4512634-59.0954056,61.144989l0,0
		c-1.0247726,0.6831665-4.0991058,2.7327576-8.198204,5.4654541c-3.4159241,2.3911438-3.4159241,10.2477722-6.1486588,17.0796204
		c-3.0743256,5.8070374-4.4406967,6.8318176-7.1734314,10.589325c-4.7822876,5.4654846-11.2725372,9.906189-20.8371086,16.0548096
		l1.7079582,11.6141357l-8.5397987,18.7875671l32.4512367,46.1149292l22.2034836-59.4370117l15.0300446-11.6141357
		l3.7575073,3.0743408l-10.247757,13.6636963l33.1344147,44.0653687l27.6689606-61.144989l110.334198-89.4971313
		c0,0,21.5203247-1.7079468,44.0653687,4.0990906l9.5646057-7.5150146l26.3025513-0.3415833l4.0990906,5.4654846
		l-12.6388855,7.1734009l-18.7875671,53.2883606l47.4812927-20.1539307c1.366394,2.04953,17.4212036,0.3415833,17.4212036,0.3415833
		l-12.2973022,44.7485352l42.6990051-17.4211731l5.8070374,1.0247803c26.9857788-2.04953,50.5556335-9.5645752,50.5556335-9.5645752
		c30.7432861-9.2229919,33.8175659-29.0353394,33.8175659-29.0353394
		c5.1239014-12.6388855,1.0247803-39.6246643,1.0247803-39.6246643l13.3220825,0.3416138
		c5.1239014,0.6831665,3.7575073,8.5397949,3.7575073,8.5397949l-5.1238403,45.0901184
		c15.3716431-9.5645752,32.7928467-25.960968,32.7928467-25.960968l1.0247803,7.8565979
		c10.5893555-9.2229614,35.8671875-40.9910278,35.8671875-40.9910278
		c25.9609985-1.0247803,29.7184448-18.7875671,29.7184448-18.7875671
		c4.7822876-12.9804993,7.5150146-20.1539307,7.5150146-20.1539307
		c4.4407349-10.589325,16.3964233-22.8866577,16.3964233-22.8866577c4.0991211-5.8070679,6.4902344-10.2477722,6.4902344-10.2477722
		c1.366394-3.4158936,3.0743408-8.8813782,3.0743408-8.8813782C684,286.5576782,684,251.3736877,684,251.3736877
		C683.6584473,222.6800385,659.7470093,213.1154633,659.7470093,213.1154633z"/>
	<path class="st1" d="M606.1170044,276.9931641L96.4617844,321.0585327l-42.3574066,74.1254578l543.4729004-80.9573059
		C597.5772705,314.2266846,578.7896729,299.8798218,606.1170044,276.9931641z"/>
	<path class="st2" d="M516.6199341,405.0901489c0,0,3.7575073,24.2530212,1.366333,34.8423767
		c0,0-3.7575073,16.0548096-20.1539001,22.2034912c0,0-24.2530518,10.2477417-60.4617615,12.6388855l-1.7079773-1.3663635
		l-27.3273621,11.6141357l8.8813782-31.7680664c0,0,36.8919678-2.7327576,47.8229065-6.1486816
		c0,0,28.3521118-5.4654541,32.7928162-41.6741943L516.6199341,405.0901489z M162.7306213,466.5767212
		c0,0,0,19.1291504-23.2282562,32.1096497l1.0247803,6.1486511l-10.930954,15.0300903l19.4707489,25.9609375l21.8618927-48.506012
		l101.4528198-82.3236694C272.3816528,414.6547546,207.479187,413.9715576,162.7306213,466.5767212z M655.3062744,221.6552582
		c0,0-17.4212036-9.5645752-49.8724365-6.8318481c0,0-6.4902344-22.5450592-51.2387695-53.6299286l-3.4159546,4.7822876
		c0,0-15.3716431-10.5893555-36.8919067-10.2477722l-1.0248413,3.0743408c0,0-12.9804688,0-41.6741943,2.7327271
		l2.7327576,7.8566132c0,0-59.0954285,2.7327423-143.1270447,58.75383l-1.0247803,4.7822876l-10.589325,5.1238861
		l5.8070374,3.0743256c0,0-64.2192688,23.228241-110.6758118,61.1449585l433.8218079-35.5255737l0,0
		c0,0-42.3573608,29.0353394-27.6689453,53.9715271c0,0-15.3716431,8.5398254,1.7079468,20.4955444
		c0,0-26.3025513,11.955719-19.4707031-20.4955444l-427.3315735,64.5608826c0,0-9.2229919,38.5999146-69.6847687,75.4918213
		c0,0-4.4406967,2.7327576-4.7822876,7.5150146c0,0,0.3415909,6.1486816-5.1238861,13.322113
		c0,0-6.8318329,11.955719-22.5450668,22.2034607l1.0247726,7.8566284L66.7432785,528.74646l18.1043777,25.9609985
		l16.3964157-44.4069824l32.4512405-24.9362183c0,0,31.7680511-49.8724365,84.0316315-69.3431702
		c0,0,46.1149139-19.8123474,113.7501373-8.5397949l6.1486511-5.8070679l78.2245789-1.7079468
		c0,0,3.0743408,0.6831665,1.0247803,2.3911438c0,0-15.3716431,11.955719-32.1096497,13.3220825l1.7079773,4.7822876
		c0,0,0.3415833,1.7079773-0.683197,2.0495605l-16.3964233,6.4902344l-10.9309387,30.0601196l30.7432861-13.3220825
		l1.7079773,1.3663635c0,0,26.644165,1.7079468,66.9520264-6.4902649c0,0,28.0105591-5.4654541,35.5255737-41.6741943
		l52.9467163-2.3911438c0,0,10.9309692,2.3911438,9.5646362,12.6388855l-3.7575684,30.0601196l24.2530518-21.5203247
		l1.7079468,5.8070679c0,0,18.4459839-19.8123474,23.2282715-31.4264526c0,0,20.1539307,0.3415833,25.277832-7.8566284
		c0,0,2.3911133-2.3911438,8.8814087-20.1539307c0,0,3.0742798-12.638916,15.3716431-24.594635
		c0,0,9.5645752-8.8813782,15.0300293-32.7928467c0,0,6.4901733-34.5007629,6.4901733-40.9910278
		C671.7026978,265.7206421,678.8760986,231.5614319,655.3062744,221.6552582z"/>
</g>
</svg>
