<?xml version="1.0" encoding="utf-8"?>
<!-- Generator: Adobe Illustrator 22.0.1, SVG Export Plug-In . SVG Version: 6.00 Build 0)  -->
<svg version="1.1" id="Layer_1" xmlns="http://www.w3.org/2000/svg" xmlns:xlink="http://www.w3.org/1999/xlink" x="0px" y="0px"
	 width="720px" height="720px" viewBox="0 0 720 720" style="enable-background:new 0 0 720 720;" xml:space="preserve">
<style type="text/css">
	.st0{stroke:#000000;stroke-width:0.1;stroke-miterlimit:10;}
	.st1{fill:#0085CA;}
	.st2{fill:#BFC0BF;}
</style>
<g>
	<path class="st0" d="M611.3323975,247.0151367c0,0-17.5375977-3.9784698-33.6950073-1.2178955
		c-16.1572876,2.7605743-19.2426758,10.7987061-19.2426758,10.7987061s19.6486206,7.2260742,22.0844116,22.4091797
		c2.3546143,15.1830444-6.9013672,26.9559937-12.0976563,30.3661499
		c0.6494751-0.2436218,22.0844116-9.0124817,21.0288696-30.0413513c-0.1623535-3.491333-1.055542-6.4142456-2.5169678-8.9312134
		c-1.4614258-2.5170593-3.3288574-4.546875-5.6022949-6.1707458c0.4059448,0.0812988,6.4142456,2.0298462,9.9054565,5.2775574
		c1.6238403,1.5426636,3.3289795,3.0853577,4.9528809,5.1151733c1.7861938,2.435791,2.43573,3.9784851,2.43573,3.9784851
		c0.8119507,1.6238403,1.380249,3.4912109,1.7862549,5.6835022c1.380188,7.7944946-1.055542,15.4266357-1.055542,15.4266357
		c-5.1962891,21.1101379-18.0247803,45.0620117-29.4729614,63.7363586
		c-11.3670044,18.4307556-21.4349365,31.6652222-21.6785889,32.0711975c0.3815918-0.3247986,0.7633057-0.6577148,1.1611328-1.006897
		c0.0001221-0.0000916,0.0002441-0.0002441,0.0003662-0.0003357c-0.4871216,0.6550903-0.7546387,1.0071716-0.7546387,1.0071716
		s3.1665039,11.4481812,0.9743042,29.2294312c-1.9486084,15.4266357-5.8458862,36.942749-29.4730225,49.6899719
		c-0.7307129,0.3247986-1.7050781,0.7307434-2.7605591,1.1367188c-0.0812378,0.0812378-0.6495361,0.2435608-1.7862549,0.5683594
		l-1.7050171,3.7348633l15.5890503,55.5358887v0.0811768l-12.2601318,0.5683594
		c-72.1803894,0.6495361-136.2415161-30.2849121-212.1568298-59.9202881
		c-20.0546265-7.7944946-40.5152283-13.4779358-60.6510468-17.4564209
		c-2.7605743-0.4871216-8.4440765-1.6238403-16.4009705-2.8417358c-11.4482117-1.5426941-31.6652069-3.7348938-39.134964-4.3844299
		c-37.2675323-2.5170288-71.4496918-0.4871826-97.918541,2.6793518c0.0811691-0.162384,0.1623917-0.2435608,0.2435684-0.4059753
		c-0.324791,0.0812378-0.5683594,0.0812378-0.8931046,0.1624146c-0.1345901,0.0187683-0.2563019,0.0319519-0.389061,0.0499268
		c0.1576843-0.0205383,0.3120499-0.0378113,0.4775238-0.0661316
		c65.936676-123.6486206,228.5497131-202.8035126,228.5497131-202.8035126
		c-10.5550537,1.1367188-19.4050598,3.0040894-19.4050598,3.0040894
		c-14.452301-10.3114471-25.4945679-30.2036896-27.8491211-34.6692963c0.0811768,0.1623383,0.1623535,0.2436066,0.2435608,0.4059601
		c-0.0812073-0.2436218-0.8119202-1.9486542-0.7307434-3.2477112c0-0.0811768,0.0812073-0.2436218,0.0812073-0.3247986
		c0-0.0811615,0.0811768-0.1623383,0.0811768-0.243515c0.8119202-1.9486542,2.8417358-2.0298157,5.6023254-1.7051239
		c0.1623535,0,0.3247375,0,0.4871521,0.0812683c6.7389832,0.9742737,25.4133301,5.8458405,51.8822327,2.9229279
		c27.8491211-3.0853729,37.9170532-11.6106262,37.5922852-14.046402c0,0,21.1101379-9.9866638,47.5789795-11.7729645
		c26.4689026-1.7862091,61.868866,6.0082855,75.7528992,23.8707123c2.5981445,3.2477112,4.0596619,5.764679,4.7092285,7.7944946
		c0.8930054-1.3802338,1.2989807-3.0852661,1.1366272-5.0339203c-0.7306519-7.1450043-9.4995117-14.6958771-17.2941284-19.1614838
		c-6.9013672-3.8972931-24.032959-10.2303772-14.2087402-9.661972c9.7431335,0.5683136,60.5699463,7.9568329,79.8126221,20.3793793
		c11.854248,7.6321564,12.909668,15.5078125,12.909668,15.5078125s14.6146851-6.0082855,30.8532715,0.6495819
		C604.3498535,232.4815979,608.0847168,241.088028,611.3323975,247.0151367z M629.6495361,217.4203949
		c-1.0148926-1.7537994-3.2071533-2.1273499-5.0582886-1.8024597c-5.4562378,0.9580078-11.0178833,1.542572-16.5309448,2.1027679
		c-2.7848511,0.284256-5.5617065,0.5359955-8.3466187,0.7470093c-1.1366577,0.0892944-2.2896118,0.0811615-3.4263306,0.105545
		c-0.2354736,0.0081329-1.1528931,0.1786041-1.355835,0.0243835c1.0797729,0.8119354,2.1028442,1.6888733,3.0853271,2.6143951
		c3.4019165,3.207077,6.2761841,6.9826508,8.4683838,11.1152496c2.3707275,4.4656067,3.9702148,9.3128967,4.7984009,14.2981415
		c0.0081177,0.0487671,0.0162964,0.0974274,0.0162964,0.13797c0.024353,0.1624451,0.0324707,0.2517395,0.0324707,0.2517395
		c0.6739502-0.6008148,1.4046021-1.0230408,2.0704956-1.6482391c0.8687134-0.8200531,1.7211304-1.6726227,2.5411987-2.5493622
		c3.190918-3.3939056,5.9758911-7.1693878,8.289856-11.2127838c1.1611328-2.021698,2.2003784-4.1083984,3.1096802-6.2518005
		c0.4547119-1.0718079,0.8850708-2.1598663,1.2747803-3.2558441
		C628.9188232,221.2526703,630.2097168,218.2241821,629.6495361,217.4203949z"/>
	<path class="st1" d="M684,313.1061401c0,0-26.6312866-13.5592651-75.3469849-14.0464172
		c-8.8987427,23.1724854-29.1156616,68.900238-59.3275757,95.4502563c-0.3978271,0.3491821-0.779541,0.6820984-1.1611328,1.006897
		c0.2436523-0.4059753,10.3115845-13.6404419,21.6785889-32.0711975
		c11.4481812-18.6743469,24.2766724-42.6262207,29.4729614-63.7363586c0,0,2.43573-7.6321411,1.055542-15.4266357
		c-0.4060059-2.1922913-0.9743042-4.0596619-1.7862549-5.6835022c0,0-0.6495361-1.5426941-2.43573-3.9784851
		c-1.6239014-2.0298157-3.3290405-3.5725098-4.9528809-5.1151733c-3.4912109-3.2477112-9.4995117-5.1962585-9.9054565-5.2775574
		c2.2734375,1.6238708,4.1408691,3.6536865,5.6022949,6.1707458c1.4614258,2.5169678,2.3546143,5.4398804,2.5169678,8.9312134
		c1.055542,21.0288696-20.3793945,29.7977295-21.0288696,30.0413513
		c5.1962891-3.4101563,14.4522705-15.1831055,12.0976563-30.3661499
		c-2.435791-15.1831055-22.0844116-22.4091797-22.0844116-22.4091797s3.0853882-8.0381317,19.2426758-10.7987061
		c16.1574097-2.7605743,33.6950073,1.2178955,33.6950073,1.2178955c0.6739502-0.6008148,1.4046021-1.0230408,2.0704956-1.6482391
		c0.8687134-0.8200531,1.7211304-1.6726227,2.5411987-2.5493622c3.190918-3.3939056,5.9758911-7.1693878,8.289856-11.2127838
		c1.1611328-2.021698,2.2003784-4.1083984,3.1096802-6.2518005c0.4547119-1.0718079,0.8850708-2.1598663,1.2747803-3.2558441
		c0.300415-0.8444366,1.5913086-3.8729248,1.0311279-4.676712c-1.0148926-1.7537994-3.2071533-2.1273499-5.0582886-1.8024597
		c-5.4562378,0.9580078-11.0178833,1.542572-16.5309448,2.1027679c-2.7848511,0.284256-5.5617065,0.5359955-8.3466187,0.7470093
		c-1.1366577,0.0892944-2.2896118,0.0811615-3.4263306,0.105545c-0.2354736,0.0081329-1.1528931,0.1786041-1.355835,0.0243835
		c1.0797729,0.8119354,2.1028442,1.6888733,3.0853271,2.6143951c3.4019165,3.207077,6.2761841,6.9826508,8.4683838,11.1152496
		c2.3707275,4.4656067,3.9702148,9.3128967,4.7984009,14.2981415c0.0081177,0.0487671,0.0162964,0.0974274,0.0162964,0.13797
		c0.024353,0.1624451,0.0324707,0.2517395,0.0324707,0.2517395c-3.2476807-5.9271088-6.9825439-14.5335388-23.2211304-21.1913147
		c-16.2385864-6.6578674-30.8532715-0.6495819-30.8532715-0.6495819s-1.0554199-7.8756561-12.909668-15.5078125
		c-19.2426758-12.4225464-70.0694885-19.8110657-79.8126221-20.3793793c-9.8242188-0.5684052,7.307373,5.764679,14.2087402,9.661972
		c7.7946167,4.4656067,16.5634766,12.0164795,17.2941284,19.1614838c0.1623535,1.9486542-0.2436218,3.6536865-1.1366272,5.0339203
		c-0.6495667-2.0298157-2.111084-4.5467834-4.7092285-7.7944946
		c-13.8840332-17.8624268-49.2839966-25.6569214-75.7528992-23.8707123
		c-26.4688416,1.7863007-47.5789795,11.7729645-47.5789795,11.7729645
		c0.3247681,2.4357758-9.7431641,10.9610291-37.5922852,14.046402c-26.4689026,2.9229126-45.1432495-1.9486542-51.8822327-2.9229279
		c-0.1624146-0.0812683-0.3247986-0.0812683-0.4871521-0.0812683c-2.7605896-0.3246918-4.7904053-0.2435303-5.6023254,1.7051239
		c0,0.0811768-0.0811768,0.1623535-0.0811768,0.243515c0,0.0811768-0.0812073,0.2436218-0.0812073,0.3247986
		c-0.0811768,1.299057,0.6495361,3.0040894,0.7307434,3.2477112c-0.0812073-0.1623535-0.162384-0.2436218-0.2435608-0.4059601
		c2.3545532,4.4656067,13.3968201,24.3578491,27.8491211,34.6692963c0,0,8.8500061-1.8673706,19.4050598-3.0040894
		c0,0-162.6130371,79.154892-228.5497131,202.8035126c-0.2841568,0.048645-0.5521088,0.0811462-0.8200607,0.1135864
		C89.48172,453.9918823,89.4573364,454,89.4330063,454c-0.6982422,0.0812683-1.3884125,0.1624451-2.078537,0.2517395
		c-0.0405807,0-0.0812225,0.0081177-0.1218033,0.0162659c-15.2399139,1.8674622-27.7029953,4.0433655-36.5367813,5.7971802
		C41.2775345,461.9325562,36,463.3128967,36,463.3128967c99.9483643-125.7677307,211.4261322-188.3674011,254.29599-205.7426758
		c-0.0812378-0.1623535-14.289978-18.5932007-17.78125-28.417511c-3.0853271-8.525238-2.9229126-12.4225464-1.5426941-15.6702576
		c1.6238708-5.1150818,9.6619873-4.9527435,9.6619873-4.9527435c21.6784973,1.055542,37.99823-3.4912262,37.99823-3.4912262
		s42.9510193-14.3712006,102.7902222-19.4051056c0,0,13.6403198-1.5426941,32.2334595-1.7050323v0.0811615
		c41.7330322-0.7307434,88.5813599,3.9784698,133.6433716,20.460556c0.4871826,0.1624451,0.8931274,0.3247986,1.3803711,0.4871521
		c1.1853638,0.4872284,2.3870239,0.9013214,3.5886841,1.2991638c2.9796753,0.9986572,6.0162964,1.8430939,9.0691528,2.5574951
		c4.3276367,1.0149078,8.7039185,1.7781677,13.1209106,2.249054c2.5330811,0.276123,5.0745239,0.4465942,7.6157837,0.5196381
		c1.2015991,0.0325165,2.3870239-0.0162506,3.5806274,0c1.0879517,0.0162659,2.2327881,0.2111206,3.1340332,0.8605957
		c0.8769531,0.6495819,1.3478394,1.6563721,1.5183105,2.7119141c0.1542969,0.9661407,0.072998,1.8998871,0,2.4845428
		c-0.0081177,0.0161591-0.0081177,0.0324097-0.0081177,0.0405426c-0.0324097,0.1948547-0.0568237,0.3491669-0.0811768,0.4465027
		c0,0.0406342-0.0081787,0.0731506-0.0081787,0.0975189c0,0.0243835-0.0081177,0.0486755-0.0081177,0.0730591
		c-0.3978271,3.1421509-1.6887817,8.362793-4.1732178,14.0220184c-2.5982056,5.8458405-6.5766602,12.2600861-12.5037842,17.3752899
		c2.2734375,4.2219849,3.2476807,9.0935364,3.166626,15.0206604c33.199646,1.5669861,48.9511108,12.1626892,49.4382324,12.4955139
		c-0.6658325-0.2841797-18.0328979-7.6239319-49.5195313-7.9487305h-0.4059448
		c-0.1623535,0-0.9743042,5.8458557-1.6238403,8.7687683h0.7307129
		c38.1606445-0.2516479,61.6578979,14.5254211,62.3804321,14.9881592
		c-1.4046021-0.6737671-23.2616577-10.9852905-63.5983276-9.629364c0,0-0.3247681,0-0.8118896,0.0811768
		c-0.8931274,3.5725098-1.8673706,6.9825745-2.6793213,9.580719C667.6640015,295.8363953,684,313.1061401,684,313.1061401z
		 M334.3836975,260.8179321c0,0,56.6725464-10.8798676,121.5456848,4.4656067
		c2.3545227-2.1109924,5.0339355-4.2219849,8.1192932-6.4142761
		C464.0486755,258.8692627,404.615509,242.3871918,334.3836975,260.8179321z M442.2808228,222.0564728
		c0.1867371-0.0974274,0.3734436-0.1948547,0.5601807-0.300415c0.4465942-0.2192383,0.9174805-0.4303436,1.4208679-0.6170807
		c2.2246704-0.8119202,5.0015259-1.2016296,8.4197998-0.5926819c-0.4790955-0.0893097-0.9582214-0.1786957-1.4289856-0.2517548
		c-0.0243835-0.0080261-0.0487671-0.0080261-0.065033-0.0080261c-3.3127441-0.5521545-6.6172485-0.7957764-9.7919006-0.7957764
		c-14.9393616,0-27.1995544,5.1151886-27.9302063,5.4399872c16.9205627,0.3003082,22.9937744,1.7455597,23.7164001,1.9322968
		c0.0487671,0.0081177,0.0731506,0.0162506,0.0731506,0.0162506S438.7895508,224.0212708,442.2808228,222.0564728z
		 M329.3497314,314.8111572c0,0-9.4995728,37.0239258,13.0720215,64.7919312
		c22.5716858,27.7679138,77.6203918,30.7720032,77.6203918,30.7720032s-34.4257813-7.6320496-62.1937561-35.7248535
		C330.1616516,346.6387024,329.3497314,314.8111572,329.3497314,314.8111572z M197.4924774,452.1894226h0.3247986
		c1.0554962,0.0812683,4.3032074,0.4059448,4.5467834,0.4059448c0.4871826,0.0812683,6.1706848,0.6495972,6.1706848,0.6495972
		c6.3898621,0.7063599,12.8852997,1.5750732,19.4050598,2.598114c0.9580688,0.1462097,1.9161835,0.3005066,2.8742523,0.4547424
		c0.72258,0.113678,1.4370728,0.2354736,2.1597595,0.3572083v-0.0081482
		c18.2765198-66.8946838,69.1763-103.1879578,70.7189941-104.3246765
		C233.1362152,386.6668396,203.4196014,442.2839355,197.4924774,452.1894226z M336.0075378,304.4184265
		c1.2990723-0.4059448,47.741333-14.45224,106.1190796-10.3926086c-0.3248901-2.1109924-0.3248901-4.6280518,0.2434998-7.5509644
		C418.580719,285.8253479,378.6337891,288.0175171,336.0075378,304.4184265z M516.8483276,475.7597046l-0.024292-0.1055298
		c-0.2436523,0.0811462-11.7729797,4.1408081-26.0629883,1.5426636c0,0,18.9179688,18.2684021,38.0794678,58.21521v0.0812988
		l0.5684204-0.0650024l0.1622925-0.0162964c-1.8674316-18.1870728-9.6619263-48.7156677-11.4482422-54.3179016
		L516.8483276,475.7597046z M334.7652893,282.9673462c2.2246704-0.503479,50.9810181-12.2276917,110.203064-4.043396
		c1.1366272-2.2734375,2.6792908-4.709198,4.7903137-7.2261658
		C427.8447571,269.1808167,383.5377808,267.2321777,334.7652893,282.9673462z M498.1496582,253.104599
		c32.6394653,12.6660614,32.2335205,32.2335358,32.2335205,32.2335358
		c4.9527588-18.7555542,28.0115356-28.7421875,28.0115356-28.7421875s-11.854248-5.7647858-28.4174805-6.9013977
		C513.4950562,248.5578156,498.1496582,253.104599,498.1496582,253.104599z M530.7891235,358.0869751
		c-4.3843994-20.5418091,7.307373-34.506958,7.307373-34.506958c-26.5500183,23.3023071-10.473877,46.6046143-2.435791,64.7106628
		c8.0380249,18.1060486,4.7902832,31.3404236-3.2476807,40.5964355c-8.038147,9.2559814-30.1226501,10.0679321-45.0620422,7.2261658
		c-14.8583374-2.8417358-22.490387-18.5119934-26.5500183-36.942749
		c-3.8973083-18.2683716,3.0852661-50.2583923,3.2477112-51.0703125
		c-10.8799744,16.4822083-10.8799744,50.2583923-2.435791,77.6203308
		c8.4439697,27.3620605,30.5283813,34.1821899,46.6046143,34.1821899c16.0762024,0,44.9808655-13.6403503,40.596405-46.1986694
		C544.3483276,380.9833374,535.2547607,378.5475464,530.7891235,358.0869751z"/>
	<path class="st2" d="M531.0327759,389.1026306c0,0,1.380249,18.1871948-11.2859497,27.4432068
		c0,0-13.6403198,2.8417664-22.5715332,0.0811768c0,0,1.4289856-2.9310608,1.4289856-9.0773926
		c0-3.5562439-0.4790039-8.20047-1.997406-13.9813843c0,0-8.0379944,22.2468567-16.2385559,30.4472961
		c0,0,10.5550537,5.8458557,29.0670776,4.1408386c18.5119934-1.7050476,22.9776306-8.6064453,24.6826477-15.4266663
		C535.8230591,405.9095154,534.118042,396.3287964,531.0327759,389.1026306z M454.3865967,220.8710938l-1.3802185-0.3247833
		c-0.6008301-0.1136932-1.1853943-0.2029877-1.7536926-0.2517548c-0.0243835-0.0080261-0.0487671-0.0080261-0.065033-0.0080261
		c-2.7362061-0.2598724-5.033905,0.13797-6.9257813,0.8524628c-0.5033875,0.1867371-0.9742737,0.3978424-1.4208679,0.6170807
		c-0.1867371,0.105545-0.3734436,0.2029724-0.5601807,0.3003998c-3.3452148,1.8756104-4.9528198,4.5549164-5.0989075,4.8065643
		c-0.0081177,0.0081177-0.0081177,0.0162506-0.0081177,0.0162506c-3.5724182,5.1963654-2.1921692,7.7133179-2.1921692,7.7133179
		c33.9142456-0.5601807,52.3855896,4.7904053,52.9214172,4.9447174
		C487.4158936,239.0014191,474.6037292,225.490921,454.3865967,220.8710938z M526.2422485,304.5809021
		c-27.2806702-1.9486694-49.5276184,6.9013977-49.5276184,6.9013977c7.307373,21.5160828-4.9526367,50.2583618-4.9526367,50.2583618
		c16.0761108-13.8027649,28.7421875-42.2202759,28.7421875-42.2202759c26.4689636-5.3587952,41.0836487,0,41.0836487,0
		c3.3694458,20.4361877-4.0272217,37.1619873-4.2139282,37.5841064
		c15.3373413-12.2601013,22.2387085-44.891449,22.2387085-44.891449S553.4418945,306.4482727,526.2422485,304.5809021z
		 M565.6207886,230.6954041c-10.5550537,2.1109924-11.2045288,13.5591736-11.2045288,13.5591736
		c11.4481812-10.555069,35.8872681-6.0083008,35.8872681-6.0083008
		C585.8379517,234.024292,576.1758423,228.5844116,565.6207886,230.6954041z"/>
</g>
</svg>
