<?xml version="1.0" encoding="utf-8"?>
<!-- Generator: Adobe Illustrator 22.0.1, SVG Export Plug-In . SVG Version: 6.00 Build 0)  -->
<svg version="1.1" id="Layer_1" xmlns="http://www.w3.org/2000/svg" xmlns:xlink="http://www.w3.org/1999/xlink" x="0px" y="0px"
	 width="720px" height="720px" viewBox="0 0 720 720" style="enable-background:new 0 0 720 720;" xml:space="preserve">
<style type="text/css">
	.st0{fill:#FFFFFF;}
	.st1{fill:#111729;}
	.st2{fill:#E54311;}
</style>
<g>
	<path class="st0" d="M366.7802734,692.6015625c-25.4916992,0.0009766-61.090332-3.8564453-75.8657227-37.2138672
		c-3.644043-8.3134766-6.9882813-16.7675781-10.222168-24.9433594
		c-6.1811523-15.6259766-12.0200195-30.3857422-19.8305664-44.5068359l-0.097168-0.1806641
		c-4.328125-8.2197266-13.0546875-17.3466797-21.9873047-17.9648438l-0.4609375-0.03125l-0.4560547-0.0742188
		c-33.5458984-5.4609375-60.690918-26.7441406-82.8193359-46.8427734l-4.6411133-4.2158203l1.7714844-6.0136719
		c1.3759766-4.6699219,1.1342773-11.0322266-3.59375-15.046875c-2.2578125-1.4873047-5.6279297-2.2724609-9.7739258-2.2724609
		c-4.2729492,0-9.1181641,0.8398438-13.6435547,2.3642578l-4.6533203,1.5673828l-4.0859375-2.7226563
		c-4.3916016-2.9277344-7.21875-7.1005859-9.4902344-10.453125c-0.3447266-0.5097656-0.6860352-1.0136719-1.0273438-1.5029297
		l-0.1264648-0.1816406l-0.1186523-0.1875c-12.7578125-20.1386719-18.1918945-43.2373047-21.6103516-63.7011719
		c-0.3862305-0.3115234-0.7788086-0.6279297-1.1782227-0.9482422c-8.9707031-7.2119141-21.2563477-17.0888672-20.6416016-33.4082031
		l0.012207-0.2480469c0.4477539-7.1611328,2.9794922-13.2207031,5.4355469-18.2910156
		c-0.1943359-1.3261719-0.4111328-2.6708984-0.6357422-4.0605469c-0.7373047-4.5683594-1.4960938-9.2670898-1.6298828-14.4199219
		c-9.4765625-16.8295898-7.1918945-36.7607422-5.1645508-54.4521484c0.7592773-6.6293945,1.4770508-12.8916016,1.578125-18.6616211
		c0.0869141-7.4379883-0.5224609-10.9394531-2.284668-12.4750977c-6.3945313-1.6513672-9.015625-6.902832-8.7451172-11.6040039
		l0.0571289-0.9892578l0.2495117-0.9584961c2.4101563-9.2470703,6.5708008-17.3662109,10.5942383-25.2182617
		c3.6860352-7.1928711,7.1694336-13.9907227,9.0517578-21.1293945c0.6865234-3.2988281,0.8183594-7.1713867,0.8339844-11.3100586
		c-1.0341797-0.5161133-2.1171875-1.019043-3.2260742-1.5336914c-3.2724609-1.5195313-6.9628906-3.2329102-10.5610352-5.8134766
		c-6.8701172-4.0209961-16.0458984-10.5571289-21.9575195-19.3647461
		c-10.2329102-13.3408203-12.7978516-33.5170898-6.2495117-49.309082
		c5.09375-13.5522461,17.0224609-25.621582,29.9960938-30.4526367c5.4902344-3.3847656,11.1298828-5.9921875,16.59375-8.5180664
		c3.7192383-1.7192383,7.2324219-3.34375,10.6049805-5.1591797l0.5864258-0.315918l0.6230469-0.2353516
		c10.0981445-3.8105469,21.2597656-5.824707,32.2788086-5.824707c7.5327148,0,14.8066406,0.9199219,21.6826172,2.7382813
		c0.7734375-0.4262695,1.5776367-0.9013672,2.402832-1.3886719c3.4082031-2.0126953,7.4545898-4.4018555,12.5410156-5.4150391
		l-4.1445313-11.1518555h14.3857422c3.6464844,0,7.109375,0.4189453,10.3027344,0.9057617l3.3999023-7.4370117
		c3.4560547,0.9150391,6.9453125,1.734375,10.4936523,2.4628906l1.9692383-5.4394531l4.2255859-1.6479492
		c16.78125-6.5458984,34.8017578-10.0053711,52.1132813-10.0053711c9.4287109,0,18.5390625,1.0371094,27.0825195,3.0834961
		c12.5888672,2.4741211,24.5424805,6.1723633,36.1035156,9.75c8.0107422,2.4785156,16.2924805,5.0410156,24.5092773,7.0913086
		c5.59375,1.1933594,11.2802734,2.0610352,17.2978516,2.9790039c1.1972656,0.1826172,2.3959961,0.3652344,3.5947266,0.5507813
		c1.3979492-0.6313477,2.6669922-0.9677734,3.5878906-1.2119141c0.2099609-0.0556641,0.4238281-0.1044922,0.6328125-0.1723633
		l0.1103516-0.0522461l0.2529297-0.1044922c34.0898438-14.0253906,66.9150391-21.1367188,97.5664063-21.1367188
		c12.0605469,0,23.8525391,1.1323242,35.0478516,3.3662109l0.2578125,0.0517578l0.2548828,0.0649414
		c1.8486328,0.4711914,3.7080078,0.921875,5.5683594,1.3730469c8.7275391,2.1176758,17.7529297,4.3071289,26.4453125,8.6074219
		l8.4804688,4.1953125l0.8505859-0.078125l2.2080078,1.1049805c1.2763672,0.4165039,4.1757813,1.3847656,6.5527344,4.3486328
		l2.3681641,2.9521484l-0.0244141,0.4960938c1.3525391-0.0029297,2.7070313-0.0244141,4.0488281-0.0458984
		c1.5048828-0.0239258,2.9941406-0.0473633,4.4492188-0.0473633c1.4824219,0,2.7792969,0.0244141,3.9648438,0.074707
		l22.75,0.9604492l-11.5498047,11.5512695c6,4.1152344,11.2558594,9.4282227,16.0166016,14.2412109
		c0.6894531,0.6972656,1.3759766,1.3911133,2.0605469,2.0771484c1.9960938,1.75,3.5253906,3.5966797,4.8847656,5.2363281
		c0.8222656,0.9926758,2.0390625,2.4619141,2.6494141,2.8959961l0.2871094,0.0375977
		c1.4853516,0.2109375,2.9970703,0.3134766,4.6220703,0.3134766c4.140625,0,8.3701172-0.6811523,12.8486328-1.4023438
		c5.1269531-0.8251953,10.4277344-1.6791992,16.3173828-1.6791992c0.7138672,0,1.4277344,0.0131836,2.1328125,0.0390625
		c2.3212891-0.3925781,4.6855469-0.5844727,7.1875-0.5844727c3.5097656,0,6.8759766,0.3813477,10.1308594,0.7504883
		c0.9716797,0.1098633,1.9658203,0.2226563,2.9902344,0.328125l0.3076172,0.0366211
		c15.2871094,2.0546875,29.4697266,12.5449219,35.4316406,25.9194336c3.4384766,3.8588867,3.6669922,8.5942383,3.765625,10.6254883
		c0.0126953,0.2666016,0.0292969,0.6162109,0.046875,0.8085938l0.2548828,0.9873047l0.0117188,1.2246094
		c0.0771484,8.0288086-2.296875,14.7099609-4.390625,20.6049805c-1.2197266,3.4326172-2.3720703,6.6748047-2.9140625,9.8344727
		l-0.0927734,0.5439453l-0.1523438,0.5302734c-6.3496094,22.0673828-26.3847656,32.3598633-43.7607422,39.3623047
		c0.0751953,0.1572266,0.1494141,0.3173828,0.2216797,0.4794922C661.875,238.2714844,661.96875,283.3374023,662.0585938,326.9233398
		l0.0146484,6.8876953l-4.5625,4.5629883c6.1533203,20.0488281,10.9462891,44.9853516-1.0283203,66.0839844
		c-7.8935547,13.7939453-13.4619141,28.3261719-19.3564453,43.7119141l-0.3085938,0.8056641L636.375,449.7167969
		c-1.0869141,1.8212891-2.1210938,3.6689453-3.2158203,5.6240234c-2.1923828,3.9160156-4.4589844,7.9658203-7.2421875,11.9199219
		l-5.1738281,7.3535156l-1.0380859-0.5761719c-2.3408203,3.9082031-5.3125,5.9169922-7.9960938,6.9287109
		c-2.5048828,6.6816406-6.8173828,13.6757813-14.8183594,18.1972656l-19.7236328,11.1474609l1.7617188-7.6982422
		c-2.8720703,0.9599609-5.6767578,1.6884766-8.2373047,2.3535156c-2.9824219,0.7744141-5.8007813,1.5058594-8.2578125,2.4228516
		l-0.7109375,0.2646484l-3.296875,0.6845703c-16.7148438,3.4541016-32.5029297,6.7167969-41.6240234,20.3212891
		l-0.2919922,0.4345703l-0.3349609,0.4023438c-5.7207031,6.8583984-10.8632813,14.1435547-16.3076172,21.8564453
		c-11.1650391,15.8173828-22.7109375,32.1728516-39.5722656,44.5654297l-0.1835938,0.1347656l-0.1894531,0.1269531
		c-1.5605469,1.0400391-3.0869141,1.7460938-4.4335938,2.3027344c-1.8632813,23.59375-10.3300781,44.3242188-18.5390625,61.703125
		l-0.1210938,0.2558594l-0.1357422,0.2490234c-11.0136719,20.2617188-32.1621094,31.8828125-58.0224609,31.8837891
		c-1.2851563,0-2.5927734-0.0302734-3.8925781-0.0888672C371.9072266,692.5634766,369.2871094,692.6015625,366.7802734,692.6015625z
		"/>
	<path class="st1" d="M335.0805664,57.0668297c8.355957,1.7928543,16.9131775,2.8871536,25.4693298,4.2785263
		c1.5914917-1.9881516,3.9789734-1.7880821,6.0690002-2.7851601c38.206543-15.7195663,83.473877-25.8670959,126.8518982-17.21175
		c10.1488647,2.5865898,20.5961609,4.5772095,30.0484924,9.2537308c-1.9904785,1.2920609-5.572876,0.9935379-6.0690918,3.5810928
		c2.1873169,2.9853935,6.5666504,1.7916756,9.2546997,2.58638l8.6544189-0.7947044
		c0.9936523,0.4972534,2.0877686,0.4972534,2.8848267,1.4910583c-0.0994263,2.0912704-2.9854126,4.477417-0.3980713,6.4681435
		c7.0628662,1.2919579,15.5205078,0.3979378,22.5844727,0.6963539c-2.786438,2.7864456-7.2630005,2.9830856-9.3518677,6.067894
		c3.2827148,1.7917862,7.6608887,0.8952484,11.1425781,2.1885452c7.7601929,3.9801636,14.5266113,11.3425293,21.09198,17.9089127
		c4.5770264,3.8797836,6.9656372,10.14785,13.2337646,10.7445755c13.3320313,1.8911972,24.6744385-3.3820419,38.0065308-2.58638
		c6.3653564-1.2930756,11.8387451-0.2985764,18.6031494,0.397995c11.8409424,1.5916595,24.177063,10.2482376,28.3573608,21.890152
		c2.883667,1.7894211,1.7893066,5.1716843,2.4846191,7.858757c0.1005859,10.5467072-5.4712524,18.8042145-7.1611328,28.6533813
		c-6.2692261,21.7897644-30.0460815,29.8485565-48.354248,36.9134674c0.5979614,3.7801514,3.8817749,6.4671173,5.3728638,9.9488068
		c18.4064331,36.6127319,18.1091309,81.3834534,18.2073364,125.0613403l-0.2984619,0.298584
		c-2.7852173-0.6964722-5.4733276-2.4881592-8.2575684-2.0903625c7.3624878,21.3930664,16.8137817,49.5469666,4.2775269,71.6351013
		c-8.2553711,14.426178-14.1276855,29.7488098-19.9979858,45.0703735
		c-3.3833008,5.6713562-6.2680664,11.5426025-10.0482178,16.9143066c-1.7904663-0.9947205-0.8952637-4.3768616-2.1895752-6.1673584
		c-2.5852661,3.3798828-1.8912964,8.7525635-3.8783569,12.5348511c-0.8966064,1.8901367-2.1897583,3.5823975-4.3792114,3.979187
		c-0.3967285-2.1886902-0.3967285-4.6763916-0.9949341-6.7655945l-1.0929565,0.9948425
		c-1.6922607,9.2524414-4.0797119,19.2020874-13.2338257,24.3761292c0.7970581-3.4828491,3.2828369-6.368866,2.7854614-10.3490295
		c-0.5970459-1.590271-1.6911011,0-2.4857788,0c-6.6661987,13.6317749-21.5907593,13.5322571-33.3301392,17.9091187
		c-18.6053467,3.8807373-38.5038452,7.2639771-50.4444275,25.0724182
		c-18.0083923,21.5906982-30.8418579,47.6590576-54.1225891,64.7700806
		c-2.6869812,1.7915649-6.0692444,2.1895752-8.5560303,4.3780518c-0.6974792,23.380249-8.5571594,43.8765869-17.9101563,63.6768188
		c-10.5456848,19.4000854-31.2388306,27.6577759-53.0285034,26.5635376
		c-28.2579651,0.7957153-61.6864014-1.4921875-74.819397-31.1414795
		c-10.24823-23.3814087-18.0084839-47.7565308-30.4450989-70.2412109
		c-5.8691711-11.1448364-17.2128143-22.3867188-30.1457825-23.2808228
		c-29.9479675-4.8753662-54.9185181-23.6809692-77.703064-44.3752441c2.784256-9.4501953,0.4974213-19.6994934-7.1633606-25.8681335
		c-8.8555298-6.2669983-22.8817139-4.675354-32.6336594-1.3904724c-3.2850342-2.1895752-5.5718155-6.0726624-7.8608551-9.354126
		c-12.038887-19.0032654-17.2116394-41.0913696-20.7927933-63.6747742
		c-9.1551132-7.7613831-21.5907135-15.4221802-21.0921707-28.6557312
		c0.3978882-6.3664246,3.0825577-11.8387146,5.7684021-17.2103271c-0.8929901-7.6608887-2.7841949-14.9247437-2.5851974-22.983429
		c-12.9341354-19.7992554-3.9790344-47.4568176-3.582222-70.1408081c0.0994186-8.45755-0.2985229-17.6105652-8.1592674-21.8901672
		c-0.9925766-0.5969391-2.9820137-0.099411-2.8848991-1.7895203c4.2786331-16.4178619,15.4221649-30.0484619,19.7018738-46.5635834
		c1.2909317-5.96875,1.0919876-12.7340088,1.0919876-19.3005524c-5.7707062-4.1801758-12.5350113-5.7718353-18.3069572-10.049408
		c-7.0627747-4.0796814-14.7245522-9.850235-19.3005562-16.8148804
		c-8.2587128-10.544342-10.3476524-27.2607727-5.0754242-39.7958374
		c3.9800835-10.7467194,14.1299973-21.3918762,25.0734634-25.0723801
		c8.7562103-5.5706024,18.504776-9.0535126,27.5593491-13.9279022c15.8199997-5.9706192,34.8210678-7.0648651,51.2402115-1.7904434
		c6.9632416-2.589859,12.3361206-8.7571716,20.7915039-7.8609619c3.5834045-0.6973724,7.5624847-0.0993118,10.7446289-1.7915649
		c-1.5905304-3.3834381-5.8669128-5.4724045-7.1612244-8.9550476c8.456604,0,16.2168732,2.7851601,24.3760834,2.4879761v-0.6961937
		c-4.2797546-3.1833153-8.8556213-5.67033-13.2336273-8.6567917c10.1476898,2.6870804,20.5948181,4.5758705,31.4375763,5.7708168
		c0.7980804-0.4975204,0.7980804-1.1949463,0.4014893-1.7905464c-2.9855042-3.0840034-6.6671448-5.0732803-9.3531494-7.8586044
		l0.3968658-1.0964966c22.1876984-8.6545906,49.1500549-12.3362312,73.4277649-6.4659424
		C295.4813538,44.3339958,314.6836243,51.9935493,335.0805664,57.0668297L335.0805664,57.0668297z"/>
	<path class="st2" d="M680.3994141,125.5113907c-8.9326172,0.9969711-15.9113159-2.8711166-23.6477051-4.6656876
		c-6.6598511-2.4724808-13.359375-5.1841278-20.4178467-6.7793198c-24.1662598-8.1351395-52.5195923-4.1472549-76.6060181,1.3958206
		c-2.6717529-3.9877777-5.0645752-8.3346176-8.9326172-11.4450073c-5.5032349-5.263916-13.9573975-4.7454758-21.215271-4.6659012
		c-0.7976074-10.1289749-7.0584717-19.1814041-16.1110229-24.6846924
		c-26.8777771-15.7916374-63.6853943-17.3868332-94.9100342-12.920517
		c-5.7824402,1.5953026-12.4419861,2.1933136-16.8284912,6.4602585c8.2548218,2.7915421,17.4267273,3.2700806,26.1600952,4.9848557
		c10.0490723,0.2791672,20.2182617,0.9969711,30.0680847,0.677803
		c-20.0986023,14.3563461-50.1669006,19.6202621-74.8115845,10.7672043
		c-3.9079895,5.7424545-6.1810913,13.4389496-3.5889282,20.4974365c1.9939575,6.061615,8.4542236,11.7242813,14.6351929,12.8409348
		c18.3042297,4.0674667,30.7462158-10.248764,47.3354492-12.5617676
		c27.5560303-7.3376541,57.6240845-0.1992722,75.9281311,23.0098114c0.0797729,0.6779022,1.276123,1.3557129,0.2791138,2.0735168
		c-24.7642517-7.0582733-52.7189026-2.1932068-73.0169678,11.1261597
		c-11.2457275,5.7025604-21.5740967,17.3070374-35.4118958,12.1628113
		c-9.3712769-3.7884064-5.2640076-15.432785-11.84375-21.0956573c-2.2731018-0.717804-5.0646362-0.3188477-7.1780701,0.2791595
		c-11.6445923,5.6628876-21.6936646,16.8287201-31.1448364,26.1600952h-0.7976074
		c2.1134338-13.7181091,2.7915344-29.0312042,3.987793-43.6665039c0.3987427-16.3102798-2.8713379-31.1448441-6.4602661-45.8599319
		c-26.6386414-8.2548256-54.4338074-13.9176979-83.4650269-16.4298592
		c-1.9939575,0.5981178-4.9848633,0.1993713-6.7794189,0.3189507c-3.0707092-0.7977028-6.6595459,0.079792-9.6504517-0.717804
		l-6.8591156,0.3988533c4.3864288,4.7056885,10.2486725,9.7700157,15.1137238,14.3561287v0.677803
		c-11.9235382,1.3959274-24.1662445,2.113739-36.6082306,2.8714371c-9.2516937,1.3956146-17.1874542,0.1194763-26.4789429,0.9969711
		l3.1901855,3.3096542l-0.6780243,0.6781235c-6.9786835-1.2761307-14.3162384-1.6750946-21.4941864-2.4724731
		c-1.9939423,0.8772812-4.7854919-0.3988571-6.4602661,1.0765457c2.6717529,1.3161392,5.782135,1.7147751,8.6534729,2.5123749
		c1.076767,0.7975998,3.2700806,0.9969711,3.5891418,2.4724808c-7.0584869,3.2699738-15.1539459,4.9847488-21.2152405,10.0494003
		l3.3097534,19.6998367c0.0797882,0.7975922-0.9171753,0.717804-1.5153961,0.717804
		c-8.2546234-5.5032883-17.7060089-8.1750336-26.8380127-11.4451141l-23.6078186-5.3833923
		c-12.2426071-1.5154037-24.8440628-2.9909134-37.2862549-2.9113312
		c-6.3804703-2.1533127-10.8467865,2.1136322-15.7517395,4.7055817
		c-7.4572296,11.4451141-14.5956154,23.4883499-13.5986443,37.8843689
		c1.3959351,16.9085083,19.3807793,24.405426,32.6203575,29.4700775
		c-7.0582733-8.5736694-12.8406219-19.4206696-9.3712769-30.467041
		c3.7885132-8.0552444,12.2427139-13.9970703,20.4176407-15.7916336
		c19.1016159-3.7086182,34.3351364,9.6504364,44.065361,24.3655167c2.7117462,2.1933136,0.5983276,5.1841278-1.7945709,6.4602661
		c-29.748909,26.3594666-33.6173248,67.872879-31.1448441,107.0729523
		c-0.0795746,12.7211456,1.5154114,22.0527496,1.3959351,34.6941071l-20.6968079,39.3997498
		c-2.8714371,6.1809998-6.938797,11.7640686-8.6535721,18.3041382c1.395607,9.1719971-0.3989639,20.0187988,5.782135,26.8778992
		c4.1874695,1.993927,8.853157,0.6779175,13.2396851,1.0768738c-0.5185471,2.1134033-2.1135254,3.9877625-1.3957214,6.1011963
		c-1.7945709,7.6565857-0.1196899,15.7120361,1.3957214,22.8500977c2.3927917-4.6656799,6.3406754-9.0521851,10.3285599-12.8007202
		c1.7146683,0,2.7116394-3.309967,4.3864136-1.1167603l3.1902924,24.3656311
		c4.386734,17.0281067,7.5769119,38.0439758,26.8781052,45.5011902c4.0673676,1.5952148,8.4542084-0.717804,12.5215607,1.0767822
		c6.1810913,7.8558655,13.4389496,14.7150574,20.3779602,21.4941711c4.585907,7.0585022,5.3036041,16.0311279,10.4480438,22.571167
		c1.7943573-2.6717529,2.1134186-6.1414185,4.3067322-8.6534729c3.947876,1.7943726,3.1504974,6.8589172,4.2669373,10.4480591
		c1.8744659,4.6656799,1.8744659,10.567627,4.2670441,14.6353149c1.9140472-4.5861206,2.8713379-11.7243042,8.6534729-12.5219116
		c8.2548218,5.1442261,16.2304993,11.3255615,25.0835419,15.3930054c7.2579651,2.9907837,16.1108093,7.5769043,24.2857361,3.1903687
		c5.0646362-3.9877319,5.1444397-11.1261597,4.3468323-17.5065002
		c-17.3868256-7.8562012-34.4947052-16.5096436-50.1269684-28.6724548
		c-36.4087524-27.5560303-60.2958527-65.9588623-67.3543396-108.5087891
		c-1.594986-8.9726563-2.9909058-18.3040161-2.871109-27.5557251c-0.5983429-13.2396851-0.5983429-26.6786194,1.3955994-39.7986145
		c0.079895-3.7882996,2.2731171-7.5768127,1.4755096-11.0461731c-4.3865204,3.7486267-8.7732544,8.4542236-12.920517,12.1229248
		l-0.717804-0.6779175c-0.9969788-11.5647888-1.076767-24.405426-2.472374-36.2493896l0.2791672-27.8349609
		c1.7945709-8.3743134,6.1810913-15.7119598,8.9725189-23.6876221c0.6779175-2.0737305,2.2731171-4.8650513,1.0765533-6.4602509
		c-3.867981,0.4785309-6.9386902,4.9847412-10.7271957,6.8588867c-1.7147827-11.5245819,8.7333603-19.0217133,16.1109085-27.276535
		c2.2731018-5.1444397-6.0615082-2.2731018-5.6625519-7.138382c6.2606659-4.5059967,15.7915192-8.8528442,15.0339355-18.3039093
		c-1.1165619-1.7945709-3.1103973-1.7945709-4.3069458-3.1902771c0.9173889-4.187149,4.5861053-7.3775482,7.4574432-10.7671051
		c6.5797272-6.1411896,14.3560181-10.7273102,24.0065613-10.3285675c0,0.2791748,0.0797882,0.8773956-0.3189545,0.9968719
		c-16.4299622,26.7584229-26.2797852,56.9861908-23.6876068,90.6434174l0.717804,2.1933136
		c4.8649597-1.3161316,9.5306396-3.1107025,14.0369568-5.3837128
		c26.9577026-15.8316345,16.3102875-50.9243622,32.5007782-73.1365662
		c11.0463715-16.6291351,29.9486084-23.3685608,49.1700134-19.9790039c5.98172,1.4754028,11.7241821,3.3498688,17.5063171,5.6625519
		c6.1813049,2.8714447,12.4421692,5.5830841,18.3041992,9.3316956c-7.4572144,1.9140472-15.2335205,3.1103973-21.8931274,6.7793274
		c-4.0675964,2.5919495-5.9418335,6.6596222-6.0615234,11.125946c6.1810913,11.3652039,21.6937866,7.6964874,32.5407715,11.4450073
		c15.3131104,1.914032,27.9544373,16.350174,31.9422302,30.467041c0.199585,1.3955994,0.9969788,2.871109,0.6781311,3.9877777
		c-8.8530579-4.306839-20.1783752-11.1658478-30.0284119-4.306839c12.6413574,5.98172,32.6203613,9.9694977,34.0161743,28.2737274
		c0,7.0582581-0.9968567,14.0369568-4.6658936,19.3009644c-4.9049683-7.6565857-9.7698975-18.1046295-19.021698-21.0955353
		c-5.8622742-3.0707092-11.5249329,0.6779022-16.5096741,3.1901703c-2.0737305-4.7853699-3.6687012-10.168869-7.4572144-13.9173737
		l-0.717804,5.7424469c-1.7545776,6.3803558-3.8683167,12.9604187-10.049408,17.107666
		c-3.947876,2.3927917-9.3313904,3.3897705-13.9972839,1.7945709c-5.9019318-0.4785309-10.6474152-3.5889282-15.7519531-6.061615
		c0.9969635,2.1935272,2.1935272,4.2670441,3.9878845,6.061615c1.1166534,1.9140472,3.7884064,3.7086182,3.5891418,5.7823639
		c-5.7824554-2.4723816-11.6443787-4.5861206-16.1108093-9.6504517l-1.1166534,2.4724731
		c0.3989563,4.9847565,4.187149,8.9725342,8.2947235,12.1628113c-0.717804,3.5890503-2.9908142,6.4601746-3.5891418,10.0492859
		c-0.9170685,4.0674744-0.5184326,8.7333679,3.190506,11.125946c7.4572296,2.5921936,15.1137238-0.5982056,20.7763824-5.3833618
		c10.1688843-11.5249329,22.1723022-28.2339478,39.0010376-25.4424133
		c-2.3929138,6.3405762-6.2608948,12.2427063-10.3285828,17.9052734
		c-8.2947083,11.6443787-19.5005493,22.0925293-23.6877136,35.4915771
		c-0.1993713,1.9938354,1.4755249,3.1903992,2.8713379,4.5859985c0.9969788,0.7976074,2.5919495,0,3.1902771,1.5154114
		c-2.8714294,5.1442261-8.6535645,9.849823-8.9726257,16.3899536c0.5980225,2.7116699,3.5093384,2.5122986,5.3834839,2.9110413
		c1.1962585,0.3988342,2.5122681-1.1963501,3.269989,0.3988342c-2.7515564,4.5462341-4.7454834,9.4511719-5.3435059,14.9942627
		c0.2789612,2.9909058,3.788208,1.7147827,5.6626587,2.5123596c-2.7915344,23.4881592-6.7794189,54.9121399,17.227356,69.1487122
		c-14.8347778,24.365509-2.7116394,54.3141174,10.4481506,75.6092529
		c0.2791748-9.5708618-0.5184326-20.6968079,0.2791748-30.8657837c1.3955994-12.6015625,5.263916-24.0466614,10.4480286-35.092926
		h0.6779175c7.3773193,6.8591003,9.4510498,17.5065002,17.9451599,23.2889709
		c3.8683167-7.3774414,4.2670593-16.7489319,11.0064697-22.2122192l9.7702332,8.5738831
		c3.2699585,0,5.8619385-1.993927,8.9725342-2.7915344l6.0612793,2.0737305
		c4.3468628-6.4602356,10.3286743-0.4784241,15.7120667-0.2791443c3.2700806-2.7915649,6.7794189-4.7854004,10.049408-7.1779785
		c5.6626587,4.7851563,3.9878845,13.3191528,5.7824402,20.0186768h0.6778259
		c3.7885132-4.7055664,7.0585632-9.1719971,10.7671814-13.9573669l1.3557129-0.3987427
		c5.1045532,10.6473999,5.7823486,23.6079102,5.7823486,35.8505249c0.3989563,10.5279541-0.7975769,21.5739746-0.3986206,32.2217102
		c10.2487488-13.319458,19.3008728-27.0774841,22.6108398-43.2680664c5.2640381-13.3590698,0.3590698-27.9943542-7.895752-38.40271
		c10.0490723,2.7515259,18.503479,13.7181091,30.7458801,10.049408c5.9021301-1.1165466,7.8561707-7.3774414,10.0493774-11.84375
		c6.4602661,8.0552368,9.7702332,17.9848328,10.7672119,28.6325684
		c0.6779175,38.5221558-24.565094,66.9553833-38.7218628,99.6157227
		c-6.2608948,6.0615234,2.3130188,11.1259766,3.9878845,16.5096436h0.7177124
		c21.1753235-22.0927124,40.8751831-45.3814697,52.5994568-71.661377c1.1965637-3.2699585,1.993927-6.6595154,3.5891418-9.6504211
		c4.2669373,3.5891113,7.8558655,7.3774109,11.8436279,11.0463562c4.1875-6.1414185,6.3806763-13.1201172,7.8562012-20.3779602
		c0.7177734-2.5919495,0.1194458-5.782135,1.7945557-7.8558655c7.4572144,2.5921631,15.3131104,5.263916,23.6877441,4.6656799
		c31.2244263,1.8743591,40.7952881-39.2799683,70.2254639-42.9885864c3.1901855,4.5857849,5.263916,9.9694824,8.9725952,13.9173889
		l3.5891724-8.5339966c1.4754028-4.6657104-1.1167603-9.5706482-2.1935425-14.0372009
		c4.9448242-28.3533936,11.3255615-63.7652893-1.3956299-90.6430969l5.3834229-13.9174805
		c12.4024048-36.9272766,5.5431519-81.7903595-9.3712769-115.3277893c-1.4754028-2.35289-4.5861206-2.6720581-7.1779785-3.2700653
		c-9.4511719-3.5891418-18.9821167-6.8591156-26.8381958-14.3163452
		c-15.4329224-11.84375-14.7547607-32.7399292-10.0491943-49.369278l0.6779175-0.7973785
		c15.1137085,12.6413422,35.730957,12.0430145,55.510376,12.9604034
		c14.3563232,0.7973938,29.7492065-2.1136322,42.9887695,2.4724884c1.7147827-3.7885132,2.5123901-7.8562012,3.5889282-11.8439789
		C681.1968384,131.9716492,681.5158691,128.2230377,680.3994141,125.5113907z M112.7326965,349.3878479
		c-2.3925858,9.132019-8.8927383,16.3898621-15.0339355,23.9667969c0.5980148-18.3042297-0.3190613-38.1235352,3.5889282-55.510376
		l1.3958206-3.1904907C109.1437683,324.5837097,116.0825653,336.2280884,112.7326965,349.3878479z M300.7586365,162.0399475
		c23.169281-22.2920074,35.3320923-49.7681351,33.6173096-82.7872314
		c14.2365723,17.107666,8.8528442,44.783165,5.0646667,65.2807007c-1.1965637,11.125946-2.7516479,26.0402985,1.3955994,36.8075104
		c3.9079895,4.8652802,8.7732544-0.5184326,12.9604187-1.3956146c2.6717529-0.717804,5.2640076,0.7976074,6.061615,3.1901855
		c2.7915344,12.6413422-3.1902771,23.3685455-5.3836975,34.8135529c-1.5950012,1.2761383-3.3895569-0.8771667-5.0644531-1.0765381
		c-5.6628723-2.1932068-11.6445923-4.187149-17.1078796-6.8991241
		C328.7132874,191.1909485,317.0686951,174.0830688,300.7586365,162.0399475z M422.5466919,385.8765259
		c-3.9079895,9.0522156-11.5646057,17.227356-19.4206848,24.0064697c2.1136475,3.3498535,6.4602661,5.7425537,9.7702332,8.6537781
		c-12.2427063-0.119812-26.2798767-1.1965637-39.3997803-1.7945862c-14.3560181-0.5184326-29.669342,0.3986511-42.7096558-0.3989563
		c-10.0490723,0.6781311-21.4941711,1.3959351-31.5435791,2.1935425c2.7117615-2.1935425,5.7025452-4.3069458,7.9756775-6.8592224
		c-6.4602661-4.3068542-18.7827759-1.9938354-18.9820557-13.2395935
		c-14.8345337-34.3351135-2.1932983-74.2133179,16.3898621-103.1649475
		c1.1167908-1.9938354,3.5891418-3.1901855,4.3867493-5.3833923c0.0795898,3.5888062-1.7945557,6.7394104-1.0767517,10.0490723
		c-0.5184326,1.993927-0.3190613,4.2670593,0.2791443,6.061615c2.1932068,3.3897705,5.98172,5.7823486,10.049408,5.7823486
		c6.2608948-1.5154114,14.1167603-3.309967,19.6998291,1.0767517c5.5828857,5.3835144,6.8590088,12.8407288,6.0613098,20.4176636
		c-3.1901855-0.3190613-6.3803711-2.5921631-9.6504517-0.7177124c-3.9877625,1.7146606-3.4693298,5.8619385-4.9847412,8.9725342
		c-6.5400391-2.5921631-12.3225098-7.0585022-18.5831604-10.4482422c-3.8683167,2.5921631-4.5861206,7.7363892-3.5891418,12.2425842
		c2.8710938,5.8622437,9.0524292,10.2487793,15.3134155,11.4053345c8.2544861-0.678009,18.7026367-5.7424622,25.8809204,0.717804
		c-1.3959351,4.4663086-3.2700806,8.533783-5.0646362,12.9205322c2.6717224,1.5949707,4.5860901,0,7.5370178,0
		c6.8588867-0.6779175,17.9052734-4.1472778,22.6108398,3.190155c0.8775024,2.4725037,0.8775024,5.4632874,1.3957214,8.2548523
		c3.5491333-6.8591309,7.257843-13.4389648,10.3285522-20.377655c0.5982361-3.9878845,4.1871643-5.5830688,7.5769348-6.4602661
		c11.125946-4.7854614,22.4911499-15.0342407,22.8901062-27.9946594v-5.343811
		c5.3435059,6.5401611,9.132019,14.7150879,6.4602661,23.6877136c-3.309967,9.331604-11.2457275,16.7888184-15.7120667,25.7614746
		c1.953949,0.5982056,3.6687317-1.5154114,5.6626587-1.7945862c1.6747742-1.1164246,3.3897705-2.3925781,5.3437195-2.5123596
		C423.3442688,370.1644592,424.9394836,378.419281,422.5466919,385.8765259z M373.49646,318.9208374
		c3.2700806-4.9448547,7.7363892-13.2395935,14.9942627-11.4450073c3.1103821,0.9968567,5.7824402,3.7085876,7.895874,6.3805542
		c1.4754944,4.1871643,3.5492249,8.0552368,3.1504822,12.9205322c-0.7976074,4.5858765-1.8743591,9.5706482-6.0614929,12.1628113
		c-7.2578735,1.1963501-14.2365723-0.9969788-18.5834045-7.1779785
		C372.7787781,328.1726074,372.7787781,323.2276611,373.49646,318.9208374z M584.4125366,207.5010223
		c3.1901855,10.5279388,3.987793,22.0927429,5.3834839,33.3383636
		c0.0797729,43.3873596-11.5645752,83.5846252-28.6724854,120.6712952c2.3928223,0.7180176,4.7854004-0.9968567,7.1779785-1.3956299
		c18.9025269-8.2548218,25.362793-27.9546509,30.0285034-45.1821289c7.6564941,9.8900452,14.1167603,20.8166199,21.21521,31.1449585
		c-15.3532715,12.7610474-15.0341187,32.5407715-17.227417,50.9644775
		c-5.3835449,12.9205322-20.0985107,20.0984802-31.5435791,26.8380127
		c3.5888672-7.0585938,9.6505127-14.5953979,5.7821045-22.9699097c-1.5153198-0.7973938-1.5153198-2.7913208-3.3096313-2.8711243
		c-11.0064697,11.7241821-16.7888184,26.0402832-26.8382568,38.0038452
		c-0.7976074-0.598114-1.5949707-0.1993713-1.7945557-1.3957214c0.2791748-4.6656799,2.5921631-9.7702332,0.7976074-14.0371704
		l-2.59198,1.1166687c-8.1752319,8.5339966-13.7180786,19.1813965-22.491333,26.4393616l-0.7976074-0.6781311
		c-0.1994019-4.1073608,2.1135864-7.6566162,0.7976074-11.84375c-2.6717529,1.0767517-4.067688,4.067688-6.1810913,6.1412048
		c-4.9448853,6.9786682-8.5340271,14.635498-13.9174194,21.4943848c-0.797699-10.7272949,0.5980225-24.7644653-3.9878845-35.0928345
		c-4.0676575-8.3745117-7.7363892-22.2121887-19.9790039-21.8930359
		c-8.7732544-1.1167603-16.8287048,1.8741455-25.0835266,2.8711243c2.7116394-19.7795105,1.9938354-41.9917297-2.4724731-60.4952393
		c4.7854614,9.3712769,13.7181091,20.0189209,25.3627014,19.6998596
		c27.675293-3.4693604,47.5746765-32.5407715,60.176178-54.7926941c3.1901855-8.5738831,8.5738525-17.0280762,6.5001221-26.8778992
		c-8.8528442,10.6474304-20.8162842,17.3070679-34.7339783,14.3162537
		c-17.0278625-3.3895569-30.945343-14.4359436-44.4641113-26.1602173l0.6778259-0.6777954
		c10.0493774-1.31604,19.8196106-3.1105957,29.4700623-5.3836975c7.9357605-1.3158264,15.193634-4.0674744,21.7733459-8.6534729
		c1.7945557-2.1135254,2.7915649-4.585907,2.87146-7.4572296c-2.2731323-7.9756622-9.331604-14.954361-15.7120667-20.098587
		c-0.7976074,2.4724884-2.6717529,4.3865204-4.3865356,6.4602661c-8.4544067,6.4602509-17.3870239,11.84375-26.8381958,16.1106873
		c7.257843-8.6534576,17.5066223-16.9082947,14.3164368-29.0312042
		c-3.1902771-8.972641-12.5218811-15.1539459-21.7736816-15.3532104
		c-5.1841125,0.5982208-10.5675049,1.1166534-14.0371704,4.9847412c1.993927,1.1962433,5.463501-0.9969635,6.4604797,1.7945709
		c1.1963196,2.2731171,1.8741455,4.6656952,3.2698669,6.7793274c5.3836975-0.1993713,12.1630249-10.6474152,16.1507874-0.7178192
		c1.6748962,3.5889282,2.6718445,7.8559875,1.7546692,12.2427216c-1.3559265,4.5857849-5.6628723,10.168869-10.7272034,11.046051
		c-7.8561707,1.6750946-16.0310974-0.7976074-21.4945068-6.0613098c-4.2669373-4.0676727-5.3836975-10.0493927-4.6656799-15.7120514
		c-4.3867493,3.6687164-6.9786987,9.1320038-9.3714905,14.3161316c-1.6747742-1.594986-3.5492554-2.6717529-5.6626587-3.2699738
		c-9.7302246,2.2731018-13.1197815,12.7211456-15.4328003,20.7766113
		c-1.8744507,9.3712463-2.2731018,18.4236755-2.4724731,27.9546509
		c-7.257843-16.8287048-10.5279236-35.5315857-21.1753235-51.2436371
		c-2.9112549-3.5889282-6.6995544-6.2608948-11.4450073-6.0612946c-4.5861206,0.6777954-8.2548523,3.7881775-11.8439941,6.7790985
		c8.7333679-23.089386,17.5066528-46.1788788,26.5590515-69.1486969c3.2697754,4.0675812,4.7851868,10.049408,10.7272034,10.7272034
		c9.849823-0.6777954,16.9483032-8.2548218,25.4024963-12.5217743c4.0673828,7.2578583,11.9235535,12.8408356,20.0984802,14.0371857
		c8.653595,1.6747742,18.3042297,2.7516479,23.5679321,11.0064697c1.8744812,3.5888214,3.6690369,7.4971313,3.9878845,11.1658478
		c-4.7852783,0.2791595-8.8529358-2.0737457-13.6383057-0.7178192c-10.4480591,0.3188477-20.6170349,3.987793-25.7611389,13.6383362
		c-1.9143677,2.9110107-2.3131104,6.8588867-2.5123901,9.9694977c5.3035889-5.8619232,10.9664612-13.3590546,18.6230774-15.7120667
		c7.0584717-2.3925781,15.0341492-1.5152893,22.5709534-0.7176971c2.7915344-4.5861053,7.377655-9.4511719,13.2395935-8.9327393
		c10.3684387,1.9540558,17.7059937,12.7211456,24.365509,19.9790039c5.6629028,0.9969635,12.1630249,1.8742523,15.7120361-3.5891418
		c3.7885132-8.254715,0-17.9052582-6.4602661-24.2859497c-9.6504211-9.8498077-21.5739441-15.7119446-34.295105-18.7028656
		c-5.1841125-0.8771667-11.2457275-0.1993713-15.8318481,0c3.8683167-8.4541931,12.1231384-16.3100586,21.4944153-17.5063019
		c10.5279236,0,19.301178,4.3864136,27.236969,10.3682404c4.7853394-0.3191681,9.5708618-0.598114,13.239563-3.588913
		c1.3956299-2.472702-0.5982056-5.3837128-2.4724731-7.4574432
		C553.8656616,157.4538269,577.234436,181.7398834,584.4125366,207.5010223z M412.0873718,652.0335693
		c1.0953369,5.3729858-0.9947205,10.5458374-6.0681458,13.6316528c-16.3160706,9.0524292-37.5089111,9.5507202-56.9103699,7.8594971
		c-9.750824-2.1893311-21.9884949-5.8712158-24.7727661-17.213501c-0.8964539-1.6911621-1.1948242-3.5823975-0.9957886-5.7697144
		c5.17276,3.9778442,10.7445984,6.8650513,16.8146667,8.6566162c23.0815735,5.074585,49.9448853,2.1873779,70.5375671-7.1645508
		H412.0873718z M421.8371277,543.4875488c4.37677,17.1120605,3.980072,37.6087646,0.2994385,54.8201294
		c-2.0913086,7.9593506-6.8672485,17.0125122-15.4231262,19.9979858c-5.5706482,3.1831665-13.2315369-1.7904053-18.2051392,2.887207
		c-2.7888489,0.9925537-5.3729858,2.4855347-8.2577209,3.2814331c-15.7218323,6.1686401-35.8181458,4.6766357-49.0506592-5.7706909
		c-7.3632813,1.6911011-15.42099,1.8899536-21.4901123-2.8859863c-9.7509155-10.147644-9.7509155-25.7674561-8.2577209-39.4004517
		l-0.4001465-0.2971802c1.1938782-5.2721558,1.592865-10.6448975,2.8859253-15.817688
		c1.6899109,0.6951904,1.1948547,2.8837891,1.7928467,4.2772217c5.3718262,13.2338257,5.0732422,32.0357666,21.888031,37.3094482
		c1.9895325,2.9863281,1.5937805,6.8638306,3.1843872,10.050354c3.3822327-2.5887451,7.0628662-4.3790894,10.446106-7.1646729
		c4.6763916,0.994873,8.0586548,5.4736328,13.232605,5.3728027c3.7799072-0.6973267,6.8638306-2.5872192,9.6511841-5.3728027
		c4.2764893,0.7971802,7.8597107,3.0839233,11.8390198,4.5759277c5.670929-2.8847046,11.1435547-6.4671021,16.8125305-9.6490479
		l-1.0931702-1.0952148c-6.9645386,0-14.1267395-1.6911621-20.3971558,1.0952148
		c-4.3757935-0.2001953-7.3610229-3.6827393-11.1412964-5.3751221c-6.766449,3.6828613-15.72052,5.1749268-23.5813293,2.8869019
		l-1.0942383-1.0940552c-14.7236633-36.9121704-29.9468994-83.97229-11.8399048-124.2667236
		c2.0900574-2.0891724,1.990509-6.7655029,6.0691528-6.0704041c10.0491638,2.0913086,13.333313,15.8188477,24.0775452,16.4181519
		c14.7261353,2.4870605,23.9772034-18.1092529,39.0003967-8.5561829
		c4.7769165,17.6107483,8.4575195,36.1143494,7.8606873,55.5153198c0.198822,0.1991577,0.4975281,0.3979492,0.3980103,0.6953735
		c0,0.8974609,0.0995178,2.7876587-0.3980103,3.9834595c0.6986084,21.6879272-2.2888794,42.6797485-4.2774353,63.7720947
		c9.8493652-6.8649902,12.7341003-18.5036011,16.8148804-28.6525269
		C416.4641418,560.5996094,418.952179,552.0424194,421.8371277,543.4875488z M207.2317657,364.3993835
		c-2.0869293,7.1658325-0.397995,13.1331787-1.3929291,20.7948303c-1.4920349-0.1975403-2.485672-1.7903748-3.2813416-2.8857117
		c-7.2653656-9.5496216-6.0714874-22.6827087-10.746933-33.3301086c-2.188385,1.5916443-2.2888794,4.6766357-3.1831055,7.1646729
		h-0.6976471c-3.5810852-6.0691528-4.3779449-13.2337952-7.8583374-19.3028259
		c-0.1990509-0.4975281-0.7970581-0.3958435-1.09552-0.3958435c-2.3874359,3.3822632-2.6858063,7.5603943-4.677597,11.1425781
		c-3.4815674-2.2880249-2.782959-7.2639771-2.8837738-10.7467346l-0.2981415-0.3958435l1.3924866-11.8409729l-0.6951752-0.6973267
		c-2.5887299,0.7980347-1.8899078,3.6827698-3.9812317,5.0743103l-0.2983704-1.0943604
		c0.8973389-8.1568909,1.1935577-16.9131165,0.995697-25.071106l-0.2983704-0.3989563
		c0.9935455-0.6950684-0.3989563-1.1938782,0-2.0878906c1.3927155-10.9457703,3.6806183-21.4911804,8.9529114-30.8430481
		c1.9894257,6.9641113,4.4774628,14.3266296,7.4627991,21.0921326
		c10.2484436,22.1863708,32.8328094,36.7123718,54.5219727,43.3779907c0.8963776,1.7919006-0.2996521,3.5835876-0.3970184,5.3742981
		c-4.0795898,23.4795532,2.1874084,46.2627258,5.7694702,68.450592c2.6862183,11.441925,5.8681488,22.6836853,8.9541931,34.0249939
		c-1.7904968,0.2996521-3.8807526-0.7956848-5.7707672-1.4920349
		c-22.0858765-10.9432983-18.7048035-37.5080566-25.469101-57.3059082
		c-2.3887177-7.3634949-4.5782776-14.9249573-11.0431519-20.7951355
		C209.620163,361.2161865,208.0274353,363.1064148,207.2317657,364.3993835z M262.7492065,223.3201141
		c-1.2941589-2.9840546-2.5872192-6.3663177-2.8857117-9.3505707c3.4825439-0.3006287,6.665741,0.1004791,8.9538879,2.4845886
		C267.2267761,218.9433441,265.3357849,221.6290283,262.7492065,223.3201141z"/>
</g>
</svg>
