<?xml version="1.0" encoding="utf-8"?>
<!-- Generator: Adobe Illustrator 22.0.1, SVG Export Plug-In . SVG Version: 6.00 Build 0)  -->
<svg version="1.1" id="Layer_1" xmlns="http://www.w3.org/2000/svg" xmlns:xlink="http://www.w3.org/1999/xlink" x="0px" y="0px"
	 width="720px" height="720px" viewBox="0 0 720 720" style="enable-background:new 0 0 720 720;" xml:space="preserve">
<style type="text/css">
	.st0{fill:#FFFFFF;}
	.st1{fill:#FB4F14;}
</style>
<g>
	<path class="st0" d="M617.6437378,352.5605774h-0.3421021c-3.4204102-1.7102356-2.9073486-4.7886047-0.5130005-6.6698608
		c29.0736084-21.5486755,48.9121094-49.2541504,48.9121094-92.0094757c0-50.6223297-36.2565308-121.5962067-177.6911926-121.5962067
		H123.049881l-82.6033249,144h60.5415726c6.8408508,0,12.3135376,5.4726563,12.3135376,12.1425171v143.657959
		c0,6.8408508-5.4726868,12.1425171-12.3135376,12.1425171H36l83.4584274,143.4869385h386.3372803
		C630.2992554,587.7149658,684,522.8978882,684,453.1211548
		C683.8289795,407.1163635,650.9929199,369.4916687,617.6437378,352.5605774z"/>
	<path class="st1" d="M572.4940186,356.8360596h0.5131836c-4.4466553-1.0260925-3.5915527-6.4987793-0.5131836-7.6959534
		c38.0864868-14.5197144,61.1572876-39.77948,62.5939331-83.8004761v-4.7885742
		c0.1709595-24.6270142-8.2090454-46.346756-23.9429932-63.4488983l-0.1710815-0.1710815l-2.5139771-2.6336975
		c-5.3529663-5.4384613-11.4584961-10.3638916-18.2822266-14.7933807
		c-7.7985229-5.0280304-16.5377197-9.3548279-26.2004395-12.9292145c-0.0684204-0.0341339-0.1368408-0.0683746-0.2052612-0.085495
		c-20.864624-7.8669434-45.8336792-12.1424713-74.2232971-12.1424713H146.1377716L85.9382248,260.7221375h42.9264297
		c7.5248718,0.684021,13.3396454,7.0118408,13.3396454,14.7077942v171.5344238
		c0,8.2090149-6.6698761,14.8788757-14.8788834,14.8788757H86.2802887l60.7125854,105.8622742h358.6318359
		c102.441864,0,144.513092-68.0665894,144.513092-118.0047607
		C649.9667969,405.74823,617.6437378,367.7814636,572.4940186,356.8360596z M341.7862549,271.49646
		c0-5.6607971,4.4465332-10.4152527,10.0047302-10.894043c0.3591614-0.0342407,0.7353821-0.0513611,1.1116638-0.0513611h48.9120789
		c2.3943481,0,4.6175842,0.1710815,6.8408508,0.3420715c23.6009216,2.2232361,32.4940796,15.9049683,32.4940796,33.3491516
		c0,20.1805115-10.603363,34.7173157-39.3349304,34.7173157h-60.0284729V271.49646z M401.9858093,461.6722412l-18.1795654,0.0683899
		l-21.3093262,0.0683594l-9.4232788,0.0342407c-0.8551025,0-1.7102051-0.17099-2.5653381-0.3420715
		c-4.7885742-1.1971741-8.3799744-5.4726868-8.3799744-10.6033325v-57.6341248h60.0284729
		c28.9026489,0,39.3348999,14.0236816,39.3348999,33.6911316
		C441.1496582,447.135437,430.5462952,461.6722412,401.9858093,461.6722412z"/>
	<path d="M262.432312,537.4346313c-0.171051,0-87.9049988-77.9857178-120.2280426-128.2659912v-133.738739
		c0-7.6959534-5.8147278-14.0237427-13.3396606-14.7078247c-0.1710205,0-0.5130615,0-0.6840973,0
		c-0.1710205,0-0.5130615,0-0.684082,0H85.9382401l60.1995316-106.2042694h59.6864624
		C181.8812408,282.099762,198.4703064,418.2327576,262.432312,537.4346313z M611.1449585,197.1021576l-0.1710815-0.1710815
		l-2.5139771-2.6336975c-5.3016357-5.387207-11.2873535-10.3638916-18.008606-14.7933807
		c-7.798584-5.1476593-16.5548706-9.5942841-26.3029785-13.1856842c-0.0513916,0.085495-0.119751,0.1709747-0.1710815,0.2564697
		c-72.5815125,108.0514069-112.2071228,245.6038666-94.6090698,371.3729858
		c21.7197571-105.1781616,77.9858398-202.1473083,165.7197876-272.6081238v-4.7885742
		C635.2589111,235.9240417,626.8789063,214.2042999,611.1449585,197.1021576z M313.2256775,154.346817
		c-47.8859863,185.3871002,0.6841125,328.1899414,35.7434998,413.3587036h44.8075256
		c-3.2493591-17.7862549-5.6436768-35.538269-7.2684021-53.1705933c-1.607605-17.4954529-2.5139771-35.5724182-2.7020569-52.794281
		l-21.3093262,0.0683594l-8.7391663,0.2052307c-1.1971741,0-2.3943176-0.17099-3.4204102-0.5130615
		c-4.7885742-1.1971741-8.3800964-5.4726868-8.3800964-10.6033325v-57.6341248h44.4655457
		c1.8813171-21.788208,4.7030945-43.6960449,8.089386-64.3041077h-52.5549316V271.49646
		c0-5.6095581,4.3610229-10.3297729,9.8337402-10.894043c0.3591614-0.0342407,0.7353821-0.0513611,1.1116638-0.0513611h48.9120789
		c2.3943481,0,4.6175842,0.1710815,6.8408508,0.3420715c9.5942688-38.5311737,31.5877075-100.5264282,33.7425842-106.5463104
		H313.2256775z"/>
</g>
</svg>
