<?xml version="1.0" encoding="utf-8"?>
<!-- Generator: Adobe Illustrator 22.0.1, SVG Export Plug-In . SVG Version: 6.00 Build 0)  -->
<svg version="1.1" id="Layer_1" xmlns="http://www.w3.org/2000/svg" xmlns:xlink="http://www.w3.org/1999/xlink" x="0px" y="0px"
	 width="720px" height="720px" viewBox="0 0 720 720" style="enable-background:new 0 0 720 720;" xml:space="preserve">
<style type="text/css">
	.st0{fill:#FFFFFF;}
	.st1{fill:#311D00;}
	.st2{fill:#FF3C00;}
</style>
<g>
	<path class="st0" d="M693.9969482,559.1279297v-0.3642578l-0.0263672-0.3642578
		c-2.9501953-40.40625-11.9326172-81.3291016-27.4521484-125.0585938v-0.3574219l-2.5390625-6.1835938
		c-4.46875-11.46875-13.0908203-17.2851563-25.6259766-17.2851563c-2.0839844,0-4.3115234,0.1484375-6.8066406,0.4541016
		l-9.5224609,1.0087891l-3.3662109,0.2998047c-11.9355469,1.0693359-26.7890625,2.3984375-42.0908203,2.3994141
		c-8.4570313,0-16.1806641-0.4248047-23.0429688-1.2646484l-29.1396484-69.7080078
		c6.3027344-3.3173828,11.5947266-8.4970703,15.0439453-14.9550781c1.6982422-3.0957031,2.8691406-6.6914063,3.5283203-10.8681641
		c0.9521484,0.0947266,1.8984375,0.1425781,2.8427734,0.1425781c0.8681641,0,1.9238281,0,3.2021484-0.1503906
		c11.0703125-0.7060547,20.4775391-7.7744141,24.0712891-18.1982422c0.8720703-2.6103516,3.1279297-12.0908203-4.3330078-24.7724609
		l-30.8154297-55.9707031l-9.78125,3.7626953l-13.8671875,5.8720703
		c-23.7695313-39.8232422-55.7148438-70.8808594-95.0507813-92.3886719
		c-37.671875-20.5976563-81.3251953-31.4853516-126.2412109-31.4853516c-42.2988434,0-84.7744293,9.6035156-122.8320465,27.7724609
		c-39.2485352,18.7363281-72.9291916,46.2548828-97.3998947,79.5791016
		c-23.3662148,31.8193359-38.1645546,68.1621094-43.984375,108.0175781
		c-6.3066406,43.1923828-1.828125,89.5605469,13.3139629,137.8242188
		c6.1030273,19.3984375,13.9897461,38.6308594,23.460453,57.2158203c-0.2900391,2.0332031-0.4326172,4.1806641-0.4326172,6.4863281
		c0,3.5634766,0.3525391,6.9189453,1.0478516,9.9736328l0.0410156,0.1787109l0.0473633,0.1777344
		c2.7138672,10.1796875,5.0209961,16.8232422,12.6196289,33.8300781c-0.8032227,7.2978516,1.3945313,14.9941406,6.1875,21.2285156
		c6.8374023,8.8945313,17.8486328,13.7919922,31.0058594,13.7919922c3.6508789,0,7.4990234-0.3789063,11.4423828-1.1279297
		c28.3163986-4.0664063,44.5073166-12.8457031,50.8193283-16.96875h4.1489258
		c30.2080078,22.0625,68.8222656,34.6357422,106.7920074,34.6357422c39.9755859,0,73.3798828-14.3574219,92.8134766-39.6298828
		c3.8017578,0.4404297,7.9277344,0.6621094,12.3349609,0.6621094c8.1064453,0,14.7255859-0.7568359,16.3310547-0.9560547
		c15.6699219-1.0791016,29.6533203-4.7197266,41.7050781-10.8447266
		c15.9833984,20.9580078,38.7558594,35.7607422,66.4150391,43.0566406
		c14.3505859,3.7646484,29.5859375,5.6738281,45.2832031,5.6738281c17.9833984,0,36.0957031-2.4814453,53.8867188-7.3789063
		c1.5722656,0.3837891,3.1943359,0.5820313,4.8212891,0.5820313c3.7021484,0,7.3583984-0.9980469,10.5996094-2.8896484
		c0.5087891-0.2734375,0.9755859-0.5595703,1.4072266-0.8496094c14.6855469-3.4306641,24.7988281-6.0107422,31.4970703-8.0390625
		v4.9267578l16.1943359-12.7734375C693.1160889,579.5136719,694.0750732,564.9677734,693.9969482,559.1279297z
		 M580.3270264,460.8779297c1.1679688,3.1767578,2.5029297,6.9980469,3.7939453,10.7666016
		c-1.3154297,0.0097656-2.6337891,0.0146484-3.9541016,0.0146484c-0.6396484,0-1.2822266-0.0009766-1.9248047-0.0029297
		l-4.0351563-9.6025391C576.3592529,461.65625,578.3963623,461.2646484,580.3270264,460.8779297z M491.8592529,369.1054688
		l1.7226563,4.1337891c0,0,1.4511719,3.3828125,2.1894531,5.1123047c-1.6162109-1.9179688-3.2246094-3.9326172-4.7988281-6.0371094
		C491.2479248,371.2207031,491.5438232,370.1513672,491.8592529,369.1054688z M498.2069092,432.9111328
		c-2.0742188,0.2363281-4.1152344,0.4638672-6.1201172,0.6816406c-0.3681641-1.2763672-0.7558594-2.5683594-1.1630859-3.8730469
		c-0.1904297-0.8369141-0.3730469-1.6777344-0.546875-2.5244141
		C492.9139404,429.1962891,495.5262451,431.1035156,498.2069092,432.9111328z M564.3133545,574.2080078
		c-21.0908203,0-58.3193359-4.6640625-80.4472656-34.4726563c26.8613281-3.0419922,54.7412109-6.8505859,78.3681641-10.7050781
		c11.1054688,16.5830078,25.5195313,30.6298828,41.4482422,40.3886719
		C590.4676514,572.5986328,577.2489014,574.2080078,564.3133545,574.2080078z M625.7811279,469.0507813
		c-1.6113281-5.0019531-3.3183594-9.9121094-5.1142578-14.7060547c3.3828125-0.703125,6.234375-1.3408203,8.6259766-1.9072266
		c1.7773438,5.1171875,3.2744141,9.9873047,4.5292969,14.7314453l0.1523438,0.6298828
		C631.2371826,468.2773438,628.5037842,468.6953125,625.7811279,469.0507813z M642.2098389,543.8779297
		c-1.1455078-9.8144531-2.6865234-19.6015625-4.6044922-29.2470703c3.0283203-0.6855469,6.1669922-1.4277344,9.0927734-2.1386719
		c1.9912109,10.8242188,4.3183594,23.7978516,5.8994141,34.5292969
		C649.0877686,546.1777344,645.6190186,545.1279297,642.2098389,543.8779297z"/>
	<path class="st1" d="M683.9963989,559.1282349c-2.9639893-40.5923462-12.0864868-81.0705872-27.4793701-124.0577087v-0.1141357
		l-1.8247681-4.4464111c-3.8764038-10.0341187-10.9458008-11.9730225-22.0064697-10.6047974l-9.6917114,1.0265198
		c-19.3841553,1.7106323-50.5123901,4.9029236-76.5101318,0.5699768l-35.4611511-84.8335876
		c0.1141357,0,0.2282715-0.1141357,0.3424072-0.1141357c8.2093811-1.1399536,15.3929138-6.2711792,19.269989-13.5688477
		c2.394043-4.3322449,2.9640503-10.1475525,2.9640503-15.0505066c0-0.3424072,3.6488647-1.7106323,4.5612183-2.3947449
		c2.5081787,0.912384,5.0170898,1.4823608,7.6394043,1.4823608c0.7982178,0,1.4823608,0,2.2805786-0.1141357
		c7.069458-0.3417053,13.2271729-4.7887878,15.5070801-11.4023438c0.1141357-0.3417053,2.2805786-6.841156-3.534729-16.6477051
		l-26.6811523-48.4600372l-1.4823608,0.5706787l-19.3841553,8.2093658l-1.1399231-0.1141357l-2.0530396-0.1141357
		C372.0279846-5.5168686-49.9734917,130.057373,51.6219292,453.8846741
		c6.3852959,20.2958374,14.5946541,39.9082642,24.4005241,58.7217712c-0.6841202,2.6229858-0.9116898,5.359436-0.9116898,7.9817505
		c0,2.6230469,0.2275696,5.2453613,0.7982483,7.75354c2.7364578,10.2623901,5.017067,16.6477051,13.3405685,35.1194458
		c-3.3064346,12.428894,8.3235016,30.7865601,36.6018219,25.3135986
		c32.8381729-4.675354,47.7759323-15.8494263,49.1441574-16.9900513c0-0.1134644,0.1134338-0.1134644,0.2275696-0.1134644
		c0-0.1141357,0.1141357-0.1141357,0.1141357-0.1141357c0.912384-0.5706787,2.7364655-1.9389038,5.1312103-3.8771362
		c-1.7106323-1.2540894-3.6488495-2.5081787-5.7011871-3.6488037c2.0523376,1.0264893,3.9905548,2.2805786,5.8153229,3.534668
		c1.3682251,1.0265503,2.7364502,2.0523682,3.8764038,3.0789185
		c59.6348267,46.5217896,157.1248779,50.1706543,193.0418701-4.7888184c0,0,0,0,0.1141357,0
		c14.3670959,2.9647217,32.1547546,0.5699463,32.1547546,0.5699463c18.8141785-1.2540894,33.865387-6.3852539,45.609436-14.1387939
		c14.4812317,22.6906128,37.0576782,38.9959106,66.0201416,46.6352539
		c29.9875488,7.8676758,64.0811768,7.069397,96.9200439-2.5081787c3.1923218,1.5964966,7.069397,1.3682251,10.2617188-0.5699463
		c0.684082-0.3424072,1.2540894-0.7982788,1.9381714-1.3682251c17.6742554-4.1054077,28.1642456-6.8418579,34.321228-8.7800903
		c6.1577148-2.0523071,8.210083-3.3071289,9.3500366-4.218811c0.7982178-0.456543,1.4823608-1.0264893,2.1664429-1.5964966
		v0.1141357C684.4529419,573.6094971,683.9963989,559.8123779,683.9963989,559.1282349z M605.5480957,510.8964844
		c0.7982788,0.7982483,1.2548218,1.8240967,1.3689575,2.8505859v0.4558716
		c2.0523071,7.9817505,3.534668,16.1911621,4.4463501,24.4011841c-9.2358398-6.7276611-17.3311157-14.9370728-23.9446411-24.4011841
		c5.8153076-1.1399536,11.288208-2.2806396,16.1911621-3.4205933
		C604.8640137,510.4399414,605.4346924,510.7823486,605.5480957,510.8964844z M560.1669312,454.3405151
		c8.3234863-1.3682251,15.8494873-2.7364502,22.2347412-4.1046753c0,0,2.8505859-0.4558411,3.7630005,0.2282715
		c1.5957642,1.1399536,1.7098999,2.0523376,1.7098999,2.0523376v0.1141357
		c2.7364502,6.7270203,7.5259399,21.0940857,10.0341797,28.6193542c0,0.1141357,0,0.1141357,0,0.1141357
		c-10.0341797,0.3424072-19.1558838,0.3424072-26.3394775,0.2282715l-11.4023438-27.1376953
		c-1.0258179,0.1141357-2.0523071,0.3424072-3.0788574,0.4558716
		C558.114624,454.6829224,559.1411133,454.5687866,560.1669312,454.3405151z M543.975769,456.9628601
		c-1.2540894,0.1141357-2.5088501,0.3424072-3.8770752,0.5706787c3.4205322,8.0952148,6.6135254,15.7352905,9.5782471,22.4623108
		l-61.1164551-10.7182617c-0.1141357-1.8240662-0.3424072-3.5346985-0.5706787-5.3587646
		c17.2176819-1.8247681,35.461853-3.9912415,52.1088867-6.4994202
		C541.4669189,457.3052673,542.7216797,457.0769958,543.975769,456.9628601z M555.0357666,499.1517334
		c-22.1206055,3.76297-45.0387878,7.2976685-69.6682739,9.8065491c1.8247681-6.7276917,2.9647217-13.9112549,3.4205627-20.9806519
		L555.0357666,499.1517334z M484.6833801,359.4728088c1.9382019-4.6746521,4.4470825-9.1217651,7.525238-12.8847351
		c0.1141357-0.3417053,0.456543-0.6841125,0.6848145-0.9116821c1.1399536,2.6223145,4.7887878,11.4023743,9.9199829,23.7164001
		c5.2446594,12.2006226,11.8582153,27.9359436,18.8134766,44.3553772c-1.4823608-0.6841431-3.078125-1.5965271-4.3329468-2.7364807
		c-6.9552612-4.218811-23.4888306-16.9894104-37.0576782-36.4876709
		C481.2627869,369.2793579,482.7451477,364.1481628,484.6833801,359.4728088z M477.7280884,400.7492981
		c14.1388245,17.4459534,33.1805725,30.6723633,54.3887939,37.9700623
		c-15.0504761,2.0523376-31.4699402,4.1046753-47.4335022,5.7011719h-0.1141357
		c-0.912384-3.9905396-2.0523376-8.0959167-3.3064575-12.0864868c-2.3947449-10.375824-3.5346985-20.9806519-3.6488342-31.5847473
		C477.6139526,400.7492981,477.6139526,400.7492981,477.7280884,400.7492981z M611.5916748,577.7141724
		c-52.3370972,14.2529297-113.2253418,6.7276611-140.7054138-39.4524536v-0.1134033
		c2.0530396-2.3947754,3.76297-4.9036255,5.4736023-7.6400757c28.1635132-3.078186,61.8005981-7.5252686,90.7623291-12.4282227
		c12.0864868,20.0682983,28.7341919,35.9170532,46.6359863,45.609436c0.3416748,5.0170898,0.4558105,8.2094116,0.4558105,8.3235474
		C614.4422607,574.2935791,613.4157715,576.460083,611.5916748,577.7141724z M618.6611328,479.8817139
		c-3.3064575-11.1741028-7.1835938-22.2340393-11.7440796-33.0664368c-0.1141357-0.456543-0.3424072-0.912384-0.456543-1.3682251
		c0.1141357,0.4558411,0.3424072,0.9116821,0.5699463,1.3682251c18.5859375-3.4205627,26.3394165-5.7011719,28.5059204-6.3852844
		c3.0788574,7.9810791,5.8153076,16.0770264,7.9818115,24.2870789l2.6223145,10.8316956
		C637.1328735,477.6017761,627.8969727,479.0834656,618.6611328,479.8817139z M663.5864258,559.0140991c0,0,0,0-0.1141357,0
		c-1.7098999-0.3416748-3.4205322-0.5699463-5.2446289-0.684082c-8.6658936-1.3682251-17.2176514-3.8764038-25.3135986-7.4111328
		c-1.4823608-14.8236084-3.8771362-29.5324097-7.1835327-44.0136414c8.0958862-1.4823608,23.3746948-5.2446289,28.8482666-6.7269897
		c0.2276001,0,0.3417358-0.1141357,0.5700073-0.1141357c-0.1141357,0.1141357-0.3424072,0.1141357-0.5700073,0.2282715
		l0.4558716,2.2799072c2.8505859,15.3935852,7.1835327,38.6541443,8.7800293,53.0212708
		C663.928833,556.7335205,663.8146973,557.8741455,663.5864258,559.0140991z"/>
	<path class="st2" d="M373.3695068,501.8568115c-2.9716797-14.6802673-7.6888123-28.9519958-14.0511169-42.5117798
		c3.0871887,12.2945557,8.1376648,26.4152832,10.2359314,41.8520203
		c-37.0075378-6.3386536-80.7664795-13.8590393-96.8629761-16.6163635l8.7132263-12.8986511
		c12.2124329,7.2990723,29.5303345,18.0437622,29.5303345,18.0437622
		c11.9514465,7.5892639,21.1455688-3.306427,24.0532532-7.1904907c2.2645874-3.0190125,9.1941223-12.3627625,8.960968-20.3487549
		c-0.2324524-7.7813416-6.2008667-11.9375305-11.5255432-15.4367371h0.0132141l-24.8236389-16.276062
		c2.2792053-3.689209,5.9426575-9.631897,11.6236572-18.8121033c11.1413879,11.1434937,23.9718323,23.3559265,24.0817871,23.4512634
		c6.7005615,7.346405,14.4728699,13.6377258,23.0531616,18.6617737
		c5.2543945,17.3311157,11.1963806,31.5736084,12.6509094,38.242157c0.7147217,3.239624,1.6062317,7.0401917,2.456665,11.2388306
		C378.8305969,502.8032837,376.127533,502.3370056,373.3695068,501.8568115z M394.9632874,322.127655
		c-6.7583313,2.6473694-13.1832886,6.0783997-19.1419678,10.2227478c1.7704773,3.745575,3.8708496,8.2337036,6.2586365,13.3106384
		c4.1478271-3.9613342,8.6756287-7.5050659,13.5159302-10.5811462c0.7815552-0.6444397,4.4046326-2.8666077,4.4046326-2.8666077
		h-0.013916c14.2710571-7.6992188,26.3178711-11.8693237,45.6254578-14.7512512
		c-0.0967407,0.013916,5.6260071-0.7829285,5.6260071-0.7829285c3.8423157-0.575531,11.1838379-2.0850525,13.2821045-5.9141235
		c1.2081604-2.6724548,1.6911621-5.6156006,1.4002686-8.5336914
		C441.8525696,307.266449,416.7275696,313.2905579,394.9632874,322.127655z M367.4122009,364.4863586l-7.9448853-17.3158264
		c-1.839386,2.7712708-4.4735413,6.7924194-6.9984131,10.7711487c0-0.0146179-10.7301025,17.09729-22.0524292,35.40271h0.0153198
		c7.9720459,8.6714783,19.635376,21.3648071,28.9116516,30.5714722
		c-2.0029297-13.0072021-2.4699097-26.3728333,0.2192078-38.7355957
		C361.1417542,377.9320068,363.7870483,370.9586182,367.4122009,364.4863586z M375.3341675,522.4129639
		c3.0788574,0.5699463,5.9294434,1.0258179,8.7800293,1.4823608c0.3424072,8.5517578-0.7982483,17.3311157-3.5346985,25.427002
		c-0.2282715,1.0258179-0.6841125,1.9382324-1.0258179,2.8505859c-0.1141357,0.1141357-0.1141357,0.2282715-0.1141357,0.2282715
		c-1.7106323,3.9905396-3.76297,7.6394043-5.9294739,11.1741333
		c-12.4288635,18.9276123-31.9264526,30.2158203-54.1611938,35.3469849c-2.0523376,0.456543-4.1046753,0.7982788-6.1570435,1.140686
		c-4.1053772,0.7982178-8.3241882,1.2540894-12.657135,1.5958252c-3.6481323,0.2282715-7.4111023,0.4564819-11.1741028,0.4564819
		c-36.2594147,0-74.685318-12.7705688-100.5688934-33.0670776c-21.5506287-16.7611694-37.1717987-17.2177124-59.4058533-10.0341187
		c-23.2612686,7.4118042-23.7171097-6.8411865-23.7171097-6.8411865
		c-20.6382446-29.5324097-39.7941284-60.8888855-55.9859772-120.180603
		c-7.5252533-30.2165527-10.375843-58.6083069-9.1217499-85.0618591c0-2.2806091,0.1141357-4.447113,0.3424034-6.6135864
		c0.1141357-2.8505859,0.3417091-5.5870361,0.6841125-8.3234863c0.1141357-0.456543,0.1141357-0.7982483,0.1141357-1.1406555
		c0.3417091-3.0781555,0.6841164-6.0428772,1.2540932-9.0076294c0.1141357-1.8240662,0.4558449-3.6488342,0.7982483-5.3587646
		c0.1141357-1.2547913,0.3417091-2.3947449,0.6841164-3.5346985c0.3417091-2.6230164,0.912384-5.2453308,1.4823608-7.7542114
		c1.0258217-4.6746826,2.1664772-9.2359009,3.4205704-13.6822815c0.7982483-3.0788574,1.7106323-6.0435791,2.736454-9.0083008
		c0.912384-2.622345,1.8247681-5.1312256,2.736454-7.6394043c1.8247681-5.1311951,3.8771095-10.1482544,6.1577225-15.0512085
		c0.9116859-2.1664734,1.9382057-4.3329315,3.0781593-6.4994202c0.5699768-1.3682251,1.2547913-2.6223145,1.9389038-3.8764038
		c1.0258179-1.9389038,2.0523376-3.8771057,3.0781631-5.8153229c0.4565353-0.7982483,0.7982483-1.4823608,1.2540894-2.1664734
		c1.2547913-2.2806091,2.6230164-4.5612183,3.9912491-6.8418274c3.3064346-5.3587799,6.7269974-10.489975,10.489975-15.5070496
		c1.8247681-2.5081787,3.76297-5.0170593,5.7011795-7.4111176c1.5964966-2.0523376,3.3071289-4.1053772,5.1312027-6.1577148
		c8.5517731-10.147583,18.0159225-19.3841553,28.2776337-27.8217926c1.9388962-1.7099304,3.9912415-3.306427,6.0435867-4.9029236
		c14.4805298-11.4023743,30.2158356-21.094101,46.9776764-29.075882c1.8240662-0.912384,3.6488342-1.8240814,5.4729004-2.508194
		c9.3500214-4.3329468,19.041748-8.0959167,28.8483124-11.1747894h0.1141357
		c33.294693-5.8153076,67.3876495-4.560524,100.1123505,3.7629852
		c66.5901184,17.1035309,116.8742065,61.4588928,142.4153748,104.7877197h0.1141357
		c-0.2282715,0.1141357-0.4558411,0.2282715-0.6841125,0.4558411c-0.3417053,0.3424072-0.7982483,0.5699768-1.0265198,0.912384
		c-0.5699768,0.3417053-0.9116821,0.7982483-1.2540894,1.2540894c-0.5699768,0.7982483-0.7982483,1.7106323-1.0258179,2.6230164
		c-0.2282715,0.9116974-0.3424072,1.9382019-0.3424072,2.8505859c0,5.0163727,2.5088806,10.2617035,2.7364502,10.8316803
		c0,0,0.456543,1.2547913,1.1406555,3.1929932c0.3417053,0.912384,0.6841125,2.0523682,1.1399536,3.3064575
		c0.2282715,0.6841125,0.4558411,1.3682251,0.6841125,2.0523376c0.456543,1.3682251,1.0265198,2.7364502,1.4823608,4.218811
		c0.3424072,0.6841125,0.5700073,1.4823608,0.7982788,2.1664734c0.4558411,1.4823608,0.9123535,2.9647217,1.4823608,4.3329468
		c0.4558411,1.3682251,0.912384,2.6230164,1.2540894,3.76297c0.4558411,1.1399841,0.7982483,2.0523682,1.0265198,2.8506165
		c-17.2176819,3.4205627-34.321228,7.525238-48.9165955,11.6306152c-11.288208,3.1922913-21.2082214,6.4994202-28.6200256,9.5776062
		c-3.8764038,1.4823608-7.6393738,3.1929932-11.2882385,5.2453308c-3.5346985,1.9382019-6.9552612,4.1046753-10.2616882,6.6135559
		v0.1134338c-0.3424072,0.1141357-0.456543,0.3424072-0.5699768,0.5706787
		c-1.2547913,0.4558411-2.5088806,1.0258179-3.5354004,1.8240662c-1.0258179,0.7982483-2.0523376,1.7106323-2.8505859,2.7364502
		c-2.0523376,1.5965271-3.9905701,3.1930237-5.7012024,5.0170898c-2.7364502,3.0788574-5.1304932,5.8153076-7.8669434,9.3500061
		c-0.7982483,1.1399536-1.7106323,2.3947449-2.7371521,3.76297c-3.5346985,5.1311951-15.9628906,24.8570862-27.0235291,42.7588501
		c-1.0258484,0.4558411-1.9382324,0.912384-2.7364807,1.5964966c-0.6841125,0.4558411-1.2540894,1.1399841-1.7099304,1.7099609
		c-1.5964966,1.8247681-2.5088806,4.3329468-2.5088806,6.8418274c0,0.5699768,0,1.1399536,0.1141357,1.7099304v0.1141357
		c-2.2806091,3.6488342-4.3329468,6.9552612-6.1570129,9.9199829c-1.8247681,2.8506165-3.4212646,5.3594971-4.7894897,7.6394043
		c-1.3682251,2.1664734-2.5082092,3.9912415-3.4205933,5.4736023s-1.5964966,2.6223145-2.1664734,3.5346985h-0.1141357
		c-3.0781555,0.3417053-5.9287415,2.0523376-7.6393738,4.6746826c-2.1664734,4.218811-11.2882385,19.3841248-13.2264404,21.5506287
		c-0.456543,0.5699768-0.7982483,1.1399536-1.1406555,1.7106323c-1.2540894,2.5081787-1.7099304,5.3587646-1.1399536,8.0952148
		l-0.912384,1.7106323l-20.7523804,31.0140991c-1.7099304,2.2806091-2.0523376,5.3594666-0.7982483,7.981781
		c0.5699768,1.0265198,1.1406555,1.8240662,1.9389038,2.6223145c2.2799225,2.3947449,5.2446442,3.8771057,8.4376373,3.9912415
		h0.5699768c1.0258331,0.1141357,2.0523376,0,2.9647369-0.456543c0.9116821-0.2275696,1.8240662-0.6841125,2.6223145-1.1399536
		c0.1141357-0.1141357,0.1141357-0.1141357,0.1141357-0.1141357c7.7535095,1.3682251,66.8176575,11.4023743,110.3747559,18.7000427
		c-5.4729004,46.5218506-54.9594421,68.7558594-98.5165405,64.6511841
		c-9.0076294-0.3416748-18.5859222-1.9381714-28.0493774-4.4470825c-6.3852997-1.5958252-12.6571503-3.6481323-18.8141785-5.8146362
		c-9.1217499-3.3071289-17.9017792-7.1835327-25.4270325-11.0606079
		c-9.9199982-5.7012329-33.4088287-18.0159302-42.7588501-18.4718018c2.6223145,0.5700073,6.1570129,1.8240967,9.9199982,3.4205933
		c8.4376373,3.6488037,18.4717712,9.0083008,25.5411682,13.2271118c2.2806091,1.3682251,4.332962,2.6223145,5.8153229,3.6488647
		c17.3311157,9.4634399,46.5211334,22.8046875,73.7729492,23.8305054
		c18.8141479,1.140686,35.2335815-0.9123535,49.2582703-5.4729004c4.7887878-1.4823608,9.2358704-3.3071289,13.3405762-5.4735718
		c20.7523804-10.147583,33.9794922-26.3394775,38.9965515-44.0130005c0.4558411-1.3682251,0.7982483-2.8505859,0.9117126-4.218811
		c0.7982483-2.8505859,1.140625-5.7011719,1.3682251-8.6658936V522.4129639z M304.5259399,537.0075684
		c0.4558411,1.0265503,1.1399536,1.9382324,1.9382019,2.7365112c3.4205627,3.0788574,8.6659241,2.8505859,11.7447815-0.5700073
		c4.7887878-1.9382324,7.8676453-6.7269897,7.8676453-11.8582153c0-7.1835327-5.8153076-12.9988403-12.9988708-12.9988403
		c-3.76297,0-7.2976685,1.5964966-9.8058472,4.4470825C298.5964966,524.1228638,299.1664734,532.218811,304.5259399,537.0075684z
		 M211.4822845,537.8058472c-4.3329468-6.1570435-11.7440643-8.2093506-16.6470032-4.7888184
		c-3.3071289,2.2806396-4.5612183,6.8411865-3.9912415,11.4024048c-1.4823608,2.8505859-0.6841125,7.069397,2.2806091,10.2616577
		c3.1930084,3.3071289,7.5259552,4.2188721,10.4899902,2.5089111c2.6230164,0.3416748,5.2453308-0.3424072,7.2976685-1.8247681
		C215.473526,551.4888306,215.7011108,543.8494263,211.4822845,537.8058472z M205.0970001,484.6711426
		c5.7011719,6.1570435,13.6829681,9.6917419,22.1206055,9.9200134c2.8505859,0,5.7011719-0.456543,8.4376373-1.2547913v-0.1134338
		l17.5600739-25.9977112c-0.1141357-8.3235168-3.4205627-16.1911621-9.2358856-22.2347717
		c-5.7011719-6.1570129-13.6829681-9.6917114-22.0064697-9.8058472c-6.9559631-0.2282715-13.6829681,2.5088806-18.4717712,7.525238
		C192.668808,453.6563721,193.4670563,472.4705505,205.0970001,484.6711426z M185.3711395,511.8088379
		c24.5153503,31.4699097,67.7300415,31.5840454,89.508255,8.5517578
		C265.6434937,524.9211426,226.8759003,550.3481445,185.3711395,511.8088379z"/>
	<path class="st0" d="M637.8584595,572.8411255c-1.1246338,0.2052612-2.4699097,0.4112549-3.7601929,0.6172485
		c-0.013916-0.5636597,0.0146484-1.0974731,0.0146484-1.6751099c1.2352905,0.315979,2.4838257,0.7961426,3.7323608,1.0578613
		H637.8584595z M132.1633606,562.0003662v-0.0153198c-0.2345276,0.0842285-0.4113007,0.1239014-0.6458282,0.2059937
		c5.0268097-0.8045044,10.0925903-1.3445435,15.175766-1.618042c7.8112946-0.1378174,15.4972992,1.9667358,22.1477509,6.0644531
		c1.0982056-0.6444702,2.2242432-1.3306274,3.0475464-1.8658447l0.0048676,0.0042114
		c-0.8226013,0.5476685-1.9437714,1.2185669-3.0391846,1.8616333c-1.7433472,1.0292969-3.3753357,1.947937-3.3753357,1.947937
		c-19.2519226,9.3040771-35.7186737,12.418457-45.0631332,13.0907593c-9.1802063,0.6312256-7.3964996-4.7206421-1.3584824-7.7660522
		c3.3203506-1.6883545,6.1194382-4.8980713,7.354744-10.758606c-1.0293045,0.508728-0.9875488,0.2748413-2.6209335,0.5775757
		c-1.9897003,14.4213867-30.2019119,12.9522705-27.0868683-6.6838379c0,0-4.0615311-8.3151245-6.3671951-13.1442871
		c0.0417557,0.2059937-0.5894699-3.0475464-0.2742081-3.1025391c0,0,6.8884659,11.1566772,9.7425385,14.682373
		c-3.8423157,13.5026855,16.0693665,19.0737305,21.1462784,8.7000122c-0.7411804,0.1655884-2.7448044,0.3027344-3.6363068,0.4119873
		c-1.2151184-0.0028076-2.4274597-0.1127319-3.6230927-0.329895c-0.5087357-0.0689087-1.0710602-0.0264282-1.5512619-0.137085
		c-0.0285339-0.0028076-0.0570679-0.0118408-0.0821152-0.0271606c-1.3849335-0.3444824-2.7023544-0.9200439-3.8965988-1.7015991
		c-3.13871-2.0307617-5.2063599-5.3566895-5.6399384-9.0702515c-0.4113007-0.5615845-0.7961578-1.1239014-1.2074661-1.6883545
		c-8.1258469-11.2151489-15.5105209-22.9494629-22.1059875-35.1278076
		c-0.0278397,0.1239014-0.0410614,0.2609863-0.0689011,0.3716431
		c-2.6619873,11.1010132,11.7050934,40.4107056,12.8436661,43.2237549l-0.0132294-0.0285645
		c1.1664047,2.8283691,1.1664047,2.8130493,1.1664047,2.8130493c-4.0622253,11.267334,7.628952,26.0032349,28.6645813,22.6146851
		c17.829422-1.9604492,35.0798035-7.4938965,50.7225494-16.2704468c0.930481,0.7404785,1.8623505,1.4802246,2.7663879,2.3425293
		c0,0-0.2060089,0.151001-0.2742004,0.2059937c0.6458282-0.4384155,2.6619873-1.8658447,5.4749908-4.1165161
		C169.6246796,559.927124,154.1719208,554.2475586,132.1633606,562.0003662z M307.9541626,522.7936401
		c-0.0960388,0.0716553-0.1900024,0.1454468-0.2825623,0.2213135c-1.5087891,1.5380249-0.2874146,2.5116577,0.8922119,1.7836914
		c2.9765625-1.5436401,6.602417-1.0494995,9.0563354,1.2352905c0.9743347,1.4823608,2.3467102,0.2192383,1.0710449-1.6869507
		C316.1551819,520.9535522,311.3475952,520.2575684,307.9541626,522.7936401z M313.4451599,516.6212769
		c-11.8143616,0.0396729-12.7879639,12.6369629-9.9485168,15.286438c-1.4677429-4.3914185,1.3034973-12.8165283,9.716095-12.4734497
		c8.0673828,0.3424072,10.5658264,8.7132568,7.51828,15.2996826c4.1353149-4.1659546,4.11026-10.8956909-0.0549927-15.0310059
		C318.7482605,517.7897949,316.1607361,516.6867065,313.4451599,516.6212769z M319.0983276,533.2244263
		c0,0.0020752,0,0.003479,0,0.0055542c0.017395,3.9279175-3.1526184,7.1271973-7.0805359,7.1452637
		c-3.8743286-0.0041504-7.0248718-3.1233521-7.0673218-6.9976807c-0.041748-3.9063721,3.0906982-7.1077271,6.9970398-7.1501465
		C315.8545227,526.1849365,319.0558777,529.3181152,319.0983276,533.2244263z M317.6020508,533.1576538
		c-0.0041809-3.1185303-2.5346375-5.6434326-5.6531677-5.6392822c-3.1185303,0.003479-5.6427002,2.534668-5.6392212,5.6524658
		c0.0194702,3.1115723,2.5408936,5.6274414,5.6531372,5.6392822
		C315.0806274,538.8066406,317.6055298,536.2761841,317.6020508,533.1576538z M308.4385376,533.5410767
		c-0.1642456-0.522644-0.4801941-0.8922119-0.6444397-0.1795654c-0.4119873,3.2536011,5.7359924,6.6017456,8.4258118,1.2902832
		v-0.0131836c0,0,0.0132141-1.3320313-0.6458435-0.3563232
		C314.2698669,536.1745605,309.9758911,535.9838867,308.4385376,533.5410767z M201.3618622,539.1664429
		c-1.8922729-0.6590576-2.483139,1.8929443-0.9186554,2.1956787c2.2145081,0.8378906,4.0615387,2.4316406,5.2147217,4.5
		c0.7411804,1.5916138,2.5937805,0.1655884,0.8650513-2.6891479
		C205.161026,541.4310303,203.3870544,540.0544434,201.3618622,539.1664429z M192.9228363,540.8137207
		c6.6553192-10.4572754,23.533371,2.6891479,14.8618927,13.9544067
		C220.8754578,545.1494751,198.4806519,523.7700195,192.9228363,540.8137207z M202.638916,545.423645
		c3.0322266,3.1825562,3.5541992,7.6025391,1.1664124,9.866394c-2.3877869,2.263916-6.7792053,1.5227661-9.8114319-1.6751099
		c-3.0315399-3.1958008-3.5541992-7.6289673-1.1664124-9.8928833c2.3877869-2.2645874,6.7792053-1.5094604,9.8114319,1.6884155
		V545.423645z M201.5546417,546.4111938c-2.1824951-2.4838257-5.8055725-3.7184448-7.8349457-1.7558594
		c-1.8386993,1.7558594-1.620163,5.5160522,1.0292969,7.9302979c2.4699097,2.2792358,5.8034821,3.4727783,7.7924957,2.0050049
		l0.0153046-0.0153198C204.8346252,552.8751221,203.325119,548.4294434,201.5546417,546.4111938z M195.9822083,546.8092651
		v-0.0131836c-0.2060089-1.4127808-1.3167267,0.0967407-1.3167267,0.0967407
		c-1.5102081,2.1956787,2.1268005,7.135498,6.2008667,6.7506104c1.2220764-0.2191772,1.0292969-1.1113892,0.4405365-1.2484741
		C198.6678619,551.6078491,196.6426544,549.4830933,195.9822083,546.8092651z M431.3667603,448.0401001
		c12.2277527-0.0821228,27.897644-1.1399536,44.5697021-2.7176819c-1.8783569-7.4897461-4.3134766-14.8291931-7.2865295-21.9549561
		c-13.6662903-32.2869873-49.7419739-19.8149414-50.8812256-0.8922119h-0.0132446
		c3.9655151,8.6311035,7.9031677,17.234375,11.7051086,25.5648499H431.3667603z M388.6343689,504.4770508
		c22.6543884,3.8972778,39.3821106,6.7659607,39.3821106,6.7659607c2.6341553,0.382782,4.9398193,0.6708984,7.1355286,0.9047546
		l-19.3764954-42.236908C410.574707,483.0844116,400.9560547,496.8884583,388.6343689,504.4770508z M479.5456238,464.847168
		c-14.4763489,1.4559021-27.9790649,2.6076965-38.9151306,3.2939148c-0.0417786,0-0.8650513-0.0139465-2.1400452-0.0689087
		c8.2601929,18.5664063,14.8883667,34.2509155,18.7571106,43.5668335c0.0577698-0.031311,0.1176147-0.0584412,0.1788635-0.0814209
		h-0.0153198c6.4646301-0.46698,12.7900696-1.0007629,19.0340881-1.5916138
		C480.7809448,495.8055725,481.3710938,480.0786133,479.5456238,464.847168z M445.0970459,532.9085083
		c-0.2609558-0.0132446-0.4954834-0.0132446-0.7550964-0.0404053c-9.1558533-0.6116943-18.2720337-1.7252197-27.3060913-3.3349609
		c0,0-11.5269165-1.947937-28.2825012-4.7894897c0.2707214,11.5206909-2.1142578,22.9487915-6.9698792,33.3997803
		l2.1268005,0.274231c30.4900513,2.4830933,52.1986694-2.9633789,67.2240906-13.1464233
		c-1.934021-3.6174927-3.6613464-7.3414917-5.173645-11.1546021L445.0970459,532.9085083z M472.4804077,409.2467346
		c-4.089386-18.8941956,0.2324524-54.0087891,14.0232849-64.0394592
		C466.799408,347.6089783,461.3104858,396.9257202,472.4804077,409.2467346z M371.8739319,456.8354492
		c4.9397888,15.0936584,10.333374,28.459259,12.6654968,38.3256836c-1.8943787-11.513031-5.3246765-23.8208008-8.6728821-36.5287476
		v-0.0132446C374.5359192,458.0436096,373.2038574,457.4812927,371.8739319,456.8354492z M369.7450256,369.577179
		c-9.3709106,18.7306519-9.2205811,39.4503479-5.4200134,59.1546326l0.0152893,0.0152893
		c1.8519287,1.6466064,3.6899109,3.127594,5.5418091,4.5285339c-3.8416138-19.7752991-4.9927063-39.877655,2.0050354-59.0328369
		L369.7450256,369.577179z M384.12323,350.0788879c0.2609863,0.5484009,0.5351868,1.1392822,0.7961731,1.7015991
		c6.420105-6.8995972,13.7080383-12.9376221,21.6807861-17.9623413c-5.1701965,2.3738708-9.9937744,5.4395142-14.3392639,9.1119995
		C389.4026794,345.1418762,386.6850281,347.5296631,384.12323,350.0788879z M454.2236938,320.1233521
		c-6.8209534,1.4134521-12.3912964,1.6466064-15.2043152,2.5937805l6.4910583,0.2338257
		c5.9593811-0.2421875,11.8457031-1.3988342,17.4536133-3.4302979c6.5446777-2.4295654,11.3891296-6.875946,9.3312378-18.6081848
		c-0.7683411,0.1524048-1.5234375,0.3027344-2.306366,0.46698l0.0153198,0.0132141
		C470.7029724,313.3587646,464.6656494,317.9693909,454.2236938,320.1233521z M455.4019165,254.5187073l10.1392212,28.0347595
		c0.7140503-0.1371155,1.4280701-0.274231,2.1421204-0.4120178c-0.5776367-1.6883545-1.2081604-3.4302979-1.9361267-5.2829285
		c-3.6634521-9.3458252-8.0966187-21.4893646-9.400116-25.6197968h-0.0132141
		c-1.1197815-3.1240997-1.2826538-6.511261-0.46698-9.7286224
		C455.8668213,241.5101013,451.407196,245.0510712,455.4019165,254.5187073z M508.7767029,305.5509644l-17.6456604,0.2324219
		c0,0-6.2725525,0.4941406-9.3180237-6.8056335c-2.0029297,0.4119873-4.0747375,0.8365173-6.1194458,1.2485352
		c1.755188,11.2116699,0.1085815,22.0238647-21.6404114,24.1235352c3.7198486,2.5659485,37.6812439-3.7045288,58.0856323,1.0007629
		c0.7544556,0.3166504,8.8239136,3.2110901-0.7815247,7.409729c18.9895325-4.211853,19.9234924-23.1478271,16.2739563-37.1711121
		l-3.0328979-0.2742004l-1.593689-0.2310486C521.8375244,300.1462402,517.803833,304.0003967,508.7767029,305.5509644z
		 M522.9788818,295.0804443l0.0257568,0.0035095c0.0006714-0.0007019,0.0006714-0.0021057,0.0006714-0.0035095H522.9788818z
		 M521.6704712,276.3651123c-3.5945435-11.046051-8.2733765-25.111084-11.4976807-33.3594208v-0.0132294l-5.4075012-0.46698
		c0,0,9.8935242,22.6147461,14.4638367,33.7157593L521.6704712,276.3651123z M467.3262329,241.3611755
		c-1.5359497-0.2185364-3.0885925-0.2964783-4.6384583-0.2345428c-2.8130188,0.2345428-5.4471741,0.3563232-3.5256653,7.0401764
		c1.4120789,4.9530487,1.947937,6.1194458,3.0454407,9.1802063c1.3320618,3.6627808,5.6260376,14.7227173,8.7557068,24.135376
		c1.467041-0.2742004,2.9076538-0.5073547,4.3774719-0.7683105l-3.1978455-9.0827942
		c-0.8657837-2.306366-1.7976379-4.9265747-2.7580566-7.8502502h0.0132446l-1.7704773-5.0351563
		c0,0-3.8973083-7.8899384-1.372406-14.9301147C466.5231018,242.9611511,466.8822327,242.1378479,467.3262329,241.3611755z
		 M515.8182983,277.5029907c3.5409546,8.9324341,3.8422852,12.9389954,3.8422852,12.9389954h-15.6427307
		c-0.4934387-2.6431885-1.2053833-5.2411499-2.1275024-7.7667542l-9.1802368-21.4190979l-0.1635437-0.46698l-5.5306702-13.3920593
		l-1.4259949-3.5263519c-0.2769775-0.6305237-0.4892273-1.2881927-0.6325989-1.9625549
		c-1.7704773-8.1912689,5.3246765-8.8642578,8.2330322-7.6707153v-0.0006866
		c4.0079346,1.6605225,6.8209534,6.3539734,8.9484558,11.2944946
		C504.0039368,249.8670044,513.156311,270.7509155,515.8182983,277.5029907z M506.6513062,263.9320679
		c-1.288208-5.7499084-3.8269958-7.890625-6.3518982-10.4155273v-0.0132141
		c0.46698-10.2095184-5.8605652-17.5642548-10.4022827-16.2189941c0,0-4.0476074,0.9457855-2.1268005,7.9991913
		c0,0,0.3430786,0.8518372,0.6172791,1.5909271c1.2763672,2.8874664,3.151947,5.4694214,5.5028381,7.5760498
		c-0.0584412,2.1052246,0.1635437,4.2090759,0.6590576,6.2565613l0.1239014,0.4119873
		c0.5971069,2.5666504,1.7857971,4.9586182,3.4720459,6.9844971
		C502.8375244,273.5103455,508.1204224,270.4627991,506.6513062,263.9320679z M489.2533569,241.1816254
		c0.0682068,3.6363068,3.1025391,9.4815521,5.50354,11.0042725
		C496.4856262,249.4146423,494.8654785,241.2505188,489.2533569,241.1816254z M498.0925598,257.7270203
		c-0.62146-0.3598022-1.2944641-0.6221924-1.9952698-0.7787781c0.0856018,3.9293213,1.7238464,7.6637573,4.5570374,10.3869934
		C502.6001892,263.9751892,501.4532776,259.6728821,498.0925598,257.7270203z M476.2426758,240.1926727
		c-3.5263367,4.4596252,1.1796265,16.2203827,1.1796265,16.2203827s3.5270691,11.046051,8.0005798,22.1060181
		c11.7454834-3.060791,22.0099487,18.2497559-0.5623169,20.144104c2.0446777,8.6164856,21.4880066,5.008728,13.9544067-14.5048828
		c-1.5095215-3.9244385-13.1596375-30.8059998-15.9858704-37.3791962c-1.2533875-2.5763855-1.8922729-5.4081879-1.8658142-8.2726898
		c0.0403442-0.686203,0.1384888-0.8497467,0.1885986-0.8901215L476.2426758,240.1926727z M469.1941528,243.4726715
		c0,0-2.2910461,4.3907166,0.2206116,11.9932098c3.3071289,10.0035095,8.5476074,24.4666443,8.5476074,24.4666443
		l4.2271729-0.7961731l-8.0555725-22.4908447c0,0-3.4442444-7.8349457-1.3438721-14.9015656L469.1941528,243.4726715z
		 M518.0042725,296.8641663c-5.008728-0.0953369-14.4081726-0.0953369-14.4081726-0.0953369
		c-0.2345276,3.0739746-4.0079346,5.721344-4.0079346,5.721344
		C515.272644,303.6029968,518.0042725,296.8641663,518.0042725,296.8641663z M352.8690491,328.0132751
		c-3.9251099,4.3858337-7.5335999,9.0451965-10.7989807,13.9425354
		c-3.5409546,5.2829285-13.7080078,21.2687988-25.111084,39.7788391l0.0132446-0.0132446
		c2.5937805-0.2331238,5.5578003,2.29245,5.5578003,2.29245l5.6392517,6.2015686l21.1052246-34.360199
		c3.1408081-4.9398193,7.7528076-10.9910583,8.6025696-12.1574402c0.1238708-0.1635437,0.1642456-0.2324524,0.1106567-0.1788635
		c0,0-2.5534363-5.3518066-4.0343933-8.3422852c-0.2345276-0.4802246-0.4537659-0.9332581-0.6180115-1.2478333
		c-0.0681763-0.1238708-0.0681763-0.2345276-0.1231689-0.3431091c-0.1531067-0.3716431-0.2818604-0.7523193-0.3848572-1.1399536
		c-0.438446-1.432251-0.4287109-2.9640198,0.0285339-4.3907166
		C352.964386,327.9179077,352.9240417,327.9596863,352.8690491,328.0132751z M618.1959229,424.6841736
		c0,0-19.0187378,1.9075928-25.1514282,1.4120789v0.0153198c1.90271,0.133606,3.7142334,0.8685303,5.1722412,2.0982666
		C598.2167358,428.2098389,613.6270752,425.9744568,618.1959229,424.6841736z M488.8747864,484.8145142l67.4704285,11.197052
		c0,0-3.7587891-8.6867676-4.9398193-12.0621033l-62.2292786-11.3627014
		C489.3396606,476.6650085,489.2394409,480.7495117,488.8747864,484.8145142z M577.5353394,494.8583984l-0.0013428-0.0027771
		l-0.0118408,0.0027771H577.5353394z M598.6941528,485.0608826c0,0-9.8935547,0.1503296-25.6448364-0.0960388l4.4846802,9.8907776
		l18.0875854-3.7706299C595.621582,491.0849915,600.5614014,491.4141541,598.6941528,485.0608826z M548.916748,435.8255615
		c0,0-39.2596741-93.0749817-41.9202576-98.4817505c0,0-7.1090698,0.1642456-11.4865723,4.9133606h-0.0132141l40.7120361,95.3806458
		C536.2087402,437.6378174,543.1383057,436.8548584,548.916748,435.8255615z M557.0899048,454.9139404
		c-0.0689087-0.1503296-0.1245728-0.3006592-0.1795654-0.438446c0,0-10.9639282,1.6187744-13.1728516,1.8929749
		c0,0,0.0953369,0.2338257,0.2324829,0.5769348c1.0578003,2.5388184,5.6816406,13.7073364,9.9484863,23.7929688
		c3.3621216,7.9316711,6.4910889,15.1910706,7.4514771,17.0151367v-0.0132141c0,0,10.5797729-1.3995361,12.706604-2.3467102
		c0,0-2.4970703-5.6392517-5.9962769-13.8319092C564.8963013,474.0830383,560.8765259,464.4929199,557.0899048,454.9139404z
		 M613.4182739,559.5290527c0.0480347,0.017395,0.0939331,0.0404053,0.137085,0.0682373
		c0,0-0.7126465-11.758728-1.1663818-15.9859009c0,0-0.2741699-0.1906738-0.4802246-0.3284302
		c-10.8852539-7.5900269-20.354248-17.031189-27.9762573-27.8948975c-0.1273804,0.024353-10.1183472,1.8950806-12.6940308,2.3571777
		C571.2384644,517.7452393,587.881958,546.3291016,613.4182739,559.5290527z M583.9310913,515.3859863
		c0.0007324,0.0006714,0.0007324,0.0014038,0.0014038,0.0020752c0.0014038,0,0.0118408-0.0020752,0.0118408-0.0020752H583.9310913z
		 M669.2929077,564.2781982v0.0132446c0,0,3.3071289,9.8928223-32.9188843,14.5869751
		c0,0,21.6251221-3.0739746,27.512085-10.3466187c0,0,5.6399536-4.7073364-5.8730469-7.3011475
		c-11.1970825-2.5234985-12.9257813-1.1796265-23.7393799-5.8717041c0,0,0.6861572,10.5791016,0.46698,13.1728516
		c3.586853,1.0940552,7.2990723,1.7210693,11.0460205,1.8658447c0,0,0.2192383-3.2799683-8.9456787-6.1194458
		c0,0,39.5053101,3.7734375-2.1003418,12.7058716c0.1210938,4.4888306-0.1962891,8.9783936-0.9472046,13.4052734
		c0,0,21.5582886-5.6656494,28.2268066-7.5314941C669.5393066,580.7310181,684.1262817,573.9232788,669.2929077,564.2781982z
		 M421.7362671,473.4385986c12.2674255,26.8265991,15.0651245,33.426239,17.3979492,38.5588379
		c4.7024841,0.4760132,9.4467468,0.319458,14.1074829-0.46698l-19.115509-43.1959229
		C434.1261902,468.3345337,425.893158,466.8521729,421.7362671,473.4385986z M425.2654114,447.559906l-58.730072-126.2151794
		c-0.4509888-0.6535034-1.228363-1.0021667-2.0161743-0.905426c-2.8373718,0.2004395-5.3984375,1.772583-6.8612976,4.211853
		c-1.5380554,2.0753174-1.9062195,4.7943726-0.9750366,7.2044373c0.041748,0.0681763,29.3514709,61.447052,53.7763672,114.852478
		C415.3516846,447.5083923,420.3137817,447.7937317,425.2654114,447.559906z M586.586853,430.1877136
		c-1.1685181,0.5031738-2.1915283,1.2909851-2.9772949,2.2910461l-0.1503296,1.1796265l0.9736328,4.14505
		c0,0-3.2799683-3.2528381-6.805603-2.772644c-29.3779297,5.2272339-100.7053223,15.9169617-146.1936951,16.4945984
		c-0.617981,0.0132141-15.0671997-0.1524048-25.0560913-1.4141541c-19.635376-2.4699097-31.3411865-7.9449158-45.4194641-18.92276
		c-12.4469604-13.0072021-36.6658325-38.4613953-41.1254578-44.4458008
		c-2.1268005-2.4546204-6.3386536-1.0557556-8.2330322,0.4405212c-3.0955505,2.2764282-3.759491,6.6309509-1.4830627,9.726532
		c0.0007019,0.0007019,0.0014038,0.0013733,0.0014038,0.0027771c10.2234192,11.1963501,35.6358643,35.3873901,35.883606,35.6212463
		c22.9557495,24.9057617,46.6812134,29.7634583,67.4697876,30.9298706
		c12.3091736,0.849762,28.5281677,0.9736328,28.6924133,0.9604187c38.2706909-2.29245,101.0483704-10.0167542,138.5646667-17.550354
		c2.5332642-0.6729736,4.4025879-2.818573,4.7206421-5.4207153c0.5678711,1.5477905,0.7237549,3.2166443,0.4516602,4.8430786
		c3.5541992,0.7147522,5.475708,4.8862305,5.5856323,5.2425537l-0.0549927-0.1788635
		c3.7045288,9.3312378,11.1010132,32.7553406,11.1964111,33.0149231c0,0,2.8129883,11.5262451,1.6201172,13.5159607
		c0,0-2.1003418-3.1143494-5.1743164-2.6473694l-0.1218262,0.0403442l-0.1238403,0.0417786l-8.4522705,1.5227051
		c-40.8512573,7.3693848-83.1152954,14.9697876-132.500946,18.5107422
		c-0.2742004,0.0556641-12.9250793,2.1824951-36.0729065-1.2763672
		c-0.0153198-0.013916-141.1585083-24.2327881-151.4368896-26.0032654
		c-0.3834839-0.0682068-0.6444702-0.1085815-0.6444702-0.1085815c-0.1502991-0.192749-0.8233032,1.1531982-1.3299255,3.0322571
		l-0.0417786-0.0689087c-0.6931458,2.2228394-0.7502136,4.594635-0.1642456,6.8480835
		c0.3807068,1.5686646,1.4635925,2.8742676,2.9355164,3.5388794c0.0682068,0.0417786,149.3093872,24.4805908,149.3093872,24.4805908
		c11.1149292,2.12677,22.4296265,3.0287476,33.7408142,2.6890869l4.5570374-0.1092529
		c3.0162354-0.0890503,6.0261841-0.3451538,9.0145874-0.7676392c42.3050842-4.2689209,95.8608093-11.0884399,130.4819641-19.3347168
		c0,0,6.7653198-0.3848572,7.4229736-5.7499084c0.151001-1.1928406,1.1663818,5.2961426,1.1663818,5.2961426
		c2.3460693,0.7147522,3.7184448,4.6656189,3.7866821,5.4492493c6.1904297,22.2827759,6.8480835,55.1752319,6.9162598,56.7529297
		c0,0-0.1085205,10.8121948-1.755127,14.1054077c-1.9493408-2.7977295-5.8605957-2.0300903-5.8605957-2.0300903
		c-56.1495361,14.3532104-121.026886,4.8430786-146.4525452-49.5645142c0,0-7.890625,0.0689087-11.9117737,5.475708
		c16.370697,36.2538452,45.8585815,50.6891479,70.7921753,57.2755737
		c27.4989014,7.2593994,60.1018066,6.8056641,90.5646973-1.0292969c4.9398193-1.6333618,3.8137817-4.7205811,3.8137817-4.7205811
		c4.4589233,7.0534058,10.0585327,3.0189819,10.0585327,3.0189819c2.1358032-1.2324829,3.4456177-3.5166016,3.4302979-5.9822998
		c3.1143188-49.947998-15.0254517-118.7901611-34.8118896-155.2507019
		C592.9157715,429.2822876,589.493103,428.8396606,586.586853,430.1877136z M303.9065552,481.3556824v-0.0403748
		l-3.0336304-1.8122559l-25.9476013-15.9176331l-0.0821228-0.0535889l-0.0689087-0.041748v0.013916
		c-2.5213928-1.2158203-4.4630737-3.3739624-5.4067993-6.009491c-0.7258606-2.6626892,0.1239014-5.7499084,2.5256042-9.1252441
		c5.4882202-7.7124634,8.1509094-12.1303101,9.3305359-14.1749878c1.1837769,1.9528198,2.8401489,3.5764465,4.815918,4.7205811
		c9.2073669,5.7499084,28.5706177,17.4668274,34.1409607,20.5540466c5.9823608,3.348877,7.2044373,4.9405212,7.2044373,4.9405212
		c6.9559631,6.5863953,5.6524658,13.1456909,2.2353821,17.7159729c-3.8423157,5.1590271-11.2102966,8.45224-17.3721924,4.348938
		L303.9065552,481.3556824z M304.2211304,475.2640686c0.3723145,0.9924011,0.8170166,1.9555969,1.3320313,2.881897v-0.0285339
		c0.8560181,1.5296936,2.0947876,2.8109131,3.5945435,3.7184448c10.8957214,6.4778442,16.9198303-1.7837219,16.9734192-1.8526001
		c0.041748-0.0682068,5.0086975-6.5446777-2.2485962-13.6662903c-2.9508362-2.5019226-6.7826843-3.7128601-10.6347351-3.3620911
		c-1.5067444-5.7457275-6.8919678-9.603363-12.8172302-9.1802063l-0.0682068,0.0152893h-0.0682068
		c-7.2461548,0.4802246-8.9199219,4.4039612-9.7564392,6.6546326l0.0132141,0.0132141
		c-1.0418091,3.0621643-0.7216797,6.423584,0.8789978,9.2344971
		C291.4595642,469.7605286,294.9720154,476.6900635,304.2211304,475.2640686z M334.0131226,452.3626099
		c-5.4067993-4.103302-17.9623413-12.3230896-27.4995728-18.4564514l-2.2374573,2.1539307
		c0,0,21.1469727,14.0782776,26.567688,17.7145996c6.2280273,4.1714783,8.6443481,9.4961548,7.6553955,14.8326721
		C338.499176,468.6073608,343.7424316,459.757019,334.0131226,452.3626099z M329.1547241,456.2445984l-27.6909485-18.5246582
		c-5.1729431,1.4141541-16.1104126-4.3225403-15.7116394-11.4309082c-2.7580261,2.3613281-3.2799988,6.9030762,1.934021,10.1691589
		v-0.0153198c9.1252441,5.7234497,38.8887024,23.2320251,38.8887024,23.2320251s8.0402527,5.1040649,8.3833618,11.5533752
		C337.3884583,464.327301,333.2851563,459.2364502,329.1547241,456.2445984z M322.710968,478.9143066v-0.0132446
		l1.4670715-0.2345276c4.0900574-5.9691162-2.263916-14.1200256-10.4287415-13.8590393
		c-0.3340454,2.3146973-1.5241089,4.4199524-3.3349609,5.9002075
		C311.6092834,477.019928,315.6018982,479.8329468,322.710968,478.9143066z M305.7055664,472.808075
		c1.1141968,6.1340637,6.9907532,10.2032471,13.1248169,9.0883484c1.1684875-0.2122803,2.295929-0.6075745,3.3412476-1.1712952
		c-4.0058594,0.6319275-12.2806396,0.3841858-13.5980835-9.1252136c-6.0108643,2.2103271-16.7541809,0.508728-15.8215942-11.2520447
		c-3.2097168,8.6596375,5.3664246,14.7929993,12.9536133,12.4734192V472.808075z M601.038147,431.7507935
		c2.9368896,5.6949158,4.0900269,9.2755737,5.1061401,11.4844971c-0.3988037,0.2345276,4.390686-0.7815552,9.164856-1.6730652
		c6.6546631-1.2485046,11.4573364-2.4838257,15.6977539-3.5263367c1.9611816-0.4370422,3.8701782-1.0808105,5.6949463-1.9208069
		c0.6604004-0.2282715,1.2672729-0.5880737,1.7836914-1.0578308c1.3995361-1.3083801,1.9869385-3.2695618,1.5366211-5.131897
		c-0.2282715-2.804657-2.43927-5.0386658-5.2411499-5.2961426c0,0-0.9603882,0.1099548-2.2910767,0.3027344
		c-1.5546875,0.2226868-3.0948486,0.5386658-4.6119995,0.9450989c-8.2594604,2.1003418-17.7277832,4.1721802-26.8397827,5.8605347
		V431.7507935z M660.6652832,484.3614502c-2.8129883-9.866394-15.753418-5.4067993-15.753418-5.4067993
		c-6.1201172,1.4134827-24.46521,4.9398193-24.46521,4.9398193l1.1796265,3.2799988l0.0131836-0.013916
		c4.9398193-0.46698,26.3324585-5.8737793,26.3324585-5.8737793c4.0900879-0.0682068,4.2404175,2.6626892,4.2404175,2.6626892
		c-8.2330322,3.0739746-29.322937,7.4646912-29.322937,7.4646912c0.9458008,3.9933472,2.9772339,11.7461548,2.9772339,11.7461548
		c24.932251-4.4595947,30.3390503-7.2044067,30.3390503-7.2044067
		C663.5061035,492.9104309,660.6652832,484.3614502,660.6652832,484.3614502z M653.2297974,437.5410767
		c-4.5563354-17.0840759-14.4213257-14.9704895-14.4213257-14.9704895
		c5.4053955,1.6466064,8.3151245,10.7446899,0.3013306,16.6170959c4.3983765,11.4009705,7.9351196,23.1158142,10.5790405,35.0456848
		c0.4802246,0,0.8233032,0.1642456,1.2770386,0.1927795c4.496521,0.0153198,8.7208862,2.1574402,11.3891602,5.7763367
		c4.6795044,6.6685486,2.8401489,16.8363037-4.1846924,19.115509c0,0,6.9009399,34.8118896,8.7821045,53.9120483
		c0.1398926,2.1470337,0.1628418,4.2995605,0.0681763,6.4493408c7.5336304,1.5645142,11.9243164,6.8077393,11.9243164,9.6339722
		C682.6083984,547.371582,669.7647705,483.8659363,653.2297974,437.5410767z M530.2097168,434.0836182h0.0396729
		l-6.3518677-15.5188904c-0.0981445-0.0403442-0.1942139-0.0862732-0.288147-0.1377869
		c-2.7440796-1.2478333-24.6169434-11.8554077-44.5007935-39.2443237v0.0132141
		c-0.954834,5.1980286-1.4642639,10.4684143-1.5227356,15.753418
		C477.5858459,394.9492493,499.4308777,423.9715271,530.2097168,434.0836182z M552.3588867,435.0440063
		c0,0,19.0598145-2.0982666,27.5127563-4.2250671c0.2045898-1.9855347,1.7746582-3.5549011,3.7595215-3.7601929
		c-11.762207,0.9207458-23.5904541,0.5247498-35.2649536-1.1796265L552.3588867,435.0440063z M266.834259,461.6346741
		l-19.7529907,30.1497192c-0.9840698,1.2095642-1.1768494,2.8805237-0.4941254,4.2821655
		c1.5206299,2.6021423,4.2382965,4.275177,7.24617,4.4595947c2.0112915,0.256134,3.9954224-0.6409607,5.1325989-2.3195801
		c0-0.0132141,14.8598022-22.0788269,19.0180969-28.2400513
		C277.9840088,469.9665222,268.0904541,464.0273438,266.834259,461.6346741z M266.827301,461.6242371
		c0.0014038,0.003479,0.0048828,0.0076599,0.006958,0.010437l0.0062561-0.010437H266.827301z M367.3955078,316.9533081
		c1.3034973,0.7418823,2.1553345,0.6326294,3.4992065,3.8840637c0.7683411,1.8526001,3.5959473,7.6428833,3.5959473,7.6428833
		c5.7923584-4.3343506,12.2535095-7.6943665,19.1273499-9.9485474
		c28.3221741-11.4983826,62.2286072-18.276886,92.1159668-24.2592468l2.2910461-0.4537354
		c4.8862305-0.7683411,6.1897278-3.7316589,5.8048706-6.2983093c-0.8344421-3.4546814-4.2104492-5.6656799-7.7110596-5.0490723
		c-37.3652954,6.0227051-80.5765076,17.1661682-101.4332581,25.8926086
		C378.6670227,310.6821594,372.8788757,313.5578003,367.3955078,316.9533081z M291.3113403,423.8608704
		c-0.3570251,0.6040955-0.5894775,0.9736328-0.6312256,1.0571594l-0.0689087,0.1092529h-0.0132141l-0.0953369,0.1099548
		c-1.7704773,2.0989685,1.1664124,5.1325989,1.7836914,5.7220764c2.6759338,2.5798645,6.956665,4.2264709,8.9881287,2.6069946
		l2.0718384-3.2799988l13.0761108-20.6918335c-3.5674133-3.2451782-6.8411255-6.7993774-9.7828979-10.6207886
		C296.7598877,414.8859863,292.7115784,421.5698242,291.3113403,423.8608704z M545.3374634,294.1200562
		c4.8577271,0,5.7213745-3.2110901,5.8452759-4.6524048c0.2324219-2.6334534-1.2221069-5.8027649-3.6634521-6.145874
		l-0.178894-0.041748l-0.1642456-0.0556946c-3.4448853-1.1663818-20.1573486-3.0871887-26.6887817-3.7184143
		c0,0,3.0322266,7.0401611,3.0322266,11.9931946l-0.0131836,0.013916
		C530.8521118,291.6522217,538.1657715,292.5256348,545.3374634,294.1200562z M549.2160034,279.5880432
		c6.3275146,1.8393555,7.9191284,10.758606,3.5966187,15.3838501c-2.3404541,2.3822327-5.7338867,3.4066467-9.0013428,2.7155762
		v0.0285339c-1.6424561-0.4996948-3.3224487-0.8664551-5.0233154-1.0975037
		c-1.449646-0.2108765-2.9118652-0.3166504-4.3760986-0.3166504c9.81073,13.4345093,35.4555664,5.4756775,21.625061-16.4660645
		l-24.2321167-44.445816l-9.866394,4.240387l16.9330444,38.0918427
		C542.3727417,278.002655,545.8378906,278.6276245,549.2160034,279.5880432z M534.8934326,277.5162048l-0.0145874-0.0132141
		l-15.9865723-36.6930084l-4.4595947,1.8943634l11.9799805,33.6322327
		C526.4126587,276.3365784,532.5321045,277.0499268,534.8934326,277.5162048z M305.3777771,466.8521729v0.0132141
		c-1.0487976,0.0515137-2.0975647-0.1022949-3.0879211-0.4530334c0.0097656,1.1997986,0.1426697,2.3954163,0.3988037,3.5674133
		c5.6942139,0.8782654,8.4807739-2.7155762,8.8085632-5.3518372l-0.4649048-0.0549622
		c0.2192383-3.6495361-2.7176514-7.2037354-6.7659607-8.4786987c-1.2937622,2.5325317-1.9757996,5.3337097-1.9897156,8.1773376
		c1.0160828,0.4899597,2.1052246,0.8093872,3.2250061,0.9472046
		C305.4258118,465.7602539,305.3847351,466.3058472,305.3777771,466.8521729z M298.5985718,468.7312317v0.0271301
		c0.3834839,0.1788635,0.6026917,0.4955139,0.9736328,0.6326294c-0.3089905-1.3779907-0.4468079-2.7886658-0.4113159-4.2000427
		c-0.7279358-0.4941101-1.2902527-0.6861877-1.6466064-1.3306274v-1.9632568
		c0.4906616,0.4036255,1.0133057,0.7662354,1.5631104,1.0849609c-0.0153198-2.5137634,0.5880737-4.9927063,1.7565613-7.2176514
		c-2.2047424-0.2240906-4.3976746,0.5226746-6.0087891,2.0447083
		C294.8251648,457.809082,292.9440308,465.5618896,298.5985718,468.7312317z M431.8100891,174.5066223
		c10.3389587,8.4432068,19.9221191,17.7723389,28.6388245,27.8823395
		c8.5865479,9.9944611,16.2774353,20.725235,22.9842834,32.0670471l2.6069946-1.1928558
		c0.431488-0.236618,0.8803711-0.438446,1.3438721-0.6040802h0.0285339
		c0.3709412-0.1350098,0.7516174-0.2456665,1.1378784-0.3298798c0.1816406-0.0111237,0.3611755-0.0431366,0.5351563-0.0953369
		c0.4746399-0.0918732,0.9569397-0.1426697,1.4406128-0.1503296c1.327179-0.003479,2.646698,0.1997375,3.9112244,0.6040802
		c1.0230408,0.3103943,1.997345,0.7627563,2.8951111,1.3438721c0.4830017,0.3020477,0.9423218,0.6416626,1.3717346,1.0153809
		c0.2428589,0.1851196,0.4718323,0.3869476,0.6861877,0.6040802c0.2345276,0.2060089,0.4537659,0.4523621,0.6861877,0.686203
		c0.7328491,0.7634583,1.4023438,1.5853577,2.0029297,2.4566956h2.2507019
		c-0.9875488-1.9764862-1.9075928-3.6780701-2.7441101-5.1743622c-1.3856201-2.5381012-2.6341553-4.5145874-3.7741089-6.2697601
		c-0.7676392-1.1949463-1.5227356-2.3195801-2.2353821-3.4038696c-0.8782654-1.3174286-1.7148132-2.6070099-2.6069946-4.1032867
		c-6.3164063-8.9818726-13.2145996-17.5399017-20.6514893-25.6184235
		c-50.4831238-54.9142303-119.1060791-78.8874435-186.7554016-76.9109573
		c-18.7438965,0.5490952-37.3791962,3.0558929-55.6025085,7.4779205
		C313.1152954,112.6343384,382.3423157,134.1905365,431.8100891,174.5066223z"/>
</g>
</svg>
