<?xml version="1.0" encoding="utf-8"?>
<!-- Generator: Adobe Illustrator 22.0.1, SVG Export Plug-In . SVG Version: 6.00 Build 0)  -->
<svg version="1.1" id="Layer_1" xmlns="http://www.w3.org/2000/svg" xmlns:xlink="http://www.w3.org/1999/xlink" x="0px" y="0px"
	 width="720px" height="720px" viewBox="0 0 720 720" style="enable-background:new 0 0 720 720;" xml:space="preserve">
<style type="text/css">
	.st0{fill:#FFFFFF;}
	.st1{fill:#002244;}
</style>
<g>
	<polygon class="st0" points="714.7756348,280.3256836 443.7805176,280.3256836 360.0002441,22.5209961 276.2199707,280.3256836 
		5.2243652,280.3256836 224.5012207,439.6625977 140.7160645,697.4790039 360.0002441,538.137207 579.2844238,697.4790039 
		495.4992676,439.6625977 	"/>
	<path class="st1" d="M684.0002441,290.3271179H436.5151672L360.0002441,54.878933l-76.5148926,235.4482117H36.0002441
		l200.2574768,145.5163269L159.7427979,671.291626l200.2574463-145.5163574L560.2577515,671.291626l-76.5149231-235.4481812
		L684.0002441,290.3271179z M468.7924805,446.6536865l57.9611816,178.5603027L374.950531,514.8883667l-14.9503174-10.8869019
		l-14.9503174,10.8869019L193.2467804,625.2139893l57.9611969-178.5603333l5.7501221-17.6336975l-14.9502869-10.8868713
		L90.2046814,307.9608154h187.6072083h18.5537109l5.7501221-17.6336975l57.9612122-178.5603485l57.9611816,178.5603485
		l5.7501221,17.6336975H442.34198h187.6071777L477.9926453,418.1330872l-14.9502869,10.8869019L468.7924805,446.6536865z
		 M446.635376,321.6077881h-18.4003906h-14.4902954l-4.3700867-13.5703125l-5.7501221-17.6336975l-43.6242371-134.3227692
		l-43.6242065,134.3227692l-5.7501221,17.6336975l-4.3701172,13.5703125h-14.4902649h-18.4003906H132.1422272
		l114.2356873,83.0317078l14.9503021,10.8869019l11.653595,8.4335022l-4.3701172,13.570282l-5.7501221,17.6336975
		l-43.6242218,134.3227539l114.2357025-83.0316772l14.8736267-10.8869324l11.6535645-8.4335022l11.653595,8.4335022
		l14.9503174,10.8869019l114.2356873,83.0316467l-43.6242676-134.3227234l-5.7501221-17.6336975l-4.3700867-13.570282
		l11.653595-8.4335022l14.9502869-10.8869019l114.2356873-83.0317078L446.635376,321.6077881L446.635376,321.6077881z"/>
</g>
</svg>
