<?xml version="1.0" encoding="utf-8"?>
<!-- Generator: Adobe Illustrator 22.0.1, SVG Export Plug-In . SVG Version: 6.00 Build 0)  -->
<svg version="1.1" id="Layer_1" xmlns="http://www.w3.org/2000/svg" xmlns:xlink="http://www.w3.org/1999/xlink" x="0px" y="0px"
	 width="720px" height="720px" viewBox="0 0 720 720" style="enable-background:new 0 0 720 720;" xml:space="preserve">
<style type="text/css">
	.st0{fill:#0A2343;}
	.st1{fill:#FC4C02;}
	.st2{fill:#FFFFFF;}
</style>
<g>
	<path class="st0" d="M684,429.4524231l-5.3150635-3.9863281c-10.4088135-7.9726563-4.8722534-23.9179993-4.6507568-24.5823669l0,0
		l3.7648926-9.9658203l-20.5960083-9.7443848l0,0l0,0c-11.0731201-9.5228882-51.600769-35.6554871-74.8544312-50.2720337
		l-0.4429321-0.2214661l0.4429321-0.2214661l7.9726563-5.315094l-71.7539063-31.6691589l0,0
		c-31.0048218-39.6418457-87.6992798-37.2057495-87.6992798-37.2057495
		c-6.4224243-10.4087524-24.803833-36.3199005-52.9295959-56.4730072
		c-15.723877-11.2946014-32.3335876-19.0457916-49.3862-23.2535858
		c-20.5960388-4.8721771-41.8564758-4.4292603-63.5598145,1.1073151
		c-14.6165314,3.9863281-48.7218018,21.4818878-55.3656769,25.2467499
		c-28.7901611,16.6097107-57.8017731-23.917984-57.8017731-23.917984
		c-0.6643982,2.8790283-2.6575623,14.1736298-1.3287811,28.3472443
		c3.5433807,32.5550232,25.2467499,42.7423096,25.2467499,42.7423096s-16.6097107,3.7648621-32.7764893-5.5365753
		c-26.3540802-19.4887238-19.9316559-74.4114838-19.9316559-74.4114838
		c-0.2214661,0.2214661-16.1667862,17.0526276-21.7033539,39.8632965
		c-3.3219376,13.5092316-4.2077866,25.9111481-2.6575546,37.4272156
		c1.7717056,14.1735992,8.4155884,27.2399139,17.4955597,37.2057343c0,0-9.9658203-1.1072998-23.9179688,7.3082581
		C62.7969933,309.8625183,36,271.9924011,36,271.9924011c1.1073151,36.5413513,19.9316483,65.5529785,46.7286453,88.1421814
		c10.6302109,8.8585205,21.2604218,16.3882446,39.4203644,23.4750671
		c19.0457993,7.3082581,45.1783981,14.1736145,85.0416946,22.3677368
		c45.8427887,9.0799561,79.0621948,24.1394348,101.4299622,45.8427734
		c18.6028442,17.9385071,28.347229,38.3130493,34.5481873,57.1373901l11.2946167,36.9842834l0,0l0,0
		c0,1.1072998,0.6643982,1.9931641,1.7717285,2.8790283c1.1072998,0.8858032,2.6575317,1.3287964,4.2077637,0.8858032
		c0.8858337-0.2214355,1.9931641-0.4428711,2.6575623-1.1072998c0.6643677-0.6643677,0.8858337-2.4360962,0.8858337-2.6575317l0,0
		c0.6643982-18.1599731,2.8790283-39.8633118,2.8790283-39.8633118
		c1.771698-26.3540344,15.0594482-48.2788696,39.4203491-65.1100464
		c13.0663147-9.0799561,26.1326294-14.1736145,32.7765198-16.3882446h0.2214661h0.2214661
		c16.6097107,11.7375488,35.2125854,17.0526123,55.1442261,15.9453125
		c16.6097107-0.8858643,30.1189575-6.2009583,36.7628174-9.0799561l0,0l0,0
		c38.7559814,15.9453125,41.8564453,31.890625,42.0779419,33.662323l0,0l-0.8858643,9.3014526v0.2214661h0.2214966
		l47.3930054,2.8790283l26.1325684-23.4750671c-0.2214355,0-6.8653564-0.8858337-6.8653564-0.8858337
		c-9.9658203-1.1073303-37.2056885-5.7580261-42.0778809-14.6165466c-1.5502319-2.8790283-0.6644287-9.3014221,11.5160522-9.0799561
		c10.630188,0.2214355,31.890625,5.9794617,54.4798584,36.9842529l3.9863281,5.5365601L684,429.4524231L684,429.4524231
		L684,429.4524231z"/>
	<path class="st1" d="M310.3923645,261.8051147c-44.7355042,5.0936584-89.6924286,17.9384766-133.0991211,37.8701477
		c-21.7033539-1.5502625-41.8564758-10.4087524-53.5939941-23.9179993
		c-14.8380051-17.0526123-19.7101822-42.2993774-9.5228958-74.1900177l0,0
		c0.6643829,27.6828461,8.8585129,43.8496246,22.1462784,52.9295959
		c15.5023956,10.6302032,39.6418304,10.8516693,73.5256195,0.4429321
		C262.5563965,238.5515289,298.2119141,241.2090759,310.3923645,261.8051147z M96.2378693,302.7757263
		c-26.7969971,13.7306824-42.7423096-1.5502319-42.7423096-1.5502319s12.1804504,63.3383484,103.2016296,11.0731201
		c-18.1599426-5.7580261-25.9111328-16.1667786-40.0847473-15.7238464
		C111.2973404,296.5747681,104.8749161,298.3464661,96.2378693,302.7757263z M546.6931152,335.5522156l-7.086792,5.0936584
		l1.9931641-7.7512207c-1.3287964-0.6643982-2.6575317-1.3287659-3.7648926-1.9931641
		c-1.3287964,1.1073303-1.993103,2.8790283-2.2145996,4.6507263c-0.2214966,3.9863281,2.6575317,7.3082581,6.6438599,7.5297241
		c3.7648926,0.2214661,7.086792-2.4360657,7.5297241-5.9794922
		C548.6862793,336.6595154,547.800415,335.9951477,546.6931152,335.5522156z M373.7307129,211.7545319
		c-14.8380127-11.0731354-30.3403931-18.8243256-46.2857056-22.8106689
		c-9.5229187-2.4360809-19.488739-3.7648621-29.2330933-3.543396s-19.9316406,1.5502319-29.8974609,4.2077942
		c-13.0663147,3.543396-42.5208435,17.9384766-53.5939941,23.6965179
		c-29.0116119,15.0594635-47.8359528-4.4292603-54.92276-11.7375336l-0.2214508-0.2214661
		c0.6643829,3.9863281,1.9931641,11.2946014,5.3151093,18.6028748c3.9863281,9.3014374,9.7443542,15.9453278,17.2740936,20.1531067
		c13.2877655,7.5297394,31.8906403,6.4224243,55.1442261-3.1004791
		c25.9111481-10.6302032,47.6144867-13.9521484,64.4456635-9.7443542
		c15.2809143,3.7648621,29.2330627,15.9453125,37.6486511,32.5550232
		c28.1257629-1.1072998,56.2515259,0.8858643,83.7129517,5.9794922
		C408.9432983,243.8666382,391.890625,225.2637634,373.7307129,211.7545319z"/>
	<path class="st2" d="M660.4966431,410.6038208c0-7.0325012,2.0222778-12.5707092,2.4616699-13.713562l-12.2192993-5.7142029
		c-3.7799072-4.1314087-26.020813-18.9878235-47.5577393-32.9653625
		c-21.4495239-13.8890076-42.1080933-26.8117065-42.5475464-27.0751648l-0.1759644-0.2639771l0.1759644-0.1759949
		l5.9776611-4.043396l-55.3817139-23.4711914c-11.1644287-16.7906494-27.7790833-25.5814209-42.7229614-30.0647888
		c-14.944397-4.5708313-28.2185364-4.9227905-32.5259399-4.9227905
		c16.7901306,5.3622131,21.888916,10.4610291,23.2077637,13.8015442c0.8788452,2.1976929,0,3.6919861,0,3.6919861v0.2639771
		h-0.1759949c-191.375061-52.3051453-347.67453,67.776947-354.3555908,72.8752136
		c7.5599289,7.4724731,24.3505859,17.6695251,85.0065155,31.2070923
		c13.5381165-10.6364746,77.9740295-56.4365234,175.4638062-53.799408l-15.7358093-23.910614
		c0,0,60.217041,15.73526,94.764679,34.7236023c-2.6371155,25.4928894,13.0981445,50.1074524,38.5035706,57.5794067
		c18.1969604,5.3622131,37.0093079,0.7033997,50.5469055-10.6370239l43.1624146,27.6911011l-41.4041748-16.1752319
		c-17.7575073,12.8347168-40.9652405,17.3180847-63.1176147,10.0216064
		c-27.6911011-8.8787537-45.888031-33.2288208-48.525177-60.4804993
		c-93.4458313-23.4711914-162.2776489,35.6904907-176.0792084,48.525177
		c11.0764313,3.5159912,21.5374603,7.4719543,30.8556671,11.9553223
		c11.2524109,5.538208,21.4494629,11.691864,30.5042114,18.5483704
		c6.8565063-8.3507996,34.5476379-37.3607483,87.4676514-37.8001709c0,0-51.7771606,13.4501343-68.3918457,55.7336731
		c14.5924377,17.0541077,22.3283386,34.9870605,28.1305542,52.3045959
		c1.3182983-16.4386597,6.5930786-31.2070923,15.4718323-44.4812317
		c7.295929-10.9004517,17.3175354-20.6580811,29.448822-28.8334045
		c20.8340759-14.1530151,41.2286987-19.2518005,41.4046936-19.2518005h0.2634277
		c16.350708,13.0981445,33.3173523,17.1420898,47.9977722,17.1420898c23.119751,0,40.5252686-10.0216064,40.7892456-10.2855835
		c12.8341675,4.8353577,23.9106445,10.3735962,32.5253906,16.3512268
		c6.8570557,4.922821,12.3952637,10.0210571,16.1752319,15.119873c5.9776611,8.1753235,6.2416382,13.8895569,5.9776611,15.2958374
		l31.4710693,1.9342346l9.3182373-7.7359009c-28.5700073-3.7799683-37.1853027-12.6587219-39.0310059-20.1306763
		c-3.0770874-18.3729248,15.7352295-20.6585999,24.1745605-19.5157471
		c19.9552002,2.6371155,44.0418091,20.3946228,53.184021,32.7893677l6.5930786-18.1964111
		C662.2549438,427.9219055,660.321228,417.9003296,660.4966431,410.6038208z M466.9244385,289.0274353
		c25.932312,0.7034302,3.252533-9.7575989,0.5274353-10.9884338c2.1976929,0.3519592,20.1306458,4.2199097,30.9431152,21.1860352
		C487.5825195,295.2690735,475.8026428,291.2251282,466.9244385,289.0274353z M549.1178589,345.2885437l-6.8570557,4.6588135
		c0,0-10.8125-14.1529846-36.3059082-31.0310974c0,0,2.8131104,0.3514099,8.1759033,2.1096802
		c4.6588135,1.4942932,11.3399048,3.9559631,19.9546509,7.9999084c0.7034302,0.3514404,1.8462524,0.8788452,3.1651001,1.5822754
		c0.175415,0.0874329,0.3514404,0.1754456,0.5274048,0.3514099c1.2302856,0.6154175,2.637146,1.3188477,4.043396,2.0217285
		c1.5822754,0.8793945,3.2525635,1.7582397,4.9228516,2.6376343c1.0548096,0.5274353,2.1096802,1.142334,3.0770874,1.5822754
		c0.8788452,0.5274353,1.7576904,0.9668579,2.3731079,1.3182983c1.0548706,0.5274353,1.8462524,0.9668579,2.1096802,1.1428528
		c15.8238525,9.2301941,35.6030273,22.5043335,59.0742188,41.4926758L549.1178589,345.2885437z M641.6843262,396.8902588
		c4.4833374,0,9.7581177,1.3188477,9.7581177,1.3188477c-14.3289795,5.7136536,2.7250977,21.8888855,4.307373,23.3831787
		C629.2895508,400.8462219,634.2123413,396.8902588,641.6843262,396.8902588z"/>
</g>
</svg>
