<?xml version="1.0" encoding="utf-8"?>
<!-- Generator: Adobe Illustrator 22.0.1, SVG Export Plug-In . SVG Version: 6.00 Build 0)  -->
<svg version="1.1" id="Layer_1" xmlns="http://www.w3.org/2000/svg" xmlns:xlink="http://www.w3.org/1999/xlink" x="0px" y="0px"
	 width="720px" height="720px" viewBox="0 0 720 720" style="enable-background:new 0 0 720 720;" xml:space="preserve">
<style type="text/css">
	.st0{fill:#B0B7BC;}
	.st1{fill:#FFFFFF;}
	.st2{fill:#0076B6;}
</style>
<g>
	<path class="st0" d="M655.9092407,378.8970032c-6.7786865-1.6946716-13.8963013-0.3389282-13.8963013-0.3389282
		s-1.6947021-3.3893433-6.4396973-6.4397583c-4.7450562-3.3893433-12.5405884-4.7450562-22.7085571-7.7954712
		c-10.1680298-3.050415-19.3192139-11.1848145-19.3192139-11.1848145
		c2.0336304-2.3725281,8.4733276-12.2015991,8.4733276-12.2015991c2.3725586,1.0168152,10.506958,3.7282715,15.9298706,3.7282715
		c5.7618408,0,13.2183838-1.3557434,13.2183838-1.3557434s13.2183838,5.0839844,23.3864136,0.6778564
		c10.1679688-4.4061584,13.8963013-13.8962708,13.8963013-13.8962708s5.7618408-3.3893433,9.1511841-9.829071
		c3.3893433-6.4397583,2.0336304-11.5237427,2.0336304-11.5237427c4.0671997-7.7954712,3.7282715-15.5909424-0.3389893-22.7085571
		c-4.0671997-7.1175842-14.2351685-13.2184143-21.6917114-15.2520142s-14.2351685-1.0167847-14.2351685-1.0167847
		c-3.050415-3.3893433-9.1512451-6.1007996-17.6245728-6.4397583c-8.1343384,0-15.9298706,6.4397583-16.6077271,6.7786865
		c6.4397583-6.7786865,10.506958-20.674942,10.506958-20.674942c8.8123169-12.5405426,18.9803467-16.9466705,18.9803467-16.9466705
		s-16.2688599-16.9466705-29.4872437-25.0810699s-26.0978394-13.2184143-26.0978394-13.2184143
		s-4.0671997-11.5237274-10.506958-16.2687988c-6.7786865-4.7450714-15.5909424-8.1343994-15.5909424-8.1343994
		c-1.3557129-4.4061279-7.1176758-11.8626709-15.2520142-15.9298706
		c-8.1343994-4.0671997-19.6581421-6.1007996-35.5880432-12.2015991
		c-15.9298401-6.1008148-47.1117554-27.7925491-47.1117554-27.7925491
		c-2.7114563,6.4397354-2.7114563,18.3024063-2.7114563,18.3024063
		c-23.7253418,2.3725281-35.9269409,11.5237427-35.9269409,11.5237427
		c7.1175842,2.3725281,13.5573425,7.7954712,13.5573425,7.7954712c-10.506958-0.6778717-24.742157,1.3557281-37.9605408,7.4565277
		c-13.2184143,6.1007996-23.3864136,18.9802704-27.7925415,24.0642853
		c-4.4061584,5.0839996-8.4733276,6.778656-16.9466858,9.4901276c-8.4733276,2.3725433-19.6581421,3.3893433-19.6581421,3.3893433
		c0.6778564,6.778656,7.4565125,17.624527,7.4565125,17.624527c-8.8122559,13.8962708-8.1343994,28.4704132-8.1343994,28.4704132
		s-7.7954712,6.7786713-15.5909424,17.9634705c-7.7954712,11.1848145-7.4565125,23.0474854-7.4565125,23.0474854
		c-3.3893433-0.677887-7.4565125-2.3725586-7.4565125-2.3725586c-0.3389282,16.2688293,7.4565125,30.8429565,7.4565125,30.8429565
		s-6.1007996,6.1007996-9.829071,12.5405579c-3.7282715,6.4397278-9.829071,17.285614-9.829071,17.285614
		c-2.7114868,2.7114868-18.9802856,15.9298706-18.9802856,15.9298706s-10.5069275,3.3893127-12.5405273,4.0671692
		c-2.3725128,0.6778564-9.829071,3.050415-16.2687988,6.7786865c-6.1007996,4.0671692-22.3695984,20.3359985-22.3695984,20.3359985
		c-27.4536285-6.1007996-31.8597412-22.7085266-35.2490692-36.2658691
		c-3.3893433-13.5573425-8.4733429-24.742157-18.9802704-37.2826843
		c-10.5069427-12.5405273-26.0978851-19.3192139-26.0978851-19.3192139
		c-3.0503998-10.1679993-9.1511993-17.6245422-16.9466705-22.0306702s-19.3192139-7.7954712-43.044548,0.6778564
		C53.9634743,282.6398621,36,301.9590759,36,301.9590759c8.4733353,0.3389282,31.8597412,4.0671997,38.6384125,12.2015991
		c6.4397354,8.1343994,12.8794708,16.6077271,23.3864059,20.6749268
		c10.1680069,4.0671997,19.3192139,1.6946716,19.3192139,1.6946716
		c13.5573349,8.4733582,16.2688065,23.7253418,19.6581345,38.6384277
		c3.3893433,14.9130859,7.1175995,25.7589417,20.674942,41.0109558
		c13.5573425,15.2519836,39.6552124,22.3695984,39.6552124,22.3695984s-0.3389282,9.4901428-1.0167999,15.2519836
		c-0.6778717,5.7618713-1.0167999,21.3528442-3.0503998,28.8093567c-2.0335999,7.456543-6.439743,12.5405273-10.1679993,15.5909424
		c-3.7282715,3.050415-11.1848145,9.1511841-12.5405426,18.9802856c-1.3557434,9.8290405,5.0839996,18.6412964,5.0839996,18.6412964
		c0,1.3557739-0.6778717,30.1651001-1.0167999,33.5544434c0,3.3893433-3.7282562,16.9466553,9.4901276,29.4871826
		c13.2184143,12.5405273,30.5040131,5.0840454,30.5040131,5.0840454s7.7954712,1.6946411,14.9130859-2.0336304
		c7.1175995-3.7283325,10.1679993-10.8458862,10.1679993-10.8458862c2.3725433-1.6946411,11.1847992-7.456543,10.1680145-23.3863525
		c-1.0167999-15.9298706-16.2687988-21.6917725-16.2687988-21.6917725l-0.3389282-5.7618408
		c10.5069275-7.456543,25.0810699-14.5741577,32.8765411-18.3024292s12.8794861-8.1343994,12.8794861-8.1343994
		c4.7450867,12.5405273,14.9130859,15.9298706,23.3864136,16.6077271s36.9437561-2.0335693,36.9437561-2.0335693
		s10.8458557,7.456543,19.6581421,7.456543s14.9130859-3.3893433,14.9130859-3.3893433s11.5237427,2.0335693,20.3359985-2.0336304
		c9.1512146-4.0671387,11.5237427-11.8626709,11.5237427-11.8626709s4.4061584-2.0335693,8.4733582-9.8290405
		c4.0671692-7.7954712,2.0335693-17.285614-3.7282715-26.0978699c-5.7618713-8.8122559-17.285614-12.8794861-17.285614-12.8794861
		c7.7955017-2.7114868,16.9466858-9.1511841,21.6917419-17.9634705c4.7450867-8.8122864,7.456543-25.0810852,7.456543-25.0810852
		c9.829071-0.6778564,21.3528137-5.4229431,27.4536133-8.4733582c6.1007996-2.7114563,25.7589417-13.557312,25.7589417-13.557312
		c6.4397278,5.0839844,9.829071,15.2519836,9.829071,15.2519836c22.7085266-1.0168152,30.1650391-4.7450562,30.1650391-4.7450562
		c12.8795166,7.4565125,41.3498535,13.2184143,54.2293701,13.5573425
		c12.8794556,0.6778564,19.6581421,4.0671692,19.6581421,4.0671692s7.1176147,10.8458557,17.963501,14.235199
		c10.506958,3.3893433,18.6412964,2.3725281,18.6412964,2.3725281s7.1176758,5.4229431,16.9467163,3.7282715
		s13.8963013-6.7786865,13.8963013-6.7786865s7.1176147-0.3389282,11.8626709-5.0839844
		c4.7449951-4.7450867,7.4564819-12.8794861,7.4564819-12.8794861s5.0840454-3.050415,7.1176147-11.8626709
		c2.0336304-8.4733276-1.0167847-17.6245422-6.100769-24.742157
		C670.4833984,386.0145874,662.6878662,380.5916443,655.9092407,378.8970032z"/>
	<path class="st1" d="M667.7719116,397.1994019c-8.4733276-8.8122559-13.2183838-9.829071-17.963501-10.1679993
		c-4.7450562-0.3389282-12.2015991,1.3557434-12.2015991,1.3557434c-2.3725586-7.456543-9.1512451-11.1848145-12.2016602-11.8626709
		c-3.050354-0.6778564-8.8122559-1.6946716-20.3359985-6.4397583
		c-11.5237427-4.7450562-23.0474854-15.9298401-23.0474854-15.9298401
		c2.7114868-3.050415,14.5741577-19.6581726,16.2687988-22.0307007c1.6947021-2.3725281,3.3893433-3.3893127,3.3893433-3.3893127
		s7.456543,5.7618408,14.5741577,6.4397278c6.7786865,0.3389282,16.6077271-1.6946716,16.6077271-1.6946716
		s10.1679688,5.0840149,18.3023682,2.3725281s11.5237427-12.8794556,11.5237427-12.8794556s5.7618408-2.3725586,7.7954712-6.7786865
		s0.6778564-10.5069275,0.6778564-10.5069275c7.456543-9.4901428,1.6946411-16.6077576-4.4061279-21.6917419
		c-6.1008301-4.7450867-13.557373-6.4397583-17.963501-6.1007996c-4.0671997,0.3389282-8.4733276,0-8.4733276,0
		c-1.0168457-1.6946716-4.7450562-5.4229431-9.8290405-6.1007996c-5.0840454-0.677887-11.1848145,2.0335999-12.8795166,4.0671997
		c-2.0336304,1.6946716-5.7618408,4.0671997-5.7618408,4.0671997s-3.3893433-1.6946716-8.4733276-3.050415
		c-5.0840454-1.3557129-11.1848145-1.3557129-11.1848145-1.3557129l0,0v-2.3725586c0,0,7.7954712-3.0503845,12.8794556-10.5069275
		c5.0839844-7.4565277,8.1343994-17.9634705,8.1343994-17.9634705c2.7114868-3.7282562,13.2183838-12.2015991,13.2183838-12.2015991
		s-10.506958-10.1679993-18.3023682-15.9298706c-7.7955322-5.7618713-24.7421875-13.218399-26.4368286-13.8962708
		c-1.6947021-0.6778717-3.3893433-1.6946716-4.406189-3.3893433c-1.0167847-1.6946564-2.0335693-4.4061279-2.7114258-6.4397278
		s-5.0840454-7.456543-9.1512451-9.4901428s-14.2351685-6.4397278-14.2351685-6.4397278
		c-2.3725586-11.1847992-12.8795166-15.2519989-18.9802856-17.285614
		c-6.1008301-2.0335999-24.4031982-8.1343994-34.2322998-12.2015991
		c-9.4901733-4.4061432-30.5040283-19.3192139-30.5040283-19.3192139
		c-1.3557129,4.7450714-1.6946716,13.2184143-1.6946716,13.2184143
		c-12.2015991-1.0167999-25.0810852,3.0503998-25.0810852,3.0503998c5.7618713,2.3725281,12.2015991,9.829071,12.2015991,9.829071
		c-3.3893127,1.3557281-12.2015991,6.7786713-12.2015991,6.7786713s-17.2855835-2.0335999-34.2322693,4.0671997
		c-16.9466553,6.1007996-30.842926,25.4200134-30.842926,25.4200134s-5.7618713,5.0839996-13.2184143,7.4565277
		c-7.456543,2.3725433-17.6245422,3.3893433-17.6245422,3.3893433c1.0168152,5.4229279,6.4397583,12.2015991,6.4397583,12.2015991
		s-5.0840149,6.7786713-7.7955017,15.2520142c-2.7114563,8.4733276-2.0335693,17.2855988-2.0335693,17.2855988
		c-12.2015991,10.5069275-21.3528442,24.06427-23.0475159,32.5376282c-1.6946411,8.4733276,1.6946716,14.235199,1.6946716,14.235199
		c-2.7114563,0.3389282-6.778656-0.6778564-6.778656-0.6778564c0,10.5069275,7.1175842,18.6413269,7.1175842,18.6413269
		s-7.7954712,9.829071-10.8458557,14.235199c-3.050415,4.4061279-13.2184143,22.3695984-13.2184143,22.3695984
		c-3.3893127,2.7114868-21.3528137,17.963501-21.3528137,17.963501s-10.1679993,3.3893127-12.8794861,4.0671692
		c-3.0503845,0.6778564-9.829071,2.3725281-15.9298706,6.4397583c-6.1007996,4.0671692-23.7253418,22.7085266-23.7253418,22.7085266
		c-6.439743-0.3389282-18.3024139-3.3893433-28.4703979-10.5069275
		c-10.1679993-7.1176147-16.6077423-23.3864136-18.6413422-31.5208435
		c-2.0335999-8.1343994-5.0839996-20.3359985-15.9298706-33.2154541
		c-10.5069427-12.8794861-28.8093414-20.6749573-28.8093414-20.6749573s-1.3557434-12.2015991-10.1680145-19.3192139
		c-8.8122711-7.1175842-23.0474701-5.7618713-35.9269485-2.0335693C71.5877304,285.0124207,52.60746,298.230835,52.60746,298.230835
		c3.0504036,0,18.980278,2.3725281,24.7421417,6.7786865c5.7618713,4.4061279,11.8626709,16.9466553,22.7085419,21.6917419
		c10.8458786,4.7450562,19.3192139,0.6778564,19.3192139,0.6778564
		c15.9298782,8.1343994,20.6749344,21.013855,24.7421341,37.6216125
		c3.7282715,16.6077271,6.1007996,29.1482544,19.6581421,44.7391968s43.7224274,22.3695984,43.7224274,22.3695984
		c-1.6946716,6.4397583-2.3725433,29.4872131-2.7114716,36.9437561c-0.3389282,7.1176147-2.3725281,16.6077576-4.7450714,23.3864136
		c-2.3725433,6.7786865-7.456543,10.1679993-11.1847992,13.5573425c-4.067215,3.3893433-8.4733429,8.4733582-9.1512146,12.5404968
		c-1.0167999,4.406189,2.3725433,10.8458862,4.067215,13.557373c1.3557281,2.7114868,1.3557281,4.7450562,1.3557281,6.7786865
		c0,2.0335693-1.3557281,32.1986694-1.3557281,40.6719971c0,8.4733887,6.778656,16.6077271,14.9130707,18.3024292
		c8.1344147,1.6946411,15.5909424-2.0336304,15.5909424-2.0336304s5.7618713,2.0336304,11.1847992-0.3389893
		c5.4229279-2.0335693,7.4565277-9.4901123,7.4565277-9.4901123c7.1175995-2.7114868,7.7954712-9.4901733,8.1344147-14.9130859
		c0-5.7618408-2.7114716-9.8290405-5.7618713-12.5405273c-3.0503998-2.7114258-10.1679993-4.0671387-10.1679993-4.0671387
		c-0.3389282-1.6947021-0.6778717-16.6077881-0.6778717-16.6077881s4.7450714-4.7450562,12.8794708-9.4901123
		c8.1343994-5.0840454,23.3863831-11.8626709,30.8429565-16.2688599
		c7.1175842-4.4061279,11.1848145-10.1679688,13.8962708-15.5909119
		c3.0503845-5.0840149,10.5069275-20.6749268,10.5069275-20.6749268s5.0839844,2.3725281,6.778656,3.728241
		c1.6946716,1.0168152,1.3557434,3.050415,0.6778564,4.0671997c-0.6778564,1.0168152-5.0839844,6.4397583-8.1343994,10.5069275
		c-3.050415,3.7282715-7.456543,13.5573425-4.4061584,19.6581726c3.3893433,6.100769,8.4733582,9.8290405,16.2688293,9.8290405
		s32.8765259-2.0335693,35.2490845-2.0335693c2.3725281,0,3.7282715,0.6778564,5.0840149,1.3557129
		c1.3557129,0.6778564,9.829071,6.1008301,16.2687988,5.7619019c6.4397583-0.3389282,11.5237427-3.7282715,11.5237427-3.7282715
		s11.1848145,2.0335693,17.963501-0.3389282c6.778656-2.3725586,8.1343994-10.1680298,8.1343994-10.1680298
		c5.4229126-2.7114563,8.8122559-6.778656,9.1511841-12.5405273c0.3389282-5.7618408-3.7282715-12.8794556-11.5237427-18.6413269
		s-17.2855835-3.7282715-20.6749268-2.7114868c-3.3893433,1.3557434-8.1343994,3.7282715-10.5069275,4.0671997
		c-2.7114868,0-11.1848145-2.0335999-11.1848145-2.0335999c3.0503845-2.7114868,9.829071-8.4733276,15.2519836-11.1848145
		c5.7618713-2.7114868,12.2015991-4.4061279,17.6245422-6.4397278s14.5741577-7.1176147,17.6245422-11.1848145
		c3.3893127-4.0671997,7.1175842-16.6077576,8.4733276-22.7085571c1.3557434-6.4397278,0.3389282-10.1679993,0.3389282-10.1679993
		c2.3725281-0.3389282,18.6413269-1.6946716,27.7925415-6.1007996c9.1511841-4.4061584,34.9101563-18.6413574,34.9101563-18.6413574
		c11.8626709,7.1176147,15.5909424,17.6245422,15.5909424,17.6245422c11.1848145,0,25.0810852-6.4397278,25.0810852-6.4397278
		c9.1511841,6.778656,36.9437256,14.2351685,51.1789551,14.5741272c14.2351685,0,28.1314697,5.7618713,28.1314697,5.7618713
		s3.7283325,7.7954712,11.8626709,11.8626709c8.1343994,4.0671997,20.6749878,3.050415,20.6749878,3.050415
		c3.050354,2.3724976,9.4901123,5.7618408,15.5909424,3.728241c6.1008301-1.6946716,8.4733276-6.1007996,8.4733276-6.1007996
		s6.1008301,0.6778564,10.1680298-3.050415c4.4061279-4.0671997,4.7450562-11.1848145,4.7450562-11.1848145
		s5.0839844-3.050415,6.4396973-6.778656C674.2116699,413.8071289,676.2452393,406.0116577,667.7719116,397.1994019z"/>
	<path class="st2" d="M657.6038818,417.5354004c0,0,1.0168457,9.1512146-2.3724976,11.1848145
		c-3.3893433,2.3725281-9.4901733-1.0168152-9.4901733-1.0168152s-0.3389282,6.4397583-5.0839844,8.1344299
		s-10.506958-4.0671997-10.506958-4.0671997s-11.1848145,2.0335999-18.9802856-1.6946716
		c-7.7955322-3.3893433-9.4901733-10.5069275-9.4901733-10.5069275s-12.5405273-5.7618713-24.7421265-7.1175842
		c-10.506958-1.0168152-33.2155151-2.3725281-52.534729-11.5237427
		c7.7954712-4.7450867,19.6581421-12.2015991,28.8093872-19.6581726
		c8.8122559-7.4565125,16.9466553-15.2519836,22.0306396-20.3359985
		c5.7618408,5.4229431,14.5741577,12.5405273,21.6917114,15.5909424
		c11.8626709,5.4229126,20.6749878,7.7954712,24.4031982,8.4733276c3.7283325,0.6778564,6.7786865,4.7450867,7.7955322,7.1175842
		c1.0167847,2.3725281,4.7449951,5.7618713,9.4901123,5.4229431c4.4061279-0.3389282,10.1680298-3.050415,15.5909424,0
		c5.0840454,3.050415,10.1680298,9.1511841,10.8458862,13.2184143
		C666.0772095,414.8239441,661.3321533,417.5354004,657.6038818,417.5354004z M568.8033447,354.4937744
		c0,0-27.7925415,27.792511-52.534729,41.3498535c0,0-11.5236816,5.4229431-20.6749268,6.7786865
		c0,0-7.1176453-13.5573425-21.3528137-17.6245422c0,0-30.1651001-11.5237427-73.5485535-2.3725281
		c0,0,41.3498535-3.0503845,62.0248108,8.8122864c-9.4901428,5.0839844-22.3695984,12.2015991-29.1482544,14.9130554
		c-11.5237427,4.4061584-26.7757568,4.0671997-32.5375977,5.0840149c0,0,3.0503845,10.1679993,2.7114563,13.5573425
		c-0.3389282,3.0503845-3.3893433,19.3191833-9.1511841,23.7253418
		c-5.4229431,4.4061279-19.6581421,9.1511841-27.1146851,11.5237427
		c-7.4565125,2.7114563-23.7253418,12.8794861-29.1482544,27.1146851c0,0,19.3191833,4.0671692,24.4031982,4.7450562
		c5.0839844,0.6778564,10.1679993-2.3725281,13.557312-3.7282715c3.3893433-1.6946411,8.1344299-2.7114563,12.8794861,0.3389282
		c4.7450867,3.050415,7.1176147,7.1176147,8.1344299,10.1680298c1.0167847,3.0503845-2.7114868,6.1007996-8.4733582,7.1175842
		c0,0,0.6778564,6.778656-3.0503845,8.4733582c-3.7282715,1.6946411-12.2015991,0.6778564-17.285614-1.0168457
		c0,0-3.050415,4.4061279-9.829071,4.4061279c-6.7786865,0-11.1848145-7.1175537-18.3024292-7.4564819
		c-7.1175842-0.3389282-29.4871826,2.7114868-37.2826538,2.0335693c-8.1344299-0.6778564-8.8122864-5.4229126-7.1176147-10.1679993
		c1.6946716-4.4061279,11.5237427-14.5741272,13.2184143-18.9802551c1.3557434-4.0671997,2.7114868-10.8458557-13.5573425-17.285614
		c0.6778564-1.0168152,12.2015991-15.2520142,30.5040283-26.0978699
		c17.9634705-10.8458557,35.5880127-20.6749268,56.2629395-27.4535828
		c-8.4733276,0.6778564-21.3528137,4.0671692-37.9605408,10.8458557
		c-25.0810852,10.5069275-39.6552124,24.4031982-39.6552124,24.4031982s1.6946716-7.1176147,23.7253418-26.7757568h-0.3389282
		c-29.8261414,13.5573425-42.3666687,44.0613403-42.3666687,44.7391968
		c-3.7282715,7.7955017-14.235199,28.4704285-17.963501,32.5376282
		c-4.7450562,5.0839844-18.3023987,10.1679993-28.4703979,15.9298401
		c-10.1680145,5.7618408-23.0474854,13.2184448-24.4032135,17.963501
		c-1.6946716,4.7450562,0.3389282,26.7757568,1.0167999,28.1314697c0,0,11.1847992,1.0167847,13.5573273,3.7282715
		c2.3725433,3.050415,2.0335999,8.8123169,0.6778717,10.1680298c-1.3557434,1.6946411-6.1007996,1.6946411-6.1007996,1.6946411
		s0.3389282,6.4396973-3.0503998,8.4733276c-3.050415,2.0336304-10.1680145-1.0167847-10.1680145-1.0167847
		s-2.0335846,3.050354-6.7786713,3.3893433c-4.7450714,0.6778564-8.4733276-1.3557129-10.5069275-4.7450562
		c-2.3725281-3.3893433-1.3557434-8.4733276-1.3557434-12.2016602c0-3.7282715,1.6946716-30.8428955,1.0167999-37.2826538
		s-6.1007996-10.8458862-5.0839996-15.2520142c1.0167999-4.0671997,12.8794708-10.8458557,16.6077423-17.9634705
		s7.456543-16.6077576,8.4733429-32.8765564c1.0167999-16.6077271,1.0167999-31.520813,3.389328-39.9941406
		c0.3389282-1.0168152,0.6778717-2.0335999,1.0167999-3.050415c-10.5069275-2.0335999-32.8765411-8.1343994-43.3834839-17.285614
		c-11.8626709-10.1679993-16.9466705-20.6749268-19.6581268-33.8933411
		c-2.3725433-13.2184143-7.7954712-28.4703979-13.2184143-37.9605408
		c-5.7618713-9.829071-22.7085419-18.9802551-22.7085419-18.9802551s-7.7954712,6.1007996-17.9634781,0.6778564
		c-11.1847992-6.1007996-12.540535-10.1679993-16.2688065-15.2519836
		c-3.389328-4.7450867-10.5069351-6.1007996-12.2015991-6.4397583c23.7253418-9.1512146,35.2490768,3.3893433,35.2490768,3.3893433
		s-0.6778717-6.4397583-9.829071-8.8122559c-2.7114639-0.677887-6.1007996-1.6946716-9.8290634-2.0335999
		c1.694664-0.677887,3.3893356-1.3557434,4.7450638-1.6946716c4.0672073-1.0168152,13.5573425-2.0335999,20.674942,2.7114563
		c6.7786713,4.4061279,9.151207,17.9634705,9.151207,17.9634705c3.3893356,2.0335999,22.7085419,11.5237427,28.8093414,19.6581421
		c6.439743,8.1343994,10.845871,16.2688293,13.5573425,27.1146851s6.439743,26.7757568,22.7085419,39.9941406
		c12.2015991,10.1680298,30.5040131,12.5405273,38.2994843,13.2184143c0.3389282-0.3389282,0.6778717-1.0168152,1.0167999-1.3557434
		c5.4229279-7.1175842,22.0306549-22.7085266,26.7757263-24.7421265c4.7450714-2.3725281,24.0642853-7.1176147,26.4368134-9.4901733
		c2.3725281-2.3724976,21.3528442-17.2855835,23.0474854-19.6581421
		c1.6946716-2.3725281,10.1680298-17.6245117,15.5909424-25.4200134c5.0840149-7.7954712,17.963501-22.0306702,17.963501-22.0306702
		s-10.8458862-0.3389282-13.8962708-5.0840149c0,0,11.8626709-5.4229126,12.8794861-11.8626709
		c0.6778564-4.0671997-2.0335999-6.778656-10.1680298-3.3893127c0,0,1.0168152-7.7954712,7.7955017-17.285614
		c6.778656-9.829071,19.6581421-20.3359985,24.742157-24.06427c6.4397278-4.7450714,8.8122559-10.5069275,7.1175842-13.8962555
		c-1.6946716-3.3893433-8.8122559-3.7282715-13.5573425,2.0335846c0,0,4.4061584-13.5573273,12.8794861-19.3191986
		c0,0-6.1007996-1.3557434-8.4733276-6.1007996c0,0,9.4901428,0.3389282,15.9298401-3.3893433
		c6.4397583-3.389328,23.3864136-14.2352142,29.8261719-14.5741425c0,0-5.0840149-2.7114563-13.2184143,0.3389435
		c0,0,12.2015991-14.9130707,31.1818542-17.6245422c18.9802856-3.0503998,35.9269714,2.3725433,43.3835144-1.3557281
		c0,0-3.3893433-4.4061279-11.8626709-4.4061279c0,0,10.5069275-6.1008148,16.9466858-6.1008148
		c0,0-5.4229126-6.4397278-13.2184143-9.4901276c0,0,16.9467163,0.6778564,23.0474854,3.389328
		c0,0-4.0671997-4.7450562-3.3893433-10.1679993l0,0c0,0,12.8794861,11.5237427,31.8597107,17.9634705
		c18.9802856,6.439743,30.5040283,8.8122711,33.8933716,13.8962708s1.3557129,8.1343994,1.3557129,8.1343994
		s13.8963013,5.7618713,18.6412964,8.4733429c4.7450562,2.7114563,6.7786865,8.4733276,7.456543,10.5069427
		c0.6778564,2.0335999,3.7282715,7.4565277,6.4396973,8.4733276c2.7114868,1.0167999,16.9467163,7.1176147,24.4031982,11.8626862
		c7.7955322,4.7450714,15.2520142,11.5237427,15.2520142,11.5237427s-7.4564819,4.0671997-9.1511841,7.7954559
		c-1.6946411,3.3893433-4.7450562,20.674942-18.6413574,25.0811005c0,0,4.0671997-7.1176147,1.0168457-14.2352142
		c0,0-16.6077271-1.0167999-28.1314697,6.1007843c0,0-2.0336304,13.8962708,5.4229126,17.6245422
		s15.9298706-7.7954712,16.9467163-10.5069275c0,0-0.3389893,6.4397583,0,10.8458862c0,0.3389282,2.0335693,0,2.0335693,0.3389282
		c0.3389893,4.7450562-0.3389282,11.1847839-0.3389282,11.1847839s5.4229736-4.0671997,14.5741577-2.7114563
		c9.1511841,1.6946716,11.1848145,4.4061279,14.2351685,4.4061279c3.050415,0,8.8123169-3.7282715,10.506958-5.7618713
		c2.0336304-2.0335999,5.0840454-3.3893433,8.1343994-2.3725281c3.050354,1.0167847,4.4061279,5.4229126,4.4061279,5.4229126
		s10.8458862,1.0168152,14.5741577,0.3389282c3.3893433-0.6778564,10.506958,3.3893433,12.5405273,4.7450867
		c2.0336304,1.6946716,4.0671997,4.0671997,3.3893433,6.1007996s-5.0839844,4.7450867-5.0839844,4.7450867
		s2.7114868,5.0839844,2.3724976,8.4733276c-0.3389282,3.3893433-7.1176147,4.4061279-7.1176147,4.4061279
		s-2.3724976,8.8122559-6.4396973,10.8458862c-4.0671997,2.3725281-16.2688599-2.7114868-16.2688599-2.7114868
		s-7.1176147,2.7114868-15.2519531,2.3725586c-8.1343994-0.3389282-12.5405273-6.4397583-12.5405273-6.4397583
		s-6.1008301-1.0167847-10.8458862,3.3893433C588.800415,327.0401611,578.9713135,345.681488,568.8033447,354.4937744z
		 M536.9436035,209.7691803c0,0,9.8290405,2.0336151,12.5405273,4.067215
		c2.7114868,1.6946564,10.8458862,8.1343994,10.8458862,8.1343994s-2.0336304-2.7114563-1.6947021-4.0671997
		c0.6778564-1.3557434,4.0671997-6.4397278,4.0671997-6.4397278c-4.0671997-0.3389435-10.1680298-4.067215-12.8794556-4.067215
		S536.9436035,209.7691803,536.9436035,209.7691803z M405.0984802,251.1190643c0,0,21.6917419-8.4733276,44.7391968-6.1007996
		c23.0474854,2.3725433,44.7392578,19.6581573,44.7392578,19.6581573s-12.8794861-21.6917572-41.349884-26.7757568
		c-3.7282715-0.6778717-7.1175842-1.0167999-10.1679993-1.0167999
		C419.6726074,237.2227936,405.0984802,251.1190643,405.0984802,251.1190643z M424.7566223,276.2001343
		c11.5237427-5.7618713,27.1146545-10.8458557,47.7896118-7.7954712c0,0-11.5237427-4.7450562-26.7757263-4.7450562
		c-9.1512146,0-19.6581726,1.6946716-30.1651001,7.1175842c-27.4536133,14.5741272-40.6719971,22.3695984-68.4645386,23.3864136
		c0,0,15.9298706,7.1176147,35.9269409,2.3725281C402.7259216,292.1300049,414.5885925,281.2841492,424.7566223,276.2001343z
		 M568.4644165,294.1636353c0,0-13.2183838-7.1176147-23.0474854-7.7954712
		c-8.4733276-0.3389282-13.8963013,8.8122559-14.5741577,17.9634705
		c-6.7786255,4.0671997-16.6077271,6.1007996-16.6077271,6.1007996s0,0,0-0.3389282
		c0.3389893-1.3557434,1.3557129-12.5405579-11.8626404-19.3192139c-7.1176147-3.7282715-17.2856445-6.4397583-29.8261719-6.7786865
		c-12.2015991,0-26.4367981,2.7114868-41.3498535,10.8458862c29.4871826-11.1848145,60.6690674-5.0840149,69.8203125,4.7450867
		c11.5237122,12.2015991,3.3893433,23.7253418,3.3893433,23.7253418
		C516.2686157,321.2782898,550.1619873,309.0766907,568.4644165,294.1636353z"/>
</g>
</svg>
