<?xml version="1.0" encoding="utf-8"?>
<!-- Generator: Adobe Illustrator 22.0.1, SVG Export Plug-In . SVG Version: 6.00 Build 0)  -->
<svg version="1.1" id="Layer_1" xmlns="http://www.w3.org/2000/svg" xmlns:xlink="http://www.w3.org/1999/xlink" x="0px" y="0px"
	 width="720px" height="720px" viewBox="0 0 720 720" style="enable-background:new 0 0 720 720;" xml:space="preserve">
<style type="text/css">
	.st0{fill:#FFB612;}
	.st1{fill:#203731;}
	.st2{fill:#FFFFFF;}
</style>
<g>
	<path class="st0" d="M588.8842163,209.9368439c-61.010498-40.5473633-143.2421265-62.5263062-230.7789612-62.5263062l0,0
		C183.4105377,147.4105377,36,245.1789551,36,361.1368408c0,120.505249,138.6947327,211.4526367,322.1052551,211.4526367
		c107.2421265,0,208.7999573-37.5158081,272.084259-100.8000183C665.0526123,436.9263306,684,397.5158081,684,361.1368408
		C683.6210327,303.915802,649.8947144,250.1052704,588.8842163,209.9368439z"/>
	<path class="st1" d="M358.1052551,157.2631683c-166.3578949,0-312.6315918,95.1157837-312.6315918,203.8736725
		c0,53.8105164,30.6947403,104.2105408,86.7789383,141.7263489l0,0
		c57.9789581,38.6526184,137.9368439,59.8736877,225.4736786,59.8736877
		c104.5894775,0,203.4947205-36.7578735,264.8842468-97.7684326c32.9683838-32.9684143,50.7789307-69.7263184,50.7789307-103.831604
		C673.3894653,248.5894775,532.0420532,157.2631683,358.1052551,157.2631683z"/>
	<path class="st2" d="M634.3578491,349.3894653H308.8420715l0.7579041,48.8842163l187.578949-0.3789368
		c-24.6315613,37.5157776-78.0631409,65.9368286-144,65.9368286c-109.8947296,0-160.6736755-52.6736755-160.6736755-112.9263
		s72-109.1368408,160.6736755-109.1368408c64.8000183,0,119.7473755,25.7684326,144.7579041,63.2842102l0,0H620.336853
		c-37.5158081-67.4526215-140.5894775-117.4736786-262.2315979-117.0947266
		c-145.8947296,0.7578888-277.3894653,79.578949-277.3894653,173.1789246s124.2947311,169.7684326,277.3894653,169.7684326
		S635.494751,454.7368469,635.494751,361.1368408C635.494751,356.9684143,634.7368164,353.1789551,634.3578491,349.3894653z"/>
</g>
</svg>
