<?xml version="1.0" encoding="utf-8"?>
<!-- Generator: Adobe Illustrator 22.0.1, SVG Export Plug-In . SVG Version: 6.00 Build 0)  -->
<svg version="1.1" id="Layer_1" xmlns="http://www.w3.org/2000/svg" xmlns:xlink="http://www.w3.org/1999/xlink" x="0px" y="0px"
	 width="720px" height="720px" viewBox="0 0 720 720" style="enable-background:new 0 0 720 720;" xml:space="preserve">
<style type="text/css">
	.st0{fill:#FFFFFF;}
	.st1{fill:#03202F;}
	.st2{fill:#A71930;}
</style>
<g>
	<path class="st0" d="M514.270874,164.9502258L514.270874,164.9502258
		c138.5355225,105.6975098,33.1801147,121.4324036-75.2539063,136.8252258c0,0-45.8364563-12.656311-124.8530273-51.993576
		c-179.5831146-89.2784729-123.1427002-131.3522339,18.129364-156.6649017
		C106.1896057-5.3971901-81.9450912,165.9764099,125.6871948,332.5611267L68.562645,373.2666626
		c46.862648,28.7333069,143.6665039,88.9364014,129.6419067,181.293396l-48.230896,34.5484009L297.060791,655.81073
		l115.9594116-52.6776733c0.6841125-50.9673462,92.0149536-77.6483154,131.3522339-181.635498
		C760.8983154,371.898407,705.8261719,181.711319,514.270874,164.9502258z"/>
	<path class="st1" d="M415.4146118,311.353241L415.4146118,311.353241
		C143.8165283,206.6819305,126.0292435,120.8240891,295.3504944,91.0645981
		C83.6134186,33.2559357-40.2134171,186.8422699,169.4712524,333.2452698l-56.0983429,40.3634338
		c59.8610382,40.0213623,123.1427002,98.8562317,101.5927429,191.8973999l-28.3912354,20.1817017l108.7760773,49.2570801
		C396.6011658,524.1164551,449.6209412,416.3666077,415.4146118,311.353241z M347.0020142,480.3323975L347.0020142,480.3323975
		l-41.7316895-47.5467834l-47.888855,7.1833191l22.2341003-36.6007385l-41.7317047-47.2047119l55.4142303,24.9706421
		l21.8920288-36.600769l11.9721985,51.9935608l55.4142456,24.9706116l-47.8888245,7.1833191L347.0020142,480.3323975z"/>
	<path class="st2" d="M552.9240112,181.3692474L552.9240112,181.3692474
		c93.0411377,72.859436,28.3912354,119.3800201-85.1737366,132.0363312
		c28.7333069,121.090332-59.5189819,231.9187622-152.5601196,317.7766113l85.5157776-38.6531372
		c6.157135-49.2570801,93.0411377-74.9118042,134.0886841-184.0299683
		C728.0603027,365.7412415,696.5905151,227.2057037,552.9240112,181.3692474z"/>
</g>
</svg>
