<?xml version="1.0" encoding="utf-8"?>
<!-- Generator: Adobe Illustrator 22.0.1, SVG Export Plug-In . SVG Version: 6.00 Build 0)  -->
<svg version="1.1" id="Layer_1" xmlns="http://www.w3.org/2000/svg" xmlns:xlink="http://www.w3.org/1999/xlink" x="0px" y="0px"
	 width="720px" height="720px" viewBox="0 0 720 720" style="enable-background:new 0 0 720 720;" xml:space="preserve">
<style type="text/css">
	.st0{fill:#FFFFFF;}
	.st1{fill:#013369;}
</style>
<g>
	<path class="st0" d="M681.1166382,337.3143616c-5.8103027-46.4823914-16.4055786-69.3818359-23.9248047-91.9394531
		c-5.8102417-16.0637817-24.9500732-54.6851807-35.887146-72.4578705
		c-9.5698853-14.0130768-27.0007935-39.6467743-34.1782227-48.5331039
		c-2.0507202-2.7342606,0.6835327-1.3671341,1.7089233-1.3671341c2.7342529,0.6835632,4.1013794,0.6835632,5.8103027,0.6835632
		c1.3670654,0,4.4431763-0.341774,6.1520996-1.0253448c9.2280884-2.0506973,22.8994141-12.3041687,21.1904907-30.4186325
		c0.3417969-4.101387-4.1013794-38.6214104-7.5192261-49.2166634c-4.4431763-15.0384235-13.3294678-22.2158546-29.3933105-23.582983
		c-8.2027588,0-42.0392456-0.6835651-57.0776367,1.7089119c-30.7604065,3.0760422-53.3180847,11.9623814-66.6475525,39.3049774
		c-10.5952759,23.9247665-7.1774292,60.837265,7.8609924,89.5469818
		c5.1267395,9.5699005,15.0383911,27.6843719,23.9247742,39.646759
		c8.2027588,11.6206055,11.2788086,17.7726898,18.4562073,30.7604065
		c7.1774902,13.6712952,30.4186401,64.9386597,38.62146,98.4333191
		c15.380188,62.5461731,6.8356323,98.4333496-22.8994141,147.3082275
		c-21.8740845,32.4693298-47.1660156,56.0523071-66.9893799,66.647583
		c-32.4692993,20.506958-76.9010315,25.9754639-100.1422119,25.9754639c-23.2412109,0-67.3311157-5.8103027-100.1422424-25.9754639
		c-19.8233795-10.5952759-45.1152802-34.1782532-66.9893494-66.647583
		c-29.39328-48.8748779-37.937851-84.7620544-22.8994293-147.308197
		c8.2027893-33.4946899,31.443985-84.7620239,38.6214142-98.4333344
		c7.1774139-12.9877319,10.2534637-19.139801,18.4562531-30.7604065
		c8.5445557-11.6206055,18.7980347-29.7350769,23.9247589-39.6467743
		c14.6966553-28.3679352,18.4562683-65.6222229,7.8610229-89.5469818
		c-13.6713257-27.6843529-36.2289581-36.570694-66.9893799-39.6467361
		c-15.3802032-2.392477-49.2166748-1.7089119-57.0776672-1.7089119
		c-16.4055405,1.0253468-25.2918854,8.2027779-29.735054,23.2412033
		c-3.4178238,10.595253-7.8609924,45.1152725-7.5192184,49.2166595
		c-1.7089081,18.1144638,11.6206055,28.3679352,21.1905136,30.4186325c1.7089157,0.3417816,4.7849503,1.0253448,6.1520844,1.0253448
		c2.0506897,0,3.4178238,0,5.8102951-0.6835632c1.0253448,0,3.4178314-1.3671341,1.7089233,1.3671265
		c-7.1774368,8.8863373-24.608345,34.5200195-34.1782455,48.5330963
		c-10.9370422,18.1144867-29.7350693,56.7358856-35.545372,72.7996521
		c-7.5192108,22.5576324-18.1144676,45.7988434-23.9247665,91.9394684c-5.1267357,32.1275635-2.3924789,68.0147095,0,83.0531006
		c3.7596054,28.7097473,12.9877319,81.3442383,61.1790466,146.6246338
		c33.4946823,45.4570923,72.4578781,78.2681274,119.623848,103.2182617
		c24.2665405,12.6459351,74.5085449,31.4439697,140.1307678,31.1022339
		c65.6221924-0.3417969,116.2059937-18.4562378,140.1307678-31.1022339
		c47.1659851-24.9501343,86.1291809-57.7611694,119.6238708-103.2182617
		c48.1912842-65.2804565,57.4194336-117.914917,61.1790161-146.6246643
		C683.5090942,404.9873047,686.2433472,369.441925,681.1166382,337.3143616z"/>
	<path class="st1" d="M662.6604004,319.541687c-22.2158813-103.5600433-66.647583-155.8527527-91.9394531-191.7398987
		c-11.9623413-17.4309006,0.3417969-27.3425903,9.9116821-23.9247665
		c8.2027588,3.0760422,13.6712646,3.4178238,13.6712646,3.4178238c14.3548584-2.0506973,12.3041992-11.2788162,9.5699463-35.8871536
		l-3.4178467-20.1651573c-3.0759888-17.772686-10.9370117-17.4309006-32.1275024-17.089119
		c-33.4946899,0.6835632-39.6467896,1.0253448-57.7612,4.4431686c-24.266571,5.4685211-55.7105408,29.3932915-30.7604065,95.6990814
		c15.380188,35.5453644,31.4439697,47.5077515,48.8748779,84.4202576
		c18.7980347,41.013855,64.255127,132.6115723,33.4946899,210.8797302
		c-35.887146,97.0662231-125.7759399,142.8650513-203.3605347,143.8903809
		c-77.5845947-1.3671265-159.2705841-38.9631958-201.6515961-143.8903809
		c-30.7604218-78.268158,14.69664-170.2076111,33.4946594-210.8797302
		c17.4309082-36.9125061,33.4946747-48.8748932,48.8748779-84.4202576
		c24.950119-66.3057861-6.8356476-90.5723419-30.7604065-95.6990738
		c-18.1144714-3.4178238-24.2665405-3.7596054-57.7612305-4.4431686c-21.190506-0.3417854-29.051506-0.683567-32.1275482,17.089119
		l-3.4178238,20.1651611c-2.7342529,24.6083298-4.7849503,33.8364563,9.5699081,35.8871536
		c0,0,5.4685211-0.3417816,13.6712952-3.4178238c9.5699158-3.7596054,22.2158661,6.493866,9.9116821,23.9247589
		c-24.6083908,35.8871536-69.0401077,88.179863-91.2559662,191.7398987
		C38.2239571,432.6716614,77.187149,497.6103516,93.9344864,528.3707886
		c37.5960617,61.8626099,76.2174606,93.9901123,119.2820663,119.6238403l0,0
		c58.1029968,36.5706787,144.915741,38.9631348,149.3588867,37.5960083
		c21.1905212-0.3417969,98.4333496-5.8102417,144.5739746-37.5960083
		c42.7227783-25.2919312,81.6859741-57.7612305,119.2821045-119.6238403
		C642.8370361,497.6103516,681.8001709,432.6716614,662.6604004,319.541687z M524.5802612,140.1059418
		c-4.4431763,0-7.8609619-3.4178162-7.8609619-7.8609924c0-4.4431686,3.4177856-7.8609924,7.8609619-7.8609924
		s7.8610229,3.4178238,7.8610229,7.8609924C532.4412842,136.346344,529.0234375,140.1059418,524.5802612,140.1059418z
		 M195.4438477,124.3839569c4.4431763,0,7.8609924,3.4178238,7.8609924,7.8609924
		c0,4.4431763-3.4178162,7.8609924-7.8609924,7.8609924c-4.443161,0-7.8609924-3.4178162-7.8609924-7.8609924
		C187.5828552,127.8017807,191.0006866,124.3839569,195.4438477,124.3839569z M102.8208313,354.4035034
		c-4.4431686,0-7.8609924-3.4178467-7.8609924-7.8610229s3.4178238-7.8609924,7.8609924-7.8609924
		s7.8609924,3.4178162,7.8609924,7.8609924S107.2639999,354.4035034,102.8208313,354.4035034z M149.9868011,536.5735474
		c-4.4431763,0-7.8609924-3.4178467-7.8609924-7.8610229s3.4178162-7.8610229,7.8609924-7.8610229
		c4.443161,0,7.8609924,3.4178467,7.8609924,7.8610229S154.0881958,536.5735474,149.9868011,536.5735474z M359.4993896,636.3739624
		c-4.4431763,0-7.8609924-3.4178467-7.8609924-7.8610229s3.4178162-7.8609619,7.8609924-7.8609619
		c4.4432068,0,7.8610229,3.4177856,7.8610229,7.8609619S363.9425964,636.3739624,359.4993896,636.3739624z M570.3791504,536.5735474
		c-4.4431763,0-7.8610229-3.4178467-7.8610229-7.8610229s3.4178467-7.8610229,7.8610229-7.8610229
		s7.8610229,3.4178467,7.8610229,7.8610229S574.4805298,536.5735474,570.3791504,536.5735474z M617.2033081,354.4035034
		c-4.4431763,0-7.8609619-3.4178467-7.8609619-7.8610229s3.4177856-7.8609924,7.8609619-7.8609924
		c4.4432373,0,7.8610229,3.4178162,7.8610229,7.8609924S621.6465454,354.4035034,617.2033081,354.4035034z"/>
</g>
</svg>
