<?xml version="1.0" encoding="utf-8"?>
<!-- Generator: Adobe Illustrator 22.0.1, SVG Export Plug-In . SVG Version: 6.00 Build 0)  -->
<svg version="1.1" id="Layer_1" xmlns="http://www.w3.org/2000/svg" xmlns:xlink="http://www.w3.org/1999/xlink" x="0px" y="0px"
	 width="720px" height="720px" viewBox="0 0 720 720" style="enable-background:new 0 0 720 720;" xml:space="preserve">
<style type="text/css">
	.st0{fill:#FFFFFF;}
	.st1{fill:#E31837;}
</style>
<g>
	<path class="st0" d="M687.1799316,342.3945313c-3.2421875-2.8652344-15.4257813-13.2822266-16.6220703-14.3046875
		c-4.1191406-3.6591797-7.6552734-6.1298828-9.9990234-7.7675781c-0.6035156-0.4208984-1.3486328-0.9414063-1.6162109-1.1523438
		l-0.1455078-0.1298828l-0.2246094-0.1787109c-1.7871094-1.4228516-2.8535156-2.2841797-3.5078125-2.8125
		c-1.2548828-1.0136719-2.0478516-1.6533203-3.3808594-2.2519531c-0.2724609-0.1572266-1.0664063-0.6347656-2.9472656-1.8691406
		l-0.1591797-0.1035156c-1.9658203-1.2382813-3.2939453-2.3671875-4.8320313-3.6757813
		c-2.1972656-1.8691406-4.6875-3.9873047-8.6435547-6.1494141c-8.1289063-4.5488281-8.6875-5.2246094-15.53125-13.4941406
		l-0.7314453-0.8818359c-9.1005859-15.8544922-22.9648438-18.8769531-34.1464844-21.3144531l-1.5068359-0.3291016
		c-7.8476563-1.7939453-13.4189453-8.3105469-14.1044922-9.4121094l-0.1289063-0.2148438
		c-6.5009766-10.4892578-16.1523438-15.9570313-21.9179688-19.2236328c-0.59375-0.3369141-1.1484375-0.6503906-1.65625-0.9472656
		l-0.2080078-0.1181641c-7.4287109-4.1064453-14.9052734-6.0996094-22.1357422-8.0273438
		c-8.9599609-2.3886719-16.6972656-4.4511719-23.0390625-10.1582031l-0.4140625-0.3730469l-0.4541016-0.3251953
		c-19.2041016-13.7480469-28.0351563-14.3710938-44.6347656-14.3994141
		c-2.7714844-0.0048828-5.9121094-0.0107422-9.3613281-0.1074219c-9.4736328-0.2978516-23.0234375-6.7539063-27.0126953-10.0595703
		c-4.734375-4.0419922-10.5410156-7.1894531-17.2597656-9.3535156l-0.1318359-0.0410156
		c-4.6767578-1.4355469-9.2841797-2.0751953-14.9384766-2.0751953c-2.0839844,0-4.1005859,0.0839844-6.0507813,0.1650391
		c-1.9169922,0.0791016-3.7275391,0.1542969-5.5751953,0.1542969c-5.3037109,0-11.3808594-0.5683594-19.8144531-4.6650391
		c-3.5429688-1.75-7.0742188-3.9941406-10.8125-6.3701172c-2-1.2714844-4.0625-2.5830078-6.2060547-3.8671875
		c-3.5048828-2.6884766-7.1914063-4.1103516-14.0615234-5.4833984c-5.0078125-0.9960938-10.0791016-1.4794922-15.5019531-1.4794922
		c-6.2177734,0-12.0693359,0.6152344-18.2646484,1.2675781c-1.3984375,0.1474609-2.8173828,0.296875-4.2636719,0.4404297
		c-0.3457031,0.0234375-0.671875,0.0351563-0.9726563,0.0351563c-1.8193359,0-2.3076172-0.2763672-4.9375-1.9453125
		c-1.4121094-0.8955078-3.1689453-2.0097656-5.3857422-3.1044922l-0.1796875-0.0859375
		c-7.4072266-3.4755859-14.2138672-5.8066406-20.8037109-7.1240234c-4.2197266-0.9677734-8.6240234-1.4375-13.4580078-1.4375
		c-6.4638672,0-13.3496094,0.8173828-22.2734375,2.640625c-2.7988281,0.5556641-5.6826172,0.8261719-8.8154297,0.8261719
		c-6.9550781,0-13.9736328-1.3369141-21.4042969-2.7529297c-7.9453125-1.5136719-16.1621094-3.0791016-24.8613281-3.0791016
		c-2.2294922,0-4.4326172,0.1054688-6.5488281,0.3144531l-0.1015625,0.0097656
		c-7.4140625,0.8066406-16.8847656,7.7099609-20.6806641,15.0732422l-0.09375,0.1806641l-0.0849609,0.1835938
		c-4.0478516,8.6992188-4.0585938,14.3544922-3.6152344,21.9902344l0.0068359,0.1074219
		c0.5517578,7.9902344,1.4980469,10.8662109,2.9951172,14.8974609c0.2939453,0.7900391,0.6201172,1.6679688,0.9833984,2.7470703
		c3.6845703,12.5810547,5.8388672,19.6748047,8.8369141,28.3505859c2.4980469,7.0058594,1.7949219,12.7382813,0.1523438,13.4931641
		c-0.1894531,0.0859375-1.0029297,0.3320313-2.2138672,0.3320313c-1.0712891,0-1.7783203-0.1953125-2.0302734-0.296875
		c-1.3378906-1.0800781-2.6337891-2.4179688-4.0039063-3.8320313c-3.6992188-3.8183594-8.2998047-8.5673828-15.7871094-9.9941406
		c-1.4248047-0.2880859-2.9082031-0.4335938-4.4101563-0.4335938c-7.4052734,0-14.2724609,3.5048828-20.3310547,6.5976563
		c-3.2402344,1.6533203-6.3027344,3.2167969-8.8193359,3.9492188c-1.0185547,0.2626953-1.5615234,0.2919922-1.7509766,0.2919922
		c-0.0146484,0-0.0283203,0-0.0400391-0.0009766c-0.3554688-0.1816406-1.1660156-0.7773438-1.7685547-1.2207031
		c-1.6054688-1.1806641-3.7958984-2.7910156-6.8037109-4.1396484c-2.3134766-1.0869141-4.7783203-1.6376953-7.3300781-1.6376953
		c-5.5947266,0-10.0068359,2.6796875-12.3759766,4.1191406l-0.4863281,0.2929688
		c-8.03125,4.6494141-9.8398438,12.7880859-11.2939453,19.3330078l-0.0839844,0.390625
		c-0.9091797,4.6259766-1.6435547,10.2685547-0.1982422,17.0449219c0.7216797,3.3808594,1.640625,6.1679688,2.3789063,8.4082031
		c0.7441406,2.2587891,1.3320313,4.0429688,1.3320313,5.2304688l0.0048828,0.3193359
		c0.3154297,9.8544922-1.0742188,16.5976563-4.2490234,20.6162109l-0.1201172,0.1513672l-0.1132813,0.15625
		c-4.4970703,6.1660156-9.5087891,21.6337891-9.5498047,21.7626953c-0.6035156,1.9072266-1.1142578,3.5019531-1.5527344,4.8701172
		c-2.8076172,8.7646484-2.9404297,9.3349609-4.7314453,20.3525391l-0.0820313,0.5039063
		c-0.6679688,4.4208984-0.8691406,8.7910156-1.0634766,13.0166016c-0.1220703,2.6523438-0.2363281,5.1582031-0.4609375,7.3496094
		l0.0302734,0.0029297c-0.4804688,5.8046875,1.4589844,21.5410156,1.4824219,21.7041016l0.03125,0.2041016
		c1.5244141,9.2861328,3.1455078,15.5244141,5.0224609,22.7480469c0.3066406,1.1767578,0.6191406,2.3828125,0.921875,3.5615234
		c3.0097656,12.1123047,3.9921875,18.984375,3.8720703,27.1347656c-0.1064453,2.3505859-0.7509766,4.9873047-1.4326172,7.7753906
		c-1.7294922,7.0771484-4.0966797,16.7636719,3.2529297,25.1923828c4.9462891,5.7421875,13.8203125,9.5957031,22.1025391,9.5957031
		c3.7880859,0,7.3857422-0.7558594,10.6914063-2.2460938c2.734375-1.2333984,5.2177734-2.515625,7.4091797-3.6464844
		c3.8417969-1.9824219,7.1591797-3.6943359,9.640625-4.03125c1.0283203-0.1328125,2.0732422-0.1992188,3.1054688-0.1992188
		c3.625,0,6.7783203,0.8056641,9.8291016,1.5859375c2.9130859,0.7441406,5.6650391,1.4482422,8.6787109,1.4482422
		c0.7412109,0,1.4726563-0.0449219,2.1767578-0.1328125l0.171875-0.0234375
		c3.3447266-0.4775391,6.9365234-1.9072266,10.4101563-3.2900391c1.625-0.6464844,4.0488281-1.6113281,5.0136719-1.8300781
		c0.9765625-0.0742188,2.3037109-0.1572266,3.5878906-0.1572266c0.6865234,0,1.2060547,0.0234375,1.5869141,0.0517578
		c0.1210938,0.3291016,0.4365234,1.4931641,0.3310547,4.46875c-0.2177734,1.03125-0.6816406,3.1542969-1.0097656,4.6542969
		c-0.3867188,1.7666016-0.6396484,2.9208984-0.8046875,3.7236328c-0.7773438,2.4746094-1.5576172,4.921875-2.3222656,7.3164063
		c-2.8339844,8.8867188-5.5117188,17.2832031-7.0429688,23.9541016c-0.2207031,0.8837891-0.6113281,2.1298828-1.0234375,3.4482422
		c-1.6669922,5.3291016-3.9492188,12.6279297-3.2314453,20.2783203c0.6884766,7.3242188,4.3623047,17.1748047,17.9648438,22.5166016
		c4.7265625,1.8535156,9.6767578,2.7539063,15.1328125,2.7539063c5.2177734,0,10.8662109-0.8183594,17.7675781-2.5732422
		c3.0390625-0.6923828,4.9169922-1.0380859,7.0878906-1.4375c1.4609375-0.2685547,2.9941406-0.5507813,4.9677734-0.9511719
		l0.2402344-0.0488281c0.546875-0.0253906,1.3017578-0.0488281,1.8183594-0.0644531
		c1.0585938-0.0332031,2.1181641-0.0683594,2.9121094-0.1201172c0.7119141-0.046875,1.3759766-0.1328125,1.9941406-0.2529297
		l5.9628906-0.3457031l0.2294922-0.0244141c4.0068359-0.4189453,6.8388672-0.6054688,9.1806641-0.6054688
		c3.3818359,0,6.1191406,0.3896484,11.0878906,1.0976563l2.3320313,0.3300781
		c1.7734375,0.2255859,3.5332031,0.4716797,5.2861328,0.7167969c6.0830078,0.8515625,12.3730469,1.7314453,18.9775391,1.7314453
		c2.3798828,0,4.6191406-0.1113281,6.8476563-0.3398438l0.2587891-0.0292969
		c6.2412109-0.8046875,11.3105469-1.8535156,16.0302734-3.3222656c5.5439453-1.7744141,10.0380859-3.7978516,14.0039063-5.5830078
		c6.2431641-2.8105469,11.6357422-5.2373047,20.3847656-6.4462891c3.2666016-0.4482422,5.796875-0.65625,7.9628906-0.65625
		c1.6171875,0,2.9101563,0.1113281,4.5478516,0.2529297c2.0380859,0.1767578,4.3496094,0.3759766,7.5693359,0.3769531
		c1.4589844,0,2.9609375-0.0410156,4.5761719-0.1240234c13.2421875-0.6582031,21.4609375-5.5800781,26.8994141-8.8369141
		c0.6914063-0.4140625,1.3466797-0.8076172,1.9794922-1.1669922c3.2460938-1.84375,4.9912109-2.609375,6.8388672-3.4199219
		c1.4189453-0.6230469,3.0283203-1.3291016,5.1367188-2.4384766l0.1132813-0.0605469
		c8.2792969-4.4941406,18.1875-5.7998047,28.6767578-7.1826172c6.3271484-0.8339844,12.8701172-1.6962891,19.4912109-3.2998047
		c7.0605469-1.7207031,12.1289063-4.3154297,16.5996094-6.6054688c4.1826172-2.1416016,8.1328125-4.1650391,13.9990234-5.6904297
		l0.1044922-0.0273438c2.3691406-0.6425781,5.3193359-0.8623047,8.4423828-1.0957031
		c2.3896484-0.1777344,4.8613281-0.3613281,7.3125-0.7363281c6.4277344-0.9189453,16.2480469-5.8466797,21.9208984-11.0107422
		c2.5078125-2.3017578,4.1513672-3.9335938,5.3505859-5.1259766c2.2597656-2.2441406,2.3476563-2.3320313,5.0048828-3.7490234
		l0.2099609-0.1152344c3.9794922-2.2460938,8.7841797-3.390625,13.8701172-4.6025391
		c5.1162109-1.21875,10.40625-2.4785156,15.8271484-4.9580078c1.2519531-0.5732422,2.5097656-1.1328125,3.7646484-1.6914063
		c8.5224609-3.7949219,17.3349609-7.7197266,24.7392578-15.3642578c6.1289063-6.2666016,16.3691406-9.4775391,26.2724609-12.5839844
		c3.4404297-1.0791016,6.9980469-2.1943359,10.4658203-3.4628906c9.6855469-3.6083984,22.1308594-9.9941406,32.515625-27.5419922
		c6.5175781-11.1884766,10.7265625-12.4677734,24.6738281-16.7080078l1.1152344-0.3388672
		c11.7421875-3.5585938,17.5224609-6.3544922,26.5556641-14.9453125c6.6210938-6.2568359,9.8125-10.8359375,12.6289063-14.8759766
		c0.4970703-0.7128906,0.9912109-1.421875,1.5048828-2.1396484c0,0,0.6416016-0.9296875,0.9130859-1.3193359
		c2.1708984-3.1230469,5.1435547-7.3994141,6.5615234-12.4726563
		C695.3254395,354.9726563,693.2111816,347.7558594,687.1799316,342.3945313z"/>
	<path d="M680.5577393,349.8887329c-3.3148804-2.9294128-16.5743408-14.2616272-16.5743408-14.2616272
		c-5.6275635-5.0108643-10.1759033-7.6319275-11.640564-8.9424438c-8.3257446-6.6297607-1.2334595-1.2334595-9.0966187-6.398468
		c-5.6275635-3.5461426-7.24646-6.3984375-13.0281982-9.5591431c-10.3300781-5.7817383-11.4093018-7.4777222-19.657959-17.4223328
		c-7.24646-13.2594604-18.4244995-15.1096191-29.6025391-17.5764771
		c-10.7926025-2.4668884-18.6557617-10.9468079-20.5059204-14.1074524
		c-5.7817383-9.3278961-15.1096191-13.8762054-20.1204224-16.805603
		c-15.3409424-8.4798889-33.1487427-7.0151978-47.0249329-19.5037537
		c-20.8913269-14.9554443-26.5189514-12.0260468-48.489563-12.642746
		c-12.2573242-0.3854523-27.9836426-8.0944519-33.1486816-12.4114838
		c-4.3170471-3.7003174-9.3278809-6.0130157-13.8761902-7.4777222c-15.5721741-4.7795715-26.1334839,3.5461426-47.8728638-7.0151978
		c-6.2442627-3.0835876-12.0260315-7.2464447-18.2703247-10.9467621c-2.0814209-1.6959839-4.1628418-2.6981506-10.3300476-3.9315948
		c-12.4114685-2.4668732-22.8186035-0.8479919-35.2301025,0.3854523
		c-8.3256836,0.6167297-10.3300476-2.9294128-16.5743408-6.0130157c-6.2442627-2.9294281-12.4114685-5.1650238-18.6557617-6.398468
		c-9.9445953-2.3126984-20.7371826-1.0021667-31.68396,1.2334442c-21.7393646,4.3170471-41.4743958-6.6297455-62.5970306-4.5483093
		c-3.5461426,0.3854523-10.3300476,4.7795868-12.8740234,9.7133484c-3.0835876,6.6297302-3.0835876,10.5613098-2.6981354,17.1910553
		c0.6167145,8.9424286,1.6188812,9.5591431,3.5461426,15.3408966c3.7003174,12.6427307,5.7817383,19.5037537,8.7111511,27.9836426
		c3.5461426,9.9446106,3.5461426,21.9706116-5.0108337,25.9022064c-3.9315948,1.8501587-10.7926025,1.8501587-14.4929199-1.0021515
		c-5.7817383-4.5483093-9.096611-10.7926025-15.7263412-12.0260315c-8.9424362-1.8501587-19.5037537,7.2464447-28.985817,9.9445953
		c-9.3278809,2.4668884-10.5613174-2.6981506-17.1910553-5.6275635c-4.3170319-2.0814362-8.4798889,0.8479919-10.9467659,2.3126984
		c-4.3170357,2.4668884-5.3962936,7.4777374-6.629734,13.028183c-0.8479919,4.3170471-1.2334404,8.3257141-0.2312698,13.0281982
		c1.4647102,6.8610229,3.9315872,10.9467773,3.9315872,15.7263489c0.3854485,12.0260315-1.4647102,20.8913879-6.3984642,27.1356812
		c-2.6981468,3.7002869-6.8610039,14.9554138-8.0944443,18.8870239c-4.3170357,13.644928-3.9315872,11.4093018-6.0130119,24.2062378
		c-1.0021706,6.6297302-0.8479919,13.8761902-1.4647102,19.8891907c-0.2312698,1.0021667,0.8479881,14.9554443,1.4647102,19.2724915
		c1.6959763,10.3300476,3.5461349,16.8055725,5.7817421,25.5167542c3.0835991,12.4114685,4.3170357,20.2746582,4.1628571,29.8338318
		c-0.3854485,9.9446106-6.629734,19.2724609-0.6167183,26.1334839c3.7003174,4.3170166,13.2594681,8.3257141,21.1226349,4.7796021
		s13.6449203-7.6319275,19.8892059-8.4798889c11.4093094-1.4647217,18.8870316,3.3148499,23.8207932,2.6981506
		c4.3170319-0.6167297,12.0260239-4.7796021,15.7263489-5.1650391c2.9294128-0.2312622,9.0966034-0.6167297,11.4093018,1.0021667
		c3.5461426,2.6981201,5.6275635,5.627533,5.1650238,14.4928894c0,0.2312622-2.0814209,9.5591736-2.0814209,9.7133179
		c-3.7003174,11.7947388-7.4777222,22.9728088-9.3278961,31.0672302
		c-2.0814209,8.4798584-11.4093094,27.1356812,7.631897,34.6134033c7.8631744,3.0835571,16.3430634,2.4668579,26.9043884-0.2312622
		c5.3963013-1.2334595,7.4777222-1.4647217,12.4114838-2.4669189c0-0.385437,7.4777222-0.2312622,7.4777222-0.6166992
		l6.6297455-0.385437c11.794754-1.2333984,14.4929047-0.6166992,24.9000397,0.8479614
		c9.7133484,1.2333984,19.0412292,3.0836182,28.8316345,2.0814209c4.7795868-0.6166992,9.5591431-1.4647217,14.2616272-2.9293823
		c13.4907532-4.3170166,19.8891907-10.1759033,36.0780945-12.411438c13.4907227-1.8502197,13.4907227,0.385437,25.5167847-0.2312622
		c12.4114685-0.6167603,19.2724609-5.7817383,24.4375-8.7111816c6.2442932-3.5460815,7.8631897-3.7003174,12.2572937-6.0130005
		c15.3409119-8.3256836,33.3799438-7.24646,50.5710144-11.4093018c12.0260315-2.9293823,16.805603-8.7111511,30.450531-12.2573242
		c5.3962708-1.4647217,11.4092712-1.2333984,16.9597778-2.0814209c4.3170166-0.6167297,12.2573242-4.5483398,16.5743408-8.4798889
		c7.4777222-6.8610229,6.6296997-7.2464905,12.411438-10.3300781c9.5591736-5.3963013,20.5059204-5.3963013,30.4505615-9.9446106
		c9.0966187-4.1629028,18.4244995-7.6319275,25.5167236-14.9554749
		c10.3300781-10.5613403,26.9044189-13.4907532,40.3952026-18.42453c7.8631592-2.9293823,18.4244995-8.0944214,27.3668823-23.204071
		c8.7111816-14.9554443,16.3430786-16.9597778,31.5298462-21.5851746
		c10.1758423-3.0835876,14.7241211-5.1650391,22.5873413-12.6427307
		c7.0151367-6.6297607,9.5591431-10.9468079,12.8740234-15.5721741
		C681.1744385,365.3838196,688.1896362,356.6726379,680.5577393,349.8887329z"/>
	<path class="st0" d="M662.6729126,359.6020508c-1.6960449-3.5461121-6.2443237-7.631897-9.9446411-10.1758728
		c0,0-8.7111816-8.4798889-13.4907227-11.640564c-11.9489746-7.7861023-14.2616577-9.7133484-20.043396-16.4972534
		c-5.7817383-6.6297302-7.24646-8.7111511-13.8762207-12.2572937c-2.4668579-1.4647217-18.8870239-7.0151978-15.9575806-6.6297302
		c-15.1096191-2.6981506-15.5722046-5.7817688-21.5852051-11.4093018
		c-5.0108643-7.24646-10.7926025-15.7263489-15.9576416-19.2724915c2.0814819,1.233429-9.0965576-6.0130005-9.0965576-5.7817383
		c-8.4799194-2.9294128-11.640564-2.3127136-22.3561401-2.6981506c0.385498,0-11.7947388-1.6188965-14.9554749-3.0836182
		c-5.627533-2.4668579-8.4798889-5.396286-12.2573242-8.3256836c-8.4798889-6.2442932-6.0130005-4.7795868-14.4928894-10.9467926
		c-11.4093018-8.3256989-12.6427612-6.244278-27.1356506-7.631897c-12.2573242-1.2334442-20.8913574-4.1628418-30.450531-10.9467621
		c-16.9597778-12.2572937-33.5341187-7.8631744-43.9412537-9.5591431
		c-14.9554443-2.3126984-25.5167847-8.3257141-31.0672607-11.7947693
		c-12.0260315-7.631897-9.3278809-4.1628571-22.2018738-10.1758728
		c-15.3408813-7.2464447-29.8338318,4.7795868-47.8728638-0.2312622c-9.5591431-2.6981506-13.0281982-7.631897-19.2724915-9.9445953
		c-18.424469-5.3963013-24.6687622-2.4668884-39.5471191-2.3126984c-17.807785,0-33.7653961-4.7795715-50.7251892-4.5483093
		c-4.7795715,0-8.4798889,3.9315948-7.631897,9.3278961l0.2312775,6.6297302
		c0.8479919,5.3963013,2.9294128,11.1780396,4.5482941,17.1910553c2.0814362,7.24646,3.0836029,9.7133484,6.2442932,21.3539124
		c1.0021667,9.3278809,0,11.794754-0.6167145,15.7263489c-0.6167297,3.0835876-2.6981506,9.5591431-4.1628571,11.7947388
		c-1.8501587,2.6981506-4.1628571,3.7003174-7.2464447,5.6275635c-5.3963013,3.0835876-10.7926025,4.5483093-16.5743408,4.5483093
		c-6.0130157-0.2312622-4.3170471-0.2312622-13.8761902-3.7003174c-3.5461349-1.233429-10.5613174-5.3963013-17.5765076-2.3126831
		c-13.2594604,6.3984375-14.7241745,1.618866-22.2019043,2.3126831c-2.3126984,0.2312622-4.3170319,1.2334595-6.6297302,2.3127136
		c-3.5461349,1.4646912-5.010849,3.7002869-7.2464523,8.3256836c-1.2334366,2.6981506-2.3126984,7.24646-1.8501587,11.4093018
		c-0.8479919,0,1.2334366,6.398468,1.2334366,6.6297302c1.6959763,8.7111511,2.0814285,15.5721741-1.2334366,23.4353333
		c-3.0836029,7.24646-4.1628571,9.9446106-8.3257103,15.7263489c-3.9315872,5.7817383-10.9467735,22.3560791-11.640583,37.696991
		c0.6167221-0.6167297-0.231266,18.2703247,2.0814285,29.2170715c2.4668808,12.2572937,6.0130157,13.259491,6.8610039,33.3799438
		c0.3854523,7.6319275-0.3854485,14.2616577-0.6167183,21.1226807c-0.2312698,4.3170166,1.2334404,10.5613098,6.8610001,9.7133179
		c7.8631744-1.233429,16.9597855-5.6275635,23.204071-5.7817688c3.0835953-0.2312622,8.4798965,0.8479919,10.5613174,1.4647522
		c12.6427536,4.3170166,8.4798965,1.0021362,28.2149124-2.3127136c6.6297302-1.233429,15.5721741,0.2312622,19.2724762,2.3127136
		c11.6405945,6.8610229,10.5613251,21.5851746,7.24646,36.2322388c-0.6167297,2.3127136-3.5461426,17.8077698-4.1628571,20.1204834
		c-2.0814209,7.631897-1.8501587,8.3256836-2.6981506,16.5743408c-0.3854523,3.9315186-0.2312622,7.0151367,2.0814362,10.7925415
		c1.8501434,2.9294434,3.9315796,5.1650391,6.8609924,5.1650391c12.8740234,0.385498,19.8892059,0,33.1486664-2.3126831
		c16.9597931-3.0835571,25.6709595-3.0835571,37.4656982-2.0814209c12.0260468,1.0021362,29.2171021,0.8479614,36.2322693-1.8501587
		c6.398468-2.3127441,14.9554443-7.246521,21.7393799-8.7111816c22.3560791-4.7796021,23.204071-2.4668579,41.4743652-4.7796021
		c14.4929199-1.8501587,21.9706421-9.0965576,29.4483643-13.0281982c10.1759033-5.3963013,19.2724915-7.24646,30.835968-7.24646
		c6.8610229,0,16.805603-2.3127136,21.5852051-4.5483398c19.2724915-8.7111511,12.0260315-8.3257141,38.9304199-13.2594604
		c13.644928-2.4668884,23.4353638-13.4907532,31.9152527-18.0390625c5.3963013-3.0836182,10.1759033-5.6275635,16.3430786-7.4777527
		c8.3257141-2.4668884,17.4223328-3.7003174,25.285553-6.3984375c12.6427612-4.3170166,16.5742798-8.7111511,23.4353027-14.9554749
		c5.7817993-5.1650391,7.631958-5.1650391,14.1074829-9.0966187c6.6296997-4.1628723,16.1889038-7.0151672,19.6578979-8.3256836
		c8.3257446-2.4668884,20.5059204-16.5743408,31.9152832-27.9836426
		c13.4907227-13.644928,25.9022217-11.4093018,40.7805786-19.5037537
		C661.0539551,371.3968201,666.8356934,368.3132324,662.6729126,359.6020508z M491.5332031,444.786438
		c-6.8610229,5.1650391-15.7263794,8.7111511-23.5895081,12.6427612
		c-9.9446106,4.1628723-26.5189514,9.9446411-42.4765625,11.640564
		c-14.4928894,1.8501892-36.6947937,2.0814514-54.2713013,0.8479919
		c-18.2703247-1.8501892-41.6285706-8.9424133-51.5731506-13.8761902
		c-12.2572937-5.7817688-18.4244995-10.1759033-25.9022217-17.8077698
		c-7.8631897-8.0944519-12.2572937-14.9554443-15.7263489-26.5189209
		c-5.3963013-17.19104-2.0814514-38.7762451,7.2464294-54.0400696c6.2442932-10.9467773,14.4929199-18.039032,25.0542297-25.5167542
		l-3.9315796-4.1628723l-47.2561035,27.1356812v7.0151978h12.6427307V389.51297l-8.4798889,7.8631897h-85.8011322v-22.895752
		c-0.3854523-0.2312622,10.3300323-12.4114685,10.3300323-12.4114685h4.1628571v-88.0367126h-13.2594604v-16.3430481
		l10.9467621-13.0282135h81.2527771v20.5059357l-12.4114685,12.6427307v34.1508484l77.7066345-44.5579834v-13.8761902
		l8.7111511-8.9424286h82.8716736v20.2746429l-10.1758118,9.5591736l-20.7371826,0.2312622l-34.1508484,20.5059204
		l6.0130005,6.2442932c37.0802612-12.2572937,74.3917847-14.7241821,122.0333862,8.4798889l13.4907532-8.3257141h22.5873413
		v60.0530701l-10.7926025,10.3300476h-21.1226501c-15.9576416-26.1334839-42.4765625-49.7230225-96.5166321-38.1595154
		l28.2149353,30.2192688h6.2442932v24.9000244l-10.3300476,9.9446106h-81.4069824l-0.385437-22.818634l6.0130005-6.2442932
		l-3.5461426-3.9315796c-11.7947693,9.0965881-19.8891907,28.831604,8.3257141,50.7251587l-1.4647217-1.8501587
		c38.5449829,27.5210876,135.0615845,11.4093018,145.0061951-24.2062378h31.9153137
		C526.7633057,413.8733826,508.5700684,432.5291138,491.5332031,444.786438z"/>
	<path class="st1" d="M257.0256042,369.7779236h12.0260315v15.3408813h-74.3917847v-15.3408813h12.642746V263.4709167h-12.642746
		v-13.259491h74.1605225v13.259491l-12.6427612,0.2312622v57.8174438l101.2961731-57.8174438h-8.9424438v-13.3365631
		l76.6274109-0.2312622l0.2312317,13.0282135l-16.9597778,0.2312317l-52.0357056,30.6817932l69.8435059,75.3939819h2.4668579
		v15.3408813h-77.0899353v-15.5721741l10.5613098,0.2312622l-47.641571-50.7251892l-57.5861816,32.9174194v18.1161499H257.0256042z
		 M506.1031799,305.330719l-12.6427307,8.2486572c-26.1335144-11.7947693-49.1062927-15.5721741-67.7620544-15.5721741
		c-24.052063-0.2312622-41.243103,5.627533-49.4917297,8.3256836l19.8891907,21.7393799
		c42.7078552-10.1758728,88.2679749,0.385437,108.3884888,30.6817932l19.2724915-0.2312622l0.2312622-53.269165h-17.8849182
		V305.330719z M457.151062,428.1349792l0.2312622,0.2312622c-50.1084595,14.9554749-98.2125854,7.4777527-119.5664978-18.8870239
		c-17.8077698-20.2746582-9.3278809-38.3137207,1.8501587-48.104126l-22.2019043-24.2062378
		c-17.8077698,12.026062-23.5895081,23.4353333-27.5211182,34.3821411
		c-2.9293823,9.0965881-7.2464294,27.5211182,1.2334595,44.7892456
		c10.3300476,18.0390625,27.1356506,28.3690796,38.5449524,32.5319519
		c18.4244995,7.6319275,48.489563,14.9554749,82.2549438,13.4907532
		c24.2062683-0.6167297,45.4060059-5.0108643,65.6806335-15.1096191
		c11.7947693-6.2442627,14.2616577-7.6319275,26.1335144-18.6557617
		c8.9424438-10.1759033,15.9576416-16.5743408,19.0412598-32.3006897h-20.2746887
		C494.2313538,409.7105103,483.0533142,420.5031128,457.151062,428.1349792z"/>
</g>
</svg>
