<?xml version="1.0" encoding="utf-8"?>
<!-- Generator: Adobe Illustrator 22.0.1, SVG Export Plug-In . SVG Version: 6.00 Build 0)  -->
<svg version="1.1" id="Layer_1" xmlns="http://www.w3.org/2000/svg" xmlns:xlink="http://www.w3.org/1999/xlink" x="0px" y="0px"
	 width="720px" height="720px" viewBox="0 0 720 720" style="enable-background:new 0 0 720 720;" xml:space="preserve">
<style type="text/css">
	.st0{fill:#FFFFFF;}
	.st1{fill:#0080C6;}
	.st2{fill:#FFC20E;}
</style>
<g>
	<path class="st0" d="M364.7212219,217.1685333l9.9612732,17.9945221
		c-70.2107544-8.0332642-153.7567139,3.5346375-213.2028809,44.6649475l16.3878632,15.2632141
		C98.0168152,341.6841431,37.2853279,418.1608276,36,502.8314514
		c56.7148514-62.4988098,143.4741211-135.7621765,291.4468689-141.7067871l-17.0305176-18.3158569
		c80.011322-0.3213196,150.7040405,22.6538086,214.1668396,54.6261902l-15.2632141-35.1856995
		c74.7093811,33.0970459,137.368866,92.2218933,173.3578796,140.5821533l0,0
		C696.8164063,408.5209045,598.0072632,234.5203857,364.7212219,217.1685333z"/>
	<path class="st1" d="M675.6085815,480.4989624c-4.9806519-102.183136-108.1277466-234.410675-295.624176-253.3691864
		l10.4432678,18.7978516c-75.8340454-12.8532257-160.9866486,0.4819946-215.1308594,35.0250397l17.0305328,15.7451782
		c-81.6179733,43.8616638-135.2801819,113.429718-146.8480835,183.8011169
		c67.3187714-70.3713989,154.8813477-118.892334,263.8124695-126.443573l0,0l-17.9945374-19.4405212
		c67.9614563-2.2492981,136.5655212,8.0332642,216.4161682,45.4682922l-14.78125-33.9003906
		C553.1816406,369.479248,619.8577271,413.0195618,675.6085815,480.4989624z"/>
	<path class="st2" d="M411.635498,248.6589355l12.5318909,22.4931335
		c-64.5874329-19.9224854-158.5766296-18.7978363-220.2721405,13.4959106l17.6731873,16.3878479
		c-56.554184,24.2604675-116.3216858,76.155365-139.9394836,123.8729553
		c38.7203369-35.0250244,123.0696259-75.5126953,192.3163605-84.0279541l-17.1911926-18.6371765
		c66.5154724-13.1745605,155.0420227-0.160675,218.3441772,25.5457764l-12.2105713-28.2770691
		c46.592926,9.479248,133.0309143,51.0915527,183.4797668,106.039093l0,0
		C614.5557861,340.0774841,518.9598999,266.3321228,411.635498,248.6589355z"/>
</g>
</svg>
