<?xml version="1.0" encoding="utf-8"?>
<!-- Generator: Adobe Illustrator 22.0.1, SVG Export Plug-In . SVG Version: 6.00 Build 0)  -->
<svg version="1.1" id="Layer_1" xmlns="http://www.w3.org/2000/svg" xmlns:xlink="http://www.w3.org/1999/xlink" x="0px" y="0px"
	 width="720px" height="720px" viewBox="0 0 720 720" style="enable-background:new 0 0 720 720;" xml:space="preserve">
<style type="text/css">
	.st0{fill:#003594;}
	.st1{fill:#FFD100;}
	.st2{fill:#FFFFFF;}
</style>
<g>
	<path class="st0" d="M604.986084,206.4225922c-88.7080078-88.751564-226.9342957-104.5476074-333.3922424-38.1433105
		c-29.3510437,19.4752655-54.7857208,44.2985382-74.9332733,73.192688c-0.0631104,0.0870209-0.1501312,0.174057-0.2175751,0.2610779
		h-55.5907593L36,478.9369812h136.0091553c19.6688995,36.6616516,49.4746857,66.9047546,85.8556213,87.0936584
		c69.4046631,38.1868286,154.2181091,34.9862671,220.5332336-8.3070679
		c9.6408081-6.3096924,12.3365784-19.2380981,6.0290222-28.8745117c-3.8075867-5.8093262-10.2478638-9.3318481-17.1885071-9.4210815
		c-2.0669861,0-4.1318054,0.3068237-6.1138916,0.9138184c-13.5550232,4.0708618-27.6539917,6.1356812-41.7964478,6.1160889
		c-40.7324829,0.0891724-79.567688-17.1885376-106.7647095-47.5186768h127.0210571l21.8229065-30.397583h84.6589661
		c0,0-2.5891724,6.5729675-4.0055542,9.7691956l-9.072937,20.6262207h138.5548096l2.9569092-10.8352966
		C699.9559937,374.7157288,673.4116821,274.8721313,604.986084,206.4225922z M411.908844,255.7471619
		c2.4803467-0.1327209,4.9824829-0.197998,7.419342-0.197998c13.2047119,0,26.3463135,1.6970825,39.1180725,5.069519
		l-93.688385,131.2659912h-85.9208984c0-0.2850037-0.021759-0.5874329-0.021759-0.8703003
		C278.8173828,318.9073792,337.2562256,259.5090637,411.908844,255.7471619z M551.0488892,323.0435181
		c3.7423096,12.921875,6.1574097,26.1744385,7.2017822,39.6010742h-35.4431763L551.0488892,323.0435181z"/>
	<path class="st1" d="M660.3157959,464.2287903h-104.78479c4.3297729-9.8344421,7.9197998-19.9930725,10.7265015-30.397583
		c4.8737183-18.1240845,7.3322754-36.8139038,7.3322754-55.588562v-0.8920593
		c-0.5438843-117.8828735-96.5385742-213.0094299-214.4214783-212.4654999
		c-27.3710938,0.1327362-54.4593506,5.5046844-79.7852478,15.8634949
		c119.514679-74.4981384,276.8006592-37.9888306,351.2987671,81.5280304
		C668.255127,322.5409241,678.9838257,395.7336121,660.3157959,464.2287903z M467.2363281,534.1121826
		c-0.6309509,0-1.2619629,0.1109009-1.8711548,0.2849731c-14.9235535,4.4842529-30.4367676,6.7644653-46.0369873,6.744873
		c-55.6342773,0.3068237-107.2020264-28.9811401-135.4412842-76.891449H181.0364075
		c3.8293457,8.0068054,8.1591034,15.7111816,13.0110626,23.1305237
		c60.2664795,92.317627,183.9825897,118.3158569,276.3219604,58.0275879
		c1.653595-1.0878296,2.6740417-2.9154663,2.7632446-4.8954468
		C473.2871399,537.1168823,470.6326904,534.2644653,467.2363281,534.1121826z M361.2766418,178.616333
		c-1.4577637,0-2.9155273,0-4.351532,0.0435181c-60.266449,1.4142456-116.6644135,30.0037842-153.4348297,77.7835388h34.420578
		l-66.5348511,150.1494446h93.5578308c-0.5439453-5.180481-0.828949-10.3783875-0.828949-15.5784607
		c0-80.1529541,65.2511597-145.8196716,147.0620422-149.9514465c2.6957703-0.1327209,5.4154663-0.197998,8.1590881-0.197998
		h1.000885c21.1266785,0,42.0574951,4.1143646,61.6393738,12.1190033
		c25.8698425,10.6394806,48.1496887,28.4176483,64.2937927,51.2392426l0.0217896-0.021759
		C517.4551392,229.4182434,446.1988831,178.616333,361.2766418,178.616333z"/>
	<path class="st2" d="M573.5876465,377.3505859v0.8920593c0,18.7746582-2.4586182,37.4644775-7.3323364,55.588562H453.7248535
		l-21.6923828,30.397583v0.021759H331.164093v-0.021759h0.0217285l116.1204834-162.6600647l34.6621094-48.5848083
		c25.869812,10.6394653,48.1496277,28.4176331,64.2937927,51.2392273l-20.1714478,28.2631531l-32.0272827,44.8664246h57.7034302
		c0.3046265,1.0878906,0.5874634,2.1975098,0.8485718,3.3071594c-0.2611084-1.1096497-0.5439453-2.2192688-0.8268433-3.3071594
		h21.7990112V377.3505859z M354.009613,406.5928345h-182.631424l66.5348511-150.1494446h-87.4896393L58.562664,464.2288208v0.021759
		h232.5456085c4.1774597,0,7.9632874-0.5439453,11.4880371-1.5687256c0.5004272-0.1283569,1.000824-0.3024292,1.4794922-0.4547119
		c3.9185791-1.2619629,7.4193726-3.1113281,10.6177368-5.3763123c1.4142456-0.9986572,2.7653809-2.0865479,4.0469055-3.2201233
		c3.2419128-2.8937683,6.1356812-6.1791382,8.7487488-9.7017212l11.0289612-15.5153503L354.009613,406.5928345z"/>
</g>
</svg>
