<?xml version="1.0" encoding="utf-8"?>
<!-- Generator: Adobe Illustrator 22.0.1, SVG Export Plug-In . SVG Version: 6.00 Build 0)  -->
<svg version="1.1" id="Layer_1" xmlns="http://www.w3.org/2000/svg" xmlns:xlink="http://www.w3.org/1999/xlink" x="0px" y="0px"
	 width="720px" height="720px" viewBox="0 0 720 720" style="enable-background:new 0 0 720 720;" xml:space="preserve">
<style type="text/css">
	.st0{fill:#FFFFFF;}
	.st1{fill:#FC4C02;}
	.st2{fill:#008E97;}
	.st3{fill:#005778;}
</style>
<g>
	<path class="st0" d="M683.9784546,229.3190155v0.0051117c-0.1071777-2.4192505-0.5670166-3.858902-0.5670166-3.858902
		l-0.0078735-0.0130768c-2.9417725-10.2861633-13.4473877-16.6375122-27.7518921-16.6375122
		c-1.5205078,0-3.0671387,0.0757446-4.5956421,0.22995c-10.9576416,1.0867615-30.4508667,7.6864014-36.232605,9.7112885
		c-18.1687012-4.5930786-35.1954346-6.8268738-52.0027466-6.8268738c-8.6871948,0-17.329895,0.6139374-25.9466553,1.8183899
		l0.0131226-0.0052643l-3.5557861,0.4780731c0,0-1.3822632-4.4989929,2.2337646-15.0020294
		c1.8759766-5.4500427,4.4494629-10.4585266,4.4494629-10.4585266s-39.5613098,20.5617828-44.5018616,13.996109
		c-4.9405823-6.5629578,17.1809387-58.7408295,17.1809387-58.7408295s-38.134552,42.375061-45.6251221,40.4938507
		c-2.9392395-0.7367401-3.218811-16.0835266-3.3626404-32.6009521c-0.1985168-22.3672485,0.5801392-47.9478836,0.5801392-47.9478836
		s-31.40448,78.0747299-39.0648804,77.6671371c-6.6439514-0.3527374-16.3109131-42.0250397-16.3109131-42.0250397
		s-6.0639954,35.9112854-16.9640808,40.3032837c-10.8975525,4.3918457-38.9342957-62.7644577-38.9342957-62.7644577
		s-1.2958069,67.2191238-9.0920715,68.7265549c-7.7962646,1.5075836-32.6245422-23.6134796-32.6245422-23.6134796
		s11.6395264,33.4815063,7.6969299,37.8943939c-2.3540344,2.6310272-26.2339783-12.1332397-51.0753479-29.9517365
		c-14.3513947-10.2939758-26.3514862-18.9235992-26.3514862-18.9235992s14.0013733,23.2554779,25.13414,47.563736
		c7.6654968,16.7342987,12.313446,32.7970886,10.3096008,35.921814c-4.9144287,7.6682129-41.7898254-3.2605896-41.7898254-3.2605896
		s20.9588623,20.1907043,19.6081848,25.3926392c-0.6558838,2.5238342-21.4997711,0.7001953-42.6807556-2.1972809
		c-22.4691467-3.0725861-45.3301086-7.307663-45.3301086-7.307663s74.8246613,43.5037537,72.4757385,51.3312683
		c-1.857605,6.1947632-48.4259644,1.1208801-48.4259644,1.1208801s40.4860229,18.4978333,40.324173,24.6114197
		c-0.1620178,6.113739-79.2531738,26.1242371-79.2531738,26.1242371s71.6318359,14.9837036,72.9983063,22.9706726
		c1.3691711,7.9922485-28.2481842,33.6199341-28.2481842,33.6199341s34.4847107,3.1143494,36.1959381,7.6316833
		c1.7139282,4.5146179-8.3813477,22.3514709-17.1391907,25.1783142c-10.826889,3.4957886-20.6818542,5.7165222-32.684494,5.7165222
		c-1.727005,0-3.4122467-0.0495911-5.0635071-0.1384277c0.5932159-0.7681274,1.1809998-1.562439,1.6904907-2.3147888
		c2.9523468-4.3240662,5.1521759-8.9431458,6.3488007-13.350769l0.0130768-0.0470276l0.0103607-0.0470581
		c0.6141052-2.4219666,0.9301605-4.8334045,0.9406891-7.1665344v-0.0993347l-0.0027161-0.1018982
		c-0.0835571-2.65448-0.9457855-4.9143982-2.5107727-6.4559631c-2.9340057-2.5578308-5.6669312-2.2494202-7.6289825-1.3795471
		l-6.8034363,3.3365173c-0.5042267,0.2219543-1.0763855,0.4388428-1.7687836,0.6453552
		c-1.3036346,0.3917847-4.0470734,0.8569641-9.737442,0.8569641c-5.3951874,0-11.8171844-0.3997803-18.0248566-0.789032
		c0,0-3.8118591-0.214325-4.5513-0.214325c-7.4069977,0-12.3528214,2.35672-15.3311539,4.517334l-1.6198502-0.8544312
		c-15.1509628-8.0443726-32.7840118-11.2997131-43.7912674-13.3351135
		c-0.8569641-0.1593018-1.6719894-0.3004456-2.4428482-0.4544983c-12.1619453-2.3828735-18.819149-9.6015625-19.3598938-10.1842346
		c-1.0320625-1.1156311-2.3723679-2.5578308-4.122818-3.5690002c0,0-3.1639519-1.9751282-7.8563805-0.5303955
		c-3.0593452,1.0765686-4.3527679,3.461853-4.3527679,3.461853c-2.6230469,4.3578491-0.120079,10.7511597,3.1797409,17.9674377
		c3.7544518,8.1985779,15.5218811,28.6688538,43.686657,41.7375183c9.2201233,4.2822876,21.3533707,7.3312378,36.0575104,9.0581055
		c11.0673752,1.301239,20.4128494,1.4657898,24.138588,1.4710693c3.5871735,1.7451782,14.6231384,6.8452148,31.0334015,11.9764709
		c18.0170441,5.6277161,46.1687317,12.3239746,78.4222107,12.4729004c0,0,11.446106,0.1463928,17.6277771-0.2481079
		c0.6217651,2.5759888-3.8510742,11.7882996-9.2226868,22.5892334
		c-6.3645782,12.7941895-14.5344696,27.9321289-14.5344696,27.9321289s14.7591705-13.0425415,28.5122528-22.7094727
		c13.844635-9.7348938,29.3508911-17.552063,33.0190735-13.0450745c6.9262085,8.5146179-0.4650269,43.6526794-0.4650269,43.6526794
		s27.966095-24.75,34.4507446-21.3953247c2.9679871,1.5337524,3.2658691,20.0263062,3.2789307,39.5064087
		c0.015625,23.0830688-0.5826721,47.5978394-0.5826721,47.5978394s38.5239868-77.9467773,46.5396729-75.7180786
		c8.0158386,2.2285156,16.7865906,37.7662964,16.7865906,37.7662964s14.6362-43.2973633,23.5768127-42.2471313
		c3.5767822-0.4388428,11.2580872,13.6043091,18.0849609,27.958374
		c7.4800415,15.730957,13.8916626,31.1116943,13.8916626,31.1116943s0.1567688-16.0756836,1.2774658-32.5042725
		c1.0137329-14.8425293,2.8974915-29.3325195,6.1580811-30.1346436
		c6.8740845-1.6903076,26.8114014,25.0267944,26.8114014,25.0267944s-7.0490112-37.2410278-1.5257568-40.3945923
		c5.5205078-3.1560059,71.8774414,54.2105103,71.8774414,54.2105103s-43.5430298-80.6848145-38.2470093-86.8454285
		c5.2958374-6.1607971,51.8015137,6.406189,51.8015137,6.406189s-6.928772-8.1829529-12.8595581-17.4292297
		c-6.1946411-9.6642456-11.3600464-20.4677124-8.9353638-23.0647583c2.2050781-2.3591309,26.4534302,0.0968018,51.5038452,4.9536133
		c28.8831177,5.6042786,47.6761475,9.5990295,47.6761475,9.5990295s-17.013855-9.2070618-42.100769-24.3031616
		c-21.7217407-13.071228-40.8334961-27.7831726-40.0157471-30.1686096
		c1.7582397-5.1443481,53.6382446-10.0770874,53.6382446-10.0770874s-8.7053833-5.1207581-18.0640869-10.8425293
		c-10.1553955-6.2103882-21.0006714-13.9412842-21.0006714-16.7735291c0-2.4741211,13.008606-8.6060486,30.1660767-13.8836975
		c20.5696411-6.3253479,39.5978394-10.5657043,39.5978394-10.5657043s-70.7252808-5.6772766-75.1459961-15.7596436
		c-3.0150146-6.8897095,2.5238647-15.8667908,6.5839844-21.6695862c4.0626831-5.8027954,9.873291-11.0646667,9.873291-11.0646667
		c19.3234253-17.8421021,43.916626-34.2705383,51.7728271-39.1013794c0.5565796-0.3423767,1.0869141-0.6793213,1.6278687-1.0189819
		c0,0,18.1397705-13.3925476,20.005249-14.9602661c1.625061-1.3611908,5.7740479-5.716507,6.7067871-11.2553711
		C683.7589111,233.2901917,684.0854492,231.7618713,683.9784546,229.3190155z"/>
	<path class="st1" d="M553.414917,444.5306091c-3.5270386,7.156189,5.6434937,29.285675,14.0327759,35.8695068
		c-6.1398926-1.8287354-38.2000732-10.9444275-43.3444214,0.9170837
		c-5.6460571,13.034729,25.6826782,60.8990479,29.2333374,69.8605347
		c-14.4454956-14.3436279-54.0276489-46.4795532-59.6213989-42.8218994
		c-5.619873,3.68396-4.2325134,21.6069336-2.7694397,30.6990356c-5.4344177-6.6100464-14.7589722-17.2176514-22.8347778-14.0562744
		c-8.0707092,3.1873779-7.0804443,33.9386597-7.5743103,47.0543823
		c-6.664856-15.4174194-17.5336914-46.4560547-27.5662842-45.3300781
		c-10.0562134,1.1209106-21.3195801,22.2575684-23.4592896,30.3306274
		c-1.5440979-8.0966797-8.1253967-25.862854-18.0537109-25.862854c-9.9542847,0-33.0764771,47.0281982-40.0784302,62.3123169
		c-0.0261536-11.8353882,2.7955627-69.5233765-3.448761-72.3710938
		c-6.2705078-2.8740234-27.4331665,10.2939453-31.979187,16.2769165c1.6721497-7.5793457,3.1091003-33.2072144-2.5343933-36.2926941
		c-5.6433105-3.1091003-21.7269897-4.0757751-50.8139648,22.8086243
		c4.8283081-10.3200684,12.7811584-21.5284424,14.7119446-32.4234314
		c12.0444336-0.6270142,23.9793091-1.9856567,35.9975586-4.3369751
		c26.2574158,18.9967957,58.5214233,30.2051086,93.3772278,30.2051086c88.0996704,0,159.4781494-71.4044189,159.4781494-159.4804993
		c0-6.9026184-0.4442749-13.7009583-1.2803955-20.3605347c5.9047241-5.5625,11.5716553-10.9471436,16.8518677-15.9714355
		c-1.2019043,2.8871155-1.8811035,6.3696899-1.7791748,10.65979c0.3683472,13.4448547,35.1953125,16.3187256,53.6931152,17.8132324
		c-20.6662598,2.8034058-56.7996826,17.7636414-49.9282837,25.8107605
		c6.8713379,8.018219,26.8843994,19.0463867,29.7061768,20.4284668c-9.536377,0-40.8885498,3.2658386-44.3894653,12.1488647
		c-3.5010376,8.8831787,45.3822632,38.6651001,63.2817993,45.6670532
		C610.0605469,447.8173523,556.9447021,437.3666382,553.414917,444.5306091z M406.691925,198.4162292
		c32.2928772,0,62.315094,9.6015625,87.4465027,26.0823059c11.1039124-4.1411591,21.8681641-7.1378326,32.2927246-9.183609
		c-0.6818848-4.2169037-0.1306152-8.705368,2.4297485-14.3148804c-9.1443481,7.5428619-32.6297913,14.2574768-39.3992615,7.8485565
		c-6.7929077-6.408905,4.6010437-33.181076,10.4247437-44.2535553
		c-9.6173706,11.4408417-26.5449524,31.864212-36.7865906,27.8249512
		c-10.2678223-4.0287323-3.3207092-52.5200806-4.3371582-61.9805145
		c-6.6152649,19.1273956-24.817749,61.4397736-34.3305054,59.9557953c-7.7335815-0.7447052-13.849884-21.008606-15.182373-28.893692
		c-1.591156,7.3468781-5.5623169,24.5932312-17.1914978,26.2757416
		c-11.5975952,1.6903381-27.4070129-26.1529541-34.0405884-46.6415558
		c-0.9928589,36.5644684-7.1587219,52.7395172-12.0444336,52.8414154
		c-9.7713928,0.2037964-17.3482361-9.4161224-25.029541-16.6140594c3.8145752,6.1555176,9.2489929,24.8126526,2.116272,30.5918274
		c-7.1064148,5.7766418-54.8270569-28.16716-65.275238-38.5891724
		c11.7650452,17.3402557,32.7840271,58.2496643,26.5892639,68.5201874
		c-6.1945801,10.2756348-27.8327637,5.8209686-31.6211853,3.973877c2.4715576,2.0430756,17.4423218,19.3233795,4.5983276,22.1110077
		c-17.2568512,3.733551-64.457489-7.2788086-66.9813385-7.8745728
		c11.2920532,4.0679626,60.8519745,33.4057617,57.7481537,44.6716919
		c-2.7120361,9.8262329-22.8348083,6.4559326-30.7747498,6.3513184
		c7.0855255,3.3259888,23.9398956,10.0928955,21.8968201,19.6238098c-2.0352478,9.536377-49.4345856,20.248291-64.073349,23.3313904
		c16.5879211,3.6785583,58.5448456,10.2233276,59.1587982,22.9941101
		c0.61409,12.8022156-25.6983337,30.4899292-25.6983337,30.4899292s23.3704529,1.0712891,28.3920135,3.7884216
		c7.3574219,3.973877,1.6983032,18.8896484-4.8125,26.6493835c8.9066162-4.1280823,17.6016235-9.4578857,26.6728058-16.1724854
		c-7.5114441-18.4978333-11.6524506-38.7461243-11.6524506-59.934906
		C247.2244568,269.8153992,318.6185303,198.4162292,406.691925,198.4162292z"/>
	<path class="st2" d="M161.1493225,445.2307739c-15.294632-2.9525757-33.2018051-13.3506165-38.7560577-16.5122986
		c1.9042358-1.8550415,6.594635-5.1968384,15.4827423-4.6477051c12.2038879,0.7574768,25.690506,1.7240906,32.0051575-0.1591797
		c5.4240265-1.6206055,6.4557343-3.9951172,8.7759705-4.3091125h0.010849
		c6.698822,8.1783447-18.0279999,24.9257813-17.5186615,25.6044006V445.2307739z M678.2803345,227.71698h-0.026062
		c-5.6700439-8.8989716-59.5717163,8.9980774-74.8793335,15.1665802
		c-4.1803589,1.6828461-29.810791,13.2384796-55.9904175,28.1938019l-0.026001,0.0079346
		c-0.0543213,0.0231628-0.182373,0.0752563-0.3682861,0.1693115c-15.4928589,5.4059448-45.7739563,22.0484314-57.2702332,32.8205261
		c-27.2236023,25.4213562-33.3638916,58.092865-72.0570068,105.8347168
		c-17.2176819,21.2410278-32.0818481,36.1333923-43.8385925,45.9019775
		c-7.5011902,6.3226318-14.0849609,10.7901917-18.9186096,13.3506165c-0.2091064-0.5744324-0.2351379-1.0447083-0.2351379-1.0447083
		c-0.026062-0.1570129-0.0520935-0.339325-0.0520935-0.5484009c0-4.2592163,5.3820496-14.3960876,9.2230835-22.4695435
		c2.5864868-5.4341431,4.3626404-9.9017029,4.3626404-9.9017029c5.9543457-14.788208,9.118927-28.8963013,10.0066528-33.1026917
		c1.3326721-5.3299866,4.8075867-20.4075623,4.8075867-20.4075623S320.8104553,437.57547,256.316864,456.2821045
		c-21.9652557,6.3725281-45.6278076,11.5484009-63.2557068,11.9376526c0,0-15.1123199-0.6533203-16.1150818-0.9666138
		c-15.3127289-2.5582581-33.5440216-9.6383667-49.5838623-26.7511292c-2.0532684-1.6199036-4.1065445-3.3208313-6.1605377-5.1208801
		c0.6323318,0.6525879,8.0835876,11.7278137,17.1207275,19.6703186c-2.8708191,0.2090759-7.7543945,0.9173889-23.1170425-1.2769775
		c-53.7424927-7.6292114-70.6628189-49.7155151-71.1034241-54.7611694v-0.0007019
		c2.8237953-0.8125,4.7258568,2.7427368,7.205265,4.856781c2.4794121,2.1184082,8.8338509,7.733429,20.4524231,9.9017334
		c11.6185684,2.1950684,33.2748795,5.6439819,49.6012192,16.1208801h0.0108566
		c13.455513,8.0727234,47.056694,35.506134,106.6992722,12.1488953
		c27.4905548-10.7380981,52.0574799-32.2692566,88.5591583-68.4004822
		c5.9311829-5.8523254,11.8095703-12.0099792,17.7928467-18.3593445
		c-0.8363647-4.2816467-3.1877136-12.0259094-8.3346252-15.2266235c-7.9945984-4.9978943-20.1174622-5.1939697-28.1127625-4.6086731
		c-8.0105286,0.595459-12.22995,1.6908264-14.9603882-0.4992065c-1.1879883-0.9477539-1.2538147-2.5025635-0.6033936-4.2664185
		c5.03479-6.129425,13.9178162-13.9330444,36.7787476-16.9405823c28.8963013-3.7983398,38.2235718,2.7644653,59.2583923-4.2505188
		c4.1542969-4.2063904,9.0111084-8.5907593,12.7993164-12.0078125c8.7557068-7.932373,18.1582336-15.8379822,28.3739624-23.6003418
		c10.2156982-7.7623596,21.2670593-15.3785706,33.3638611-22.7437286
		c64.7967529-39.425293,117.5964966-38.1244507,162.0906372-26.5709991c0,0,24.3766479-8.7781372,36.522644-9.9856415
		c1.515686-0.1512146,3.0046387-0.2170563,4.49646-0.1982422
		C666.5228271,214.5023804,676.1901245,218.7449493,678.2803345,227.71698z M603.3481445,231.4378967
		c-0.0281982-0.0839233-0.1070557-0.1280518-0.182312-0.1490326c-0.6533203-0.138916-2.7955933,1.1416626-7.0830078,2.1733704
		c-4.8835449,1.1814575-16.9275513,1.5518951-22.0484009,1.5518951c-5.1469727,0-12.4100952-0.7596741-23.5663452,4.1072693
		c-7.9974976,3.4930267-13.3795776,10.484848-15.7837524,14.171051c-2.897583,4.0862732-6.4246216,11.3363953-6.659729,11.7936707
		c5.5629272-8.1928406,22.9889526-15.1116028,33.3117676-18.6205444c0.026062,0.0390625,0.026062,0.0839233,0.052124,0.1229858
		c0,0,5.9543457-1.9100189,10.1665039-3.1848145c9.1442261-2.2681427,14.7845459-3.812088,20.9537964-6.3385162
		C600.9447021,233.6112671,603.6361084,232.0883179,603.3481445,231.4378967z M491.6828308,392.1929321
		c-2.3781433,30.0459595-8.4656067,44.3110657-8.4156799,47.0805969c0.0549927,1.5439148,0.4963074,3.0567322,1.6748962,3.762146
		c7.1061401-5.1469116,20.5877075-18.5496216,30.8294983-37.9616699
		c8.5957642-16.3292236,15.6209106-35.6110229,20.1933594-49.7328796
		c-7.9142456,7.124939-15.8850098,14.0986938-23.6422729,20.5493469
		C506.2351685,380.9585571,499.3612671,386.4455261,491.6828308,392.1929321z"/>
	<path class="st3" d="M193.063324,468.2197571c17.6278992-0.3892517,41.2911835-5.5651245,63.2557068-11.9376526
		c64.4943237-18.7066345,126.7045593-74.5942688,126.7045593-74.5942688s-3.4749146,15.0515442-4.8068848,20.4075623
		c-23.125,15.5456848-59.2844543,37.4892273-96.0610352,50.9208679
		C237.173233,469.8656921,196.2119598,468.2747192,193.063324,468.2197571z M319.1905518,313.7424316
		c28.8963013-3.7961426,38.2264709,2.7586975,59.2583923-4.2562866c4.1514282-4.2034912,9.0111084-8.5827942,12.7993164-12.0027466
		c-5.9565125,1.9129028-10.5550232,3.04953-14.8923645,3.8171387c-9.8496399,1.9440308-16.981842,1.4346924-37.413269,4.1174011
		c-32.0840149,4.22229-47.0906982,14.2810364-51.2999878,18.1661682c-1.2697144,1.1706238-2.2413635,2.1893005-3.5769348,4.0472412
		c-0.9166565,1.2776794-1.5620117,2.7875977-1.664032,3.0617981
		C287.4436951,324.5586548,296.3296204,316.7521667,319.1905518,313.7424316z M561.5194092,242.7504272
		c-0.5744629,0.8443298-1.0186768,2.03302-0.4963379,3.2007446c0,0.0180817,0.0289917,0.0361633,0.0289917,0.0520935
		c0.078125,0.1569977,0.15625,0.3110962,0.2633057,0.4651947l0.0759888,0.1172028c0,0,5.9543457-1.9071198,10.1657715-3.1790161
		c9.1449585-2.2710419,14.81427-3.8149872,20.9537964-6.3385315c8.4388428-3.4517822,11.130249-4.9776306,10.8430176-5.6280365
		c-0.0289307-0.0832062-0.1070557-0.1302338-0.2091064-0.1490479c-0.6272583-0.1331177-2.7723999,1.1416779-7.0569458,2.1741028
		c-4.8828125,1.1807404-16.9275513,1.548996-22.0484009,1.5518799c-5.1469727,0-12.4100952-0.762558-23.5663452,4.1072693
		c-7.9974976,3.4901428-13.350647,10.48703-15.78302,14.1710663c0.7806396-1.0765686,1.4838867-1.9360657,2.0872803-2.3904266
		C536.7774048,250.9049225,544.9000854,241.5306244,561.5194092,242.7504272z M170.4194489,445.9622192
		c0.0368958-0.026062,2.9127808-3.2919006,4.6585693-5.852356c2.8787689-4.2063599,4.6636353-8.3085632,5.5831909-11.6786194
		c0.5013733-1.9859619,0.7603912-3.9191589,0.7705231-5.8262634c-0.0832062-2.6653748-1.3818817-3.0567627-2.1842346-3.0567627
		c-0.2662354,0-0.4774933,0.0542603-0.5722809,0.0542603c6.698822,8.1783447-18.0272675,24.9250488-17.5179291,25.6044006v0.026062
		c0.8283997,0.1598816,2.8245239,0.4970398,4.700531,0.6793518
		C167.728775,446.0931702,169.9441071,445.9882507,170.4194489,445.9622192z M672.5010376,231.0826721
		c-4.413269-0.0159302-12.512085,2.0453033-25.392395,6.4036255c-0.0810547,0.0282135-0.1338501,0.0412445-0.2091064,0.0680084
		c-1.7508545,0.5976105-3.5820313,1.2277679-5.5130005,1.9042358
		c-60.6142578,21.2829742-119.2164307,87.9065399-195.0631104,145.4401398l0.5491333-0.8884277
		c22.5209045-33.8941956,30.2810669-58.6991577,53.0110474-79.9423523
		c11.7285461-11.1880798,29.706604-22.8667297,47.4466553-32.9905396c-0.0289307,0.0231323-0.1569824,0.0759583-0.3400269,0.1700134
		c-15.4928589,5.4052124-45.7739563,22.0484314-57.2962952,32.8205261
		c-27.1975403,25.4213562-33.3399963,58.092865-72.0309448,105.8339844
		c-17.2176819,21.2410278-32.1100464,36.1333923-43.8407593,45.9020081
		c-7.4990234,6.3226013-14.0827942,10.7908936-18.9425049,13.3513184c0.0520935,0.104187,0.6533203,2.1422729,2.3774109,2.5864868
		c2.7962952,0.7054138,13.3274536-4.6014099,26.7518616-15.9399719c0.0810242-0.026062,25.8648682-12.2509155,38.199707-18.9945984
		c14.4980774-7.8925781,38.403717-22.8081055,43.6295166-26.2569885c0-0.0289612,0.0260315-0.0289612,0.0260315-0.0289612
		c9.3272705-6.1916504,25.8156738-18.2884521,25.8156738-18.3412476
		c7.6552734-5.7474365,14.5523376-11.2344055,20.6397705-16.3031921c7.7573242-6.4528503,15.7287598-13.4258728,23.642334-20.548645
		c-4.5717773,14.1218567-11.5975952,33.403656-20.1934204,49.7329102
		c-10.2417603,19.414917-23.7233276,32.817627-30.8294678,37.9616394c2.2703247,1.4375916,5.669281-0.70755,6.0353699-0.9144897
		c5.8523254-3.1898804,22.3385925-17.190918,33.3899231-39.607605
		c15.7808228-31.9790955,22.390686-56.5807495,22.5187378-57.0271606
		c1.2805786-1.1785583,52.1775513-49.2206726,52.8807983-49.8710632
		c19.0488281-17.5989685,43.8429565-34.3724365,52.7498779-39.8434906
		c9.2751465-5.7213745,14.918396-10.050766,18.2341919-12.9563141c3.3468628-2.9048157,4.3366089-4.3735046,4.3366089-4.3735046
		v-0.013031c0.5042725-0.901474,1.8629761-3.4221191,1.598877-5.112915
		C676.4484253,231.8452301,675.1425171,231.0927887,672.5010376,231.0826721z M363.8126831,445.0997925h0.0289612
		c2.5835876-5.4341431,4.3626404-9.9017029,4.3626404-9.9017029c-21.0840149,11.182312-54.7611694,25.4995117-85.2303467,32.6584473
		c-60.0057678,14.0560303-98.4384308,1.8550415-105.0222168-0.2872009l-0.8623962-0.2850647l-0.0672913-0.0289307h-0.010849
		c-0.0289307,0-0.0441284,0-0.0651093-0.026062c-15.3127289-2.5343933-33.544754-9.614502-49.5838623-26.7250977
		c-2.0532684-1.6199036-4.1014786-3.3208313-6.1554794-5.1208801c0.6323395,0.6533203,8.0785294,11.7285461,17.1156693,19.671051
		c-2.8708191,0.2090759-7.7543945,0.9173889-23.1170425-1.27771c-53.7453842-7.6574402-70.6649933-49.7191467-71.1034241-54.7618713
		c-0.5382767,0.1569824-1.0295296,0.3110962-1.4296188,0.5751648h-0.0079613
		c-0.1302261,0.078125-0.2611809,0.1801453-0.3733215,0.2843323c-1.3297806,1.2024536-1.1235847,4.1022034,3.0567589,13.2464294
		c5.6200905,12.2798462,18.5264816,28.5830383,40.9670601,39.0071106
		c20.5146408,9.536377,51.7543335,10.0066528,58.068985,10.0066528h1.0765533h0.0101318
		c0,0,52.9386902,27.3812866,120.2148438,24.2225342c0.1490479-0.026062,40.0496826,0.8884277,88.9852905-18.2363586
		c-0.026062-0.1570129-0.0520935-0.3660889-0.0520935-0.5491333
		C354.6185608,463.3101196,360.0006104,453.1732483,363.8126831,445.0997925z"/>
</g>
</svg>
