<?xml version="1.0" encoding="utf-8"?>
<!-- Generator: Adobe Illustrator 22.0.1, SVG Export Plug-In . SVG Version: 6.00 Build 0)  -->
<svg version="1.1" id="Layer_1" xmlns="http://www.w3.org/2000/svg" xmlns:xlink="http://www.w3.org/1999/xlink" x="0px" y="0px"
	 width="720px" height="720px" viewBox="0 0 720 720" style="enable-background:new 0 0 720 720;" xml:space="preserve">
<style type="text/css">
	.st0{fill:#FFFFFF;}
	.st1{fill:#E9BF9B;}
	.st2{fill:#FFC62F;}
	.st3{fill:#4F2683;}
</style>
<g>
	<path class="st0" d="M620.9091187,462.3713684l0.0169067,0.0041199
		c-1.4134521-8.5525818-9.1624146-16.0406189-15.2076416-17.3912048c-0.4290771-0.0883179-0.984436-0.2018127-1.5945435-0.353302
		c1.5734863-5.6665344,2.3347778-10.1845703,2.7175903-13.3525391c3.4832764-1.5942688,7.5514526-3.2475586,9.3013306-3.9459839
		l5.9484863-2.4063721l-1.1818848-6.2848511c-2.4569702-12.9907532-9.255127-23.7307129-13.1463623-29.0272522
		c1.3965454-4.429718,2.2253418-7.3031616,2.2253418-9.7514343c0-4.9891968-4.0006104-10.0795593-11.8591919-15.1445007
		c-0.6308594-0.4039001-1.3461914-1.5482788-1.3461914-6.9624329c0-0.0883179-0.0883179-5.1702271-1.4176025-10.3360596
		c4.2741089-2.8986206,9.6124878-7.6608276,12.2461548-15.0731201c2.6292725-7.4587708,3.609314-14.0635376,3.996521-17.90448
		c0.2018433-2.0905762-0.0927124-7.1010742-0.0927124-7.1010742l-0.7992554-9.6587219c0,0-4.8505859,3.8617249-7.5427246,5.9315186
		c-0.7235718,0.5384216-1.2664185,0.9466858-1.5609131,1.1233521c-0.378479,0.2901306-0.8034058,0.5635986-1.2072754,0.8075256
		c-1.9814453,1.1906128-4.1773071,2.1329346-5.1199341,2.6292725c-2.1200562,1.1443787-5.329895,2.3601685-8.8552856,3.3443604
		c-5.0734253-26.2632141-23.6760254-72.2058868-68.6470947-112.7346649
		c-54.1124268-48.7488708-143.4573364-57.7808228-147.2392273-58.1636658l-8.3800354-0.7867279
		c0,0-0.1725769,12.5573425-0.9634094,16.128952l-0.0883179,0.4038849c-0.2901611,1.7290497-0.62677,3.3697815-1.0347595,4.896759
		c-10.1722717-6.3564606-17.2733459-12.8056335-20.7104187-18.8927612
		c-6.3564453-11.2324219-8.4221191-21.543335-10.4033203-31.4965668c-1.3927002-7.0592346-2.743042-13.752327-5.4816895-20.2222824
		c-7.2315063-16.9873047-17.6351013-31.4755211-30.9116516-43.0443192c-2.4022827-2.06567-4.8505554-4.2237816-8.6242371-4.2237816
		c-1.5059204,0-3.7523499,0.3828392-6.0239563,2.2002182c-1.6155396,1.3251648-6.4702148,6.2219276-1.0560608,14.2442856
		c0.0883179,0.1348038,8.922821,16.2889061,12.2209778,39.4308662c1.1020203,7.614357,1.3251648,17.0039902,1.5732117,26.9361725
		c0.492218,20.1087875,1.0771179,42.8635483,9.027832,60.1199417c3.5043335,7.5722504,8.0226135,14.3790894,12.7383728,20.2854614
		c0.4711609,0.5846405,2.2674866,2.4734039,2.5830383,2.8562469c0.8078003,0.9423218,1.6407471,1.8846588,2.4526367,2.7851257
		c-8.6956177-0.740509-16.1543579-3.0331573-23.5710144-7.1896667l-0.3155823-0.1807709
		c-22.8220215-11.497406-40.3477631-38.4125366-43.5827332-66.9896851l-0.4331665-3.7272034
		c-0.6059723-5.0523529-0.6521912-10.1763611-0.7194519-15.5904999c-0.0210571-3.0752716-0.067276-6.242981-0.2020721-9.4361115
		c-0.3574219-7.9972-1.2365875-16.1078873-2.6503296-24.1050797c-0.5805511-3.3697815-1.295639-6.7603607-2.0864716-10.0880356
		l-0.067276-0.2480316c-0.424942-2.4485168-1.1022949-4.7622223-1.6617889-6.625824
		c-0.4038849-1.4134903-0.8539886-2.8059235-1.3251495-4.2027245c-1.1693115-3.5043259-2.7217102-6.8527946-4.6525879-9.978653
		c-2.5619965-4.15625-4.9894562-7.4122849-7.6143646-10.2646866c-2.0656586-2.2464371-4.093338-4.0679245-6.1546326-5.5276337
		l-0.315567-0.2020721C221.2345734,37.2999992,218.8535919,36,215.8877106,36c-1.5734558,0-3.0752716,0.3576736-4.4466553,1.0771294
		l-0.8791656,0.5384331c-3.4370575,2.4272003-5.5024719,7.7530174-2.4020386,14.1307983l0.2901459,0.5384369
		c0.067276,0.1134872,0.2272339,0.4290543,0.4290466,0.8750534c0.1810303,0.4290543,0.3576813,0.9423256,0.5384369,1.5018158
		c0.1558685,0.4963264,0.2693481,1.0558205,0.4039001,1.8214912c1.0350189,5.5489464,2.0025024,18.7836342-3.0331726,45.3369713
		l-0.2690887,1.3716354c-0.5638428,4.7198486-1.0560608,8.2914505-1.6196594,11.6150131
		c-2.1581116,12.712944-4.4256134,27.8787537-4.8084412,44.1001282c0,0.492218,0.0210571,1.5272369,0.0421143,2.3812408
		l0.0251617,0.7654114c-0.1134949,10.7402191,1.5272369,103.8120728,93.3917847,136.1038513l0.0672607,0.0210571
		l-0.2901306,0.1134949c-4.1775818,26.7554016-4.4718323,43.2463989-4.2027283,51.2897949
		c-19.9277954,7.8161926-39.5399933,17.2058105-58.2519836,27.9249878
		c-29.2963562,16.0406189-56.4810791,36.0189819-80.8090363,59.3332214
		c-4.9221802,4.7326965-9.6379242,9.4820557-14.4001465,14.5092468c-1.1230927,1.1654663-2.2253723,2.3432617-3.1887512,3.3949585
		l-0.315567,0.3366089c-12.048439,12.9653625-22.9229431,26.4819641-32.3379974,40.1962891
		c-0.2901459,0.4205933-1.1441422,1.7922058-1.4807587,2.6040955c-1.0768738,2.46521-2.2253799,7.2104797,0.0210495,9.7052002
		c1.3462219,1.5018311,3.9965439,2.7848816,9.0111618,0.6478271c0.2480392-0.0757446,1.2114182-0.4501038,1.573204-0.6521912
		c0.9677429-0.5384216,2.406395-1.4386292,2.8775635-1.800415c30.4197006-23.2721558,100.2825851-36.1242676,120.6856155-37.3146057
		c17.0966949-1.009613,34.0585785-3.5086975,40.3477631-4.4928894c3.4160156,1.6278992,10.0880432,4.429718,17.6140747,6.0871277
		c3.1887817,0.6983948,6.6299438,1.0601807,10.2436523,1.0601807c3.146637,0,6.0873718-0.2693481,8.6029053-0.631134
		c5.2123108,16.4740295,15.5948486,27.7778625,20.9838257,32.8302307
		c-0.3366089,9.9280396,1.3503418,28.5560913,8.7839355,40.6337891
		c6.0660706,9.9070435,14.7365112,17.4836426,19.5660095,21.2614136c0,4.7411499,0.4036255,12.3596191,2.7848511,18.8044434
		c2.1116333,5.7717896,5.6832581,11.005188,8.3335876,14.4463501c-1.0347595,2.7681885-2.0653992,6.4281006-2.3178101,10.5422363
		c-0.2860413,4.6276855,0.7908325,8.3549194,2.1370544,11.1356812c-1.1651917,2.1159668-2.2674866,4.6484375-2.6965332,7.1893921
		c-0.5890198,3.4832764,0.1304321,7.27771,0.9464417,10.071106c-0.8034363,1.7752686-1.6658936,4.0427246-2.1370544,6.2052002
		c-0.62677,3.0960693-0.1094055,6.1967773,0.5384216,8.510498c-2.4020386,6.9832153-5.031311,20.8952637,3.8912659,28.4212646
		C372.8280334,682.8093872,376.0630188,684,379.4746399,684c6.8530579,0,12.4227905-4.8757324,15.1026611-7.7070313
		c3.9754944-1.8636475,8.7333374-5.5109863,11.4383545-9.6882935c2.0361633-3.1676636,3.0331726-6.2219238,3.52948-8.5271606
		c1.7963257-1.8006592,4.0848999-4.543457,6.1502991-8.4727173c1.7544861-3.3273926,2.5409546-6.1838989,2.8860474-8.3378906
		c3.887146-4.6484985,12.4900513-16.0617065,16.2131653-30.2808228l0.8750305-3.9333496
		c0.0883484-0.4667969,0.1807861-0.9633789,0.2480469-1.4892578c2.0404968-12.8895874,0.387207-24.9380493-0.6645203-30.5542603
		c3.0331726-5.43927,8.9816589-17.8117676,9.7052002-32.1695557c6.5793457-4.3834839,18.0598145-11.4594116,32.0771179-17.8117676
		c0.5425415,8.5862427,0.7025146,17.4119873-1.9057007,30.8025513
		c-3.2141724,16.3518066-15.1447754,29.8809814-21.1394348,35.8084106c-2.086731,2.0402832-7.2359009,7.8878174-7.2359009,7.8878174
		s-1.9770813,1.6618042-1.5901489,5.0523682c0.0169373,0.2061768,0.1766663,0.7910767,0.3325195,1.2157593
		c0.0713806,0.1514893,0.4246826,0.6688843,0.5887451,0.7993164c2.852417,2.7681885,10.6896362,1.758606,10.6896362,1.758606
		c33.7640686-3.6177979,56.6366882-31.9888306,66.3629456-55.4293823
		c6.0619507-14.6060791,11.5436401-34.0878296,14.8078613-45.9680786
		c19.5618896-3.5505676,37.6723022-5.3299255,49.9646606-6.5415955c5.4816895-0.542572,9.8186646-0.9634094,12.6710815-1.4135132
		c7.4754639-1.1022949,21.4126587-3.1928711,22.2877197-16.3982849
		C623.138855,478.3865662,622.5036011,471.9669189,620.9091187,462.3713684z"/>
	<path d="M613.2107544,463.4438782l0.0040894-0.0125732c-0.9002075-5.5065918-6.4196167-10.428772-9.1918945-11.030365
		c-2.7597046-0.6098328-9.8186646-2.4482422-9.8186646-2.4482422c5.2122803-14.7072449,5.2122803-23.9284363,5.2122803-23.9284363
		c4.6063843-2.4485168,13.789856-6.1294861,13.789856-6.1294861c-3.0583496-16.2678528-14.1097412-28.8421631-14.1097412-28.8421631
		c0.9212646-3.3738708,3.071167-9.191925,3.071167-11.3456421c0-2.1540222-3.996582-5.8180542-8.291748-8.5777588
		c-4.295166-2.7638245-4.8967285-7.6649475-4.8967285-13.5040283c0-5.8180237-2.4485474-13.1884766-3.369812-13.5037842
		c-0.925354-0.2904053,10.9379272-4.0427551,14.6271362-14.4884644c3.6853638-10.424408,3.7692871-18.8971252,3.7692871-18.8971252
		c-4.8967285,7.1431885-24.0881348,10.0880432-24.0881348,10.0880432
		c-1.5228271-16.2593689-14.5767822-68.714386-67.3347778-116.2559357
		c-52.7325439-47.5456543-142.6159058-56.1441956-142.6159058-56.1441956
		c0.1347961,2.6500702-0.2018127,5.7926025-0.980072,9.2548218c-0.7487183,4.4720764-2.0446167,9.7516785-4.3121033,14.0214233
		c-0.134552,0.248291-0.3153076,0.5594788-0.492218,0.8539886c-12.4058838-6.7182465-25.4343872-15.7501984-31.412384-26.3094025
		c-11.5687866-20.4454117-10.130127-38.0340652-16.2634888-52.4550018
		c-10.0418091-23.6172333-24.5302734-36.4439201-28.8462524-40.196537
		c-2.4651794-2.1581078-3.3024902-2.8773079-4.5814514-1.8425446c-1.2576294,1.0095978-0.4246826,2.4695625,0.6100769,4.0006523
		c0.9633789,1.4389114,9.9953613,18.8467941,13.3651428,42.4848251c3.3697815,23.613121-1.1022949,60.8815155,9.9534912,84.8099365
		c6.8738403,14.8964691,18.2408142,26.6881409,25.8592834,33.4736633c0.2693481,0.2231293,0.5384521,0.4711609,0.7867432,0.69841
		l2.4692993,2.4485016c-15.7712708,1.4848785-30.4404907,0.9212799-46.03125-7.8415985
		c-25.0684814-12.6246185-44.3063354-41.9884949-47.8317108-73.0601196l-0.4246826-3.7315674
		c-0.9929199-8.5186844-0.5933838-17.0332642-0.9718628-25.5691605c-0.3366089-7.7530136-1.1862488-15.4811172-2.5409393-23.1206436
		c-0.5805511-3.3697815-1.2789459-6.6930923-2.0864716-10.0207596c-0.0210571-0.0462189-0.0210571-0.067276-0.0210571-0.1093826
		c-0.3366241-2.0233078-0.921524-4.0217056-1.5061798-5.9987946c-0.382843-1.3041153-0.807785-2.6041107-1.2368469-3.9333801
		c-0.9885406-2.8945122-2.2631226-5.6834946-3.9082031-8.3338203c-1.9770966-3.1887627-4.1521454-6.2935638-6.6928253-9.0530128
		c-1.5061951-1.640728-3.1258545-3.1890221-4.9432373-4.4720764c0,0-1.6825867-1.0558167-2.8311005-0.4501076
		c0,0-1.5018158,1.0560722,0.0883331,4.3372726c0,0,0.4038849,0.6521835,0.875061,1.7752724
		c0.2690887,0.6267624,0.5594788,1.4134903,0.8285675,2.3137054c0.248291,0.807785,0.4503784,1.6869469,0.6100769,2.6292725
		c1.2578888,6.739563,2.1581116,21.2529373-3.1677094,48.95504l-0.042099,0.0883331
		c-0.4711761,4.0217056-0.9885559,8.0434113-1.6869507,12.0399551c-2.2002258,12.9656067-4.332901,27.6766815-4.6946869,42.9559937
		c0,0.673233,0.0883179,2.6503296,0.067276,3.0542145c-0.1599731,13.5923615,2.4482422,102.6930847,94.5780334,130.7567139
		c-0.4290466,1.9100952-0.8329468,3.7526245-1.1233521,5.5278931c-6.2219238,39.2917175-3.9333801,55.8499451-3.9333801,55.8499451
		s0.0210571,0.159729,0.0464783,0.4039001c-18.8468018,7.1011047-40.1670227,16.6714783-62.6357269,29.5233459
		c-25.1400909,13.7690125-52.4128876,32.5105286-79.1053925,58.0796814
		c-5.0102539,4.8251343-9.7049408,9.5662842-14.1515961,14.2864075c-1.0771332,1.118988-2.1581116,2.2674866-3.2352448,3.420105
		c-0.0462189,0.0883179-0.1345367,0.1558533-0.2018127,0.223114
		c-14.0845795,15.1614685-24.7110443,29.1407776-32.4178467,40.5074768
		c41.6308289-30.0620117,106.6685944-39.0646973,126.554245-40.2340088
		c20.8490448-1.2075806,41.9671783-4.787384,41.9671783-4.787384s8.2454834,4.404541,18.0852356,6.5626526
		c11.164917,2.4734192,22.8474426-1.0812378,22.8474426-1.0812378
		c4.2024841,21.6147156,19.3849792,35.4972229,23.3648376,38.6228333
		c-1.0350342,6.491272,0.0207825,27.9293213,7.3239441,39.8344727
		c7.8626709,12.8267212,20.8490906,21.4760742,20.8490906,21.4760742s-0.8961182,11.6191406,2.1665955,19.9234009
		c3.0583191,8.3086548,10.155304,15.8809204,10.155304,15.8809204s-3.2434692,5.4310913-3.6643066,12.2672119
		c-0.4290466,6.8276367,3.6643066,10.617981,3.6643066,10.617981s-3.7146301,4.7704468-4.3372803,8.4768677
		c-0.6141663,3.7312622,1.6784668,9.3223267,1.6784668,9.3223267s-2.2464294,4.0930786-2.8942566,7.2397461
		c-0.6729736,3.1679688,1.2157898,7.0633545,1.2157898,7.0633545c-1.5018311,2.9363403-5.9736328,16.7474976,0.6100769,22.3005371
		c6.5582886,5.5487061,14.7365112-4.8084106,14.7365112-4.8084106c2.5198669-0.7446289,7.2525635-3.8661499,9.5031128-7.3704834
		c2.7597046-4.295166,2.7597046-8.2875977,2.7597046-8.2875977s3.5295105-2.2967529,6.5795898-8.1401978
		c2.5240173-4.7409058,2.1622314-7.8623657,2.1622314-7.8623657s14.2653503-14.9891968,17.2312317-33.7011719
		c2.5409546-15.9522705-1.2157898-30.6677246-1.2157898-30.6677246s10.7232666-16.3099976,10.2310486-34.9547119
		c7.2947083-5.1026611,24.9128723-16.5410156,46.8431702-25.0725708
		c0.6226501,12.5742798,2.6040955,23.4742432-1.3210754,43.6921387
		c-4.9219055,25.1652832-27.3192444,43.5617065-27.3192444,43.5617065
		c31.2906494-3.3695679,52.164856-30.9789429,60.431366-50.923645c6.760376-16.2678833,12.9191284-39.2750244,15.7713013-49.6996765
		c30.5290527-5.9230652,58.4160767-7.496521,67.6670532-8.8848572c12.2628174-1.8425293,15.3380737-4.5852966,15.6367188-9.191925
		C615.3729858,477.2593689,614.1361694,468.9717712,613.2107544,463.4438782z"/>
	<path class="st0" d="M305.9476929,116.3211746c-0.4544678-3.6809769-1.0306396-8.169487-1.7542114-12.9612274
		c2.0022583,6.6173401,4.6358948,16.0827179,5.3425293,22.1490479c0,0-0.5887756-17.2227631-2.9656372-27.9208679
		c0.0210571,0.0631638,5.9356079,16.6591644,7.1221313,26.1455917c0,0,0.7738953-9.2088699-0.0968018-19.0442429
		c1.1274719,3.7734146,2.1329346,7.7445374,2.8816833,11.9262085c4.6738892,25.9561081,12.3555298,44.0749741,43.2504883,63.1572189
		c-5.4898987,8.4347229-13.5964661,19.9026184-19.9277649,28.8251953
		c-7.639801-5.7379303-20.3904724-17.1049042-26.2590942-32.6196594
		C304.4751587,151.9994202,307.5293884,129.1226959,305.9476929,116.3211746z M456.5102539,274.9399719l-0.0125732-0.462677
		c-2.6798401-17.5298767-15.5147705-34.2059631-31.8878784-41.5594635
		c-4.9008789-2.5450439-19.8099365-8.0434113-35.9388733-9.4990082c-7.311615-0.8285828-15.1529541-0.7320404-24.7403259,0.2819214
		c-4.2784729,0.450119-8.4432068,0.984436-12.5321655,1.5102997c-21.8966675,2.8059235-42.5690613,5.4562531-64.722229-6.9665527
		c-27.4496765-13.8321686-47.7728882-44.7227783-51.6305237-78.6298676l-0.420578-3.6979218
		c-0.5512695-4.6695251-0.7572021-9.6209793-1.026535-14.3957825c-0.3913116-4.2237778-1.1695709-6.5290146-1.2620087-5.9946823
		c-0.0546875,0.3070908,0.0421143,0.6983948,0.0421143,1.0137024c0.0251617,3.6137085-0.8624725,7.1978912-1.4134979,10.7402191
		c-0.6521759,4.2068405-1.5187531,12.1996689-1.5734558,11.9262161c-0.0716248-0.3322601-0.176651-0.6729889-0.2146454-0.980072
		c-0.1892395-1.1695709-0.2228699-2.3221893-0.239563-3.5043335c-0.0295258-2.3683929-0.07164-4.7368011-0.1936035-7.1054535
		c-0.2986145-5.9274139-1.2999878-23.2469711-1.7667847-25.4469299c-0.1222229-0.559494-0.3617859-2.5327301-0.9508057-2.8775635
		v-0.0043716c0.0587921,2.0361481-0.0379944,4.0766602-0.1304321,6.1125488
		c-0.2272491,5.2965469-1.4134979,11.59832-1.9393463,16.8779221c-0.5217438,5.3006516-1.4178619,10.5211945-2.2086945,15.7841034
		c-0.2144012,1.4555969-0.5469055,4.3539581-0.5931244,3.8827972c-0.0041046-0.0968018-0.0084686-0.1933441-0.0210571-0.311203
		c-0.2860413-3.2349701-1.0979309-13.6344604-1.0347595-25.4471893l-0.0336456-2.440033
		c-0.0716248,0.45858-0.1473694,0.9297485-0.2272339,1.3924332c-1.9352264,11.3710861-4.2194061,27.1762466-4.4425354,44.2475204
		c-0.0041199,0.4881134,0.042099,1.9141846,0.0336304,2.6757355c-0.1091309,5.3047638,0.0968018,27.3652344,9.5876007,51.7145081
		c14.4250336,37.0326691,42.4046936,61.5965881,83.139679,73.0138855
		c20.1758118,5.7297363,42.8884583,10.0038147,58.697998,14.7827454c0,0.0210571,0.0251465-0.0546875,0.0251465-0.0546875
		s17.4710693,5.115509,28.0174255,13.2516174c0,0-11.4676208-2.3180542-23.1627502-3.782135
		c8.4095459,12.5237122,22.6790161,20.7691956,38.8965149,20.7691956c12.279541,0,23.4362183-4.7578735,31.8077698-12.4859619
		c-2.0150757,1.4052734-3.8956299,2.4736633-5.3720093,3.1931152c-4.0009155,1.9349976-7.9468689,2.6082153-10.9127808,2.8143921
		c-6.6971741,2.1326904-13.4113464,1.2032166-15.1445007,0.895874c0.134552-0.0292664,0.273468-0.0755005,0.4205933-0.0965576
		c20.1465454-3.4750366,38.9301758-18.8760681,36.8182678-42.3669739
		c-0.9127808-10.025116-3.9754944-20.7355347-10.2939453-27.4959106
		c7.8878174,6.7223511,13.2598572,16.3351135,14.2653198,27.3991089c0.5004578,5.4647522-0.1219482,10.7695007-1.6617737,15.7124939
		c2.5535278-5.5150757,4.0553589-11.6150208,4.1395569-18.0726624c1.4892578,6.8951721,0.9423523,12.8056335-0.6899109,17.8580017
		c1.9981384-4.9851074,3.1551208-10.399231,3.2393494-16.0783691c0.1386414,0.6604004,0.1976929,1.2830505,0.3111877,1.9267578
		c0-0.0421143,0.0084839-0.0757446,0.0084839-0.1178589C457.5663452,281.4312439,457.2042847,278.1246338,456.5102539,274.9399719z"
		/>
	<path class="st1" d="M479.3533325,484.3730469c2.0402527,0,4.4677124-0.029541,7.1054688-0.0968018
		c-1.1611023,7.3157349-1.7290649,15.1950684-2.0109863,20.9122009c-3.0708923,1.0180664-5.7928772,2.0025024-7.963562,2.9068298
		c-13.7099609,5.7255859-39.2159424,19.2504272-39.2159424,19.2504272c-0.273468,0.1599731-0.5805359,0.3535767-0.8624878,0.5258789
		c-2.0993042-14.5429077-6.844574-26.4945374-6.844574-26.4945374s9.1457214-23.806488,5.7212524-38.4420776
		c-4.4970093-19.2252502-11.8589478-29.4478455-11.8589478-29.4478455c0.8077698-0.8624573,1.6237793-1.6699829,2.4356689-2.4988403
		c4.8253784,6.5752563,12.994873,6.7478027,12.994873,6.7478027s4.5097961,19.2337341,11.0513916,28.8336487h-0.0084534
		C456.4514771,476.1907043,465.239502,484.3686829,479.3533325,484.3730469z M607.4766846,469.7415466
		c-1.7837524-10.0585022-4.5432129-11.8337708-9.3980713-13.7815857
		c-4.8713989-1.9475708-13.1379395-1.4638367-13.1379395-1.4638367s6.3272095-15.4056091,5.6793823-23.835968
		c0,0-36.7132568,15.8262024-47.2385254,44.9541321c0,0,22.0267944,0.576416,34.3612671,2.0276489
		c12.3303833,1.4640808,20.3442383,1.514679,23.09552,1.6787415
		C603.5897827,479.4762878,609.260437,479.8000488,607.4766846,469.7415466z M589.9301758,484.0659485
		c-6.9539795-0.1977234-34.2521973-1.0768738-51.2225342-1.0768738c-0.0714111,0-0.1514893,0.0082092-0.218811,0.0082092
		c-1.69104,2.6672668-3.0623779,5.4983826-4.5264893,9.4697571c4.7327271-0.9341125,9.3054199-1.7460022,13.4912109-2.3686523
		c23.1124268-3.4832764,42.1273804-4.0931091,45.1898193-4.4928894c3.0668335-0.4121094,8.5947266-0.214386,10.6264648-1.8425293
		C603.2783203,483.7503967,596.8838501,484.2677612,589.9301758,484.0659485z M558.6859741,390.4764404
		c-13.5964355,4.0006714-33.0615234,14.6230164-49.0348816,35.1395569
		c-17.3280334,22.2417297-21.2529602,50.0152283-21.2529602,50.0152283s-18.2788086,3.5967712-27.7357178-10.4498291
		c-12.6918945-18.8424072-7.9129944-40.9408875-7.9129944-40.9408875s-7.5175476,3.5464478-13.4577942,1.9981384
		c-2.0864868-0.5469055-3.5672607-1.9098206-4.6189575-3.5379639c9.8944397-8.7965088,20.4115295-17.0545654,30.8528748-29.0018311
		c5.4015503,1.198822,10.2605591,2.4988403,12.9108887,3.31073c5.8473206,1.7837219,11.9221191,6.7310791,13.5458984,12.0779419
		c1.6281433,5.3553467,2.4274597,23.5160828,2.4274597,23.5160828c3.281189-12.6287231,3.8070374-19.0065002,4.1184998-22.578125
		c0.3363647-3.5672302-0.0421143-12.5866089-6.8866882-18.8421631c-3.697937-3.3697815-14.1559753-6.4997559-18.3039856-8.8008728
		c15.8387756-21.808075,20.1845398-55.2272949,20.1845398-55.2272949c-0.0084839-0.3196716-0.004364-0.631134-0.0084839-0.9508057
		c1.6112061-0.1766357,2.6629028-0.3407288,2.7132263-0.5089111c2.9111938-0.1684265,13.2601013-1.4345398,16.1543884-1.4892273
		c-0.0336304,0.0968018-4.3121338,12.8223267-0.5931396,22.2373657c0,0,9.6630859-6.491272,23.4403076-5.5109253
		c13.7774658,0.9885254,35.8423462,7.68573,45.2992554,3.9459534c0,0.0169373,4.1269531,9.4527893,3.9377441,16.3351135
		c-0.1977539,6.8908081,1.9603882,11.6235046,4.5180054,13.5838928c2.5620117,1.9688721,5.1240234,2.3642883,6.7015381,3.5631409
		c1.5817261,1.1695557,1.5860596,4.7160034,0.7908325,7.6608276c-0.7908325,2.9489441-2.9573975,3.3569336-5.3173218,2.7594604
		c-2.2001953-0.5425415-13.7227783-2.1034241-26.2254639,0.1976929c-0.65625-2.3178101-1.8088989-7.6184692,0.6814575-10.2392578
		c3.2434692-3.3949585,9.5706787-3.071167,12.0063477-2.5871582c0,0-5.1743164-2.4315796-9.7303467-2.4315796
		c-4.543457,0-8.2832642,3.0793762-9.5791626,6.4910278C557.3649292,382.7485962,558.1937866,387.9606628,558.6859741,390.4764404z
		 M553.0656738,357.8565369c-0.1640625-1.4638367-3.071167-5.6750183-4.7034302-7.6225891
		c0,0,4.7034302-2.5871582,11.3500366-2.9111938c0,0-4.2866821-1.6448364-10.6010742-1.7793884
		c-2.1077881-0.0464783-4.4425049,0.0713806-6.9202881,0.4752808c-9.8859863,1.6281433-13.7775269,3.5800781-20.4284668,4.3876038
		c0,0-0.0377808,0.0675049-0.0714111,0.1052551c5.5612793,1.8132935,14.6397095,1.6954346,20.0202026,2.6418457
		c2.5915527,0.4627075,5.2755127,1.9183044,7.4125366,3.340271l-2.7807617,12.4353638
		c-6.2008667,3.2940369-16.2341919,9.6043091-23.9368896,19.1539001
		c-6.2175293,7.6983337-9.0784302,21.1897888-9.0784302,21.1897888s7.9594727-14.2697144,18.0053711-21.2488403
		c9.1203003-6.3269348,13.9497681-8.7839355,16.7179565-11.3626099c0.5048218-0.5089111,0.8961182-1.0727844,1.25354-1.6533203
		c2.4022827-2.9068298,3.4917603-13.3525391,3.697937-15.5946045v-0.0546875
		c0.0166626-0.2272339,0.0336304-0.387207,0.0336304-0.387207
		C553.0656738,358.4414368,553.0823364,358.0375366,553.0656738,357.8565369z"/>
	<path class="st2" d="M316.3258972,427.769989c-1.8972473,6.5585632-0.4752808,26.6123962-0.4752808,26.6123962
		s-7.0045471,2.7597046-15.548645,2.7597046c-8.5397644,0-18.8465576-5.3889771-18.8465576-5.3889771l0.7025146-0.0839539
		C300.1127319,447.1719055,316.3302612,427.7658997,316.3258972,427.769989z M398.7546082,603.5820313
		c0,0,4.6022644-8.0518799,9.6885071-17.0838623c-3.205719-2.7175903-7.5093384-5.9736328-12.8266907-9.2592163
		c-4.8253784-2.9995117-13.0960388-7.1095581-20.3106079-11.2745361v0.0084839
		c-0.0505981,3.9334106,0.4501038,13.878418,6.0578613,21.9724121
		C388.5153503,598.2731323,398.7546082,603.5820313,398.7546082,603.5820313z M521.9937744,324.5764771
		c-4.862854,3.2390747-3.7313232,12.9694519-3.7313232,12.9694519s3.9038696-4.0427856,13.4660645-6.4784546
		c9.5706177-2.4315491,22.2247925-0.6477966,22.2247925-0.6477966c-7.3031616,1.4555969-11.3544312,3.8956299-11.3544312,3.8956299
		c13.6218872,1.7834778,16.0449829,6.1628723,34.2141724,4.862854
		c18.1694946-1.2997437,20.4495239-18.4932251,20.4495239-18.4932251h-0.0040894c0,0-4.2363892,1.9478149-13.6259766,4.0553589
		c-9.4066162,2.1077576-28.383606-0.8075256-34.0670776-1.4553528
		C543.8904419,322.6371155,526.8653564,321.3371277,521.9937744,324.5764771z M406.0662537,524.3590088
		c9.3516235-18.4300537,18.5099182-24.9929504,22.1531372-44.1968994
		c3.6219177-19.2170715-5.5068359-33.9576721-12.4649048-41.1725159c0,0-20.9206848,22.8769836-29.1196899,41.517334
		c-7.3031616,16.6296387-9.8733826,30.0325012-10.2605896,37.1464539c8.7418213,5.43927,19.3135986,12.0355835,25.1485901,16.663269
		C402.9277954,530.913208,404.4550476,527.5352173,406.0662537,524.3590088z M363.1690674,216.4859161
		c10.1216431-1.0684052,18.4636841-1.1652069,26.2254333-0.2775726c15.3547974,1.3798676,30.0704956,6.2766266,37.0663147,9.5326538
		c19.4481506,8.2244415,34.7862549,28.0302582,37.491272,48.7488708h-0.0336304
		c0.1052551,0.572052,0.223114,1.1441345,0.3114319,1.7246704c0.0336304,0.2146606,0.0672913,0.4375305,0.0968018,0.6478271
		c0.1009216,0.7363892,0.2059326,1.4810181,0.273468,2.2297363c0,0.0084839,0.0082092,0.0084839,0.0082092,0.0210571
		c4.8210144-0.572052,30.1924744-3.4455261,51.3529968-3.2981262c18.8675537,0.1260681,35.6235352,2.1075134,43.6710205,3.420105
		c-8.2662354-18.4385376-21.0593262-40.0784302-40.4024048-58.4034729
		c-43.7132263-41.407959-97.7373047-61.1927185-142.8303528-63.2666016h-0.004364c0,0-0.6814575,8.0855255-5.5612793,18.4259491
		c-1.7375183,3.668396-3.9924316,7.6143646-6.9413757,11.589859c-4.2404785,5.7045441-12.7383728,17.4415131-20.5545349,29.2542419
		c-0.2608948,0.3997803-1.7164917,2.2674866-1.7164917,2.2674866c2.9027405-0.3366089,5.8475647-0.7024994,8.8511963-1.089447
		C354.6164551,217.4914093,358.8317566,216.9444885,363.1690674,216.4859161z M336.4346924,301.0180359
		c-0.1599731-0.0418396-0.3114624-0.0798645-0.4629517-0.1176147c-1.6278992-0.4082336-3.2645264-0.824707-4.917572-1.2411804
		c-3.3024902-0.8285828-6.6468811-1.606842-9.9871216-2.3809814c-3.7020264-0.8624878-7.4125366-1.7121277-11.0514221-2.599762
		c-0.1976929,0.9128113-0.3702393,1.8256226-0.5384216,2.7260742c-0.5299683,3.2516785-0.9759827,6.5667725-1.3462219,9.8690186
		c8.3253479-2.1622009,18.1650696-4.4718018,27.6473999-6.1461792
		C336.0012512,301.0896606,336.2115479,301.0516663,336.4346924,301.0180359z M369.2099609,347.3353271
		c-0.731781-0.9885559-1.4386597-1.9855652-2.1116333-3.0246887l-1.4810181-1.2830505l-0.0082092-0.004364
		c-4.9977112,1.0054932-72.0631409,9.8230591-153.1920776,64.3437195
		c-26.8773804,18.0598145-59.8421326,50.1202393-76.11409,68.0075073
		c6.974762-3.0498352,21.9975586-9.3475037,33.8816681-13.0200195
		c12.1411285-12.4649048,32.0730133-32.6617737,50.3348999-45.4632874
		C262.8486938,387.2581482,335.2355957,356.5989075,369.2099609,347.3353271z M398.9186707,540.9550171
		c-4.8798218-3.697937-18.964386-14.1898193-27.5924683-18.9854736
		c-10.5635681-5.8601074-22.0902405-12.317749-26.5872192-16.2888794c0,0-0.0927124,18.5563965,8.9942017,32.7208252
		c6.7729492,10.5717773,25.2410278,20.192749,37.2892151,27.4158325
		C392.0658875,561.8964844,394.8674316,551.8169556,398.9186707,540.9550171z M423.6507874,511.4776611
		c-1.5523987,2.4903564-4.0176086,6.3269043-5.4647217,8.2832031c-4.5770874,6.1798096-15.8513794,30.7519531-20.6639404,50.0023804
		c1.4471436,0.8961182,2.738678,1.7375488,3.8406982,2.5032349c5.2965393,3.7061157,8.4347229,6.6761475,10.2099915,8.6619263
		c2.3096008-4.1018066,6.8276367-8.2749634,8.6283264-11.5351563c6.62146-12.0232544,11.6992493-26.2213135,10.0544128-39.161499
		C429.1196289,521.3425293,425.1356506,514.27948,423.6507874,511.4776611z M383.5217896,613.6027832
		c1.3166809,4.4296875,4.623291,6.7182617,7.8708496,8.4180298c2.1034241-6.651001,4.812561-14.0172729,4.812561-14.0172729
		c-4.9681702-2.5324707-9.7681274-6.760376-9.7681274-6.760376
		C384.5945435,603.6199951,381.3721313,606.3712769,383.5217896,613.6027832z M470.1447449,329.8180542
		c-4.7999878,16.0280457-14.0676575,27.5506287-28.7915649,34.2858276
		c-19.2337341,19.6037292-47.9328613,33.2423096-63.9398499,43.5028992
		c-28.2361755,18.1103821-32.8720703,53.8179016-32.8720703,53.8179016
		c3.1086426-54.8023376,36.7045593-61.874176,73.421936-88.8188171c0.7738647-0.5594788,2.6207886-1.6112061,3.3695068-2.1835327
		l-1.1400146,0.4755249c-4.5937805,0-13.9623718-0.8624573-18.2914429-1.8805237
		c-4.017334,2.7597046-7.929657,5.1912537-11.5348816,7.1642456
		c-19.2127075,10.4749756-32.5441895,27.5968323-32.5441895,27.5968323
		c5.1912842-17.3532104,17.3532104-24.6604614,35.5770874-37.491272
		c-6.8106995-2.8059082-14.446106-7.5596619-19.7046509-12.7468262
		c-10.7402039,5.5448303-34.458374,19.953186-50.2632751,34.8833008
		c-12.6330872,11.9472656-36.0651855,28.8798828-63.7713928,41.9461365
		c21.7744141-14.4039917,58.4877014-46.7589417,71.3731689-59.0343628c0,0-48.2861633,27.8869934-62.1098633,37.247345
		c0,0,17.9673767-19.8183899,40.1880493-32.0519409c0,0-49.1316833,20.1298218-77.4058533,39.430603
		c-14.627121,9.9912109-37.0326843,30.3439331-49.9813232,44.1886902c5.317337-1.1443787,25.5059814-5.2207947,30.8823853-5.7759094
		c36.3386383-3.7400513,76.0552673-0.9130554,110.8540955-42.8088684c0.5723267-0.6814575,1.1611023-1.362915,1.6618042-1.9645081
		c-3.0288086,10.3571167-4.3287964,24.8748779-3.7398071,41.0585022
		c1.2620239,34.9842224,28.4338989,48.8079224,38.9468689,56.1488342
		c-0.2649841-4.3036499-0.9127808-8.6072693,2.9320068-23.7181396c4.2407532-16.6550598,15.7042542-30.163208,18.421875-32.3084717
		c0,0-17.8158875,23.7599792-12.6752014,61.1377563c0,0,4.9134521-30.6130371,27.9922485-60.6665955
		c23.0787964-30.0453491,45.2571106-44.1004028,63.6199036-66.5439453
		c10.2058716-12.477478,15.9987488-24.4584045,19.4399109-35.2194214c2.818512-8.0436707,4.076416-15.8934631,4.6443787-21.6863403
		c-4.9640503,0.4375305-9.6967163,1.0391235-14.4589539,1.5102844
		C470.2204895,329.4899292,470.1783752,329.6835327,470.1447449,329.8180542z M593.0220947,394.6706848
		c0,0-4.3372803-1.2157593-11.3880005-1.1990662v-0.0082397c-7.0505371,0.020813-16.8189087,1.2745972-27.6807861,6.2216797
		c-21.7410889,9.8946838-42.4470825,29.6373291-51.3696899,50.0655518
		c-8.9143372,20.4328308-9.629425,42.0516663-10.6054077,57.9492493c-0.9633789,15.8935242,1.6825867,39.653717-4.547821,61.0453186
		c0,0,10.2395325-15.1529541,13.9541626-57.9574585c3.3738708-38.8248901,12.9822693-65.5256042,30.815094-78.015686
		c0,0-14.2738037,19.7803955-19.1369019,52.2192993c-4.8631592,32.4432373-3.8956604,45.105896-9.8944702,72.0209961
		l-1.4892273,5.0482788c0,0,14.2823181-19.1115723,22.0144958-68.9416504
		c6.7686157-43.5575867,19.5280151-63.1025085,37.0452881-73.3251038c0,0-23.4406128,25.480835-28.821106,61.9624939
		c0,0,13.2937622-32.8679504,34.2269897-46.6665039c20.9204712-13.7731018,39.0141602-18.3794861,39.0141602-18.3794861
		S604.477417,405.4065552,593.0220947,394.6706848z M405.4728699,602.0424805
		c-4.0931091,7.3704224-7.7655945,17.0627441-9.6040344,22.2329712c0.3869324,0.2231445,0.7572021,0.437561,1.0979309,0.6773682
		c3.8491516,2.5871582,8.7669678,9.5033569,8.7669678,9.5033569s10.538147-11.741333,14.8166199-25.0432739
		c4.2825623-13.2937622-0.8414307-29.2124023-0.84552-29.2124023
		C419.704834,580.2005005,411.3414612,591.479126,405.4728699,602.0424805z M380.6611633,655.4271851
		c-2.8945007,3.5883179-4.2068481,10.8116455-2.3686523,12.9653931c1.8299561,2.1580811,4.3709106,1.8972168,5.9569397,0.0926514
		c1.5945129-1.8006592,2.0613098-4.6402588-0.1430359-7.6271973
		C382.318573,658.4434204,380.6611633,655.4271851,380.6611633,655.4271851z M391.7713623,628.116394
		c-5.2585449-2.5157471-8.0182495-6.0326538-8.0182495-6.0326538s-3.1425476,4.2489014-1.9899292,9.276123
		c1.1611023,5.031311,5.8349915,7.2063599,10.8031311,9.7303467c4.9725037,2.5368652,6.848938,7.5722656,6.848938,7.5722656
		c3.5295105-2.4818726,5.2878113-6.2722168,3.3317871-10.4118042
		C400.790741,634.1280518,397.0299072,630.6278076,391.7713623,628.116394z M388.2375183,644.2032471
		c-3.8450623-2.5956421-6.3187256-5.5024414-6.3187256-5.5024414c-5.1281128,8.8216553-2.6500854,10.8618774,4.4214783,16.0952759
		c4.8294983,3.5800781,3.9167175,8.2495728,3.9167175,8.2495728s6.6255493-3.3612671,6.1880188-7.6268921
		C396.1504822,652.6084595,392.0740967,646.8032227,388.2375183,644.2032471z"/>
	<path class="st3" d="M563.2966919,286.4666443c-5.8098145-1.0853271-24.328186-3.8786621-47.3269043-4.0342712
		c-20.8955078-0.1430359-46.0943909,2.4692993-51.0668945,3.0246887c0,0.0295105,0,0.0588074,0,0.0883179
		c-0.0336609,31.0842285-26.7849426,53.2709961-51.7019348,53.6412659
		c-37.6301575,0.5638428-51.4790344-29.7675171-51.7694397-31.5553894c-2.68396-0.7823486-5.5487061-1.5649719-8.5145874-2.3599243
		c-4.9976807,0.6098328-10.3445435,1.3754883-15.952301,2.3684082c-10.3655701,1.825592-21.0803833,4.3834839-29.7970276,6.6509705
		c-0.4164734,4.6022644-1.0812378,12.0063477-1.1064148,12.637207c-1.2409363,26.1751099,0.40802,24.3492737,0.40802,24.3492737
		c7.5892029-2.9700012,35.5814209-10.1468506,35.5814209-10.1468506c8.1992798-1.9100647,17.9337463-3.9544373,29.3302917-6.0621948
		c8.0138855,16.150238,24.6560974,27.2561035,43.9065247,27.2561035c24.0421753,0,44.0161743-17.3067322,48.1978455-40.1290283
		c52.5348511-5.7042847,77.3678589-5.8683472,109.8067627-1.552124
		C569.8760376,302.5578613,563.2966919,286.4666443,563.2966919,286.4666443z"/>
</g>
</svg>
