<?xml version="1.0" encoding="utf-8"?>
<!-- Generator: Adobe Illustrator 22.0.1, SVG Export Plug-In . SVG Version: 6.00 Build 0)  -->
<svg version="1.1" id="Layer_1" xmlns="http://www.w3.org/2000/svg" xmlns:xlink="http://www.w3.org/1999/xlink" x="0px" y="0px"
	 width="720px" height="720px" viewBox="0 0 720 720" style="enable-background:new 0 0 720 720;" xml:space="preserve">
<style type="text/css">
	.st0{fill:#FFFFFF;}
	.st1{fill:#115740;}
</style>
<g>
	<path class="st0" d="M673.7592163,319.9751892c-20.0745239-36.585907-65.652771-74.9271088-128.3533936-107.9793549
		c-64.0710144-33.779892-139.914093-45.7572784-185.4042053-45.7572784s-121.3298798,11.9773865-185.4041901,45.7572784
		c-62.7006073,33.039093-108.282135,71.3934479-128.3566895,107.9793549
		C39.4482994,332.344574,35.91082,346.1818848,36.001709,359.9934387
		c-0.0876045,13.811554,3.4498749,27.6488342,10.2390327,40.0313721
		c20.0745506,36.585907,65.6560822,74.927124,128.3566895,107.9793701
		c64.0611572,33.7798767,139.9141083,45.7572937,185.4041901,45.7572937v-0.0093384
		c45.4868164,0,121.3430481-11.9943848,185.4042053-45.7611084
		c62.7006226-33.039093,108.2788696-71.3934631,128.3533936-107.9793396
		c6.7924805-12.3694153,10.3305054-26.2066956,10.2390747-40.0182495
		C684.0897217,346.1818848,680.5516968,332.344574,673.7592163,319.9751892z"/>
	<path class="st1" d="M657.6519775,328.1747437c-18.0662842-32.9350891-61.6494141-69.5111389-120.994812-100.7850494
		c-61.0925903-32.2068787-133.1375732-43.6006165-176.6588135-43.6006165s-115.5624084,11.3937378-176.6587982,43.6006165
		c-59.3421555,31.2739105-102.914856,67.8466644-120.9948196,100.7850494
		c-5.3409882,9.7298279-8.2176208,20.6959534-8.1267319,31.8186951c-0.090889,11.1101074,2.7857437,22.0729675,8.1267319,31.8186951
		c18.0668182,32.9350586,61.6493759,69.5111084,120.9948196,100.7850342
		c61.0931091,32.2073975,133.137558,43.600647,176.6587982,43.600647s115.5629578-11.3932495,176.6588135-43.600647
		c59.3421631-31.2739258,102.9154053-67.8466797,120.994812-100.7844849
		c5.3377075-9.7298584,8.2181396-20.6959839,8.126709-31.8192444
		C665.8701172,348.8838501,663.0061035,337.9204712,657.6519775,328.1747437z"/>
	<path class="st0" d="M510.9585266,324.5009155h93.01474l-10.0046997,17.3709412h-64.6831665l45.2037964,17.8768311
		c3.9415283,1.5598755,5.5753174,6.2613525,3.4630127,9.938446L557.96521,404.390686
		c-1.2302246,2.1435242-3.524292,3.4679565-5.9979858,3.4679565H434.692749l11.9998474-20.839447h78.1470032l-36.4161377-14.4083252
		c-3.9415283-1.5598755-5.5720215-6.2613525-3.4597168-9.938446l19.9836426-34.7035522h0.0098572
		C506.1907959,325.8253479,508.4848633,324.5009155,510.9585266,324.5009155z M483.082489,341.8718567h0.0032654
		l10.0046997-17.3709412H382.2049255l-10.0046997,17.3709412h27.7194519l-38.010498,65.9999084h55.442749l38.0110779-65.9999084
		H483.082489z M358.3289795,341.8718567l0.0032959-0.0032959h-0.0016479L358.3289795,341.8718567z M278.2481384,324.5009155
		l-48.0157623,83.3708496H344.578186l11.9998474-20.8525696h-58.9024963l8.009552-13.8898315h31.169342l10.005249-17.3709412
		h-31.1797485l8.009552-13.8898621h34.6411438l10.0030518-17.3676453H278.2481384z M611.9729614,310.6012268
		c-4.2634888-2.4928284-11.1046143-5.6514282-20.2700195-7.23703v0.0131531l-0.0032349-0.0032959
		c0,0-8.2176514-1.6638794-32.3607788-3.3376465l-84.6273804-8.3429871
		c-46.5150146-4.1178589-87.3381042-14.835968-125.1931458-41.4702606h-1.2691345l31.9473572,51.6988983H218.4832916
		l-47.0066986,81.6286621c-1.2433929,2.144043-3.5248871,3.4717712-6.0018311,3.4717712h-51.4366226l-11.9998322,20.8394165
		h102.8765335c4.950058,0,9.5261688-2.6494141,11.9998322-6.949585l52.0219116-90.3110962H611.9729614z"/>
</g>
</svg>
