<?xml version="1.0" encoding="utf-8"?>
<!-- Generator: Adobe Illustrator 22.0.1, SVG Export Plug-In . SVG Version: 6.00 Build 0)  -->
<svg version="1.1" id="Layer_1" xmlns="http://www.w3.org/2000/svg" xmlns:xlink="http://www.w3.org/1999/xlink" x="0px" y="0px"
	 width="720px" height="720px" viewBox="0 0 720 720" style="enable-background:new 0 0 720 720;" xml:space="preserve">
<style type="text/css">
	.st0{fill:#A71930;}
	.st1{fill:#0B2265;}
</style>
<g>
	<path class="st0" d="M85.6435242,215.456604c0-7.4275208-6.0221329-13.4801941-13.4734116-13.4801941H36l0.033947-88.9095764
		h155.4653015v16.9223938c17.3772583-13.2867126,40.3862762-20.697258,64.3084564-21.1860886v0.0067902
		c10.8731079-0.2240448,21.9328918,0.9810562,32.744873,3.7137604
		c21.8378601,5.6928482,38.0643311,15.8462753,50.8350525,34.4693832
		c6.1239624,8.9381561,9.1791687,17.9781342,10.7203369,24.9779205c0.8961792,4.1075287,1.2628174,7.5157776,1.4121704,9.7494659
		v76.8517456l-0.0203552,20.3374023c0,0,0.0101929,4.8441772,0.0203552,12.6620789v64.6648865
		c-0.0101624,3.2351379-0.0101624,6.4498596-0.0203552,9.5797424c0,0.2036743,0.0101929,0.3700256,0.0203552,0.5635071v1.863678
		c0,7.4343262,6.0323181,13.4462585,13.4598389,13.449646h0.0067749h23.0191956l2.0809326,0.0135803v85.2806702h-99.3617554
		c-19.6652832,0-36.3737793-12.4346313-42.8542023-29.8662415c-1.8433075-4.9595947-2.9092255-10.2993774-2.9092255-15.917572
		v-192.222641c-0.3224945-13.8671875-12.1291351-25.022049-26.6650543-25.022049
		c-14.7599945,0-26.7125854,11.4535828-26.726181,25.5651855h-0.0135803l-0.0067902,2.4781036v235.6675568H85.6435242V215.456604z
		 M683.9661255,504.1385803h-0.0067749L683.694519,113.087204H575.2521362v227.6425629
		c0,2.7462769-0.0509033,5.4789734-0.1867065,8.1607666c-0.0441284,1.0625305-0.1085815,2.1047058-0.1934814,3.150238
		c-1.0557861,8.2796021-6.0696411,15.34729-13.2019043,19.447998c-4.1618042,2.3830872-8.9822388,3.7782593-14.1557007,3.7782593
		c-14.9296875,0-27.5884399-11.3992615-27.5341187-25.5448303l0.1391602-236.635025H370.3197937l-0.0101929-0.0101852v88.6515732
		h27.6359558c7.4275208,0,13.4394531,6.0323181,13.4394531,13.4734192v173.3517609
		c1.7754211,28.5422974,18.73172,54.6540527,40.2810364,66.8884277
		c21.6918945,17.1566162,74.3057556,25.0084534,102.7190247,14.9840393c0,0,13.1203613-4.1313171,20.5071411-9.0569763v21.9974365
		c0,5.2481384-0.4039307,8.5239868-1.8297119,12.611145c-3.6085205,7.7771606-11.5282593,11.8609619-24.0953369,12.1698608
		l-463.3882141-0.0203552v103.0890503h502.2571106c15.2827148-0.7841797,29.6658936-2.5154419,41.7678833-5.9338989
		C646.1427002,600.2278442,684,582.4873657,684,526.4143066
		C684.000061,525.5928345,683.9864502,504.9668884,683.9661255,504.1385803z"/>
	<path class="st1" d="M100.5936127,215.4498138c0-15.6765442-12.7401657-28.4200897-28.4133148-28.4200897H50.9704552
		c0-16.5082397,0.0067902-42.4774017,0.0067902-58.9958191h125.5820923v32.2492828l24.0342102-18.4058533
		c15.0722809-11.5180817,35.0430756-17.8185806,55.828598-18.161438l-0.0033875,0.0033951
		c9.4473267-0.1527634,19.0677795,0.9233475,28.4676208,3.3030014
		c19.3020325,5.0342865,31.9505615,13.5480957,42.1549072,28.4370728c4.022644,5.8659821,6.8674011,12.4991455,8.4730835,19.7195892
		c0,0,0.9538879,6.6637268,1.0625305,7.3324738v76.0573883l-0.0203552,20.3068542
		c0,0.0848694,0.0203552,12.7299805,0.0203552,12.7299805v64.6309204l-0.0203552,9.878479
		c0,0,0.0067749,0.3191223,0.0203552,0.6382141v1.4902649h-0.0067749c0,15.6663513,12.7503357,28.4234924,28.4132996,28.4234924
		h10.1432495v55.353363h-84.3879089c-12.7741089,0-24.3668823-8.0792847-28.834259-20.1133728
		c-1.3103333-3.4897156-1.9689026-7.1118164-1.9689026-10.7067566V228.9775391
		c-0.5024109-22.1875153-19.1730499-39.96875-41.6321259-39.96875c-22.9750824,0-41.6558838,18.1750183-41.6728668,40.5186768
		c-0.0237579-0.095047-0.0339355,2.3932343-0.0339355,2.3932343v220.7887726h-76.003067V215.4498138z M668.7376709,128.0305023
		h-78.5524902v212.6856842l-0.1934814,8.9177856l-0.2512207,3.83255l-0.0679321,0.4243469
		c-1.5751343,12.6315308-9.2878418,24.051178-20.5716553,30.5621338
		c-6.5686646,3.7680664-14.0335083,5.7607422-21.6002197,5.7607422c-11.5588379,0-22.8087158-4.6065674-30.8438721-12.6960449
		c-7.5124207-7.5463257-11.664093-17.3840637-11.664093-27.6834412c0-0.0441284,0.1357422-195.5426788,0.1459656-221.7935791
		H385.2698975v58.7378082h12.6621094c15.6663513,0,28.4031067,12.7571411,28.4031067,28.420105v113.9621735v58.7276611
		c1.4597168,22.3504333,14.5698853,44.2494202,32.7041626,54.5487976v-0.0067749l0.987854,0.5770874l0.9097595,0.6891174
		c17.9102478,14.1659241,65.0383301,20.9077148,88.4546509,12.617981l0.4786987-0.1391907
		c4.3112183-1.37146,12.6586914-4.5352783,16.6949463-7.2611694l23.2738037-15.574707v50.0237122
		c0,6.120575-0.4481201,11.2193604-2.6716309,17.5605774l-0.223999,0.6755371l-0.3258667,0.6687317
		c-4.256897,9.1859741-14.1795044,20.2661133-37.6569824,20.8398438H100.539299v73.1515503
		c28.0840225,0.0543213,485.7896118,0,486.7774658,0c14.0504761-0.7366333,27.2421265-2.281189,37.8843994-5.2583008
		c16.3554688-5.0241089,43.8148804-20.0930176,43.8148804-64.586853
		C669.0159912,526.4177246,668.7614136,155.7003784,668.7376709,128.0305023z"/>
</g>
</svg>
