<?xml version="1.0" encoding="utf-8"?>
<!-- Generator: Adobe Illustrator 22.0.1, SVG Export Plug-In . SVG Version: 6.00 Build 0)  -->
<svg version="1.1" id="Layer_1" xmlns="http://www.w3.org/2000/svg" xmlns:xlink="http://www.w3.org/1999/xlink" x="0px" y="0px"
	 width="720px" height="720px" viewBox="0 0 720 720" style="enable-background:new 0 0 720 720;" xml:space="preserve">
<style type="text/css">
	.st0{fill:#FFFFFF;}
	.st1{fill:#C60C30;}
	.st2{fill:#002244;}
	.st3{fill:#B0B7BC;}
</style>
<g>
	<path class="st0" d="M675.7022095,241.6137695h-0.0136719c-81.5369873,19.2576599-85.1010132-27.9657745-207.7270813-36.6262817
		c-165.0614014-11.6549835-303.7676392,60.2582703-414.6132813,69.4751282
		c-24.0829906,2.0007935-20.9597931,22.041626-3.6520119,25.4463196
		c41.7807083,9.749176,84.8907928,8.5112915,124.3486481,3.2179871c-1.3258667,3.1807556-2.6552429,8.0774841,1.7530518,11.8346252
		c15.6259308,13.2825928,78.4512787,14.4219666,106.0271149,12.8351135
		c9.3658752-0.5358276,29.3560181-2.4246521,29.3560181-2.4246521c-5.7002258,0.5426636-14.6084595,17.9148254,4.2286072,22.8080444
		c116.4069519,32.591156,171.175354,85.2163696,234.0483398,168.1063843
		c25.5479126-3.265625,49.6071167-34.0085449,39.3493652-57.4743347l5.1000366-12.5942078l18.8167725-8.7149658
		l-5.3917847-42.0350647l28.6914063-13.5098572c0,0,44.6801758-120.0827637,47.2946167-128.8283539
		C685.9328003,244.3876038,680.517395,240.4779205,675.7022095,241.6137695z"/>
	<path class="st1" d="M352.7007141,258.1586609c-80.7062378,4.7677917-177.5436401,50.3803711-300.8479004,30.0512085
		c109.285675-14.7475281,192.5962372-50.8959351,294.2150879-65.2872772L352.7007141,258.1586609z M355.9153748,275.0831299
		c-53.0627136,10.5936279-101.2661591,32.1536255-165.6717377,33.9035645
		c74.7177277,14.0827637,126.5121307,1.593689,171.1550446-3.6691895L355.9153748,275.0831299z"/>
	<path class="st2" d="M667.4382935,256.2832947c-72.5509644,15.0528259-96.0540161-31.8620148-199.2766724-38.264267
		c-42.0454712-2.6109467-79.9129639-0.6780396-115.460907,3.9879303l5.7951965,35.8803711
		c23.7540894-0.8206482,46.117981,2.2007141,67.3422852,11.8551025
		c-23.3335571-1.4446716-44.3206482,0.4915466-64.8023376,4.2894897l5.1440735,30.7836914
		c32.7132874-3.516449,61.5673828-2.4008789,93.0224915,16.7754517
		c-65.6027222-7.1177673-97.7155762,11.2072754-138.6044312,15.2798462
		c144.4472351,37.9049683,197.3301086,118.902832,233.1494446,163.7897644
		c25.0358276-10.6376953,26.392334-32.3945313,20.013916-40.1565857l6.4428101-13.8217468l0.2984619-8.8743286l17.2601318-8.0706482
		l-5.4627686-43.0014343l32.3198242-13.2385254L667.4382935,256.2832947z M581.6488037,320.7772522l-34.9715576,8.2368164
		l21.6074219-25.168335l-17.8198242-23.6081848l29.8512573,10.2442627l17.3790283-18.2673035l2.8890991,25.6123047
		l28.8305054,10.8206787l-27.046814,6.775177l2.6653442,34.5309143L581.6488037,320.7772522z"/>
	<path class="st3" d="M544.0797729,448.8967285l15.9173584-10.9022217l12.1160889,0.7121887l0.4476929-6.9008484
		l-12.3773193-5.9274597l4.2592773-4.6525269l22.8959961,1.4277039l-6.5819092-50.9942627
		c-9.0506592-1.1054382-16.6634521,3.6385498-19.9493408,16.7313538l-40.5939331-2.3907166
		c5.7174072-12.9468994,14.6119995-18.7727051,31.4959106-16.6227112
		c-9.4745483-13.265625-55.6298218-14.4931641-62.1473389,6.3209229l35.8296509,29.3661499l4.6355591,26.8398438
		l-14.723999-21.3666992c-13.2349548-11.4649658-27.141571-19.4983826-37.7250671-6.8431091l-0.0033264,0.0103455
		c39.0441284,27.3417969,59.0953369,57.6336975,79.4414673,84.1446838
		c10.3493652-4.2998352,13.5977783-16.310791,10.1900024-20.5531006l-9.8543091-12.1295471l11.2072754,0.6577454l5.147583-8.9353638
		l-13.9337158-0.8272705L544.0797729,448.8967285z"/>
</g>
</svg>
