<?xml version="1.0" encoding="utf-8"?>
<!-- Generator: Adobe Illustrator 22.0.1, SVG Export Plug-In . SVG Version: 6.00 Build 0)  -->
<svg version="1.1" id="Layer_1" xmlns="http://www.w3.org/2000/svg" xmlns:xlink="http://www.w3.org/1999/xlink" x="0px" y="0px"
	 width="720px" height="720px" viewBox="0 0 720 720" style="enable-background:new 0 0 720 720;" xml:space="preserve">
<style type="text/css">
	.st0{fill:#FFFFFF;}
	.st1{fill:#D3BC8D;}
</style>
<g>
	<path d="M570.034668,292.6534424c-47.6790771-27.7034912-94.6054993-21.2941895-130.1934204-5.4363403
		c-1.5695496-11.7009583-4.6222534-24.5449219-9.7185974-39.5718689
		c-7.5469971-22.3535919-15.8186951-43.7146454-23.1091003-62.5693817
		c-9.5848389-24.7595062-16.8808594-45.9755707-20.8815308-60.1661758L360.1958618,36l-26.9285583,88.9571533
		c-4.1121216,14.1402435-11.2129517,35.467926-20.7532349,60.2441101
		c-7.2487183,18.871582-15.4535522,40.2576447-22.95578,62.6056213c-5.0461426,15.052124-8.0850525,27.9127502-9.626709,39.6304321
		c-35.6241455-15.7852173-82.5726929-22.1026306-130.1848907,5.7068481
		c-38.9222031,22.7550049-59.7647629,62.3100586-54.403656,103.2284241
		c4.8928223,37.22995,30.3493042,66.4752502,66.4196167,76.386322l26.8643951,7.3768311l6.5738525-27.0622864
		c0.9423523-3.674469,10.6332092-37.5588989,41.1497955-36.9429016
		c21.1687469,0.4378052,38.7409821,19.147583,47.5286102,31.2470703
		c-2.8410034,8.5533447-4.3547668,18.8074341-2.9049988,29.8504028l-11.9463196-15.933075l-21.6147614,16.1170044
		c-19.4708862,14.4860229-47.7348785,50.321991-30.2657623,92.6093445
		c7.6165924,18.4364624,23.9929352,30.9989624,46.1067505,35.4066772
		c13.5242615,2.6902466,28.8857422,2.0630493,43.1236572-1.067749
		c5.6008606,17.9819336,15.8131104,39.7389526,34.3862305,59.1679688L360.357666,684l19.5294189-20.519104
		c18.5339966-19.4737549,28.684967-41.2640991,34.269165-59.2518921c14.2406311,3.0778809,29.5937805,3.6717529,43.1180725,0.947998
		c22.1026001-4.4412231,38.442688-17.0481567,46.0230408-35.5042114
		c17.37146-42.3345947-10.9956665-78.098114-30.4804993-92.5480652l-21.6566162-16.0472412l-11.9099731,15.9553528
		c1.4302063-11.0458374-0.1170654-21.2885437-2.977478-29.8587341c8.7679138-12.1051025,26.2928467-30.859436,47.4532776-31.3418579
		c30.5194702-0.6830139,40.2772217,33.1734924,41.2974854,37.0431213l6.6269531,27.051239
		c-0.0418701-0.2062378,26.8002319-7.6416016,26.8002319-7.6416016c36.0618286-9.983551,61.4320068-39.309845,66.2355347-76.5592041
		C629.9527588,354.8186646,609.0126953,315.3109436,570.034668,292.6534424z"/>
	<path class="st0" d="M560.7897949,308.539032c-58.5016479-34.018158-112.0131836-8.3302612-139.114624,10.3961792
		c0.5046997-4.4885254,1.0259094-8.9407959,1.0259094-13.5186462c0-14.8288879-2.8658752-30.8204956-9.9918823-51.9055328
		c-7.4101868-21.929718-15.5956421-43.0761871-22.8218689-61.7384644
		c-9.8777161-25.5095825-18.4004211-47.5425873-21.7207642-63.0182648l-8.5060425-39.6889572l-8.4083557,39.7056351h-0.0027161
		c-3.2870178,15.4812775-11.7595215,37.5086823-21.5729065,63.0378265
		c-7.190155,18.6901855-15.328125,39.8727264-22.6937256,61.8444824
		c-7.0675049,21.1073303-9.9501953,36.8423157-9.9501953,51.5151672c0,4.6921997,0.5409241,9.2782288,1.0900574,13.8895874
		c-27.168335-18.6541138-80.704834-44.1607971-139.0894318-10.0366211
		c-32.429184,18.9663696-49.8509903,51.5097351-45.4683151,84.9564819
		c3.9002686,29.7554626,24.2326889,53.165741,53.0653458,61.0889893l8.5533295,2.344635l2.1271973-8.6370544
		c0.532608-2.1159363,13.3765564-51.9194641,59.3995972-50.9939575c37.04039,0.7471619,61.2506256,36.7560425,67.7911224,47.8213196
		c-3.1112366,5.7543335-5.6956482,13.6887817-5.6956482,22.7941284c0,9.7604675,3.3230591,20.861969,11.8012085,31.9969788
		c-3.3818054,4.583313-8.9185181,10.2010193-15.3808899,10.7363281c-9.21698,0.7555237-18.542511-8.9465637-24.7428589-17.2322388
		l-5.1716919-6.9029236l-6.9196167,5.1633606c-14.1541901,10.5494995-37.4640961,38.9332886-24.2743683,70.8577881
		c5.2802734,12.7631226,16.5881805,21.1939087,32.7050323,24.3972168
		c16.6635437,3.3063965,37.6954956,0.2982788,52.6388855-6.506958c2.8937683,16.8556519,11.090271,45.3817139,34.5813904,69.9266357
		l6.2699585,6.5571289l6.253418-6.5654907c23.4296875-24.614502,31.5620422-53.1657104,34.4168396-70.0326538
		c14.9628296,6.7719116,36.0284729,9.7354736,52.6889954,6.37323c16.0890808-3.239502,27.3718262-11.706604,32.6104126-24.4667969
		c13.0949402-31.949707-10.2456055-60.2832642-24.4277039-70.8021545l-6.9225159-5.1408997l-5.163208,6.9252319
		c-6.1893005,8.285675-15.4981384,18.0238342-24.7178345,17.2766418
		c-6.4567566-0.5240784-12.0074158-6.1222229-15.3975525-10.6859741
		c8.4194031-11.1127319,11.7176514-22.1752625,11.7176514-31.9134216c0-9.1584167-2.6095886-17.1235046-5.7516174-22.8945313
		c6.5181885-11.0736084,30.6560974-47.1632996,67.679657-47.9913025
		c46.0174255-1.0315247,58.9897156,48.7468262,59.5194397,50.8685608l2.1494751,8.600647l8.5532837-2.3417664
		c28.802063-7.9873657,49.0813599-31.4339294,52.9120483-61.200592
		C610.7495117,359.9372864,593.2581177,327.4245605,560.7897949,308.539032z M551.2272339,446.2652893
		c0,0-14.3633423-58.6495361-68.1089783-57.4367981c-46.633606,1.0427551-75.7589417,51.8861389-77.4736633,57.0243225
		c0,0,19.7023315,25.5875244-6.5598755,53.9685669c0,0,23.13974,45.2452087,57.6236572-0.9869385
		c0,0,35.5849915,26.4017029,21.572876,60.5732117c-12.7741699,31.1243896-69.7427063,21.3499756-84.3987122,6.7385254
		c0,0-0.3986816,43.895874-33.5332031,78.7003784l-0.1143494,0.0083008
		c-33.1986694-34.7236328-33.70047-78.6195068-33.70047-78.6195068
		c-14.6253662,14.6478271-71.5576172,24.5560303-84.4126282-6.5375977
		c-14.1014557-34.135376,21.4445801-60.6150513,21.4445801-60.6150513
		c34.5730591,46.1540527,57.6180115,0.8334656,57.6180115,0.8334656
		c-26.3317871-28.3113098-6.6853027-53.9575195-6.6853027-53.9575195
		c-1.7286682-5.1269531-30.960022-55.9034729-77.60466-56.8289795
		c-53.7512665-1.0956726-67.9725037,57.5845032-67.9725037,57.5845032
		c-56.394043-15.5008545-67.467804-94.0254211-5.5227509-130.2294617
		c78.5859833-45.936615,147.3138123,23.6052856,147.3138123,23.6052856
		c-6.414917-26.0670166-8.2912903-45.5657959,4.4747314-83.7018738
		c17.3129272-51.6936798,38.5987549-97.9258423,44.5230713-125.8301086
		c5.9772644,27.898819,27.3578796,74.055603,44.7992554,125.7186584c12.8662415,38.1025391,11.0513,57.5986023,4.6697388,83.6935425
		c0,0,68.5689392-69.7120667,147.2692871-23.9537964C618.4692383,352.0697021,607.5852051,430.6446228,551.2272339,446.2652893z"/>
	<path class="st1" d="M501.3345642,313.5518188c-64.0469055,0.0612488-116.5658875,72.7955627-116.5658875,72.7955627
		c2.2805176-11.8988953,29.660675-65.4466553,4.884491-129.4489441
		c-24.7790833-63.9912415-29.8364258-89.7739258-29.8364258-89.7739258l-0.0027466,0.0193939l-0.1170654,0.7332306v-0.7136536
		c0,0-5.0098877,25.7826843-29.6356506,89.846405c-24.6313782,64.0581055,2.8827209,117.5444336,5.1799011,129.4210205
		c0,0-52.6833496-72.5974731-116.7274933-72.5222778c-64.0358276,0.0697632-117.3548813,72.9544983-58.1756287,115.9888306
		c0,0,17.318512-53.7733765,77.0080719-53.8850098c43.8985596-0.0918884,87.8752441,46.9960327,89.7347717,70.3338318
		c0,0-20.0952148,28.3754272,7.8453064,52.1202698c0,0-30.1849365,63.5004883-72.0371399,17.7590332
		c0,0-32.1838226,40.2631226,9.9026794,50.0125122c33.3909607,7.7253418,66.2773743-26.1507568,66.2773743-26.1507568
		s-3.5881958,53.5059204,21.1435852,82.7539063v-0.2647705l0.1226807,0.2508545
		c24.66745-29.2955322,20.9512939-82.8068848,20.9512939-82.8068848s32.9699707,33.8035889,66.3636169,25.9918213
		c42.0559387-9.8414307,9.7689819-50.0349121,9.7689819-50.0349121
		c-41.7324219,45.8334961-72.0511169-17.5861816-72.0511169-17.5861816
		c27.8652954-23.8173218,7.7001343-52.1398315,7.7001343-52.1398315
		c1.801178-23.3180847,45.6578979-70.526123,89.5733337-70.5400696c59.7006531,0,77.1418152,53.7177429,77.1418152,53.7177429
		C618.8596191,386.2524109,565.3676758,313.4680786,501.3345642,313.5518188z"/>
</g>
</svg>
