<?xml version="1.0" encoding="utf-8"?>
<!-- Generator: Adobe Illustrator 22.0.1, SVG Export Plug-In . SVG Version: 6.00 Build 0)  -->
<svg version="1.1" id="Layer_1" xmlns="http://www.w3.org/2000/svg" xmlns:xlink="http://www.w3.org/1999/xlink" x="0px" y="0px"
	 width="720px" height="720px" viewBox="0 0 720 720" style="enable-background:new 0 0 720 720;" xml:space="preserve">
<style type="text/css">
	.st0{fill:#FFFFFF;}
	.st1{fill:#013369;}
	.st2{fill:#D50A0A;}
</style>
<g>
	<path class="st0" d="M580.1774292,110.1295929l-0.5732422-0.4094315
		c-19.6586914,14.7439957-58.9761963,34.4026566-108.1229858,22.1159134C384.6552429,110.5391922,360.0819092,36,360.0819092,36
		s-24.7371521,74.4572678-111.3992615,95.8360748c-49.8839417,12.2867432-88.4641571-7.5357513-108.9420166-22.0341568h-15.5631866
		v401.3652344c0,10.6485291,2.4574127,30.3072205,18.9215546,50.7850647
		c20.3959351,24.5733032,54.7985992,40.3822632,102.3891296,47.2626953
		c38.498291,5.4880981,66.3480835,17.4471436,86.0067444,36.5325317C346.2388611,659.7542114,360.1638489,684,360.1638489,684
		s14.3345642-24.7373047,28.3412781-38.2525635c19.8225098-19.0853882,47.9182129-30.9625244,86.006897-36.5325317
		c47.6723022-6.8886108,81.9112549-22.9351196,102.3889771-47.5903931
		c16.4641724-19.9863281,18.9215698-40.0545654,18.9215698-50.1296692V110.1295929H580.1774292z"/>
	<path class="st1" d="M581.2423706,125.2831879c0,0-47.2628174,36.7781677-113.8566589,20.150177
		c-77.5700378-19.4129028-108.1228333-77.4879532-108.1228333-77.4879532s-30.1433411,58.1569672-108.1229706,77.4879532
		C185.6110077,161.8155975,138.102417,124.955513,138.102417,124.955513v385.802063
		c0.0080414,13.105957,5.4880981,68.805481,109.7610474,83.5494995
		c41.0376282,5.9385376,71.6723328,19.0853882,93.3788147,40.300354
		c7.9291077,7.6014404,13.9249878,15.3174438,18.5119629,22.4437256
		c4.6116028-7.1016846,10.6485291-14.8258667,18.5119629-22.4437256
		c22.0341492-21.2149658,52.6690369-34.4026489,93.3788147-40.300354
		c104.0273438-14.9897461,108.9420166-70.6893311,109.7612305-83.5494995V124.955513L581.2423706,125.2831879z"/>
	<path class="st0" d="M555.0307007,511.3309937c0,2.1297607,3.2766113,44.2321777-86.8259583,58.0750732
		c-77.9794617,12.0409546-108.1228333,49.2286987-108.1228333,49.2286987h-0.8190308
		c0,0-29.8156738-37.105835-108.1229706-49.2286987c-89.4798584-13.8428955-86.825943-55.9453125-86.825943-58.0750732V309.0101624
		h390.7167358V511.3309937z M174.4709778,267.8907471l-6.5036469,20.8053894l17.6108551-12.3684998l17.6108398,12.3684998
		l-6.5036316-20.8053894l17.6927643-13.3515167h-21.6245728l-7.1343689-20.4778595l-7.1345215,20.4778595h-21.6245728
		l17.6927795,13.2696075L174.4709778,267.8907471z M251.0579834,267.8907471l-6.5036469,20.8053894l17.6108551-12.3684998
		l17.6110229,12.3684998l-6.5038147-20.8053894l17.6927795-13.3515167h-21.6245728l-7.1343689-20.4778595l-7.1345367,20.4778595
		h-21.6245728l17.6927795,13.2696075L251.0579834,267.8907471z M174.4709778,199.0852661l-6.5036469,20.805542
		l17.6108551-12.3686676l17.6108398,12.3686676l-6.5036316-20.805542l17.6927643-13.351532h-21.6245728l-7.1343689-20.4778595
		l-7.1345215,20.4778595h-21.6245728l17.6927795,13.2696075L174.4709778,199.0852661z M251.0579834,199.0852661
		l-6.5036469,20.805542l17.6108551-12.3686676l17.6110229,12.3686676l-6.5038147-20.805542l17.6927795-13.351532h-21.6245728
		l-7.1343689-20.4778595l-7.1345367,20.4778595h-21.6245728l17.6927795,13.2696075L251.0579834,199.0852661z
		 M551.7542114,288.2867126l-0.0942993-0.0661621l0.020752,0.0661621H551.7542114z M534.1025391,233.6517792l-7.1345825,20.4778442
		h-21.6245422l17.6927795,13.3515472l-6.5036621,20.805542l17.6108398-12.3686829l17.5165405,12.3025208l-6.4912109-20.7393799
		l17.692749-13.3515472h-21.6245728L534.1025391,233.6517792z M439.5359497,288.2867126l17.6108398-12.3686829l17.526825,12.3096008
		l-6.4933472-20.74646l17.6927795-13.3515472h-21.6245728l-7.1425781-20.4778442l-7.1345215,20.4778442h-21.6245728
		l17.6927795,13.3515472L439.5359497,288.2867126z M474.757782,288.2867126l-0.0841675-0.059082l0.0185242,0.059082H474.757782z
		 M551.7542114,219.4812012l-0.0942993-0.0661469l0.020752,0.0661469H551.7542114z M516.5325317,219.4812012l17.6108398-12.3686676
		l17.5165405,12.3025208l-6.4912109-20.7393799l17.692749-13.351532h-21.6245728l-7.1343384-20.4777069l-7.1345825,20.4777069
		h-21.6245422l17.6927795,13.351532L516.5325317,219.4812012z M474.757782,219.4812012l-0.0841675-0.0590668l0.0185242,0.0590668
		H474.757782z M439.5359497,219.4812012l17.6108398-12.3686676l17.526825,12.3096008l-6.4933472-20.74646l17.6927795-13.351532
		h-21.6245728l-7.1425781-20.4777069l-7.1345215,20.4777069h-21.6245728l17.6927795,13.351532L439.5359497,219.4812012z
		 M301.4989319,255.8874359c-9.8293152-72.4096222,42.348175-114.7618256,99.1127014-115.4949036
		c3.8580627-0.050705,5.3078308,0.6585693,5.3078308,0.6585693s-12.5323486,4.750824-26.948822,15.7270203
		c0,0-3.4893799-1.4170837-7.0935059-2.3344421c-2.3344421,1.523468-4.7015686,3.0961761-6.9296265,4.6935272
		c6.7167053,1.6382141,15.3174133,5.1029663,23.6723633,11.9590759c1.8347473-1.736557,3.8088379-3.5877075,5.7419128-5.2996521
		c-1.8593445-1.5480804-5.1029663-3.8252411-7.9862366-5.4552612c12.7781067-12.589798,21.9520874-17.3652496,21.9520874-17.3652496
		l-0.1145935-0.0360565c1.8102722-0.1638336,2.8758545,2.0804901,3.4238586,3.4320831
		c7.7979431,19.2490692,9.706543,42.8395233,3.8825684,65.3652039c-9.0101624,34.320755-37.7610474,66.077713-99.9317322,74.1295929
		c-1.3269653,0.1720581-2.9717712-0.2423706-3.1290283-1.0483704c2.8668518-13.0240173,9.8293457-38.0069427,24.9829407-64.4642639
		c2.9815979,1.6546478,5.6846008,3.4649048,8.35495,5.5700226c0.8764954-1.5236359,2.1133118-3.4484863,3.9400024-6.4054718
		c-7.6178284-6.0777893-16.3822021-10.2471313-26.3753967-12.1228943c0,0-1.9085999,3.6778259-3.2846375,6.5610962
		c0,0,3.8414917,0.6880188,8.5186157,2.3672791c-13.449707,28.6689758-17.9876099,55.3720398-19.249054,67.4128723
		C305.5455017,277.5939026,302.5556946,263.5789795,301.4989319,255.8874359z M350.4164124,170.7439728
		c9.3378296,2.047821,18.1760864,6.2089539,26.0477295,12.6961823l0.0328369-0.0162506
		c1.7611694-1.9576874,3.6205444-3.8745117,5.5371704-5.8404083c-5.4061584-4.4641876-13.2695923-9.7145844-24.9829102-12.5323334
		C355.0116272,166.7548828,352.6853638,168.5979767,350.4164124,170.7439728z M338.1296692,184.0135956
		c10.3208618,2.1297302,19.4457397,6.8068542,26.948822,13.1057739l0.0491028-0.0244598
		c1.5891418-2.0886993,3.2764282-4.2839355,5.0784912-6.4465027c-8.846283-7.2982178-18.970459-11.4593506-26.8667297-12.8600311
		C341.5617371,179.80336,339.7106018,181.9739838,338.1296692,184.0135956z M328.0545959,198.8395081
		c9.2560425,1.7201385,18.6921997,5.8730774,26.7849731,12.6144257v-0.0083618
		c1.4006653-2.0804901,2.9651794-4.3412323,4.6198425-6.7003174c-6.4709778-5.4060211-15.6451111-10.6976166-26.9488525-12.9419403
		C330.8969727,194.2034302,328.0545959,198.8395081,328.0545959,198.8395081z"/>
	<path class="st2" d="M256.2861633,329.5290527h54.9624329v24.901001l-11.4675598,6.7575989v195.7679749l-29.3241577-8.7645264
		l-42.4300842-125.3242493l-0.0082092,82.7304382l13.5153656,10.3206787v25.4744873l-58.8942413-14.9898071v-21.7064514
		l13.5153809-5.2750244V360.9911499l-13.8428955-6.8396912v-24.901001h44.5596771l41.4694366,127.3471069l-0.0141602-95.4099121
		l-12.0409851-6.7575989V329.5290527z M323.3856812,354.5119934l12.7781067,6.4791565v174.4708862l-12.8600159,5.2752075v21.1330566
		l58.40271,21.7883911v-24.901001l-11.6231689-13.8833008V448.300415h19.6586609l7.3310242,10.5664368H412.6362v-52.1775208
		H397.072998l-7.6176758,11.1400452H370.124176v-58.6484985H395.9263l6.7495422,20.8053894h22.2797852v-50.7029724H323.3856812
		V354.5119934z M513.649292,462.7658081l-4.8164978,38.3344727l-25.1467896,6.7904358V361.2695923l11.4675598-6.479187v-25.2286682
		h-58.40271v25.2286682l12.3686523,6.479187V516.901001l-14.49823,11.8771362v24.901062l-0.1802673,0.6633911
		l103.2081604-27.5220947v-64.0546875H513.649292z"/>
</g>
</svg>
