<?xml version="1.0" encoding="utf-8"?>
<!-- Generator: Adobe Illustrator 22.0.1, SVG Export Plug-In . SVG Version: 6.00 Build 0)  -->
<svg version="1.1" id="Layer_1" xmlns="http://www.w3.org/2000/svg" xmlns:xlink="http://www.w3.org/1999/xlink" x="0px" y="0px"
	 width="720px" height="720px" viewBox="0 0 720 720" style="enable-background:new 0 0 720 720;" xml:space="preserve">
<style type="text/css">
	.st0{fill:#FFFFFF;}
	.st1{fill:#004851;}
	.st2{fill:#A2AAAD;}
</style>
<g>
	<path class="st0" d="M629.8110962,238.1392059C662.2727661,187.5016022,684,136.934494,684,136.934494
		s-74.9833374,13.8437042-173.6560364,43.0599365l36.153717-35.3645782c0,0-112.8353882,36.911438-164.5680237,58.411438
		l31.5809326-33.1121826c-77.2539063,35.8819733-119.5768738,55.6127777-186.9222412,98.5185242
		c-68.3539581,43.556427-68.4140778,79.3731384-154.3955383,116.9065857
		c1.3824234,4.7686462,5.7722778,12.4954224,12.9213943,18.6412048C52.7702751,432.0670471,36,464.1157532,36,464.1157532
		s3.4099693,50.0575256,21.2647514,64.9543152c26.5821724,22.1923218,52.5241661,25.4769287,71.5339355,21.4320679
		c27.162384-5.7774048,43.8516388-23.4544678,43.8516388-23.4544678
		c0.1542206,35.2888184,24.4421997,56.0178223,24.4421997,56.0178223s30.8414001-13.9064941,58.649231-47.9331665
		c14.5049438-17.7501831,28.5498962-47.0787048,31.8814087-58.6256409
		c3.2114258-5.2914429,28.8948669-18.4976501,45.7826843-14.105072c18.7354736,4.852356,0.5983887,50.6166992,0.5983887,50.6166992
		s41.9756165,19.218689,94.3352051-18.704071c0,0,36.3001404,9.6525879,106.841095-53.2035522
		c49.0516968-43.7157593,86.2192993-97.2800903,86.2192993-97.2800903l-23.8543701-5.9341431
		c42.6235962-44.0685425,79.5325317-105.2105408,79.5325317-105.2105408S636.09021,237.4625092,629.8110962,238.1392059z"/>
	<path class="st1" d="M658.4994507,244.2381134c0,0-32.1767578,3.7444153-47.6065674,5.2207794
		c31.8630981-45.3254547,55.8062134-98.6806946,55.8062134-98.6806946s-73.263855,12.1088104-188.7722473,47.8730774
		l32.6939697-31.9806213c0,0-112.6549988,38.3485718-165.9999084,61.9676514l27.0081787-28.3146667
		c-47.94104,21.3980865-87.38974,43.6140137-124.8499756,66.2034607
		c-80.3686676,48.4505615-90.1282501,91.8084412-161.3121338,122.472168
		c1.3379288,3.0390015,6.6344604,10.7709045,13.6008072,15.3331604
		c-35.3358803,28.6963196-53.4676857,61.9233093-53.4676857,61.9233093s3.0415573,43.0155945,17.7241592,55.7226563
		c24.8158684,21.4921875,48.453289,22.4824219,63.7159462,19.3625488
		c24.2748871-4.9595337,38.1603699-20.2797852,38.1603699-20.2797852s-30.0914917-10.0861816-24.875824-22.0146484
		c7.3791046-16.8930664,37.6613464-23.3838196,41.5469055-17.4393005c1.2725372,1.9572144,3.5720062,6.4907532,1.7820892,18.1056519
		c-8.2074585,53.2951355,15.4586639,71.502655,15.4586639,71.502655s26.030838-13.2192993,49.5507202-42.1766968
		c13.5588531-16.6946411,27.2328644-45.1764832,30.096756-55.4405212
		c2.6233826-9.4302368,35.5996704-27.0551758,57.1231079-20.2038269
		c27.7973022,8.8581543,9.6760254,52.7228699,9.6760254,52.7228699s40.8024292,15.5475159,89.7860107-30.5409546
		c0.015625,0.1331787,0.4129028,1.8291626,0.4624939,3.6948242c0.0626831,3.3890686-0.5460815,5.5630493-0.5460815,5.5630493
		s28.2231445,6.5953674,91.8502502-49.1116333c49.8432007-43.6556396,78.5184937-86.2113037,78.5184937-86.2113037
		s-21.5730591-4.9202881-26.8565063-5.7016296C626.3226929,298.1550903,658.4994507,244.2381134,658.4994507,244.2381134z"/>
	<path d="M640.7440186,169.7487335c0,0-64.1627808,13.5041656-94.8735962,20.0706787
		c-57.65625,12.317749-103.4258728,27.9958649-103.4258728,27.9958649l27.6065369-26.746933
		c0,0-88.5211182,27.9462585-140.7711182,53.5877838c-5.7826538,2.837738-19.0437622,8.5106506-19.0437622,8.5106506
		l15.842865-19.9504242c0,0-41.993927,17.9279938-96.8515472,54.4265289
		c-49.791214,33.1226807-72.7256317,77.6929626-131.2050018,104.5076599c0,0,3.7705688,6.3027344,15.9055405,10.9512939
		c-11.4450378,8.210022-39.05159,30.2875061-60.0002403,65.0117493c0,0,3.9743919,38.5812378,14.6564445,47.7189941
		c43.5538788,37.2538452,81.2021561,7.1989136,81.2021561,7.1989136s-26.0700684-11.54953-18.6281281-28.0036926
		c9.242218-20.4338379,38.5211334-23.9615173,46.2294159-23.6087341c0,0,19.349472-0.9484558,14.2409821,29.6368103
		c-6.9349365,41.492218,9.231842,59.9114075,9.231842,59.9114075s50.6010895-28.9888306,70.5331726-90.6143799
		c7.6771851-23.7262268,107.7897644-56.6658325,84.1915588,29.7806702
		c19.4303284,4.4968567,66.2374268-12.7044983,81.5627441-40.723938c3.2061462,4.0161743,5.8583984,9.8458557,6.3183594,16.6763306
		c40.8518677-3.2036133,113.9381104-81.0871582,138.3931885-120.7529297
		c-6.5142212-2.6991272-18.21521-4.8131104-21.0634766-5.4036865c50.6166992-48.2911072,73.036499-93.3787537,73.036499-93.3787537
		s-20.8518677,1.1339417-40.1935425,2.5005798c32.0174561-44.9882965,47.0919189-89.2973328,47.0919189-89.2973328
		L640.7440186,169.7487335z M221.8953094,397.0552368c-8.100296,4.8392639-17.708374,3.6582947-21.4816437-2.6025085
		c-0.4703217-0.7918396-0.8256683-1.6331177-1.0790863-2.4954529c1.201889-0.6741638,2.3647003-1.4084473,3.4909821-2.2131958
		c0.1645966,0.7602539,0.4154663,1.4945374,0.8231201,2.1766663c2.6678772,4.4394531,9.6262512,5.1658936,15.5552979,1.6331177
		c5.928894-3.54599,8.5733337-10.0026245,5.9158173-14.4369812c-1.5025177-2.5111084-4.4002228-3.7914734-7.6770172-3.8281555
		c1.1105042-1.3717346,2.1243591-2.6573486,3.0337524-3.7861938c3.9456787,0.4390869,7.3529358,2.2811279,9.2631073,5.4507751
		C233.5076447,383.2324219,229.9957733,392.2264709,221.8953094,397.0552368z"/>
	<path class="st0" d="M539.9782104,306.4096069c0,0-38.0535278-2.0146484-54.6826477-1.6409607
		c-49.6526184,1.1052246-100.8312073,21.0609131-100.8312073,21.0609131
		c32.3204956-8.1395264,67.7530212-2.1348572,67.7530212-2.1348572
		c-13.7732239,0.7891235-47.6536255,9.8432922-64.6591492,16.8436279
		c-24.4892273,10.0862122-49.2527771,24.4447327-67.2852478,37.7214661
		c-7.2956848,4.327179-11.1994324,7.180542-11.1994324,7.180542s9.2553101-4.9751587,24.8418884-10.9825134
		c26.5536194-8.9364929,71.5393677-16.9061584,121.5002747-0.1280823
		c-77.0083008-15.3356934-137.8394775,20.7265015-137.8394775,20.7265015
		c44.1025085-14.4081421,72.0749207-0.8178406,72.0749207-0.8178406
		c-53.4571533-6.4960327-93.3238831,21.6278992-107.0474854,39.1743774
		c7.7266235-15.6128845,19.1482239-25.6807556,19.1482239-25.6807556c-2.7516174,1.3613586-5.4691162,2.9187622-8.1553345,4.6329041
		c-11.019043,6.3469238-56.1092529,29.2474976-95.2732849,4.9176025c-2.4248199-1.5128784-4.470871-2.9160461-6.2424316-4.2434387
		c13.0154877,6.8173828,34.5049591,7.4052429,43.4258118-1.3771667
		c-31.2308807,8.0637512-36.7809906-6.1954041-37.4473267-15.0666504c-2.0146179,0.3815002-5.2547455,0.1333313-7.6770172-0.4310913
		c0,0,5.118866-2.1714172,7.6561279-3.4831848c0.4363556-0.222168,0.8570709-0.4755859,1.2883301-0.7186279
		c0.253418,0.8623352,0.6034851,1.7037964,1.0790863,2.5007324c3.7705688,6.2660522,13.3760834,7.4313965,21.4816437,2.5973816
		c8.0924835-4.8236389,11.6043701-13.8255005,7.8338013-20.0968323c-1.8996429-3.1694641-5.3070679-5.0169373-9.252594-5.4611206
		c2.8063202-3.2610168,8.2178345-10.4756775,16.5560913-16.4750671c-6.1459503,7.3634644-8.1108246,12.3569946-8.3435059,12.9841003
		c3.7601929,0.5905762,7.0735168,2.1948242,8.6621552,5.1789856c3.1252899,5.8636475,0.9929657,10.4624329-0.1462402,12.814209
		h-0.0052643c-2.0903931,4.4185486-5.9681244,8.7771606-11.191452,12.0695801
		c-7.0735321,4.4656067-14.8263092,5.8583984-20.5253754,4.2514343c0,0,1.0165558,1.8656616,2.6731415,2.9656372
		c2.7594299,1.8422241,10.8884277,4.5206299,22.6548309-0.7969666c4.3585968-1.9753723,7.6405029-4.2147217,10.1359711-6.4880371
		c8.8450928-6.6344604,9.8144531-15.121521,12.9684448-22.5765381c7.447052-17.6013489,22.832489-32.8482056,40.7525024-39.1769409
		c-17.0342102,2.077301-37.8729858,17.4418945-37.2642212,10.5827026
		c0.2822876-3.1983337,9.4173279-33.6061096,65.3934326-56.8802185c1.0165405-0.3709412,2.0303955-0.7420654,3.0729675-1.1026917
		c0,0-27.1701965,4.2018433-68.1239929,28.6256714c-16.0988312,9.6080933-30.5723419,22.8848267-37.8967438,32.9632263
		c0.3162689-6.6266479,3.8986359-13.049469,6.0674896-18.1134644
		c-15.2339478,9.8144531-11.4423218,23.4753723-22.9187775,36.7913513
		c-5.0274811,5.3670044-10.3240051,10.4963989-15.9393463,14.1468811
		c-32.4590759,21.1261597-64.4972687,7.9880066-64.4972687,7.9880066
		c43.4963074-23.5198669,42.1925049-28.8164063,70.8519897-59.2005615
		c32.1297302-34.058075,51.8632507-51.6018677,105.9319-78.1162567
		c-3.5407715,4.5571442-18.1474609,17.3739166-21.3014526,21.0216827c0,0,10.8440857-5.8060608,31.3901978-15.5551453
		c72.8536987-34.5964966,126.6505737-47.4708405,126.6505737-47.4708405l0.0181885,0.0027008
		c0,0-13.3185425,9.5323181-22.5267639,15.6414337c-12.4903259,8.2911987-23.561676,16.2973938-23.561676,16.2973938
		s0.4861145-0.2089233,1.3824158-0.5931244c104.8839111-32.8716583,191.5264282-22.5921478,191.5264282-22.5921478
		c-56.6999512,5.4663849-102.5609741,16.2294617-126.8856201,27.3453064c0,0,33.5877686-5.7670135,50.6637573-5.7617493
		c16.7128906,0,30.3712769,1.6226196,30.3712769,1.6226196c-106.8594971,16.6710663-164.3484497,47.5544281-178.3569031,55.8794403
		c-5.8349609,2.4798279-8.8869019,4.0267029-8.8869019,4.0267029s17.426239-5.4585876,39.5166626-10.9354858
		C428.2115479,286.9060364,485.0942993,290.1148987,539.9782104,306.4096069z M204.9315796,388.1448975
		c0.2299805,0.6583557,0.7891388,1.7977295,2.0878296,2.7567139c2.2916565,1.6880188,5.8139038,1.3979187,5.8139038,1.3979187
		c-3.0937042-2.3307495-3.6686554-5.5159912-3.5144348-8.0270996
		C207.9313507,385.6180115,206.4733276,386.92453,204.9315796,388.1448975z"/>
	<path class="st2" d="M445.6717529,353.6165161c27.2928467,0.6950378,56.1197815,6.2449951,83.8569336,20.1489868
		c-4.4003906,9.4354858-15.5344238,23.4674072-33.2950745,40.9484863
		c-16.9141541,16.6423645-28.155365,21.4346008-31.0844727,23.0259705c-0.4677734,0.253418-0.7081299,0.3684082-0.7081299,0.3684082
		c-6.0360718-22.8455811-56.2923279-44.5911865-128.6128845-26.6580811
		c-30.5252991,7.5752563-43.7680664,17.0316772-56.1381226,28.69104c0.8779907-2.3386841,1.8789063-4.583313,2.9345703-6.7232971
		c13.7183228-17.5490417,53.5746765-45.6887512,107.0371094-39.1874695c0,0-27.9671326-13.5851746-72.0749207,0.8256836
		c0,0,60.8362732-36.0752563,137.8418579-20.7368469c-49.9634705-16.7782593-94.9517517-8.7980652-121.510498,0.1280518
		c23.4283447-9.0489197,61.1576538-20.457428,103.2664185-20.8937988h0.005249
		C440.0013733,353.5274963,442.8287354,353.5458374,445.6717529,353.6165161z M248.7049103,383.5301819
		c0,0,0.0810242,7.3583679-7.7580414,14.4787903c8.8503571-6.63974,9.8144531-15.12677,12.9684448-22.5843506
		c7.4575806-17.6011963,22.8350525-32.8456726,40.757782-39.174408
		c-17.0367737,2.0774841-37.8729858,17.4498596-37.2667847,10.5879822
		c0.2848511-3.1983337,9.4224243-33.6164856,65.3907166-56.8853149l0.005249-0.0027161
		c-0.5827637,0.2012634-1.9544983,0.7030029-2.0563965,0.7447815
		c-51.2935791,19.1404114-78.2625122,49.5454712-74.2724915,64.9412842
		c1.4972534,5.7826538,11.5364075-0.1932983,11.5364075-0.1932983s-13.5666656,11.4893799-19.0043488,23.8961182
		c-0.0339661,0.6872253,0,3.1747131-1.7873535,6.6735229c1.3221436,0.3057251,2.699295,0.4992065,3.8594055,0.3789368
		C244.5868225,386.0047607,248.7049103,383.5301819,248.7049103,383.5301819z M447.6758423,273.4438477
		c41.5209045-8.2258301,89.7598267-10.2744141,109.182373-12.2107544
		c27.6953735-26.7494659,38.5759888-60.5174408,38.5759888-60.5279541
		c-0.1122437,0.0105133-48.2859497,3.9013367-102.973877,14.0502319
		c-56.9349365,10.5696106-93.7184753,25.4220734-101.0663147,28.5288544
		c104.8788147-32.8743744,191.5160828-22.5894318,191.5160828-22.5894318
		c-56.7025146,5.4689331-102.5557251,16.2372742-126.8856201,27.3529663c0,0,33.5982666-5.7721252,50.6742859-5.7721252
		c16.7076111,0,30.3710632,1.6253357,30.3710632,1.6253357c-106.8672791,16.6736145-164.3509827,47.5595093-178.3646851,55.879425
		C372.9043274,293.7652283,403.6569214,282.1659546,447.6758423,273.4438477z M494.9819641,279.7542114h0.005249
		c-21.3432007,0.1776733-43.7368164,1.3719177-63.7524719,4.4499817
		c-13.8097229,2.1269226-28.6805115,5.3984375-41.8840637,8.6621704
		c38.8739319-5.9628601,95.7566833-2.7541504,150.6404724,13.5379639c0,0-38.0584717-2.0119019-54.6852112-1.6409607
		c-49.6526184,1.1054077-100.8415833,21.0687561-100.8415833,21.0687561
		c32.3230286-8.1473389,67.7633667-2.1452332,67.7633667-2.1452332
		c-13.7757568,0.7943726-47.6536255,9.8432922-64.6591187,16.8434753
		c-24.4917908,10.0863647-49.2553406,24.4501648-67.2904968,37.7241821
		c28.8765259-17.1256104,110.9906006-57.3687134,215.2003479-35.1607666c0,0,6.8148804-5.2416687,24.9465332-25.1372375
		c19.2344971-21.0896301,23.3186035-34.102417,23.3186035-34.102417S541.9299927,279.3622131,494.9819641,279.7542114z
		 M272.8257446,432.3467712c-2.8978577,5.1293945-4.1704102,10.7838135-6.0596924,17.4680176
		c-14.5832214,67.8182068-63.7157745,97.2094421-63.7157745,97.2094421
		c-8.9470062-20.3135986-3.9378662-39.9399414-2.4197083-47.2904968
		c3.4700928-16.7441101-4.5780487-29.2108154-4.5780487-29.2108154
		c32.3257446,1.5285339,0.6428833,41.7952576,12.6470795,59.3259583c21.7220001-12.6418457,34.8157959-57.133667,38.05336-73.015564
		c0.222168-0.5983887-3.0702667-2.9292908-5.7250671-3.9142761c-31.2021637-10.0340576-83.5304871-1.4450989-102.4434509,9.9973755
		c-59.2370987,35.8583374-3.817627,60.4469299-3.817627,60.4469299s-36.4803467,12.1844482-57.3610535-20.7971191
		c-5.1214142-8.743042-6.4122925-24.6798401-7.5333252-37.1439514
		c21.7194443-36.7546692,55.8507309-51.3667908,65.338562-57.9096985
		c8.2232513,2.2288208,23.1304169,3.2506409,34.8786316-0.3475342l0.0103607,0.0025635
		C170.0948944,407.1676025,209.7029266,457.2199097,272.8257446,432.3467712z M171.2864075,422.8666077
		c-9.2031403-0.8727112-12.7071991-2.8063049-16.0883026-5.5788269h-0.0027161
		c-7.8677673,4.0763245-13.7523193,7.2406616-13.7523193,7.2406616c-4.64328,6.9559937,5.1319427,5.5788269,9.6603851,4.2305298
		C154.7668457,427.671936,171.2864075,422.8640442,171.2864075,422.8666077z M352.6899719,421.9284973
		c-39.4643555,0.8519897-57.5674438,18.5054932-57.5674438,18.5054932s18.2284546-13.7236023,49.1586914-8.7510071
		c45.7592468,7.3556824,44.4527283,36.1928101,44.4527283,36.1928101s20.5931702-8.8659973,31.0139771-26.9767456
		c0,0-12.9266663-12.3255615-36.2870483-16.4594421C372.0316162,422.4249878,361.7964478,421.72995,352.6899719,421.9284973z"/>
</g>
</svg>
