<?xml version="1.0" encoding="utf-8"?>
<!-- Generator: Adobe Illustrator 22.0.1, SVG Export Plug-In . SVG Version: 6.00 Build 0)  -->
<svg version="1.1" id="Layer_1" xmlns="http://www.w3.org/2000/svg" xmlns:xlink="http://www.w3.org/1999/xlink" x="0px" y="0px"
	 width="720px" height="720px" viewBox="0 0 720 720" style="enable-background:new 0 0 720 720;" xml:space="preserve">
<style type="text/css">
	.st0{fill:#A5ACAF;}
	.st1{fill:#FFFFFF;}
	.st2{fill:#EEAD1E;}
	.st3{fill:#C60C30;}
	.st4{fill:#00539B;}
</style>
<g>
	<path d="M360.0000916,36C181.3641205,36,36,181.3403168,36,359.9999084v0.0001831C36,538.652832,181.3506622,684,360.0000916,684
		S684,538.649353,684,359.9999084C684.0169678,181.3471527,538.6697998,36,360.0000916,36z"/>
	<path class="st0" d="M676.8904419,359.9831238c0-174.9899139-141.8878174-316.8777161-316.8946838-316.8777161
		C184.9890747,43.1074753,43.101265,184.9932098,43.101265,360.0000916
		c0,175.0236511,141.8859558,316.9114685,316.9114685,316.9114685l-0.0169678-0.0169678
		C535.0026245,676.8945923,676.8904419,535.0084229,676.8904419,359.9831238z"/>
	<path class="st1" d="M359.9957581,96.4044189c-146.0085449,0-264.3587341,118.367157-264.3587341,264.3587341
		c0,145.9983826,118.3570023,264.3587341,264.3587341,264.3587341v0.0167236
		c145.9984131,0,264.3587341-118.356781,264.3587341-264.35849
		C624.3544922,214.7885437,506.004303,96.4044189,359.9957581,96.4044189z"/>
	<path class="st2" d="M361.7255249,99.3772812c-7.6415405,93.1639175-45.0235901,119.6489639-131.160141,130.7039185
		c61.5253754,3.1161041,123.8139801,27.4618988,130.8210602,131.0533295v0.0016479
		c3.0538025-108.2768707,105.3363037-133.7038879,131.0328369-131.3721313
		C429.0709839,226.3241577,366.5484314,199.5551147,361.7255249,99.3772812z"/>
	<path class="st3" d="M492.4159851,229.7623901c-7.6312256,93.1639099-44.8861389,120.3171692-131.0330505,131.3721313
		c61.5253601,3.1159058,124.387207,30.4293823,131.3926086,134.0210266h0.0016479
		c3.0523682-108.2770996,103.5388489-134.9960327,129.2405701-132.6644897
		C558.4572754,360.1381836,497.2388916,329.9317322,492.4159851,229.7623901z"/>
	<path class="st4" d="M361.4017639,361.1345215c-7.6417542,93.1740723-43.9214783,121.1549377-130.0580292,132.2082214
		c61.5253754,3.1372375,124.6211395,27.1226501,131.636673,130.6937561
		c3.0465698-108.2973633,104.1035767-131.2127075,129.8137817-128.8809509
		C429.4456787,491.7082214,366.2228088,461.3175049,361.4017639,361.1345215z"/>
	<path d="M179.858963,362.9837341c0,2.1355286-0.3852539,2.9885864,3.9000549,2.9229736l-0.0084839,11.8790588
		c-5.0587006-0.1238098-14.6343536,1.5958252-14.6780243-9.5771179l-0.0811462-21.0396423l-3.9646606,0.1308289
		l-0.0430603-9.1531372l4.2047882-0.1324768v-3.6580811l10.6266327-5.8310547l0.0008392-0.0001831l0.0430603,9.6220093
		l4.0457916-0.0877686l0.0430603,9.3793945l-4.0888519-0.0662231V362.9837341z M212.0142059,365.0466003l0.0215149,4.6717834
		c0.0799103,3.1047363-1.209549,6.479187-6.4570465,8.2868042c-5.5683441,1.7347412-9.0506744,0.6924438-12.3013458,0
		c-4.2778625-1.5672607-6.3560333-4.9703064-6.552887-9.7660828v-19.3423767
		c-0.1966705-3.6297302,1.8291321-6.7924194,5.3275909-9.0953979c2.9844666-1.3045654,5.2971802-1.7833862,7.4225464-1.7405396
		l-0.0006104,0.0002136c2.1253662,0.0426331,4.063797,0.6065369,6.3013763,1.3828125
		c4.2853088,2.3319702,6.2088318,5.2185059,6.2597656,9.2487793v12.273407h-16.7323914l-0.0149078,5.4515991
		c0.0217285,3.5566406,7.7920532,4.2851257,7.9887085-0.197052v-1.1292419L212.0142059,365.0466003z M195.6734619,352.6788025
		l7.9158478,0.0296021c0.8671722-3.6820984-1.7949829-5.6623535-4.282608-5.5393982L199.3069,347.16922
		C197.1117706,347.27771,195.0516052,349.023407,195.6734619,352.6788025z M161.4398499,351.9650269
		c-2.1061249-2.9736938-3.6665649-4.3221741-9.3005371-7.0697937c0.1312408,0-1.7779999-0.8164673-1.6395111-0.8164673
		c-5.9616852-1.9021912-8.3298645-5.5455627-6.4783783-9.4226685c1.0203552-2.1572571,4.8823242-3.0181885,6.587677-1.4656372
		c1.1515961,1.0565796,1.4140778,3.3157043,1.5086823,5.0574646l3.9729309-0.0281372h7.3014374
		c0.1529846-5.0286865-0.9251251-7.8576965-2.0038452-9.7524414c-2.8211365-4.9806519-8.1052704-7.4393311-13.6096497-7.4026794
		l0.0010376-0.0002136c-2.5019226,0.0169983-5.0483551,0.549408-7.4306183,1.5948181
		c-2.8641968,1.2534485-4.8473511,3.5272217-6.2467346,6.0196228c-1.3991699,2.5217896-2.1866455,4.5254517-2.361557,7.4043274
		c-0.3643494,6.0782166,2.6749725,12.4845581,8.3963165,16.0559082c4.0085297,2.5070801,6.9451752,2.8352051,10.3486176,6.107605
		c1.8074036,1.7200317,1.6627045,6.1877136,1.0797577,7.215332c-1.6544189,2.9298096-5.9550476,1.8512878-7.0118256,0.7435608
		c-1.0642395-1.1149597-1.5296021-5.1313477-1.3182373-6.7201538l-11.3491058,0.0662537
		c-0.4374084,4.9994812-0.0935669,8.0758667,1.4223633,11.464386c1.5378723,3.4545898,3.6949158,4.751709,6.4934845,6.0927124
		c6.0784302,2.8861389,14.2778778,2.6443481,20.1952515-2.8799133c1.4503021-1.348053,1.9740448-2.9295959,1.9740448-2.9295959
		c1.3774414-3.3452759,2.916153-7.1343689,1.8448639-13.2415771
		C163.3134918,355.200592,162.0739136,352.8613586,161.4398499,351.9650269z M304.088623,337.701416
		c-3.5129395,0.7870483-4.4459534,2.4205627-5.9983215,5.1535034l-0.0447083-4.9781494l-10.3190308,0.1092834v39.6479797h10.515686
		v-22.9797363c0.1165466-2.390564-0.4730225-5.5039978,8.4112244-4.8771667v-12.0758972h-2.5652466L304.088623,337.701416z
		 M241.0210266,365.0466003l0.0215302,4.6717834c0.072876,3.1047363-1.2093506,6.479187-6.4568329,8.2868042
		c-5.5683594,1.7347412-9.0453033,0.6924438-12.3032227,0c-4.2782745-1.5672607-6.3545685-4.9703064-6.551239-9.7660828v-19.3423767
		c-0.1968689-3.6297302,1.8289337-6.7924194,5.3274078-9.0953979c2.9883881-1.3045654,5.2998505-1.7833862,7.4241943-1.7405396
		v0.0002136c2.1243286,0.0426331,4.0619354,0.6065369,6.2995148,1.3828125
		c4.2855072,2.3319702,6.208847,5.2185059,6.2597656,9.2487793v12.273407h-16.7323914l-0.0153198,5.4515991
		c0.0219421,3.5566406,7.7906036,4.2851257,7.9872589-0.197052v-1.1292419L241.0210266,365.0466003z M224.6798859,352.6788025
		l7.9143982,0.0296021c0.867157-3.6820984-1.7947693-5.6623535-4.2826233-5.5393982v0.0002136
		C226.116745,347.27771,224.0582275,349.023407,224.6798859,352.6788025z M283.6343994,348.6925964v12.273407h-16.7775269
		l0.036438,5.4515991c0.0147095,3.5566406,7.7846069,4.2851257,7.9740295-0.197052v-1.1292419l8.7453308-0.0447083
		l0.0134583,4.6717834c0.0873413,3.1047363-1.2012939,6.479187-6.448761,8.2868042
		c-5.5683594,1.7347412-9.045105,0.6924438-12.303009,0c-4.2780762-1.5672607-6.3545837-4.9703064-6.5514526-9.7660828v-19.3423767
		c-0.1966553-3.6297302,1.822113-6.7924194,5.3276062-9.0953979c2.9881897-1.3045654,5.2980042-1.7833862,7.4225464-1.7405396
		l0.0002136,0.0002136c2.1245422,0.0426331,4.0631714,0.6065369,6.3077698,1.3828125
		C281.6593323,341.7757874,283.5905151,344.662323,283.6343994,348.6925964z M270.9035034,347.1690063v0.0002136
		c-2.1951294,0.10849-4.2536316,1.854187-3.6317749,5.5095825l7.9143982,0.0296021
		C276.0532837,349.0263062,273.3911438,347.046051,270.9035034,347.1690063z M334.2174377,363.041687
		c-0.5682373-1.9822998-0.6264038-2.2071228-0.9837036-2.8997803c-2.1206055-4.0447693-4.8469238-4.8320313-7.6674194-5.7797241
		c0.0947876,0-2.6236572-0.627655-2.5288391-0.627655c-4.9703064-0.5611877-5.2762756-3.3731995-4.6204529-5.2826843
		c0.5466919-1.581543,1.8071899-2.1065063,3.4396667-2.1065063c1.3848877,0.0153198,2.7472229,0.98349,3.0024719,2.0036316
		c0.1749268,0.7288818,0.1540222,1.5674744,0.1540222,2.5222168l9.2123413,0.0430603
		c-0.072876-3.5856323-0.7297058-7.3031006-2.7341919-9.3216553c-2.4551392-2.4903259-6.3883057-4.1470337-10.3571167-4.0890808
		l0.0006409,0.0008545c-1.8041077,0.0264893-3.6145935,0.4078064-5.2977905,1.2254944
		c-1.6177979,0.7797852-2.7989807,0.611084-5.5029602,3.9563599c-1.2826233,1.5813599-1.6465454,3.9284363-1.7703552,5.9616699
		c-0.2552185,4.3000183,1.1658936,9.9704285,7.0180664,11.4501343c3.2723999,0.8234863,6.997345,1.2540588,8.7393188,3.8849487
		c0.9549255,1.4358215,0.6769409,2.0328369,0.2467651,3.1333008c-0.6121216,1.5596008-4.0878296,1.5384827-5.4797668,0.9917908
		c-1.3774414-0.5245667-2.2373657-2.1353149-2.0551758-3.5274658l-8.906189,0.0581665
		c0.1674805,3.4399109,0.1968689,5.5249023,1.5084839,8.0682068c1.2681274,2.4634399,3.825531,4.2557068,6.1722107,4.969696
		c4.7808838,1.4503174,10.0432739,1.196106,13.9418945-1.2089233c0.714386-0.4446716,2.7194824-2.2677917,3.5359192-3.7328186
		C334.6262817,370.2862244,335.420166,367.1524963,334.2174377,363.041687z M244.270874,377.9776611h10.7063446v-55.8427429
		l-10.7063446-0.0298157V377.9776611z"/>
</g>
</svg>
