<?xml version="1.0" encoding="utf-8"?>
<!-- Generator: Adobe Illustrator 22.0.1, SVG Export Plug-In . SVG Version: 6.00 Build 0)  -->
<svg version="1.1" id="Layer_1" xmlns="http://www.w3.org/2000/svg" xmlns:xlink="http://www.w3.org/1999/xlink" x="0px" y="0px"
	 width="720px" height="720px" viewBox="0 0 720 720" style="enable-background:new 0 0 720 720;" xml:space="preserve">
<style type="text/css">
	.st0{fill:#FFFFFF;}
	.st1{fill:#B3995D;}
	.st2{fill:#AA0000;}
</style>
<g>
	<ellipse class="st0" cx="360" cy="360" rx="324" ry="191.5826111"/>
	<ellipse cx="359.2956543" cy="361.4086914" rx="314.1391296" ry="183.1304321"/>
	<ellipse class="st1" cx="360.7043457" cy="363.5217285" rx="273.9913025" ry="169.0434723"/>
	<ellipse class="st2" cx="361.4086914" cy="360.7043457" rx="252.1565247" ry="157.7739105"/>
	<path d="M558.4133911,340.1021729v0.0056763h-0.0014038h-0.6930542v-5.7390747h-5.0403442h-94.9770813
		c-2.1440735-11.2554626-8.6226501-21.6938782-17.8566589-29.8446045
		c-9.0958862-10.4609985-22.3193665-18.3271179-37.3628235-21.3149414l-6.2405396-1.2819519
		c-14.4391174-3.0343323-25.8354187-5.4361572-71.7110596-5.2051392c0,0-8.8268738-0.3028259-17.388916-1.4368286
		c-2.1679993-0.5480347-4.0725403-1.2044678-5.7065735-1.9088135c0.6324463-3.8161621,7.6210022-9.0762329,15.495636-10.0975037
		c0.8198242-0.1479797,50.4650879-9.2833405,101.5697632,23.8125916l1.2565002,0.8085327h33.5833435v-51.3948517H447.59552
		v-5.7418213h-46.091095c0,0-5.475647,4.179657-7.7647705,5.9320068
		c-13.2685242-3.3231201-78.2671204-17.5452423-134.3839111,7.0209503
		c-23.5843964,9.7481537-38.2221527,28.1457214-37.185318,46.8250427
		c0.5282593,9.4185791,5.0388641,17.6312256,12.830368,24.0055847c5.7333984,7.1562195,14.7476196,12.7416382,26.490509,16.1225281
		c16.6198425,4.7867737,30.6828003,6.760376,44.3260193,7.5421753v1.6481628v21.7854919h5.7503357v5.7418518h17.5213318
		c7.2575684,0,9.1254883,4.0217896,9.5692444,5.5192261c-22.3630371-1.4636536-56.3787842-7.8309021-81.4127197-31.002594
		l-0.94104-1.0155945h-0.1760864c-1.3791199-1.318573-2.7399292-2.6822205-4.0668488-4.1134338l-1.4974365-1.6256409h-25.2086334
		v73.1620789h5.7446594v5.7333984h20.5528259c3.016098,0.2084045,12.5683899-0.8579102,19.1611633-20.1063232
		c10.6919556,3.7203369,37.0387878,11.6541443,69.4881287,12.5345764v45.5134888
		c-1.1339722,15.2815857-34.7990112,20.0683289-46.5306396,20.5303955l-4.8431702,0.1873474v22.6278687h5.7390747v5.7333984
		h147.8088379v-21.6474304l-3.7696838-1.0015869c-0.6761475-0.1705017-1.3171387-0.3465881-1.9693909-0.5282593v-4.9529724
		l-4.6162415-0.3958435c-8.3071289-0.7353821-14.703949-2.1792297-19.6668091-3.9401245
		c-9.2889404-5.2164001-10.8793945-9.4424744-11.0751648-10.1257629v-24.2689514h43.3229675
		c4.5726929,0.6930847,8.4888,2.696228,11.8147888,5.306488c6.240509,7.6816406,9.0790405,16.4649048,9.1282959,16.6071167
		l1.1044312,3.5527954l3.7218018,0.0238953h0.1141052c0.5169983,1.2988281,0.7930908,2.1242981,0.7973022,2.1679993
		l1.1058655,3.5640259h3.7203369h19.5569153v-88.025177h-5.0445251h-0.6930847v-5.7503357h-5.057251h-18.1144409
		l-0.836731,4.0317078c-6.0757141,29.2487488-39.8942871,28.8177185-69.9670715,24.4338684
		c5.8883362-1.6031189,11.8146973-3.5400696,17.7241821-5.889801c16.1013794-6.3996582,28.1795654-15.1054077,35.7160645-25.2958984
		h64.9155579c4.5289307,0.1450195,8.3746948,1.2705994,11.6104736,3.3893127
		c6.812439,9.9932861,6.124939,24.683136,6.1193848,24.8592224l-0.2803955,5.3206787h5.3262939h0.7155762
		c-0.0055542,0.2366333-0.0112305,0.3901978-0.0112305,0.4127197l-0.2915649,5.3262939l5.3375244,0.011261h20.5360107v-68.1484985
		H558.4133911z"/>
	<path class="st0" d="M261.8703003,381.6277466c-6.1461945,23.1040039-15.7323608,21.6347046-15.7323608,21.6347046h-15.7266693
		v-63.0560608h17.9440155c42.0298462,45.467041,114.049408,37.6825867,114.049408,37.6825867
		s21.3895874-0.5465698,35.3934631-13.7643433c10.9455872-13.3544006,9.2086487-27.6174622-9.486145-33.0958252
		c-6.6645813-2.0229492-16.3001099-2.4596558-27.3850708-2.883606
		c-39.6688232-1.5143738-64.6239014,3.2132263-103.7701416-8.0704346
		c-44.4527588-12.8135071-36.4739075-54.9039612,4.2260742-71.7307434
		c60.5500183-26.5060883,133.4739075-6.1433563,133.4739075-6.1433563l8.3535767-6.3883972h39.3392639v41.3000336h-27.039917
		c-53.5910645-34.7101898-104.9647827-24.5831299-104.9647827-24.5831299
		c-16.7226563,2.1623993-32.9395142,20.5965881-4.4246826,27.723114c9.0958862,1.232605,18.4341736,1.5298462,18.4341736,1.5298462
		c51.734314-0.2675781,58.9046021,2.8173828,76.933075,6.3884888c46.8757629,9.2889404,72.8041992,68.5626526,4.6755066,95.6250916
		C335.8211365,411.7203064,261.8703003,381.6277466,261.8703003,381.6277466z M344.194397,369.7368774
		c20.7120361,3.7697144,38.2108765-1.7496033,46.5658875-9.5001831c8.8592834-8.2211304,6.0588379-20.3768005-14.9730835-20.3768005
		c-20.8993835,0.1182861-50.4396973,0-64.9211426,0v16.7339172h18.6878357
		C342.4899292,356.593811,344.1958618,369.7368774,344.194397,369.7368774z M459.8061523,339.417511
		c0.0027466,0.0000916-0.2184143,12.9882202-4.9445496,18.7145691h53.8036804
		c30.7321777,0.9790649,28.5092163,39.3223267,28.5092163,39.3223267h15.4956665V339.417511H459.8061523z M383.9591675,403.7132568
		c-0.0000916-0.0028381-17.7186584,4.4218445-38.6123962,3.9866333v44.5668335
		c-1.5960388,23.3590393-51.368103,25.29599-51.368103,25.29599v12.7162781h137.705658v-12.7162781
		c-40.9239502-3.5386658-41.1057129-24.3930359-41.1057129-24.3930359v-29.7586975h48.9141541
		c22.3742981,3.193573,30.9743652,31.2280273,30.9743652,31.2280273h14.4997559v-77.9290466h-14.009491
		C461.2176819,423.6533813,389.2826233,402.5342102,383.9591675,403.7132568z"/>
</g>
</svg>
