<?xml version="1.0" encoding="utf-8"?>
<!-- Generator: Adobe Illustrator 22.0.1, SVG Export Plug-In . SVG Version: 6.00 Build 0)  -->
<svg version="1.1" id="Layer_1" xmlns="http://www.w3.org/2000/svg" xmlns:xlink="http://www.w3.org/1999/xlink" x="0px" y="0px"
	 width="720px" height="720px" viewBox="0 0 720 720" style="enable-background:new 0 0 720 720;" xml:space="preserve">
<style type="text/css">
	.st0{fill:#FFFFFF;}
	.st1{fill:#002244;}
	.st2{fill:#69BE28;}
	.st3{fill:#A5ACAF;}
</style>
<g>
	<path class="st0" d="M579.1854858,451.567627c-28.0128784-4.8083801-56.3925781-7.1584167-84.8148499-7.0231628H104.8706131
		c-24.3099899,0-49.7004242,0-62.1255302-19.9879456c-13.5055504-19.9884644-5.9424438-39.9764099,15.6664352-79.4126282
		c1.6206665-3.2413025,68.6082001-128.5728149,68.6082001-128.5728149
		c4.1211395,5.0336456,8.6373291,9.7304688,13.5055389,14.0457764c7.0228882,5.4022217,14.0457764,8.1033325,32.4133148,8.1033325
		c32.953537,0,246.3412476-0.5402222,248.5021057-0.5402222c43.2177429,0,86.9757385,4.3217773,115.0672607,35.6546326
		c15.1262207,1.6206665,62.1255493,7.5631104,101.5617065,26.4708862
		c22.6893311,10.8044434,37.8155518,27.0111084,43.7579956,46.9992981
		c1.5476685,6.1803284,2.274231,12.5376282,2.1608887,18.9077759c0,18.9077759-7.0228882,39.9764404-20.5284424,62.1255188
		c-29.7122192,45.9188843-56.7232666,62.1255188-57.8037109,62.665741
		c-9.6687622,7.0269775-21.0522461,11.3190918-32.9535522,12.4251099
		c8.3759766-9.7511902,14.960144-20.9077454,19.447998-32.9535522
		C597.0127563,453.7285156,579.1854858,451.567627,579.1854858,451.567627z"/>
	<path class="st1" d="M633.2078857,310.5697021c-44.838562-21.6088257-102.1022339-25.9306946-102.1022339-25.9306946
		c-24.8500061-30.7924957-66.9872437-35.1143799-109.664978-35.1143799c0,0-215.0083923,0.5402069-248.5021667,0.5402069
		c-38.8957672,0-42.6774445-15.6663513-42.6774445-15.6663513l-52.4015884,97.7800446h135.5956726
		c42.6777191,0,44.8385162-4.3215942,72.9300385-25.3905029c30.2525635-22.1490173,54.0221863-29.7120972,82.6541748-29.7120972
		c28.0914917,0,46.9992981,5.9421997,78.8722229,19.9882202c31.3329468,14.0457458,48.0797119,21.068634,66.9875183,12.9650879
		c0,0-14.5859375,19.9884949-59.424469,1.080658c-44.8382263-18.3676147-56.723175-22.689209-84.2744751-22.689209
		c-26.4709167,0-57.2636719,12.9650574-95.6192627,51.3209229l45.9189148,36.73526c0,0-10.8045349,16.7467346-17.8274231,27.0110779
		c-7.0228577,10.2640991-6.482666,17.2869568-2.7009888,22.6892395c3.7814026,4.8620605,8.6434631,7.0228577,25.3902283,7.0228577
		H494.370697c29.1540222,0.0469971,58.2511902,2.5770874,86.9757996,7.5630798
		c43.2178955,8.6434937,15.1260986,44.8385315,15.1260986,44.8385315s29.1721802-18.9078369,57.2636719-63.7463379
		C685.6091919,372.1549683,677.5059204,331.6383362,633.2078857,310.5697021z M389.0273132,306.7880249
		c-2.7010193,4.3218689-4.8618164,9.18396-6.4826965,11.8849487c-4.8617859,9.18396-16.7467346,28.6317139,28.6319885,31.8731689
		c39.4359741,2.7010193,53.4819946-2.1607971,63.7460632-17.2872314c6.4376221,1.0823364,13.0104065,1.0823364,19.4480286,0
		c-3.7816772,8.6437683-13.5055542,27.0111084-54.5624084,27.0111084h-44.2983093
		c-23.7696228,0-41.0568542-2.7009888-66.9875488-28.6316833
		C328.5224304,331.6383362,353.9129333,304.6272278,389.0273132,306.7880249z M451.152771,404.0281677
		c-32.4130859-1.6206055-52.9415283,3.2411804-62.6656799,18.3676147h-16.7467346
		c13.5055542-24.3098145,37.275177-29.1719055,63.7460632-29.1719055c55.1026001,0,134.5152893,18.9078369,178.8136292,44.8385315
		C578.6452026,424.5568542,532.1860962,408.8902283,451.152771,404.0281677z M620.7827148,428.3379822
		c-37.8156738-19.4477539-108.5845947-44.8382568-197.7214355-44.8382568
		c-39.4359741,2.1607971-54.0221863,9.723877-74.010437,39.4362488h-21.6088257
		c18.3676453-32.4133606,36.1950684-51.3211975,74.5506287-51.3211975h46.9993286
		c27.5513,0,42.1372375,1.6206055,58.3440857-30.7927856c0.5401917-1.0803833,1.0803833-1.6206055,1.620575-2.7009888
		c7.2479553-18.4640808,23.2778015-32.0592041,42.6774597-36.1947632c0,0-17.2869263,11.3444519,2.7012939,16.206543
		C594.8519897,324.0749817,674.2644653,338.6611938,620.7827148,428.3379822z"/>
	<path class="st2" d="M454.9344482,328.9373169c-0.9523621-0.213501-1.8643188-0.5783691-2.7009888-1.0803833
		c-4.440033,4.6947327-10.8990784,6.9148865-17.2872314,5.9421997c-9.1836853-1.0804138-14.0457458-7.5630798-11.3444824-14.0457458
		c0.1121216-1.1477356,0.4814148-2.2556152,1.0804138-3.2412109c-4.3218689-1.6206055-9.18396-3.2414856-13.5055542-4.8620605
		c-9.18396,14.5859375-14.0457458,24.3100891,17.2869568,27.0110779
		c19.4480286,1.6206055,24.8502808-1.6206055,29.1721497-8.6434631
		C456.5550537,329.4775391,456.0148621,329.4775391,454.9344482,328.9373169z"/>
	<path class="st3" d="M296.6495361,385.1203308c0,0-12.9653625-10.8045349-27.5513-22.149292
		c-14.0457458-10.8045654-21.0686188-12.4251709-47.5395203-12.4251709H68.1355972
		C44.905899,392.6834106,43.2852974,405.108551,51.928772,418.6141052
		c8.6437492,13.5055542,25.9307022,14.5859375,52.9417953,14.5859375h180.4342041
		C273.960022,419.694519,280.4427185,413.2118225,296.6495361,385.1203308z"/>
</g>
</svg>
