<?xml version="1.0" encoding="utf-8"?>
<!-- Generator: Adobe Illustrator 22.0.1, SVG Export Plug-In . SVG Version: 6.00 Build 0)  -->
<svg version="1.1" id="Layer_1" xmlns="http://www.w3.org/2000/svg" xmlns:xlink="http://www.w3.org/1999/xlink" x="0px" y="0px"
	 width="720px" height="720px" viewBox="0 0 720 720" style="enable-background:new 0 0 720 720;" xml:space="preserve">
<style type="text/css">
	.st0{fill:#B1BABF;}
	.st1{fill:#A71930;}
	.st2{fill:#DC4405;}
	.st3{fill:#FFFFFF;}
	.st4{fill:#C2242B;}
</style>
<g>
	<path class="st0" d="M658.1602783,71.8680115c0.0219116,0.3943634,1.4700317,27.7915421-3.7092285,52.9014206
		c-5.0411987,24.4372787-7.8148804,33.7507858-7.8148804,33.7507858
		c-10.671875,6.2550201-27.9492798,13.9516449-53.1994019,18.1537933
		c-47.1305542,7.8587494-89.8991089-4.8002625-136.5893555-23.1315002
		c-46.7011719-18.329071-109.1878052-38.0712509-167.1611328-31.4152985
		c-56.2140503,6.4565735-96.4345703,29.228775-117.8177338,44.074295
		c-21.3831787,14.8345795-25.3202057,18.7584839-43.6470795,23.9990997c0,0,14.4073486,5.6700439,21.8235474,5.6700439
		c0,0-3.4944916,14.4204865-2.1887207,19.2097931c0,0,30.547699-13.9669647,34.0443726-7.4161835
		c3.4944916,6.5485992-10.910675,10.9238281-20.9449921,13.5265961
		c-10.0321198,2.6268921-36.2308731,2.1733704-36.2308731,2.1733704s12.2843552,9.5128937,16.6201553,16.1140594
		c0,0-23.1599884,10.0868835-48.9183731,6.5902252c0,0-0.8544464,9.5391846,20.3161926,25.1580811
		c-4.5088654,1.6147156-10.2183456,4.2306519-13.7544556,8.0033569c0,0,22.1850281-4.574585,36.1257095,10.952301
		c3.667572,4.6030884,4.8703613,8.7241821,4.4562836,13.925354c-0.7602386,9.4318237-4.3752136,13.0336609-13.2593079,18.9030762
		c-5.0828781,2.0660095-10.4856339,4.6556702-15.7021637,7.8434143
		c-24.5336685,15.0755615-42.4749374,38.0208435-55.0660286,64.2327271
		c-5.4575272,11.3510437-9.8174171,24.5446472-12.9000092,36.5091553
		c-3.0804024,12.0324097-4.2152863,22.719574-4.9360924,29.3887024C36.9859047,467.640625,36,488.6250305,36,488.6250305
		s11.004879-15.4195251,16.1666374-22.811615c5.1354637-7.3614197,37.6856346-48.2896118,85.0966644-60.1489258
		c15.1675873-3.855957,30.2672577-5.4684753,44.7030945-5.4684753c34.6972351-0.0262756,65.685318,9.3901672,84.0274963,18.3684998
		c26.6259766,12.8868713,70.3694763,43.3031006,127.7162476,52.8115845
		c13.5003052,2.2303467,28.0544128,3.3345642,43.1409607,3.3345642c14.4730835,0,29.4544373-1.053833,44.4226379-3.0957336
		c-8.4590759,12.6217651-16.5697632,24.4131775-24.279541,35.3392029
		c-7.8171082-7.4425049-18.4232483-8.2180786-18.4232483-8.2180786
		c-12.8605652-1.2137756-19.3017883,6.6186829-19.3017883,6.6186829c-2.6028137,2.8131104-4.5527039,6.4697266-5.31073,10.7792358
		c-0.9070435,3.9874268,0.1708984,8.6299438,0.920166,10.9916992c2.4537964,7.7930298,9.1097717,11.3400879,11.6993713,12.4727783
		c-18.7956848,25.0397949-24.2532043,53.8676147-24.2532043,53.8807983l-8.5751953,7.5629272l3.0935669,12.5407104
		c-4.7761536,15.380127,2.7210999,26.9195557,12.4487,31.6957397c9.8699951,4.8572388,19.0892944,2.0419312,19.0892944,2.0419312
		c5.8014832-1.6278687,11.0574341-5.2822876,14.6329956-10.6456299c0.5499268-0.8128052,1.0297241-1.6387329,1.4525452-2.46698
		c2.0025024-1.0801392,3.7223511-2.2938232,5.1902466-3.6018066c2.7079468,0.3067017,9.6443176,0.5192261,9.6443176,0.5192261
		c14.2189636-0.1204834,28.1223755-4.1495972,38.7263184-13.1541748c8.3516846-7.4709473,17.542511-20.2110596,17.860199-37.6199341
		c0-3.2666016,0.6002808-16.4470825-10.2818909-27.9338989c68.6890564-100.8492432,113.280426-165.7743225,141.7489319-231.825531
		C722.7610474,145.5325775,658.4735718,72.5230865,658.1602783,71.8680115z"/>
	<path d="M663.7316895,101.9994278h-0.008728c-0.7624512,36.5244675-10.7661133,61.9629898-10.7661133,61.9629898
		c-14.2999878,8.5642242-33.8186646,17.7024536-56.1066895,21.0107117
		c-46.5697632,6.8860016-69.4492798-0.0788727-112.5771179-13.8727722
		c-43.1015625-13.7938995-107.7878113-43.5550537-174.1720276-43.1146851
		c-66.4061279,0.4250336-113.8040161,29.2550659-156.2614288,62.0418549
		c0.6528931-0.1993713,11.0727997-3.4528503,14.8345642-4.6950989c0,0-9.9116211,11.6336823-12.9263,18.1012115
		c0,0,19.7575226-14.7666473,46.8764648-13.1914063c0,0-9.4318237,2.3617859-13.3666687,8.2575073
		c0,0,11.0048828-2.3727417,12.9657288,1.9630432c1.973999,4.3226318-4.7082367,14.1531982-16.8874359,19.6501465
		c-12.1791992,5.5101166-31.842514,9.8305664-44.4226532,10.619278c0,0,12.593277,3.9370422,20.8376312,11.7936249
		c0,0-9.6048889,1.3736877-20.0489044,5.4969635c-8.697876,3.4397125-24.3737488,5.5101013-31.0559845,4.7213898
		c0,0,9.1513748,8.5641937,20.0489044,15.3275299c31.9082489,19.7947693,18.4364166,49.1440125,8.1654816,58.7598877
		c-6.7632904,1.9214172-77.2664032,21.1049194-93.4198914,134.9220581c0,0,35.7247849-49.8385315,89.8180542-63.6061401
		c54.1064148-13.7654114,106.5587311,0,134.0917358,13.4346008c27.53302,13.4477234,70.1547546,42.9416199,125.5581665,52.1324158
		c30.4666443,5.0565796,67.1510315,4.1364136,102.6633301-2.6553955
		c-0.5740051,0.8807373-27.6688538,41.182312-39.3134766,57.4299927c0,0-8.6431274-10.8580627-20.3424988-11.9381714
		c0,0-4.9098206-0.9859009-8.8862915,1.0800781v0.0131531c-3.5098267,1.6146851-6.5091553,5.0697327-7.4841003,9.8590393
		c-0.9837341,4.8572388,0.7755737,8.6190186,3.0694275,11.2853394c2.1865234,2.5479736,4.9361267,3.8406372,7.1620483,4.440918
		c1.9893494,0.4797974,4.7498779,1.6935425,5.2713318,4.3226318c-5.3370667,8.2180786-12.645874,20.0905762-17.9171753,31.5621338
		c-4.1364136,9.0308228-6.1104126,16.7800293-7.7645569,21.9987793c-1.5599365,5.3479614-2.9489136,7.4425049-3.4024353,7.7097778
		l-5.6152954,4.951416c0,0,2.1470947,8.6847534,2.7627258,10.1372681c-1.3605347,2.5896606-2.0419312,5.4421997-2.0550537,8.2597046
		v0.1577759c0,5.8956909,2.9095154,11.6862183,8.1917725,15.1697388c4.1232605,2.8416138,10.0846863,3.0147095,10.0846863,3.0147095
		c5.8847656,0,11.6599731-2.9072876,15.1412964-8.1369629c0.8413086-1.2685547,1.4832153-2.6027832,1.9498901-3.9370728
		c4.2284241-1.7198486,6.8290405-4.1210327,8.1764221-6.0950317c3.1329651,0.7207642,12.2602539,0.9990234,12.6327209,0.9990234
		c12.7510376-0.092041,24.8382263-3.7486572,33.6850586-11.2831421
		c7.1072998-6.3623657,14.8740234-17.2467041,15.1259766-31.8293457c0-2.6027832,0.7865295-16.3156128-12.3785706-27.2000122
		c11.3773193-16.4492188,25.3574829-36.9516602,40.0584106-59.1914673
		c27.3336182-41.4189148,49.6917114-77.4109802,66.699707-107.463562
		c17.7966309-30.5498657,73.4760742-114.472229,73.3555908-229.3848114
		C675.7268677,123.5009079,663.7316895,101.9994278,663.7316895,101.9994278z"/>
	<path class="st1" d="M570.8880005,197.2509308c-64.0574646-0.3877869-133.4410095-36.4346313-194.9942932-50.1715698
		c-22.2989502-4.9755402-42.6239319-7.0941315-60.9924316-7.1905365l0.0087585,0.002182
		c-88.5056763-0.4688416-131.6247406,45.991333-131.6466522,46.0132599
		c0.0131378-0.0131531,21.0238495-7.657196,31.6168518-0.775589c11.5109711,7.4841156,1.3605499,26.7881165-2.3464508,30.6418915
		c-10.6455841,11.0881348-25.9446259,19.2733154-42.8473969,19.2733154c0,0,17.8864899,4.2985382,23.6748505,9.6224213
		c0,0-16.5916748,2.1733704-25.6378937,5.3107452c-9.0308838,3.1461487-26.7201996,8.2553101-30.6419067,8.2553101
		c0,0,46.5960236,21.3042908,17.6739807,66.8048706c0,0,20.2219849-3.0957336,37.0721893,4.988678
		c0,0-92.3112869-14.9002991-123.5403671,86.989624c11.7651215-9.6968994,48.7299576-35.7773743,106.2782822-36.0578003
		c69.4733887-0.3067322,99.2761841,15.6736755,126.874939,32.388031
		c42.0739746,25.5064392,73.8901978,33.0562744,98.0601807,37.565155
		c69.4624329,12.967926,139.2184143-10.3914185,169.4396667-24.4789124
		c87.7410889-134.4247437,97.8345947-210.3547058,99.3287964-264.572876
		C639.9232178,190.3934174,592.4180298,197.3845673,570.8880005,197.2509308z M523.2710571,352.53302
		c-31.0559998,21.9681396-79.6785889,28.678833-79.6785889,28.678833c-0.547699,2.107666-3.7639465,4.3226624-3.7639465,4.3226624
		s4.9755249,1.8403625,17.1985474,11.031189c12.2033386,9.1908264,8.8972473,8.7373047,12.7904663,11.366394
		c3.658783,2.4559937,5.8343506,1.9564819,6.0841064,1.886322l0.0262756-0.0087585
		c1.1743164,2.3595886,1.3233032,5.8716125,1.3233032,5.8716125c1.6256714,1.5335999,9.5895691,9.1360168,2.1865234,17.0057373
		c-7.418396,7.8718872-15.982605,0.5630493-15.982605,0.5630493c-3.0299988,0.6397705-5.9745789-0.3614807-5.9745789-0.3614807
		s-15.848938,9.9795227-31.5883789-0.8916931c-12.8101807-8.8315125-12.0324097-19.3040161-11.2853088-22.9189758
		c-4.3248291,2.4822693-8.9673462,4.4168701-13.7303467,5.9088745c-12.8452454,4.0290527-29.2397156,5.6963501-45.5268555,0.280426
		c-10.6981506-3.6040344-19.5559692-9.843689-26.5471497-16.7669373
		c-7.004303-6.9363708-12.1791992-14.5935669-15.5553589-21.4927063c-0.5061035-1.0516052-0.9859009-2.0923157-1.4131165-3.1066895
		c-1.1195679,2.6685181-6.4850769,12.7926636-23.0920715,12.0718384
		c-19.1177673-0.8281555-25.7452393-18.3421936-25.7452393-18.3421936s-2.9489441-0.9858704-4.9755249-3.3082275
		c0,0-11.2283478,0.6660461-12.4026794-10.0869141c-1.1611786-10.7507324,9.7889404-12.0039368,12.0170593-12.2449036
		c0,0,2.2150269-2.7210999,4.5746155-3.8954163c0,0,1.334259,1.9345703,6.0162048,2.1886902
		c4.6819458,0.2519531,1.7746277-1.3890381,17.0627136-1.3473816c15.2880859,0.0262756,20.3578186,1.5752563,20.3578186,1.5752563
		s-1.2290955-3.709198-0.3877869-5.724823c0,0-34.7235413-34.6819153-46.2366943-70.9390869
		c-11.5131683-36.2593842-7.9902191-49.7071228,5.9898987-87.9382782c0,0,10.3651428,65.1375885,42.181366,106.0657501
		c18.1559753,23.3571777,38.5817261,41.5679321,52.7874756,52.9058228c0.3198853,0,0.6506958,0.0153503,0.9727783,0.0153503
		c-3.027832-3.3761902-5.3348389-7.3395081-6.4806824-11.8746643c-2.8415833-11.2042542-7.4972229-21.6219788-9.6311646-29.9210815
		c-2.1339417-8.3100891,2.613739-24.919281,2.613739-24.919281c-6.3755493-10.2183533-3.2688293-27.0400848-3.2688293-27.0400848
		s3.4550171-1.640976,6.0841064-4.8287354c2.6137085-3.2008972,1.7044983-12.645874,3.8406372-26.5449219
		c2.1339417-13.9012451,11.1801453-28.2823029,31.2181091-36.4609375
		c4.9798889-2.0353394,10.5885925-2.8897858,16.2016907-3.0343781c16.8392639-0.4250336,33.7288818,5.5933685,33.9282227,5.6634674
		c0.2672729,0.0788727,30.5893555,9.620224,41.5810852,28.1355133c11.0464783,18.6094818,9.5785828,35.5516815,2.8963623,47.9149323
		c-6.6844177,12.3785858-13.1147156,19.3565826-12.9394531,23.4929962c0.1577759,4.1210938,1.9301758,7.5082092,1.9301758,7.5082092
		s-7.6549988,15.301239-18.9293518,19.6260681c0,0-6.2287292,16.1031189-12.9503784,21.4379272
		c-6.6976013,5.3370361-16.7012329,10.8318176-25.734314,18.0617676c-3.5602112,2.8547668-7.6549988,4.6118469-12.0148621,5.5079346
		c0.2913818,0.2125244,0.5718384,0.4272156,0.8654175,0.6419373c18.1559753-0.4819946,45.3165283-2.6816711,73.7412415-10.3257141
		c50.0664368-13.4718323,97.6242371-59.1783447,97.6242371-59.1783447
		C559.6246338,317.6867676,554.3117065,330.5473328,523.2710571,352.53302z"/>
	<path class="st2" d="M419.1333008,385.0108948c-4.2591248-12.6743469-18.453949-32.4537659-40.3453979-39.7976685
		c-6.6077576-2.2171936-13.3601074-3.0606995-19.8648682-2.9577026
		c-19.5165405,0.3198853-36.8312073,9.1842346-41.5591431,15.1566162c-0.2563171,0.3242493-0.4995117,0.6638489-0.7010803,1.0231628
		c-0.0219116,0.0394287-0.0460205,0.1139221-0.0766907,0.1401978c1.8644409-1.5270691,3.930481-1.8250122,3.930481-1.8250122
		c-3.2753906,1.513916-3.1307983,4.7871094-2.5699463,5.9964905c4.7695923,11.6665344,19.6654968,30.828125,42.0827637,38.3560791
		c22.8401184,7.6615601,46.5587769,1.4656982,57.1868286-5.2340698c1.2356567-0.874176,2.8744507-3.0826111,1.2772827-6.0950928
		c0,0,1.2444153,1.2728882,1.8951416,3.3170471C420.6669006,391.1103516,420.2352905,388.299408,419.1333008,385.0108948z
		 M347.1184692,359.12323c-9.7407227-1.7395935-18.5875549-2.4625549-25.7364502-2.5238953
		c3.7026062-0.8215942,9.0484009-1.371521,15.4501953-1.3233337c3.8406677,0.0307007,8.0625,0.2782593,12.5385437,0.8106384
		C348.5907593,357.065979,347.8392639,358.078186,347.1184692,359.12323z M395.4847107,375.4037781
		c0.0547791-1.2532043,0.0723267-2.5019836,0.0460205-3.7398682h0.0021973
		c10.073761,5.9066772,17.5710144,12.2624817,21.3919067,16.815155
		C411.3205261,384.3470459,404.0379944,379.7593079,395.4847107,375.4037781z"/>
	<path class="st3" d="M395.5197754,371.0023193c0.004425,0.2213135,0.0088501,0.4403687,0.0175171,0.6638184
		c0.024231,1.237854,0.0088501,2.4866943-0.04599,3.7399292c-0.013092,0.359314-0.0350342,0.7207642-0.0569763,1.0822144
		c-0.9420471-0.4754028-1.8972168-0.9530334-2.8721924-1.4263c-0.3571777,2.1756592-0.8873901,4.3182983-1.6125488,6.4237366
		c-1.4328308-0.8346863-2.9006958-1.6343384-4.3773804-2.4033813c0.6506958-2.0177307,1.1589661-4.0531006,1.5490112-6.1081543
		c-1.5819092-0.7164612-3.1965942-1.4241333-4.8440552-2.1121216c-0.4360657,1.9499207-0.9597168,3.8954468-1.5665588,5.8365479
		c-1.5161438-0.698822-3.0430908-1.3692932-4.5788879-1.9980774c0.5979919-1.8864136,1.141449-3.7749634,1.6387634-5.6481323
		c-1.6125793-0.6221924-3.2513123-1.2224731-4.9164429-1.8075256c-0.5696411,1.8206482-1.1612244,3.658905-1.7680664,5.5101624
		c-1.5686951-0.5631104-3.1351013-1.0932007-4.7235718-1.5862122c0.6287537-1.8425598,1.2663269-3.6653137,1.9104614-5.4597473
		c-1.680481-0.5344849-3.3521118-1.0340576-5.0149536-1.5094299c-0.7340088,1.7921448-1.4350891,3.617157-2.0944824,5.4815063
		c-1.601593-0.4272461-3.2293701-0.815033-4.8550415-1.1720581c0.6770325-1.9039307,1.4372559-3.7595825,2.2588196-5.5692444
		c-1.7330322-0.4404907-3.4551086-0.8479309-5.1508179-1.2226257c-0.9201355,1.8600769-1.7351685,3.7815247-2.4253235,5.7664795
		c-1.6408997-0.2848206-3.2950439-0.5236511-4.9470215-0.7295837c0.6835632-2.0900574,1.5490112-4.1035156,2.559021-6.0315247
		c-1.0669556-0.2059326-2.1273804-0.3966064-3.1724243-0.5783386c0.2277527-0.3417969,0.460022-0.6814575,0.6922913-1.0188293
		c0.7207642-1.0450439,1.47229-2.0594482,2.2522888-3.0365601c0.09198-0.1160583,0.1795654-0.2322693,0.2715759-0.3439331
		c0.9049072,0.1072388,1.8206177,0.2255859,2.7474365,0.359314c0.8171997-1.187439,1.6934509-2.3377075,2.613739-3.4551086
		c1.5444946,0.1994019,3.0517883,0.4251099,4.5263367,0.6726379c-0.8390808,1.1502686-1.6410217,2.3355713-2.4033813,3.5515137
		c1.6343689,0.2979126,3.2906494,0.6353149,4.9667053,1.0142822c0.68573-1.2509766,1.3933716-2.4757385,2.1273804-3.6697388
		c1.4064941,0.3002014,2.7955933,0.6287537,4.1583557,0.9771118c-0.6266174,1.237854-1.2422791,2.499939-1.8404236,3.7880554
		c1.5598755,0.4141541,3.1264343,0.869873,4.7060852,1.3627625c0.4973145-1.3210144,0.9945984-2.6268311,1.4942017-3.9085388
		c1.3233032,0.4118652,2.6356506,0.8500671,3.9414368,1.321167c-0.3790894,1.3210449-0.7690125,2.659729-1.1699219,4.0136719
		c1.5554504,0.5542603,3.0781555,1.1370239,4.5767517,1.7374268c0.2958069-1.3802795,0.5696716-2.7518616,0.815033-4.1079407
		c1.3056641,0.5410461,2.5983582,1.1129761,3.9085693,1.7263489c-0.1358643,1.3802795-0.3023376,2.7759399-0.5082703,4.1714783
		c1.559845,0.6966858,3.08255,1.4153137,4.5657959,2.1514282c0.1204834-1.4064636,0.1928101-2.8086853,0.2147522-4.2086182
		c1.3320007,0.6901245,2.6706848,1.421875,4.0224915,2.1951904c0.059082,1.4110107,0.0656433,2.8175049,0.0086975,4.2218628
		C393.9335938,370.1040039,394.7311096,370.5531616,395.5197754,371.0023193z M319.4255371,309.3942871
		c-44.6724548-48.3948669-53.2081909-93.3937225-56.0803833-105.480835h-0.0022888c0,0-4.2480774,26.5492706,16.3551025,64.2918396
		l1.4788513,2.6554565c0.9639893,1.5686951,2.1733704,3.667572,3.7289429,6.2133789
		c7.4643555,11.9535217,17.3891907,24.8075256,30.6791382,38.1894836l0.0328979,0.0328979
		c0.828125,0.8127441,16.7077332,16.4558105,23.5739441,22.5048523c2.7255249-0.7448425,5.5869141-1.3583679,8.5489807-1.8403015
		C337.9298096,327.848175,328.2636108,318.9685059,319.4255371,309.3942871z M352.247406,246.1232758
		c0,0,4.6029663-2.9620667,6.9495239-7.2957306c2.3749084-4.3248291,4.3225708-12.871521,4.3225708-12.871521
		c8.8709717-1.0011749,17.1701355-10.448349,17.6761475-11.0355225c-2.199585,2.1229706-5.0806274,3.7070313-8.0711975,4.9360657
		c0.1599426-2.0265503-0.175293-5.4399261-0.0811462-10.4943542c0.1204834-6.2791748,6.1498413-30.2651215,35.5429688-29.8927002
		c3.0432434,0.039444,6.3317261,0.3352356,9.8940735,0.9421997c6.999939,1.4547577,12.6195984,3.1504822,14.0874634,3.6148987
		c0.1446838,0.0525513,0.2805481,0.0942841,0.4272461,0.1468353c0.7186279,0.2278595,1.7045593,0.5477142,2.8919983,0.9859314
		c0.3462219,0.135849,0.7076721,0.2650299,1.0823364,0.41185c0.493042,0.1862793,1.0144348,0.3899384,1.5600281,0.6156616
		c0.7207336,0.2935181,1.4832153,0.6112366,2.2828979,0.9595947c0.7865295,0.3614502,1.6123962,0.7361298,2.4668884,1.147995
		c1.8535156,0.8939362,3.8275146,1.9477997,5.8168945,3.1504822c0.1993713,0.1052399,0.3987732,0.223587,0.5848999,0.3440704
		c0.0657959,0.0262146,0.1227722,0.0679321,0.1731567,0.1095123c15.4611816,9.4033203,19.7048645,20.8880157,19.7048645,30.3856049
		c0,8.3516083-3.2819519,15.1829224-5.0829163,17.7023621c-2.5348206,3.5209045-4.8155823,5.9352417-5.9897766,7.7120056
		c-1.4000854-2.5086212-2.4822998-5.1770325-2.8920288-7.8455811v0.0086823v0.0328979
		c0.054718,0.7886963,0.9595947,12.9044189,7.1247253,19.1243439l0.3198547,0.313324c0,0-3.5886841,8.0164795-4.3358154,12.8869019
		c-0.7338562,4.8835144,1.1591187,10.0166931,1.1591187,10.0166931s-0.4820862,0.773468-1.1743469,1.8404236
		c-3.7880859,4.4693909-10.4177246,8.338501-13.980072,7.6833801c-4.0422974-0.7471008-13.7808533-4.0552368-19.4224243-2.8941345
		c-4.6293335,0.9595947-7.4205017,3.575592-8.9520264,6.217804c0,0,0.0132446-0.0131226,0.0263367-0.0131226
		c-0.4118347,0.4950562-0.7996521,1.0427856-1.0648193,1.6824951c0,0-1.2026978,2.0923462-1.5357971,4.8923645
		c-0.8237305-0.359314-1.5313721-0.6376038-1.5313721-0.6376038c0.013092,0.1446838,0.013092,0.3439331-0.0263367,0.5586853
		c-0.0546875,0.4118652-0.2388306,1.0823669-0.2650452,1.1743469c-0.0175171,0.1468201-0.0307617,0.2519531-0.0548096,0.2935181
		c-0.0941467,0.3725586-0.2015381,0.7471008-0.2935486,1.1217957c-0.3725281,1.3606262-0.7076416,2.4669189-1.137146,3.801178
		c-0.0131226,0.0132446-0.0394592,0.0527039-0.0525513,0.0942688c-0.4249878,1.2663574-1.7045593,0.8522034-1.7045593,0.8522034
		c-0.0131226,0-0.146698-0.0525513-0.146698-0.0525513c-0.9355164-0.4666748-1.9630432-0.9595642-3.0299988-1.467865
		c0,0-1.2006836-0.6244812-1.0122681-1.8666077c-0.0131226-0.0284729,0-0.0548401,0.013092-0.0942688
		c0.0132446-0.0525513,0-0.0920105,0.0284729-0.133606c0.0394592-0.1073608,0.0657959-0.2388306,0.1052551-0.3330994
		c0.3329773-1.200531,1.0406189-3.7748108,1.1348877-4.3752441c0.1204834-0.7053833,0.5871887-2.0024719,0.8807068-2.5107422
		c-0.2015381-0.1994019-0.7076721-0.7448425-1.1480103-0.9595947c-0.3746948-0.1884155-0.7734375-0.2673035-1.321167-0.2278748
		c-0.1993713,0.1731873-0.5323486,0.6924133-0.5477295,0.9728394c-0.013092,0.1599426-0.4359436,1.4942017-0.9070435,2.9620667
		c-0.4797974,1.480957-1.025238,3.1088867-1.2663269,3.8427734c-0.2650452,0.7996521-0.8391113,0.9728088-1.3056641,0.9728088
		c-0.2913818,0-0.5346375-0.0679321-0.6398621-0.1029663l-0.0546875-0.0175171
		c-0.9333801-0.3746643-2.2018738-0.828125-3.203186-1.2028198c-0.0635071-0.013092-0.1160583-0.0525513-0.1839905-0.0657959
		c-1.2005615-0.4534302-1.1216736-1.480957-1.0429077-1.8928223c0.5192566-1.5490417,1.1875916-3.5099182,1.6958618-5.043457
		c0.1072388-0.359314,0.234436-0.7208862,0.3417969-1.095459c0-0.0132141,0.0175171-0.0263367,0.0306396-0.0526733
		c0.0415649-0.1576538,0.4951477-1.3057861,1.187439-1.6518555c-0.4534607-0.3462219-1.3626404-0.7076721-2.0396729-0.9486389
		c-0.8171692-0.2673035-2.2719116-0.5192261-2.3508301-0.5324707c0.2388306,0.5192261,0.2958069,1.4241333,0.1730347,1.877594
		c-0.1730347,0.6004028-1.7745972,6.1915894-1.840271,6.406189c-0.0811768,0.212616-0.359314,0.8785706-0.7997742,1.0407715
		c-0.4272461,0.1576538-1.6256714-0.2278748-1.6256714-0.2278748c-0.0810242-0.0153809-0.1335754-0.0263367-0.2015076-0.0394287
		c-1.0144348-0.3088989-2.4559326-0.5346375-3.4156494-0.8019409c0,0-1.5752563-0.4512939-1.0822144-1.8928223
		c0,0,1.0274963-3.7640076,1.5357971-5.5495911c0-0.0415955,0.013092-0.1073914,0.0261841-0.1578064
		c0.0394592-0.1357117,0.267334-0.8806763,0.3462219-2.0155945c0.0810242-1.1348877-0.6791687-1.4021912-1.237854-1.4021912
		c-0.5323486,0-1.1239319,0.9597168-1.2554016,1.5184021c-0.1445313,0.6002808-0.4797974,1.6014709-0.4797974,1.6014709
		l-0.0415649,0.0942688c-0.0415955,0.0941467-0.0789185,0.1839905-0.1052551,0.2650452
		c-0.5477295,1.4526062-0.9749451,2.6575623-1.4722595,4.110199c-0.4622803,1.2311707-1.7417297,1.1326294-2.0025024,1.0997314
		l-0.04599-0.0065613c-1.1480103-0.2388306-2.2565613-0.4665527-3.2840881-0.6550903
		c-0.0153809,0-0.142395-0.0393372-0.142395-0.0525513c0,0-1.2838745-0.4403687-0.8566284-1.7066956
		c0-0.0415955,0-0.0810547,0.0262146-0.1204834c0.4578552-1.3233337,0.8391113-2.3881531,1.3737183-3.7070313
		c0.1445618-0.3460999,0.6835938-1.6147156,0.9880676-2.1098633c0.3198547-0.4929199,0.7449646-0.7602234,0.7449646-0.7602234
		c0.0175171-0.2935181-0.422821-0.8412476-1.224762-1.1216431c-0.0920105-0.0285034-0.2015076-0.0527039-0.3198547-0.0789185
		c0.4666748-1.1612244,1.0515747-2.7605591,1.334259-4.1079407c0.8785706-3.2688293,0.7733154-7.8719177-3.0168762-12.2055664
		c-3.801178-4.3356628-13.5814514-7.5651855-17.2358093-9.4054565
		C355.1021118,261.0761719,351.8070679,252.2337036,352.247406,246.1232758z M418.3379517,259.772522
		c0.0132446,2.4691772,0.8544617,12.0062256,5.0457153,14.5016174c0.0240784,0.013092,0.050293,0.0284729,0.0941467,0.0438538
		c4.1714478,2.856842,12.8693848,4.1889648,17.0079346,3.6806946c0.5455933-0.0635376,1.5731201-0.3856506,1.597168-0.3856506
		l0.0175171,0.0153809c1.827179-1.0275269,3.466095-1.8009644,4.9602966-3.3631287
		c1.9892273-2.0681152,3.5602112-4.6183472,4.6950989-7.2320557c0.4973145-1.1612549,0.9113159-2.3464355,1.2444153-3.5602112
		c0,0,0.8806763-4.0465698,2.5873718-4.6447144c0.1884155-0.0263367,0.3571777-0.0526733,0.5323486-0.0788879l0.1204834,0.0131226
		l-0.0109558-0.0394592c0,0-5.3128967-1.3342896-11.3553772-0.6418762c-0.5762329,0.0656738-1.145874,0.1489868-1.7330322,0.2409668
		c-6.7391968,1.2268982-13.0205078,2.254425-17.3278198,0.7996521c-1.4153137-0.468811-2.6464844-1.2684631-3.6872559-2.1360474
		c-0.013092-0.0263672-0.0394287-0.0417175-0.050415-0.0527039c-0.2803955-0.2409668-0.547699-0.4819336-0.7996521-0.736145
		c-1.4284058-1.3714447-2.3617859-2.6662598-2.5632935-2.9597778c-0.0263672-0.0417328-0.0767822-0.1073914-0.0767822-0.1073914
		C418.6162109,253.2042542,418.3271179,257.3187256,418.3379517,259.772522z M401.7726135,264.5049438h-0.0021362
		c-0.731842,2.1886292-1.9718628,3.5492554-3.2008972,4.9624329c-2.2807617,2.8568115-4.2284241,2.655304-4.9755249,4.9118652
		l-0.7449646,2.199707c-0.4272461,1.2684937,0.0263367,2.6027832,0.9595947,3.575592
		c0.4535828,0.4688416,0.9881897,0.8675842,1.6564026,1.095459c2.0791016,0.6922607,4.2831116-0.2805481,4.9075928-2.1756592
		c0.1073914-0.3088989,0.4534607-0.4797974,0.7865601-0.3745422c0.3329773,0.1226196,0.5192261,0.468811,0.4140015,0.7886658
		c-0.6418762,1.877594,0.5192566,3.9874573,2.5852356,4.6820068c0.6682129,0.2146301,1.3342896,0.2146301,1.9630432,0.133606
		c1.3452454-0.2015381,2.5195923-0.999054,2.9445496-2.2807617l0.7492371-2.2018738
		c0.7493896-2.254425-0.9201355-3.2709656-1.0142822-6.9122009c-0.1336975-1.8798828-0.2651672-3.709198,0.4688416-5.8825684
		c0.589325-1.7636719-0.3964844-3.7135925-2.236908-4.5242004c-0.1248779-0.0482788-0.2474976-0.1029663-0.3768311-0.1446838
		c-0.1094971-0.0415955-0.2278442-0.0656738-0.3461914-0.0920105
		C404.3468933,261.7684631,402.357666,262.745575,401.7726135,264.5049438z M368.0810242,251.168869
		c0.0679016,0.133728,1.0844727,1.8952332,1.0319214,1.9499359c-0.0942688,0.0788879-0.1907043,0.1599274-0.2980652,0.2278595
		c0.1073608-0.0656586,0.2037964-0.1358643,0.2980652-0.2169037c0.013092,0,0.6243286,0.869873,1.025238,1.2707672
		c2.9884033,2.8941498,10.7376099,7.0699921,15.7964172,7.3242035c0.0415955,0,0.0810547,0.0262146,0.1204834,0.0262146
		c4.8287048,0.5323486,11.2327881-6.5617371,12.7379456-8.5357361c1.4984741-1.9608917,3.7902222-5.4706879,3.7902222-5.4706879
		s-1.7636719,0.5893097-3.9786377,0.8675842c-0.3440552,0.039444-0.7033691,0.0657959-1.0757751,0.0789032
		c-0.0306396,0.0153809-0.0525513,0.0153809-0.0679321,0.0153809c-1.3473816,0.0656433-2.8262329-0.043869-4.2305603-0.5082855
		c-4.307312-1.4393768-8.7000732-6.0557251-13.3382263-11.0991821c-0.4031677-0.422821-0.815033-0.8368225-1.2422791-1.237854
		c-4.2678528-4.0684814-9.1119385-6.1891785-9.4164124-6.3119354h-0.0022888
		c0.0263672,0.0284729,0.0415955,0.0415802,0.0415955,0.0525513l0.0284729,0.0132294
		c0.1183472,0.1204834,0.2542114,0.2540741,0.3746948,0.3878021c1.0013123,1.507309-0.7339783,5.2559357-0.7339783,5.2559357
		c-0.4403687,1.0933075-0.7886963,2.2149658-1.0845032,3.3477173
		C366.854126,242.4841766,366.4816895,247.2997589,368.0810242,251.168869z M276.7424622,349.1218262
		c2.4647522-1.4811096,6.3382874-2.3771667,8.7855225-2.5107422c0.0700684-0.0066833-0.8631897-0.0263672-1.3298645-0.0242004
		c-3.0388184,0.0153503-6.0776672,0.3155823-9.0857239,0.7339783c-2.6641541,0.3702698-5.223053,0.8369751-7.6878052,0.8127747
		c-0.589447-0.0021362-1.1589661-0.0350342-1.7176514-0.1095276l-0.5499878-0.0875854
		c-0.6944275-0.1314392-1.3693237-0.326416-2.0331116-0.6091003c0.0306091,0.1095276,1.4657288,6.1871643,9.4909058,6.1871643
		c0.0767517-0.0854492,0.3571472-0.6156616,0.4075623-0.7099304c0.7667847-1.4503479,2.2719421-2.8306274,3.6806946-3.6521912
		C276.7161255,349.1414795,276.7293701,349.1283875,276.7424622,349.1218262z M289.0466003,346.7096252
		c-1.0517273-0.0525513-2.098877-0.0810242-3.1504822-0.1029663c-2.1821899,0.4205627-4.6864014,1.2026978-6.4369507,2.3529663
		c-2.0331116,1.3167725-3.345459,2.9620667-4.0377502,4.3686829c6.6602783-0.7865295,19.2754822-0.6200562,22.4653931-0.0700684
		c0.0196533-0.0242004,0.0481567-0.050415,0.0723572-0.0767517c1.840271-2.9072266,4.5679321-4.2043457,6.5484924-4.8615723
		c-3.3016052-0.5213928-7.1707153-0.9640198-10.4987793-1.2619324
		C292.3570251,346.9089966,290.7028809,346.7906494,289.0466003,346.7096252z M469.8218994,416.6715393
		c-0.6770325-0.1620789-1.3188782-0.405304-1.9345398-0.7055054c-0.6770325-0.3308411-1.3254395-0.7536621-1.9674377-1.2312012
		c-0.8478088-0.631012-3.345459-2.9906616-3.9501648-3.6040649c-0.8215637-0.8304138-1.6518555-1.6497192-2.4822693-2.4691772
		c-1.0100098-0.9924622-3.2008972-3.0168762-4.223999-3.7901917c-0.2257385-0.1687622-2.9095154-2.3246155-2.9095154-2.3246155
		c0.0985413,0.0811462,4.5548096,4.7849426,5.5319214,7.3482666c0.5871887,1.45047,0.9114685,3.249176,0.8173218,4.8155823
		c-0.0263367,0.4316711-0.0898743,0.815033-0.1687622,1.1766357c0.0065613,0.0065308,0.0175171,0.0284729,0.0240784,0.0371704
		c0.2826843,0.2124939,0.5565491,0.4118652,0.8304138,0.5937195c0.4447632,0.2979431,0.911438,0.5631104,1.3846741,0.8084717
		c0.7513733,0.3878174,1.5335388,0.68573,2.3551025,0.8829651c0.5871887,0.1401672,1.2401428,0.2321472,1.8469849,0.2321472
		c1.7615051,0,3.3937073-0.68573,4.7871094-1.7286072L469.8218994,416.6715393z M513.1469727,457.7158508
		c-0.6923828,1.0515747-35.2822266,52.6845093-47.5162964,69.6793518c0.2913818,0.2540894,8.5335693,7.3109741,8.8030396,7.5257568
		c3.3061218-4.4562988,51.3086548-73.1212463,57.4038086-82.3669128c-0.1708984,0.0657959-0.3461914,0.1204834-0.5192261,0.1731873
		C525.3545532,454.5938416,519.2880249,456.2216492,513.1469727,457.7158508z M434.920929,313.3883057
		c-0.5038757-2.1953125-3.4813232-4.0619507-4.5067139-4.6513977c-0.6112366,0.1117859-3.0475159,0.5981445-4.2657166,1.4986267
		c-1.3955078,1.0296631-6.460907,8.568634-13.0993958,11.403656c0.6287842-3.7311096-1.7832947-5.6635132-2.4056396-5.6000061
		c-0.6156616,0.0744934-1.108551,1.5357971-1.2355957,1.9060669c-0.1270447,0.3746948-1.4087524,2.8964233-1.844696,4.0794678
		c-0.4382019,1.1853027-0.309021,1.2795715-0.309021,1.2795715c-1.0646973-0.0307617-2.1316528-0.0877075-3.1833801-0.1708984
		c1.0144043-1.9148865,1.9214478-3.8209534,2.7759399-5.7183228c0.6177673-1.5862122-1.0735474-1.9345703-1.0845032-1.9432678
		c-0.9464722-0.1446838-1.8864136-0.3045959-2.8328857-0.4820557c-0.0350342-0.0065613-0.0612488,0-0.1029663-0.0021362
		c-1.1830444-0.2124939-1.9016724,0.5279236-2.0550537,0.9815063c-0.1183472,0.3023376-0.2299805,0.5981445-0.3570251,0.8960876
		c-0.4316406,1.0494385-0.9004822,2.0923462-1.3496704,3.1373596c-0.0219116,0.0591125-0.0394287,0.1270447-0.0679016,0.1818848
		c-0.5367737,1.3210144-0.0810547,2.425293-0.0810547,2.425293c-0.372406-0.0263367-1.2488098,0.0042725-2.7299194-0.2892456
		c-0.7032471-0.1380005-1.6431885-0.5565491-1.6431885-0.5565491c0.5215149-0.4249573,0.8391113-1.237854,0.8500671-1.233429
		c0.9443665-2.3069763,2.4035339-5.8912659,2.4035339-5.8912659s0.5783386-1.5424805-0.4272461-1.8403931
		c-1.3606262-0.3374023-2.7124023-0.7076721-4.0619507-1.1129761c-1.0187988-0.2168884-1.463562,0.6221924-1.5775146,0.8939209
		c-0.2080688,0.5410461-0.5739136,1.3758545-0.6966858,1.7526855c-0.5192261,1.4767151-1.0340576,2.9445801-1.5423279,4.4058838
		c0,0.0240784,0,0.0415955-0.0088501,0.0591125c-0.3175659,0.9443359-0.0656433,1.8294373-0.0656433,1.8294373
		s-1.3079224-0.2673035-1.9915161-0.4491882c-0.6945496-0.1818542-1.7264709-0.9070129-1.7264709-0.9070129
		c0.1643372-0.1708984,0.3659668-0.6374512,0.5082703-0.9705505c0.6266174-2.1886292,1.2137756-4.9316711,1.7395935-7.2211304
		c0.0394287-0.3199768,0.04599-1.270752-0.915741-1.6760559c-1.145874-0.4162903-2.2938538-0.8588867-3.4200745-1.3233032
		c-1.0011597-0.3154602-1.4372253,0.5082703-1.597168,0.9968872c-0.4534607,2.0704041-0.9836731,4.54599-1.3254395,6.3448181
		c-0.1445618,1.2597961,0.4250793,2.1448975,0.4250793,2.1448975c-0.5280457-0.1336975-1.597168-0.5937195-2.4581909-0.9597168
		c-0.5631104-0.2365417-1.8140869-1.0559998-1.8140869-1.0559998c0.6418762-0.0569458,1.0078735-1.4218445,1.0078735-1.4218445
		c0.7119446-1.4767151,1.1851807-2.7561646,1.743866-4.1539612c0.0219421-0.0657654,0.050415-0.1227417,0.0723267-0.1905518
		c0.0175476-0.0417175,0.0219421-0.0723267,0.0460205-0.1271667c0.552124-1.4853821-0.4819336-2.2719116-0.6551208-2.3989563
		c-1.4875183-0.7427063-3.161438-1.6191101-3.1789551-1.6191101c-0.8522034-0.455719-1.4197388,0.1468201-1.601593,0.73172
		c-0.5914307,1.6695251-1.5117188,3.1856689-1.8337097,5.0238037c-0.1489868,1.0406189-0.0614014,1.7702026-0.0614014,1.7702026
		c-2.0309448-0.9661255-2.7780457-2.4953918-2.7780457-2.4953918c0.4863281-0.5805969,1.1327515-2.6269531,1.1437073-4.5439758
		c0.0217896-1.9170532,0.1424255-3.7047729-0.7536621-4.3379517c-0.8960571-0.6375732-2.3925476,0.9726868-3.161438,2.1098633
		c-0.7646179,1.1391907-0.9420776,1.7987061-0.9420776,1.7987061v0.1468201
		c-3.5953674-6.2593994-3.0936584-15.3626404-3.5777283-17.032135c-0.4974365-1.6584473-2.6071777-3.8778076-2.6071777-3.8778076
		s-1.1743469-0.2037964-2.6115723-0.1884155c-1.4372559,0.0153809-3.1373901,0.2453613-4.1802979,1.1216431
		c0,0,1.2159424,6.6889038,4.4935913,12.5670471c3.2731323,5.8781433,7.1751099,16.1951904,8.618927,20.3622131
		c0.5937195,1.7088318,1.7528076,3.6500854,3.6479187,5.5956116c2.6027527-1.4460754,8.9826355-0.994751,15.9300232,1.3385315
		c6.6471558,2.2347717,11.8330383,5.5189819,13.3249512,8.1764221c2.3924255-0.4403381,4.2809753-1.2399902,5.6722412-2.166687
		c3.6741333-2.4495239,12.9986877-8.3276672,19.1616516-11.0399475
		C429.9190674,317.9891357,434.920929,313.3883057,434.920929,313.3883057z M431.3607178,572.0588379
		c0.013092-0.0285034,0.0262146-0.0525513,0.0262146-0.0810547c-0.359314,0.7471313-0.7317505,1.4963379-1.0646973,2.2303467
		c-7.3111267,15.9825439-7.0853882,27.4803467-14.2496643,33.8295898c0,0,0.175293,0.0525513,0.4841919,0.0942993
		c1.9214478,0.2519531,9.1777344-0.0263672,12.9263611-17.2467651v-0.0153809
		c-0.2520752-0.9595947-0.4710999-1.9499512-0.6025391-3.0278931
		C428.2539673,582.8643188,429.7723694,576.0353394,431.3607178,572.0588379z M452.0976257,402.3760071
		c-0.1928406-0.1402588-0.3856506-0.2848206-0.5784912-0.4272461c-1.5226746-1.0932922-3.0848083-2.1317749-4.6643372-3.1439209
		c-2.2084351-1.4176025-4.4497375-2.7803345-6.723938-4.0904236c-1.0779419-0.6200562-2.1645508-1.2268982-3.249054-1.8382568
		c-0.2301331-0.1291809-0.4404602-0.234436-0.6639099-0.3614502c1.1808777,1.7132263,2.5940552,4.5197754,2.3157959,7.9398499
		c2.8591003,1.480957,13.0249023,8.9541626,17.8602905,13.607666c0.2979126-1.5424805,0.238678-3.6479187-0.5871887-5.9242859
		C455.1012878,406.1618042,453.585144,404.0322876,452.0976257,402.3760071z M551.7790527,305.7770996
		c-1.137146,0.9376831-2.3792725,1.9476624-3.7903442,3.0650635
		c-15.4611816,12.2054443-47.7001648,34.1626892-100.1962585,43.5966492
		c-12.7247009,2.2851563-25.6904907,3.5361328-38.3122253,4.0948181c2.0769653,2.1493225,3.9786072,4.3379517,5.7116394,6.5617371
		c0,0,5.5232544-0.4075928,6.2857361-0.4688416c9.530365-0.7997742,19.0541687-1.9630432,28.4684448-3.6610413
		c23.2871094-4.2043457,40.8931885-10.1526794,49.2557373-13.2987671c1.9565125-0.7711487,3.8209839-1.5621338,5.6504211-2.3552246
		c41.136322-17.8426514,51.0259705-40.5578308,51.2757874-41.1405945
		C556.0797119,302.2694702,554.432251,303.6278076,551.7790527,305.7770996z M447.9414063,543.3777466
		c-0.1335754,0.1994019-0.2650146,0.4009399-0.3987427,0.5981445c-2.8152466,4.3752441-5.5933228,8.7811279-8.2333984,13.2614746
		c-2.5371094,4.298645-7.5147705,13.9034424-7.698761,14.2781372c-0.0263367,0.1994019-1.237854,7.3613892,0.0897217,12.921814
		c0.0066833-0.0109863,0.0109558-0.0240479,0.0175171-0.0350342c0.0482788-0.1270142,0.1204834-0.2913818-0.013092,0.0482788
		c8.2158508-18.0881348,17.4636536-30.175293,17.4790344-30.1884766
		C447.5010681,549.2997437,447.8296204,544.3001709,447.9414063,543.3777466z"/>
	<path class="st0" d="M413.6385193,241.6078491c0.492981,0.1884155,2.6422119,1.2531891,9.8064575,0.6923218
		c8.2706299-0.3856049,22.9452515-1.9082794,27.2525635,3.4265747c0,0.1446075-10.4330444-1.0253448-17.4658203,0.1095428
		c-6.9889832,1.4810638-16.9137573,2.4275208-21.3152771,0.8916931c-4.4277954-1.4284668-11.7804565-8.1764374-16.4492493-13.56604
		c-4.8944397-5.1113586-13.8596191-10.4461975-13.8596191-10.619278c0.4140625-0.1029663,0.8478699-0.1599426,1.2926331-0.177475
		c6.6844177-0.236618,16.543457,8.9125824,22.493927,13.8793488
		C410.7969055,241.0228577,413.1565247,241.4763794,413.6385193,241.6078491z M373.0499573,209.3665924
		c0.1358032-6.9232483,7.4578247-35.4202576,45.434845-28.950531l-0.184021-0.039444
		c-1.2400513-0.2519531-2.5217285-0.5039063-3.8428345-0.7317505c-3.6697693-0.5214386-7.0831909-0.7492981-10.2709351-0.7492981
		h-0.0022278c-30.7623901,0.1336517-39.5106506,23.0241547-40.805481,28.2647858
		c-1.3736877,5.5780182-1.3605347,12.6458588-1.6826172,15.848938c0,0,5.9088745-0.8413086,11.4342957-3.1483154
		C373.2887268,217.8365784,372.9579163,214.4209747,373.0499573,209.3665924z M313.7182007,335.1109924L313.7182007,335.1109924
		c-0.0766907-0.0065918-0.1599121,0-0.2519226,0.0262756c-0.4360046,0.1205139-0.7383423,0.4776306-0.6178284,1.1677551
		c0.1161194,0.6879272,0.8215637,2.6991882-0.2059631,5.7839661c-1.0319214,3.0979309-3.3476868,5.0938416-5.6306152,6.0928955
		c-2.2741394,0.9946594-5.0762939,3.253479-5.862854,6.9429626c-0.7755432,3.6894836-2.7714844,8.5401001-2.2171631,11.7454224
		c0.2103271,1.2225037,1.417511,2.9116821,4.2043152,2.7911987c-1.9039001,1.5774536-3.7004395,1.459137-5.1617737,0.7908936
		c-2.3070068,4.256897-5.7795715,6.0096436-12.09375,4.7849426c-6.465332-1.2532043-14.6483154-7.4512634-16.346283-17.9171448
		c0-0.1862488,2.1624146-0.2059326,3.0497437-0.2059326h0.3943481c-0.3812256-0.4995117-0.7909241-1.2203674-0.819397-2.0025024
		c-0.0109558-0.4360046,0.1708984-0.9990234,0.4513245-1.5993347c-8.0252686,0-9.4602966-6.0753784-9.4909668-6.184906
		c0,0-2.5458374,2.0440979-2.6531677,5.5342102c-0.276062-1.4394226-1.4306641-2.6159363-2.9577026-2.8437805
		c-1.9323883-0.3001404-3.7464447,1.0340881-4.0378418,2.973053c-0.2913971,1.9367676,1.0472412,3.750824,2.9796143,4.0422058
		c1.9345703,0.2913818,3.7486267-1.0406799,4.0400391-2.9752197c0.0065613-0.0460205,0.004364-0.0942078,0.0109253-0.1402283
		c0.0460205,0.4118958,0.1249084,0.8478699,0.2475891,1.2926331c0.3374023,1.23349,0.7952881,2.1141968,1.2663269,2.7802429
		c1.1305237,1.597168,2.3618164,1.8294067,2.3618164,1.8294067c0.0131226,0.0043945,0.1708984-0.2278442,0.184021-0.2409973
		c0.0854492-0.0985718,0.8040466-0.8500671,0.8982849-0.7887268c-0.8128357-0.5236206-4.2722473-3.1483154-2.1668091-8.877533
		c0,0-0.1204834,5.1705322,4.1561584,7.9223022c0.4688416,2.1427002,3.8253174,14.9375305,16.3725586,18.92276
		c13.699707,4.3511047,18.9819641-2.1777649,20.2088623-4.6381226c0.5586548-1.1261597,1.9586487-4.6162109,1.9586487-4.6162109
		c1.1874695-3.4046631,4.2021484-16.6442566,5.3326416-18.186676c1.1261292-1.5467529,4.5220032-7.7426147,3.1483154-13.4367676
		C314.4740906,335.8778076,314.2593994,335.1635742,313.7182007,335.1109924z M439.6269531,282.5776367
		c6.8312073,0.3746338,9.4559021-3.7070007,12.2033386-8.1391907c2.7495728-4.4168396,4.4190369-15.6736755,4.4190369-15.6736755
		l-0.1227112-0.0131531c-0.1730652,0.0263062-0.3417969,0.0526123-0.5302124,0.0788879
		c-1.7067261,0.598114-2.5896301,4.6447144-2.5896301,4.6447144c-0.3330078,1.2137756-0.7492981,2.3990479-1.2444153,3.5602112
		c-1.1349182,2.6115417-2.7035522,5.1617737-4.6929016,7.2321472c-1.4963989,1.5621033-3.1351929,2.3355103-4.9624023,3.3630371
		c0.0503845,0.2388306,0.1183167,0.4666748,0.2125244,0.690155
		C443.585907,281.4317932,439.6269531,282.5776367,439.6269531,282.5776367z M368.9485779,235.2586212
		c0,0,1.735199-3.7486267,0.7339478-5.2559814c-0.1204834-0.1336365-0.2563477-0.2650909-0.3746643-0.3855896l-0.0284729-0.0153503
		l-0.0810547-0.0525818c0,0-5.4553528,9.9926758-5.9351501,15.1697845
		c-0.497345,5.1880341-0.8413086,10.0321198,4.8155823,13.8333435c-0.1730652-0.2388306-2.3486633-3.3608398,0.4250488-4.9886932
		c0.1073303-0.0635223,0.2147217-0.1358185,0.3198547-0.2147064c0.1073303-0.0657196,0.2037659-0.1467896,0.2979736-0.2278442
		c0.0525818-0.0525818-0.961792-1.8118744-1.0319214-1.9477081c-1.5993347-3.8691254-1.2268982-8.6869049-0.2278442-12.5669861
		C368.1576538,237.4736176,368.5081787,236.3518677,368.9485779,235.2586212z M429.5028076,292.1145935
		c3.3454895,0.4118958,6.6669006,1.1239319,9.9488831,1.9082947c8.3648376,1.973999,9.8458862,0.2278442,12.8583679-2.0419312
		c2.5940552-1.9476929,4.7104187-4.951416,6.2857056-7.7535706c0.0394592-0.050415,0.0679321-0.0898438,0.0942078-0.1424255
		c-3.7880859,4.4672546-10.4067688,8.3363647-13.96698,7.6835022c-4.0443726-0.7492981-13.7829285-4.0575562-19.4266968-2.8941956
		c-4.6425171,0.9596252-7.4293518,3.5887146-8.9783325,6.2440491c0.0153503-0.0153198,0.0262756-0.0394287,0.0547791-0.0394287
		c0.0262756-0.0284729,0.0394287-0.0284729,0.0503845-0.0547485
		C419.5495605,291.4223022,425.2196045,291.5690613,429.5028076,292.1145935z M449.687561,191.793396
		c0.0657043,0.0284882,0.1204834,0.0679169,0.1752625,0.1095428c15.4611816,9.4055176,19.7005615,20.890213,19.7005615,30.3855591
		c0,8.3539124-3.2819519,15.1851196-5.0828857,17.7046509c-2.5326843,3.5207825-4.8134155,5.9351501-5.9877319,7.7097626
		c2.1383057,3.8559875,4.9755249,7.2978973,7.0831909,9.6070862c1.8009033-2.9204559,5.908844-8.0449524,7.9770508-13.233017
		c2.2807312-5.7774048,11.044342-35.9920654-28.720459-55.1207886l-1.5445862-0.6528931
		c1.8534851,0.8938904,3.8274841,1.9477081,5.8146667,3.1483154
		C449.3019714,191.556778,449.4991455,191.6728973,449.687561,191.793396z M287.9466858,352.7958984L287.9466858,352.7958984
		C287.9488831,352.7958984,287.9488831,352.7958984,287.9466858,352.7958984L287.9466858,352.7958984z M415.3057556,296.7593079
		l-0.0218811,0.041626c-0.1708984,0.3110962-1.2027893,2.2872925-1.5095215,4.8528442
		c0,0.0153198,1.6256714,0.7339478,1.9477234,0.9070129c0.2826233,0.1599426,0.7317505,0.3330383,0.9048462,0.6156616
		c0.4009094,0.5740051,0.5082703,0.7996521,0.5082703,0.7996521c-0.3877869,0.0657349-0.7756042,0.1205139-1.1611938,0.1862488
		c-0.2124939-0.0131531-1.1721191,0.3352051-1.1721191,0.6265869c-1.8666687,5.9789734-1.2969971,7.0327759-0.8566589,7.3132019
		c0.3768311,0.2366333,4.5373535-2.1470642,5.7795715-6.4697266c0-0.0284729,0.6923218-3.6325073,0.8391113-5.0609741
		c0.2563477-2.3092041,1.2159424-4.9360657,1.3320923-5.2559509l-0.0262756,0.0153503
		c0-0.0131531,0.0262756-0.0394287,0.0262756-0.0394287C417.667572,295.092041,415.3057556,296.7593079,415.3057556,296.7593079z
		 M423.6837769,279.4030151c-1.334259-3.8822632-0.2913818-5.1223145-0.3045654-5.1223145
		c-4.1758423-2.4954224-5.0193481-12.0323792-5.0324707-14.5015564c-0.0131531-2.4559937,0.2782288-6.5770721,0.2957458-6.6427917
		c-3.1373596,1.6125031-14.5957642-2.2325134-16.0505066-5.3939819c0,0-2.2938843,3.5141907-3.7880859,5.4728546
		c-1.5073547,1.971817-7.9091492,9.0703278-12.737854,8.5357513v0.0197144
		c-0.0022278,0.1928101-0.1314697,1.7417603-3.3477173,3.8866577c0,0,5.5495605,1.776825,9.7232361-0.5170288
		c4.1933594-2.296051,9.7253723-12.7663879,16.7713013-10.4856567c6.9889832,2.4406433,5.0960388,14.1268921,7.0437317,18.4780273
		C418.1342163,277.3633118,423.3616943,279.2978516,423.6837769,279.4030151z M393.6005554,274.3880615
		c0.7449036-2.2566223,2.692627-2.057251,4.9755249-4.9119873c1.2268982-1.4153442,2.471344-2.7758789,3.2030945-4.9623718
		c0.5871582-1.7615051,2.572113-2.7364502,4.5351868-2.2413025c-0.7953186-0.2234802-1.5884399-0.3001709-2.3442993-0.2497559
		c-2.2719727,0.1511536-4.2218628,1.4569397-4.9141541,3.479126c-0.5718384,1.7330017-1.5292664,2.7758789-2.7758789,4.1605225
		l-0.0372314,0.0547791c-0.9486694,1.1348877-1.6848145,1.559906-2.5896606,2.1448669
		c-0.8829346,0.5323792-2.1229858,1.4810791-2.613739,3.0585022l-0.7098389,2.1054688
		c-0.9465027,2.8284302,0.92453,6.0030518,4.1626892,7.0963135c0,0-1.413147-1.7593079-0.7055054-3.8669434
		c0-0.0284729,0.0153503-0.0679016,0.0285034-0.0942078c-0.9377136-0.9749451-1.3912048-2.3070068-0.961792-3.575531
		L393.6005554,274.3880615z M410.8232117,283.8965454l0.7076721-2.1054382
		c0.5608521-1.5467834,0.1204834-3.0563049-0.2431946-4.0027771c-0.3570862-1.0144043-0.6879272-1.8009338-0.7558594-3.2797852
		v-0.0306702l-0.0197144-0.0525818c-0.1314392-1.8403625-0.2629089-3.2272034,0.3110962-4.9624023
		c0.9092102-2.7145081-0.7690125-5.7445374-3.7858582-6.9516907c1.840332,0.8084412,2.8240662,2.7605286,2.236908,4.5220032
		c-0.731781,2.1711731-0.5959473,4.0027771-0.4645081,5.8847351c0.0942078,3.6412964,1.7592773,4.6556702,1.012207,6.9100952
		l-0.7471008,2.2040405c-0.422821,1.27948-1.5993347,2.0769653-2.9489136,2.2785339
		c0,0.0263062-0.0131531,0.050415-0.0241089,0.0788879c-0.7098694,2.0945129-2.8941956,2.6531677-2.8941956,2.6685181
		C406.4611511,288.1403198,409.8767395,286.7381592,410.8232117,283.8965454z M449.1836548,554.2643433L449.1836548,554.2643433
		c-0.0153503,0.0131226-9.2653198,12.1025391-17.4811707,30.1905518c0.2147217,0.8917236,0.4929504,1.7439575,0.8566284,2.5195313
		c2.5327148,5.402771,4.7761536,6.8859863,9.2587585,6.6165161c0,0,10.4724731-17.8601685,17.8623657-27.4124756
		c-1.5226746-1.2685547-3.345459-2.8832397-5.536377-4.8966675
		C451.703186,559.0405273,450.1542053,556.6392822,449.1836548,554.2643433z M274.8407288,355.2102966
		c0.0219116,0.7689819,0.3812256,1.4613342,0.7295837,1.973999c0,0,12.2098694,0.6484985,19.8867798,2.756134
		c0.3045349-1.0932312,0.7010803-2.4318848,1.2290955-4.0619202c0.3264465-1.0384827,0.7733765-1.9082947,1.2685242-2.692627
		c-0.0262756,0.0241089-0.0525818,0.0481873-0.0744629,0.0722961c-1.5949707-0.276062-5.5473633-0.4535217-9.9335327-0.4644775
		c-4.3840027-0.0131531-9.2017822,0.1401978-12.5319519,0.5345764
		C275.068573,354.0447388,274.8319702,354.7085571,274.8407288,355.2102966z M453.9400635,417.0396118
		c0.598114-0.2015686,1.2969971-0.5323792,1.776825-1.1348877c0.3089294-0.3943481,0.5192566-1.0647583,0.6726379-1.8403625
		c-4.8353271-4.6534424-15.0032959-12.1244202-17.8623962-13.607666c0,0-0.2672729,1.7658691-0.6331787,2.8065491
		c-0.5762024,1.6169128-1.058197,2.9226685-1.4788513,3.9742737
		C443.226593,410.3048096,449.687561,414.1279297,453.9400635,417.0396118z M504.8543396,343.3158875l-0.2607117,0.2081604
		c0,0-34.1889648,20.3556213-86.1373291,24.0736084c1.6650696,2.4691162,3.1329651,4.9141541,4.3642578,7.3088074
		c16.162262-0.9070129,32.521698-3.1526794,47.9784851-7.4402771c9.8831482-2.7408142,19.608551-6.2199707,28.8891907-10.5995483
		c9.3398132-4.4124451,18.499939-9.6859741,26.5537109-16.1863708c5.2537231-4.2393799,10.178894-8.8095703,14.6943359-13.8289185
		c6.2111816-6.9013367,11.8856201-15.1194153,14.9484863-23.957489c0,0,0.2497559-0.727356,0.2453613-0.7229919v-0.0021973
		C555.8825684,302.7536011,545.9906616,325.4710388,504.8543396,343.3158875z M541.4533081,449.3816528
		c-12.8605347,20.2110596-56.7289429,85.4318848-60.5542297,90.8894043
		c2.3464661,1.9608765,4.4672546,3.7617798,6.1104431,5.2537842c0.0635376,0.0526123,0.1884155,0.1358032,0.2651062,0.2015381
		c11.219574-16.2366943,58.674469-87.7301331,67.3744812-101.4823914h-0.0021973
		C550.3264771,446.0602417,545.9512329,447.7932434,541.4533081,449.3816528z M458.0874634,594.9799805
		c3.1066895,0.0153198,6.322937-0.4776001,8.7504578-1.4788818c3.349884-1.2399902,7.1291809-5.9658203,6.925415-9.1929932
		c0-0.7843628-0.1621399-1.4963989-0.5082703-2.2303467c-1.321106-2.7626953-4.1364441-4.6687622-6.0950928-5.6415405
		c-2.8678894,3.7485962-6.1783447,8.8314819-8.8446655,13.1936035c-1.1852722,1.9345093-2.254425,3.7332764-3.1351624,5.2164917
		C456.1287842,594.942749,457.0993652,594.9799805,458.0874634,594.9799805z M361.4359741,267.835083
		c2.6838684,1.1721191,5.3370361,2.4275208,7.8828735,3.8713074c3.8165588,2.1602173,7.9266663,4.708252,9.5128479,9.0462036
		c0.0131531,0.0394287,0.0175171,0.0766907,0.0438538,0.1183167c0.4272156,1.0932617,0.4666443,2.4537964,0.1708679,3.575531
		c0-0.1445923-0.0635376-0.3330078-0.1599121-0.5323792c-0.3461914-0.6835632-0.9464722-1.1743164-1.3320618-1.8140564
		c0-0.0131531-0.0153503-0.0263062-0.0394592-0.0526123c-0.8566589-0.9705505-1.776825-1.8688049-2.8591003-2.6027832v0.0438232
		l-0.0262756-0.0525818c0,0-0.8259583,2.894165-2.1185913,5.0302734c-0.736145,1.2268982-1.5227051,2.5852661-2.3508301,4.4541016
		c0,0.0263062-0.0109558,0.0525818-0.0241089,0.0788879c-1.6124878,4.1911926,0.2651062,8.6211548,0.7054749,8.6452637
		c0.5214539,0.041626,1.6278381-0.4666443,3.7223511-6.3470459c0.0525818-0.1358032,0.1577759-0.4140625,0.2278748-0.7207947
		c0.0525818-0.280426-0.0438232-0.7887268-0.1621399-1.2028198c0,0,0.0175171-0.0306702,0.0262756-0.0679016
		c0.2563477-0.9596252,1.4854126-0.8785706,2.2588196-0.7843628c0.2651062,0.0263062,0.5302124,0.0657349,0.7865295,0.1336365
		c0.4666443-1.1611633,1.0516052-2.7627258,1.3342285-4.1079102c0.8785706-3.2688293,0.7712097-7.8719177-3.0168457-12.2055054
		c-3.8034058-4.3357849-13.5835571-7.5651855-17.2402039-9.4055176c-3.6675415-1.8425598-6.9626465-10.6871948-6.5223083-16.7976227
		c0,0-0.3483276,3.4046631-0.3483276,6.8312378c0,1.3736877,0.0415955,2.7649078,0.188385,3.9239044
		c0.0788879,0.5871582,0.1862488,1.1173401,0.3067322,1.5730591
		C353.4589233,262.0839539,353.5794067,264.3800354,361.4359741,267.835083z M279.592804,267.9928284l0.0547791,0.0985718
		c-20.5331116-37.6768646-16.2937317-64.175766-16.2937317-64.175766s-0.2563171,0.7602386-0.2563171,0.7646179
		c-1.7264404,5.0828857-2.3771057,10.6346283-2.659729,15.9694519c-0.4776306,9.0287018,0.3680725,18.1077728,2.2807007,26.9392853
		c2.0287781,9.3814087,5.2756958,18.421051,9.2565613,27.1452332c4.0706787,8.927887,9.1053772,17.4022827,14.7118835,25.4516602
		c6.9035339,9.9138184,14.7798157,19.1418762,23.3199158,27.6841736c3.6653748,3.6653748,7.4468689,7.2102661,11.3291321,10.6477661
		c0.4754333,0.4206543,4.3620911,4.2875977,4.7498779,4.1035461c2.4231262-1.1546021,5.0675659-2.2215576,7.8828735-3.2008972
		l-1.1743164-1.0340881C294.2761841,304.3179016,279.592804,267.9928284,279.592804,267.9928284z M477.8887939,553.7582397
		c-6.1082153-5.402771-21.9067993-17.7440796-23.401001-20.4125977c-1.6124878-2.9073486-8.9213562-12.821167-18.9271545-14.8214722
		c0,0-0.1073303-0.0131226-0.2651062-0.0153198v0.0021973c-0.4819946-0.008728-1.463501,0.0985718-1.6475525,1.0669556
		c-0.1204834,0.7865601,0.2147217,1.5205078,1.4043884,1.8403931c1.1721497,0.3088989,4.8681641,0.6835327,8.9914551,4.5657959
		c4.1210632,3.8800659,5.5889587,9.0023804,5.5123291,13.3272095c-0.1073608,4.3226929,1.4262695,10.4177246,6.6712646,14.3547974
		c5.2669373,3.9348755,11.4824829,10.5776367,16.9400024,12.0981445c0.3308411,0.092041,0.6506958,0.1445923,0.9837341,0.1730347
		c3.6149597,0.3198853,7.0437317-2.935791,6.4960022-4.7651978c1.1896667,3.9501953,0.1095581,6.8181152-1.6650696,8.8731689
		c6.0578308,5.963623,8.9936218,12.7663574,7.0985107,18.8898926c-2.4165344,7.8718872-11.2064514,18.4517212-27.2832336,18.2370605
		c-11.4474792-0.1445923-18.1713257-3.3323364-21.1049194-5.1617432c0.0131226-0.0285034,0.9859009-2.2128296,1.0516052-2.3596191
		c-6.7107239,1.6124878-9.1623535-8.3254395-9.2674866-8.7636108c-3.750824,17.220459-11.0048523,17.5009155-12.9262695,17.2467651
		c-0.3089294-0.0438232-0.4841919-0.0942383-0.4841919-0.0942383s1.4416199,5.6306763,7.0437317,8.3276367
		c-2.5502014-0.7624512-5.3742676,0.1577148-6.9232483,2.5063477c-1.8951416,2.8547363-1.1064148,6.7107544,1.7505188,8.605835
		c2.8679199,1.8798218,6.7107544,1.1085815,8.6190186-1.7614746c1.877594-2.8547363,1.1064148-6.7106934-1.7636719-8.5905151
		c-0.1445618-0.0941772-0.2782288-0.1467896-0.422821-0.2278442c0.7580261,0.2804565,1.5314636,0.5323486,2.4384766,0.6813354
		c7.4709778,1.2400513,9.9247742-2.3617554,9.9247742-2.3617554s-0.5039063-1.0297241-0.8544312-2.4713745
		c0,0-7.3899231,5.2056274-15.5553894-3.0540771c0.2825928,0.0941772,2.9730225,1.0297241,7.6199341,0.2672729
		c6.9210205-1.0275269,7.8696899-3.203125,8.338562-3.6018677c0.0109558-0.0810547,0.0262756-0.1358032,0.0547485-0.2015381
		c5.9855042,3.2556763,12.6020508,4.7761841,22.0206909,4.9624023c10.5645447,0.1994019,20.6777039-3.1088867,26.6282043-8.296936
		c5.9373474-5.177124,12.9657288-16.1688232,10.3344421-27.7761841
		C493.1067505,565.3239746,480.7457275,555.8395996,477.8887939,553.7582397z M436.3208923,312.1503906
		c2.425293-4.1079407,6.5288696-13.6427307,6.5288696-13.6427307s-3.9370422-0.7755737-5.2384644-0.9355164
		c0,0-0.0218811,0.0350647-0.0635376,0.1051636c-0.5784302,1.0275269-5.2734985,9.3069153-6.9845886,11.0377502
		c0,0-0.0503845,0.0065613-0.1402283,0.0241089c1.0231628,0.589325,4.0006104,2.4537964,4.5067139,4.6512756
		c0,0-5.0018311,4.6008606-11.1604309,7.3132019c-6.1629944,2.7123413-15.48526,8.5905151-19.1615906,11.0399475
		c-1.3912048,0.92453-3.2797852,1.7242432-5.6700439,2.1624146c-1.4920044-2.6597595-6.6800537-5.9417114-13.3250427-8.1720581
		c-6.9495239-2.3355103-13.3316345-2.7868347-15.9343872-1.3408508c-1.8951416-1.9433289-3.0541077-3.8822632-3.6456604-5.5955505
		c-1.4460144-4.1670837-5.3457947-14.481842-8.6168213-20.3600159c-3.2775879-5.8803711-4.4934998-12.5669861-4.4934998-12.5669861
		c2.0900879-1.7505188,6.7939758-0.9355164,6.7939758-0.9355164c-0.0438538-0.3198853-0.0547791-0.7646179-0.0482178-1.2970276
		c0.0482178-3.4769287,1.0056152-10.7025146,1.141449-11.7169189c0.0087585-0.0766907,0.0175171-0.1182861,0.0175171-0.1182861
		c-1.1283264-0.6594849-4.7498779-2.4187622-4.7498779-2.4187622s-0.0131226,0.041626-0.0262756,0.1161194
		c-0.276062,1.1261292-2.4801025,10.2665405-2.9862061,14.707489c-0.5411377,4.725769,0.1862488,7.0218506,1.0713501,9.7757874
		c0.8807373,2.7495728,5.030304,14.5147095,6.051239,17.722168c0.1314697,0.4031372,0.2716675,0.9048462,0.4294128,1.4854431
		c1.1042175,4.0619202,3.0168762,11.9623108,6.8772278,16.1184387c4.3774109,4.7148132,8.6014404,6.8377991,13.8135986,8.5926819
		c0.0131226,0.0043945,0.0328674,0.0065918,0.0525818,0.0131531c0.0153503,0.0065613,0.0328674,0.0175171,0.04599,0.0197144
		c2.6049805,0.8719788,5.0741272,1.5226746,7.6791077,1.8162537c2.6049805,0.2936096,5.3545532,0.2256775,8.5203857-0.3330078
		c6.3842773-1.1348877,13.6931152-7.6922302,16.438324-9.6355591c2.7583618-1.9433289,13.1694946-8.8183899,15.5269165-10.4790649
		C431.9281311,317.6341858,433.8977356,316.2385864,436.3208923,312.1503906z M436.62323,376.3415222
		c-0.4140625-0.0854492-0.8544312,0.2387695-0.8544312,0.2387695c-4.5373535,3.709198-5.5627136,10.7025452-5.5955811,12.6174011
		c-0.0306702,1.9170227-5.6152649,14.284668-6.7172852,17.7112122c-0.04599,0.1402283-1.0012207,3.0804138-1.2225037,4.8681946
		c-0.3374023,2.7320251-0.2344055,11.0924988,13.3140869,15.8927612c12.4070435,4.390564,22.7634277-3.8384399,24.4328613-5.2713013
		c3.487915,0.2585144,6.0205994-1.5599365,7.2540894-2.7737122c0.5608521-0.5542908,0.8895264-0.9771423,0.8895264-0.9771423
		c-1.338623,4.3971558-4.1342163,5.4816284-5.8409424,5.7226257c-0.556488,0.0766907-1.0012512,0.0679321-1.2400513,0.0460205
		c0.037262,0.1139221,0.0503845,0.2015381,0.0766907,0.3023376c0.1971741,0.736145,0.1555481,1.1809082,0.1555481,1.1809082
		s0.4053345,0.1906128,1.1020508,0.2344055c0.9793396,0.0591431,2.55896-0.179657,4.5789795-1.7286377
		c0.3417664-0.2694702,0.602478-0.556488,0.8763428-0.8369141c-0.7887268,1.6672668-0.179657,3.6741333,1.4678955,4.5680237
		c1.702301,0.9267578,3.8384399,0.2892151,4.758606-1.4153137c0.9267578-1.697937,0.2913818-3.8362732-1.4153137-4.7564392
		c-1.2553711-0.6857605-2.7364197-0.5126648-3.7946167,0.2957458c1.0297241-1.7001343,1.1480408-3.4418945,1.0932617-4.5373535
		c-0.0087891-0.1862183-0.129303-1.0340881-0.1402283-1.0406799c-0.0153503,0.0131531-0.0328674,0.0197144-0.04599,0.0328674
		c-1.3934326,1.0450745-3.0256348,1.7286072-4.7871094,1.7286072c-0.6047058,0-1.2597656-0.0920105-1.8469238-0.2322388
		c-0.8215942-0.1993713-1.6037292-0.497345-2.3552246-0.8829346c-0.4732361-0.2453613-0.9398804-0.5082703-1.3846436-0.8084412
		c-0.2738647-0.184021-0.5477295-0.3833923-0.8303528-0.5937195l-0.0350647-0.0241089
		c-0.138031,0.6441345-0.3308411,1.2027893-0.6047058,1.5423889c-0.4907532,0.6090698-1.2597351,0.9399109-1.8556824,1.1107788
		c0.0131531,0.0043945,0.0262756,0.0153503,0.0394592,0.0262756c0.8938904,0.7164307,1.8118591,1.3496094,2.5808716,2.2127991
		c-7.6659546,7.3175964-17.9303284,7.3285522-23.8479309,4.4277954c-5.7861633-2.8371887-7.4884949-6.3338928-6.7567139-11.1363525
		c-1.5621033-0.3461609-3.069458-1.3123474-3.6325378-3.7201233c0.0503845,0.04599,0.1161194,0.0766907,0.1708984,0.1226807
		c1.3320618,1.0757141,3.5098267,1.4700928,4.8572083,0.1906128c1.2137756-1.1524048,2.1558228-3.0497131,3.0058899-5.0850525
		c0.7756042-1.8688354,1.4481812-3.7858887,2.3048401-5.6174622c0.3461609-0.7427368,0.5959473-1.5533447,0.7273865-2.3639526
		c0.3899536-2.2807312-0.092041-4.7060547-1.2159424-6.7195129c-1.2071533-2.1689758-1.8600769-5.1573792-0.8084412-8.2553101
		c1.0472412-3.073822,2.8153076-4.2525024,3.3214111-4.7323303c0.5170288-0.4732666,0.4863892-0.9465027,0.2147217-1.3101807
		C436.8992615,376.4444885,436.7634277,376.3699951,436.62323,376.3415222z"/>
	<path class="st4" d="M418.4891663,389.776062c1.597168,3.0124817-0.0438538,5.2209167-1.2795105,6.0950928h0.0022278
		c-10.6280518,6.6997681-34.3423462,12.8956299-57.1846313,5.2340393
		c-22.4194641-7.5279541-37.3132019-26.6917114-42.0827637-38.3582458
		c-0.5586853-1.2115479-0.7054749-4.4803772,2.5699463-5.9964905c0,0-2.0682068,0.2957764-3.9326782,1.8250122
		c0,0-0.1643066,0.2409973-0.3329773,0.740509c-2.5085754,7.4863281,12.6831055,39.3485107,41.366333,48.9775085
		c28.7007751,9.6311951,59.7414246-5.7620544,62.5391846-14.105011c0.1927795-0.606842,0.2300415-1.0954285,0.2300415-1.0954285
		C419.7336121,391.0490112,418.4891663,389.776062,418.4891663,389.776062z"/>
</g>
</svg>
