<?xml version="1.0" encoding="utf-8"?>
<!-- Generator: Adobe Illustrator 22.0.1, SVG Export Plug-In . SVG Version: 6.00 Build 0)  -->
<svg version="1.1" id="Layer_1" xmlns="http://www.w3.org/2000/svg" xmlns:xlink="http://www.w3.org/1999/xlink" x="0px" y="0px"
	 width="720px" height="720px" viewBox="0 0 720 720" style="enable-background:new 0 0 720 720;" xml:space="preserve">
<style type="text/css">
	.st0{fill:#FFFFFF;}
	.st1{fill:#002244;}
	.st2{fill:#4B92DB;}
	.st3{fill:#A5ACAF;}
	.st4{fill:#FFFFFE;}
	.st5{fill:#C60C30;}
</style>
<g>
	<path class="st0" d="M603.1085815,273.2283936c-27.2491455-27.0856934-61.2838745-44.4269409-98.5804443-50.2650757
		c-28.9771118-26.538208-61.0429688-32.1850586-83.0736084-32.1850586c-16.473877,0-27.6465454,3.182373-28.1144409,3.3175659
		l1.2035522,17.3677979c5.9915771,0.8665771,8.9752197,3.1758423,9.8587646,4.2863159
		c-1.0235596,0.2960815-2.9810181,0.6473999-6.5090332,0.6473999l-0.3834839,0.0026245
		c-9.6987305,0-18.9296265-6.4833374-26.7143555-12.8527832c-1.7305298-1.4022827-3.6584473-3.0084229-5.7393799-4.7410889
		c-9.0665283-7.5494995-21.4832153-17.8891602-33.1611938-24.3460083
		c-12.1710205-6.821167-27.262207-10.4265747-43.6430054-10.4265747c-21.0275269,0-41.9207153,5.9498291-58.831543,16.753418
		l-0.6557007,0.4187012c-13.3637085-12.901062-28.5783081-22.9136963-45.3961182-29.8562012
		c-18.8852539-7.7955933-39.8362427-11.7479858-62.2713013-11.7479858c-17.1807861,0-35.1347046,2.3105469-53.3634033,6.8681641
		l-32.619873,8.1556396l32.380249,9.0599976c32.4259644,9.0730591,53.5943604,27.722229,66.6184692,58.6893921
		c13.1658325,31.3049927,24.7768555,49.836731,49.6589355,61.0429077c-1.3122559-0.4525757-2.666626-0.9443359-4.0580444-1.4743652
		c-7.041626-2.7610474-31.1345215-14.6611938-45.5165405-51.8717041l-17.1982422,3.7080078
		c2.7770996,49.621582,13.5498047,79.1164551,37.206604,101.8284302
		c11.1914063,10.666626,30.6780396,21.1432495,61.335144,32.9742432c2.5905762,0.996582,5.111145,1.940979,7.5682373,2.8618774
		c4.2123413,1.5792236,8.1716919,3.0627441,11.9301147,4.6002197v16.1320801
		c0,0.7982788,0.1334839,19.8175049,11.7474976,42.2263794c10.3457642,19.961853,32.1272583,46.630127,77.3029175,61.6065063
		c7.3695068,11.656189,15.9003296,22.357605,25.3903809,31.8458862
		c33.8816528,33.8833618,79.0064087,52.543396,127.0618286,52.543396c48.0823364,0,93.1618652-18.7852173,126.9191895-52.8790894
		c33.9373169-34.104248,52.534729-79.2907715,52.3677368-127.2053223
		C655.8284912,352.1917725,637.1067505,307.0595703,603.1085815,273.2283936z M251.2666626,387.1073608l-3.4949341-5.0480347
		c4.4024048,2.47052,8.5582275,5.340271,12.5797729,8.9456177c3.4732056,3.0984497,5.151062,5.4229126,5.9594116,6.9047241
		C259.3979492,396.7348022,253.0915527,389.690979,251.2666626,387.1073608z M282.5621338,220.6575928
		c-4.9907227,0-11.2822876-1.4883423-15.0224609-3.5476074c-8.494812-5.095459-16.6673584-12.2679443-22.8341675-18.6778564
		c12.3171387,1.9788208,25.6051636,6.0768433,33.8851318,12.9597778c3.9428101,3.3018799,6.4794312,6.8585815,7.4733887,8.9591064
		C285.2578735,220.5171509,284.1047974,220.6575928,282.5621338,220.6575928z"/>
	<path class="st1" d="M596.8300171,279.5441895c-26.4821167-26.3231201-59.9842529-43.0741882-96.3580017-48.1798096
		c-47.3800049-45.3065948-104.6532593-28.7145233-104.6532593-28.7145233
		c12.1256714,1.7537994,20.2602844,9.0934448,17.0706787,17.0690765c-2.0734253,5.2646179-10.848877,5.5842285-14.995697,5.5842285
		c-12.7632446,0.1589966-23.9300842-7.6576385-32.703949-14.8366699
		c-9.2540283-7.4970245-24.0890808-20.7404938-37.6489563-28.2375336
		c-25.0479126-14.0384521-64.6096802-12.2830353-93.3257904,6.0628357
		c17.2296753,1.1161957,37.8095551,6.0612183,50.0926056,16.2724762
		c6.8594055,5.7432251,15.6332397,17.0690765,8.4558411,22.4942932c-6.2218323,4.6254272-21.6976929,2.234024-29.6749573-2.2340088
		c-12.2830353-7.338028-23.6104889-18.345871-30.3109131-26.3231049
		c-45.46875-53.6034393-109.9194336-56.6340637-162.8836517-43.3921967
		c34.7773438,9.7310333,58.0698547,29.6733246,72.4279022,63.8130798
		c14.3580627,34.1397705,25.5265198,48.8174133,49.1370239,58.0698547
		c14.8350677,5.7432251,18.8244934,6.8594055,17.7066803,13.4008484c-1.7554169,9.572052-19.3030701,4.9466248-32.7023315-0.1589966
		c-16.2740936-6.3808289-37.8095703-23.9301147-50.5728302-56.9520264
		c2.3930206,42.7545776,10.5308533,72.9064941,34.4593506,95.8793945
		c10.2096558,9.7310486,29.0357361,19.7817078,58.3878479,31.1091614
		c18.6654816,7.1790161,33.6611481,11.6454468,47.5422058,24.0890808
		c16.2724915,14.5170593,9.411438,24.2496948-1.4374084,22.3337097
		C252.5593567,404.6199341,243.944519,392.1763,243.944519,392.1763s0,69.5562744,85.9877625,96.3580322
		c7.1790466,11.8060303,15.7922668,22.9729004,25.8445129,33.0235291
		c32.2237244,32.2253418,75.138916,49.9351807,120.7651062,49.9351807s88.5397644-17.8688354,120.6061096-50.2547607
		c32.2254028-32.3843689,49.9336548-75.2995605,49.7746582-120.9241333
		C646.9226685,354.6831055,629.2143555,311.7695313,596.8300171,279.5441895z"/>
	<path class="st2" d="M587.7350464,288.1590576c-25.6838989-25.6838989-58.5484619-41.3188477-93.9650269-45.3066254
		c-30.4714661-30.4715576-61.1004639-29.0356903-61.1004639-29.0356903
		c13.4008484,8.4557648,6.539856,27.1196899-23.292511,31.1091309c-29.5126648,4.1484375-66.8436584-5.902298-85.1895142-27.1197968
		c-18.8261414-21.8566132-33.0235596-22.9728241-33.0235596-22.9728241
		c16.2724915,10.2096405,17.3886108,22.3352661,27.2786865,40.9990997
		c9.8900757,18.6654968,30.3109131,25.365921,48.0191956,26.482132c18.6639404,1.2767944,19.144165,9.7326355,4.1468506,18.6654968
		c-16.431488,9.7310791-30.9501343,0.4785767-41.6383972-9.8916321
		c-16.7510681-16.4315033-33.3414612-19.6227112-56.3143921-19.3030548
		c-22.9729462,0.3195648-53.2838593,3.3502045-78.9677734-6.2218628
		c-25.6839142-9.5719757-42.5924072-43.3937683-42.5924072-43.3937683
		c12.7616272,44.8295441,40.84021,66.0470428,67.0026855,71.1511078
		c34.4593353,6.859436,58.3894958,14.995636,73.0671082,26.8016968
		c14.1975098,11.6454163,21.8551636,23.1319275,27.278717,39.0847778
		c4.148407,12.2830505,4.9450684,28.5571289,0.7982178,29.5126953c-4.7860107,1.1162109-5.7432251-5.423645-11.3274231-16.9100647
		c-6.2218628-12.6026306-13.559845-22.4942627-28.5555725-30.4715881
		c-20.2602844-10.847168-40.0435638-10.2096252-60.1432648-9.8899536
		c-15.9544067,0.1589966-25.3658295-1.5964661-25.3658295-1.5964661s0.6359863,2.2340088,26.8016968,7.9772339
		c29.0341339,6.5414124,57.1126099,22.9729004,75.7781067,62.8543396
		c15.9545288,33.9806824,7.6592102,57.912384-27.5999146,47.0635376c0,0,16.4315186,36.5327759,70.1939087,49.6156311
		c6.8594055,12.124054,15.6348267,23.6105652,25.6854858,33.8201904
		c29.8323364,29.8339233,69.3956604,46.2654419,111.5126343,46.2654419c42.1186523,0,81.6804199-16.4299316,111.5143433-46.2654419
		c29.8323364-29.83078,46.1047363-69.395752,46.1047363-111.5127563
		C634.0004883,357.5547485,617.5689697,317.991333,587.7350464,288.1590576z M476.22229,549.7921753
		c-40.0419617,0-77.6908569-15.6333008-106.0889893-44.0314331c-28.394928-28.3964844-43.8707581-66.0470276-43.8707581-106.0890198
		s15.6331787-77.6925354,43.8707581-106.0891113c28.3981323-28.2359009,66.0470276-43.8707581,106.0889893-43.8707581
		c40.0436401,0,77.6925659,15.6333008,106.0906982,43.8707581c28.3948975,28.3965759,43.8708496,66.0455627,43.8707275,106.0891113
		C626.1837158,482.4699097,558.8599243,549.7921753,476.22229,549.7921753z"/>
	<polygon class="st3" points="370.7724609,344.7930603 374.1226807,354.5241089 474.627533,354.5241089 442.7201843,372.0733948 
		476.3812866,520.1172485 476.3812866,354.5241089 578.0039673,354.5241089 581.354187,344.7930603 	"/>
	<path class="st4" d="M582.3129883,293.5826111C553.914856,265.3451538,516.2659302,249.711853,476.22229,249.711853
		c-40.0419617,0-77.6908569,15.6348572-106.0889893,43.8707581
		c-28.2375793,28.3965759-43.8707581,66.0471191-43.8707581,106.0891113s15.4758301,77.6925354,43.8707581,106.0890198
		c28.3981323,28.3981323,66.0470276,44.0314331,106.0889893,44.0314331
		c82.6376343,0,149.9614258-67.3222656,149.9614258-150.1204529
		C626.1838379,359.6281738,610.7078857,321.979187,582.3129883,293.5826111z M476.5419617,536.869873
		c-75.6191101,0.1574097-137.0375671-61.1003723-137.1982422-136.8801575
		c-0.1589966-75.7781067,61.1004944-137.1965637,136.8785706-137.3572388
		c75.6192017-0.1589966,137.0376587,61.2611389,137.1982422,136.880249
		C613.4205322,475.2892761,552.1594849,536.7092896,476.5419617,536.869873z M374.2085876,354.5240784H474.627533
		l-31.8749084,17.5314636l-0.0324402-0.1427307H402.199646l-13.4008484,23.9300537L374.2085876,354.5240784z
		 M577.9178467,354.5240784L563.326355,395.842865l-13.2402954-23.9300537h-39.8829651l-33.8218079,148.0469666V354.5240784
		H577.9178467z"/>
	<path class="st5" d="M273.9342651,376.2185669c-16.7510986-23.130249-43.0725555-28.7144775-78.9677734-38.2865295
		c-51.3694-13.7188416-51.8479614-58.707489-51.8479614-58.707489s7.6576385,31.1091309,67.4829102,43.2331848
		C269.9464722,334.5818176,273.9359131,376.2202454,273.9342651,376.2185669z M165.7733612,203.2874451
		c20.897934,37.6489868,60.9399109,45.1476288,90.2952728,36.8523407c0,0-38.6062012-0.9572144-59.6647034-38.447113
		c-21.6960449-38.288208-50.0941772-48.9764099-84.233963-42.5956421
		C112.1699677,159.0970306,140.7255402,158.2989044,165.7733612,203.2874451z M329.6127625,194.6725922
		c-21.8551636-19.1440582-52.1660767-18.6654968-67.6419373-9.8916473c0,0,25.8445129-5.2645416,48.9764404,13.4008484
		c18.9850464,15.3152924,31.427124,27.4393616,61.8986816,28.2375793
		C358.6484375,220.9957275,349.076355,211.7416382,329.6127625,194.6725922z M572.8983154,447.0516968l12.6043091-22.0140381
		l-22.9729004,10.5291748l-17.0706177-18.8260498l2.871521,25.2069092l-23.131897,10.5292053l24.7266846,4.9449768
		l2.7109985,25.2069397l12.4436035-22.0172729l24.8873901,5.1072083L572.8983154,447.0516968z M483.8799438,292.7844849
		l-7.9772034-24.0891418l-7.6576538,24.0891418l-25.3659058,0.3195801l20.5782471,14.6776123l-7.6576233,24.0891418
		l20.4192505-15.1562805l20.5799561,14.836731l-7.9773254-23.9301453l20.4209595-14.8366394H483.8799438z M406.5070801,416.5817871
		l-16.7510681,18.98349l-23.1319275-10.2096252l12.9223022,21.8550415l-16.9100647,18.98349l24.7266846-5.5842285
		l12.7632141,21.85672l2.3914185-25.2069092l24.728363-5.423645l-23.2926025-10.0506592L406.5070801,416.5817871z"/>
</g>
</svg>
