<?xml version="1.0" encoding="utf-8"?>
<!-- Generator: Adobe Illustrator 22.0.1, SVG Export Plug-In . SVG Version: 6.00 Build 0)  -->
<svg version="1.1" id="Layer_1" xmlns="http://www.w3.org/2000/svg" xmlns:xlink="http://www.w3.org/1999/xlink" x="0px" y="0px"
	 width="720px" height="720px" viewBox="0 0 720 720" style="enable-background:new 0 0 720 720;" xml:space="preserve">
<style type="text/css">
	.st0{fill:#FFB612;}
	.st1{fill:#5A1414;}
</style>
<g>
	<polygon class="st0" points="478.4768066,183.4051361 499.1911316,246.9120941 483.7795715,294.1052856 447.8023071,183.4051361 
		286.5309753,183.4051361 257.6037598,272.1397705 228.7916412,183.4051361 36,183.4051361 96.5648575,281.7539673 
		179.5311127,536.5948486 335.6467285,536.5948486 367.0207214,440.2576904 398.3078613,536.5948486 569.1057739,536.5948486 
		684,183.4051361 	"/>
	<path class="st1" d="M471.3688354,332.2680054L413.980011,508.6018677l-97.9693604-301.6271973h114.6626282
		L471.3688354,332.2680054z M510.8421631,206.9746857l12.992981,40.0844727l-86.6947937,266.3494873h114.5734558
		l99.8049927-306.4338989H510.8421631V206.9746857z M211.6617889,206.9746857H78.2112274l39.9099731,64.7871246
		l69.9154053,214.4081726l57.1564178-175.9254456L211.6617889,206.9746857z M203.8260956,513.4086304h114.7479095
		l36.2112122-111.2533875l-57.3591309-176.1296692L203.8260956,513.4086304z"/>
</g>
</svg>
